<?xml version="1.0" encoding="UTF-8"?>
<svg xmlns="http://www.w3.org/2000/svg" xmlns:xlink="http://www.w3.org/1999/xlink" width="197px" height="116px" viewBox="0 0 197 116" version="1.1">
	<g id="Page-1" stroke="none" stroke-width="1" fill="none" fill-rule="evenodd">
		<g id="Group" fill="#000000" fill-rule="nonzero">
			<path d="M15.6,1 L16.0343936,1.0039239 C20.0557174,1.07717004 23.1525862,2.17586207 25.325,4.3 C27.575,6.5 28.7,9.6 28.7,13.6 C28.7,17.6 27.575,20.7 25.325,22.9 C23.075,25.1 19.8333333,26.2 15.6,26.2 L15.6,26.2 L9.8,26.2 L9.8,38.7 L-5.32907052e-15,38.7 L-5.32907052e-15,1 L15.6,1 Z M13.05,8.9 L9.8,8.9 L9.8,18.3 L13.05,18.3 C16.65,18.3 18.45,16.7333333 18.45,13.6 C18.45,10.4666667 16.65,8.9 13.05,8.9 L13.05,8.9 Z" id="Combined-Shape"/>
			<path d="M53.05,0 C56.0833333,0 58.8833333,0.508333333 61.45,1.525 C64.0166667,2.54166667 66.225,3.95 68.075,5.75 C69.925,7.55 71.3666667,9.65833333 72.4,12.075 C73.4333333,14.4916667 73.95,17.1 73.95,19.9 C73.95,22.7 73.4333333,25.3083333 72.4,27.725 C71.3666667,30.1416667 69.925,32.25 68.075,34.05 C66.225,35.85 64.0166667,37.2583333 61.45,38.275 C58.8833333,39.2916667 56.0833333,39.8 53.05,39.8 C49.9833333,39.8 47.175,39.2916667 44.625,38.275 C42.075,37.2583333 39.8833333,35.85 38.05,34.05 C36.2166667,32.25 34.7833333,30.1416667 33.75,27.725 C32.7166667,25.3083333 32.2,22.7 32.2,19.9 C32.2,17.1 32.7166667,14.4916667 33.75,12.075 C34.7833333,9.65833333 36.2166667,7.55 38.05,5.75 C39.8833333,3.95 42.075,2.54166667 44.625,1.525 C47.175,0.508333333 49.9833333,0 53.05,0 Z M53.05,9.5 C51.6166667,9.5 50.2583333,9.75833333 48.975,10.275 C47.6916667,10.7916667 46.5666667,11.5166667 45.6,12.45 C44.6333333,13.3833333 43.8666667,14.4833333 43.3,15.75 C42.7333333,17.0166667 42.45,18.4 42.45,19.9 C42.45,21.4 42.7333333,22.7833333 43.3,24.05 C43.8666667,25.3166667 44.6333333,26.4166667 45.6,27.35 C46.5666667,28.2833333 47.6916667,29.0083333 48.975,29.525 C50.2583333,30.0416667 51.6166667,30.3 53.05,30.3 C54.4833333,30.3 55.8416667,30.0416667 57.125,29.525 C58.4083333,29.0083333 59.5416667,28.2833333 60.525,27.35 C61.5083333,26.4166667 62.2833333,25.3166667 62.85,24.05 C63.4166667,22.7833333 63.7,21.4 63.7,19.9 C63.7,18.4 63.4166667,17.0166667 62.85,15.75 C62.2833333,14.4833333 61.5083333,13.3833333 60.525,12.45 C59.5416667,11.5166667 58.4083333,10.7916667 57.125,10.275 C55.8416667,9.75833333 54.4833333,9.5 53.05,9.5 Z" id="Combined-Shape"/>
			<path d="M77.5598262,0.759696656 L77.706,1.04969666 L85.85,1.05 L92.35,25.4 L100.35,1.05 L108.15,1.05 L116.15,25.4 L122.65,1.05 L132.9,1.05 L121.65,38.75 L111.65,38.75 L104.25,16.9 L96.854,38.7386967 L109.885829,64.3888059 L100.928607,65.4886145 L114.017471,115.16942 L81.1136532,51.6069801 L90.072395,50.5069849 L87.115,38.7496967 L86.85,38.75 L75.6,1.05 L77.632,1.04969666 L77.5598262,0.759696656 Z" id="Combined-Shape"/>
			<polygon id="Path" points="158.3 38.75 158.3 30.45 146.65 30.45 146.65 23.95 157.65 23.95 157.65 15.65 146.65 15.65 146.65 9.35 158.3 9.35 158.3 1.05 136.85 1.05 136.85 38.75"/>
			<path d="M180.6,1.05 L181.079882,1.05547337 C182.980473,1.09926036 184.653846,1.40576923 186.1,1.975 C187.666667,2.59166667 188.958333,3.43333333 189.975,4.5 C190.991667,5.56666667 191.758333,6.8 192.275,8.2 C192.791667,9.6 193.05,11.1 193.05,12.7 C193.05,15.5666667 192.358333,17.8916667 190.975,19.675 C189.591667,21.4583333 187.55,22.6666667 184.85,23.3 L184.85,23.3 L196.7,38.75 L184.5,38.75 L175.15,24.25 L175.15,38.75 L165.35,38.75 L165.35,1.05 L180.6,1.05 Z M177,8.6 L175.15,8.6 L175.15,17.9 L177,17.9 C178.933333,17.9 180.416667,17.5 181.45,16.7 C182.483333,15.9 183,14.75 183,13.25 C183,11.75 182.483333,10.6 181.45,9.8 C180.416667,9 178.933333,8.6 177,8.6 L177,8.6 Z" id="Combined-Shape"/>
			<path d="M16.45,89.75 C22.0166667,89.75 26.1416667,88.4 28.825,85.7 C31.5083333,83 32.85,78.7166667 32.85,72.85 L32.85,72.85 L32.85,51 L23.1,51 L23.1,71.5 C23.1,72.6 23.0583333,73.725 22.975,74.875 C22.8916667,76.025 22.6333333,77.0666667 22.2,78 C21.7666667,78.9333333 21.1083333,79.6916667 20.225,80.275 C19.3416667,80.8583333 18.0833333,81.15 16.45,81.15 C14.8166667,81.15 13.55,80.8583333 12.65,80.275 C11.75,79.6916667 11.0916667,78.9333333 10.675,78 C10.2583333,77.0666667 10.0083333,76.025 9.925,74.875 C9.84166667,73.725 9.8,72.6 9.8,71.5 L9.8,71.5 L9.8,51 L0,51 L0,72.85 C0,78.7166667 1.35,83 4.05,85.7 C6.75,88.4 10.8833333,89.75 16.45,89.75 Z" id="Path"/>
			<polygon id="Path" points="50.55 88.7 50.55 65.65 68.65 88.7 78.4 88.7 78.4 51 68.65 51 68.65 74.05 50.55 51 40.75 51 40.75 88.7"/>
			<polygon id="Path" points="130.3 88.7 130.3 59.3 138.35 59.3 138.35 51 112.45 51 112.45 59.3 120.5 59.3 120.5 88.7"/>
		</g>
	</g>
</svg>
