M48
; DRILL file {KiCad (5.1.5-0-10_14)} date Saturday, 25 April 2020 at 01:09:16
; FORMAT={-:-/ absolute / metric / decimal}
; #@! TF.CreationDate,2020-04-25T01:09:16+02:00
; #@! TF.GenerationSoftware,Kicad,Pcbnew,(5.1.5-0-10_14)
; #@! TF.FileFunction,Plated,1,4,PTH
FMAT,2
METRIC
T1C0.400
T2C0.600
T3C1.500
T4C1.600
T5C4.300
%
G90
G05
T1
X54.0Y-124.5
X54.0Y-128.5
X56.5Y-124.5
X56.5Y-128.5
X60.0Y-95.0
X60.0Y-106.0
X62.5Y-100.5
X63.0Y-104.0
X64.5Y-106.0
X64.5Y-127.0
X65.0Y-88.5
X65.0Y-92.5
X65.0Y-95.0
X67.5Y-100.5
X68.0Y-104.0
X69.5Y-103.45
X71.0Y-87.0
X73.0Y-92.0
X73.0Y-100.0
X73.5Y-106.0
X74.0Y-127.0
X74.5Y-94.5
X74.5Y-103.45
X77.5Y-107.0
X78.0Y-100.0
X82.5Y-96.5
X82.5Y-99.0
X82.5Y-101.5
X83.5Y-127.0
X85.0Y-95.0
X93.0Y-96.0
X93.0Y-97.0
X93.0Y-127.0
X94.5Y-95.5
X102.5Y-127.0
X106.5Y-87.5
X112.0Y-92.0
X112.0Y-127.0
X115.0Y-87.5
X120.5Y-92.0
X121.5Y-127.0
X123.5Y-87.5
X129.0Y-92.0
X132.0Y-87.5
X137.5Y-92.0
X140.5Y-87.5
X142.5Y-127.0
X146.0Y-92.0
X149.0Y-120.5
X149.0Y-123.0
X149.0Y-125.5
X149.0Y-128.0
X153.0Y-120.5
X153.0Y-123.0
X154.0Y-128.5
X155.5Y-130.5
X156.0Y-133.0
X158.5Y-123.0
X158.5Y-125.5
X162.5Y-123.0
X162.5Y-125.5
X162.5Y-128.0
X164.0Y-92.0
X169.0Y-127.0
X169.5Y-87.5
X172.5Y-92.0
X178.0Y-87.5
X178.5Y-127.0
X181.0Y-92.0
X186.5Y-87.5
X188.0Y-127.0
X189.5Y-92.0
X195.0Y-87.5
X198.0Y-92.0
X203.5Y-87.5
T2
X61.0Y-119.0
X61.0Y-121.0
X61.0Y-123.0
X61.0Y-126.5
X61.0Y-128.5
X68.0Y-119.0
X68.0Y-121.0
X68.0Y-123.0
X68.0Y-126.5
X68.0Y-128.5
X68.5Y-132.5
X68.5Y-134.5
X70.5Y-119.0
X70.5Y-121.0
X70.5Y-123.0
X70.5Y-126.5
X70.5Y-128.5
X77.5Y-119.0
X77.5Y-121.0
X77.5Y-123.0
X77.5Y-126.5
X77.5Y-128.5
X78.0Y-132.5
X78.0Y-134.5
X80.0Y-119.0
X80.0Y-121.0
X80.0Y-123.0
X80.0Y-126.5
X80.0Y-128.5
X87.0Y-119.0
X87.0Y-121.0
X87.0Y-123.0
X87.0Y-126.5
X87.0Y-128.5
X87.5Y-102.0
X87.5Y-132.5
X87.5Y-134.5
X89.0Y-102.0
X89.5Y-119.0
X89.5Y-121.0
X89.5Y-123.0
X89.5Y-126.5
X89.5Y-128.5
X92.5Y-99.0
X96.5Y-119.0
X96.5Y-121.0
X96.5Y-123.0
X96.5Y-126.5
X96.5Y-128.5
X97.0Y-132.5
X97.0Y-134.5
X97.5Y-94.5
X98.5Y-132.5
X98.5Y-134.5
X99.0Y-119.0
X99.0Y-121.0
X99.0Y-123.0
X99.0Y-126.5
X99.0Y-128.5
X99.5Y-94.5
X106.0Y-119.0
X106.0Y-121.0
X106.0Y-123.0
X106.0Y-126.5
X106.0Y-128.5
X108.0Y-132.5
X108.0Y-134.5
X108.5Y-119.0
X108.5Y-121.0
X108.5Y-123.0
X108.5Y-126.5
X108.5Y-128.5
X109.5Y-140.5
X114.0Y-136.5
X115.5Y-119.0
X115.5Y-121.0
X115.5Y-123.0
X115.5Y-126.5
X115.5Y-128.5
X117.0Y-138.5
X118.0Y-119.0
X118.0Y-121.0
X118.0Y-123.0
X118.0Y-126.5
X118.0Y-128.5
X119.0Y-138.5
X121.0Y-138.5
X125.0Y-119.0
X125.0Y-121.0
X125.0Y-123.0
X125.0Y-126.5
X125.0Y-128.5
X125.5Y-132.5
X125.5Y-134.5
X127.5Y-124.5
X127.5Y-126.5
X127.5Y-128.5
X129.0Y-124.5
X129.0Y-126.5
X129.0Y-128.5
X131.0Y-126.5
X132.0Y-118.5
X133.0Y-126.5
X135.0Y-124.5
X135.0Y-126.5
X135.0Y-128.5
X136.5Y-124.5
X136.5Y-126.5
X136.5Y-128.5
X139.0Y-119.0
X139.0Y-121.0
X139.0Y-123.0
X139.0Y-126.5
X139.0Y-128.5
X146.0Y-119.0
X146.0Y-121.0
X146.0Y-123.0
X146.0Y-126.5
X146.0Y-128.5
X146.5Y-132.5
X146.5Y-134.5
X154.0Y-111.0
X154.0Y-119.0
X156.0Y-111.0
X156.0Y-119.0
X165.0Y-132.5
X165.0Y-134.5
X165.5Y-119.0
X165.5Y-121.0
X165.5Y-123.0
X165.5Y-126.5
X165.5Y-128.5
X172.5Y-119.0
X172.5Y-121.0
X172.5Y-123.0
X172.5Y-126.5
X172.5Y-128.5
X174.5Y-132.5
X174.5Y-134.5
X175.0Y-119.0
X175.0Y-121.0
X175.0Y-123.0
X175.0Y-126.5
X175.0Y-128.5
X182.0Y-119.0
X182.0Y-121.0
X182.0Y-123.0
X182.0Y-126.5
X182.0Y-128.5
X184.5Y-119.0
X184.5Y-121.0
X184.5Y-123.0
X184.5Y-126.5
X184.5Y-128.5
X191.5Y-119.0
X191.5Y-121.0
X191.5Y-123.0
X191.5Y-126.5
X191.5Y-128.5
X192.0Y-132.5
X192.0Y-134.5
X194.0Y-124.5
X194.0Y-126.5
X194.0Y-128.5
X195.5Y-124.5
X195.5Y-126.5
X195.5Y-128.5
X197.5Y-126.5
X198.5Y-118.5
X199.5Y-126.5
X201.5Y-124.5
X201.5Y-126.5
X201.5Y-128.5
X203.0Y-124.5
X203.0Y-126.5
X203.0Y-128.5
X151.775Y-90.0
X152.72Y-87.72
X152.72Y-92.28
X155.0Y-86.775
X155.0Y-93.225
X157.28Y-87.72
X157.28Y-92.28
X158.225Y-90.0
X51.775Y-135.0
X52.72Y-132.72
X52.72Y-137.28
X55.0Y-131.775
X55.0Y-138.225
X57.28Y-132.72
X57.28Y-137.28
X58.225Y-135.0
X151.775Y-143.5
X152.72Y-141.22
X152.72Y-145.78
X155.0Y-140.275
X155.0Y-146.725
X157.28Y-141.22
X157.28Y-145.78
X158.225Y-143.5
X206.775Y-135.0
X207.72Y-132.72
X207.72Y-137.28
X210.0Y-131.775
X210.0Y-138.225
X212.28Y-132.72
X212.28Y-137.28
X213.225Y-135.0
X206.775Y-90.0
X207.72Y-87.72
X207.72Y-92.28
X210.0Y-86.775
X210.0Y-93.225
X212.28Y-87.72
X212.28Y-92.28
X213.225Y-90.0
X86.775Y-90.0
X87.72Y-87.72
X87.72Y-92.28
X90.0Y-86.775
X90.0Y-93.225
X92.28Y-87.72
X92.28Y-92.28
X93.225Y-90.0
X86.775Y-143.5
X87.72Y-141.22
X87.72Y-145.78
X90.0Y-140.275
X90.0Y-146.725
X92.28Y-141.22
X92.28Y-145.78
X93.225Y-143.5
X51.775Y-90.0
X52.72Y-87.72
X52.72Y-92.28
X55.0Y-86.775
X55.0Y-93.225
X57.28Y-87.72
X57.28Y-92.28
X58.225Y-90.0
T3
X77.095Y-90.27
X78.365Y-87.73
X79.635Y-90.27
X80.905Y-87.73
X62.25Y-143.49
X62.25Y-146.99
X65.75Y-143.49
X65.75Y-146.99
X69.25Y-143.49
X69.25Y-146.99
X72.75Y-143.49
X72.75Y-146.99
X171.75Y-143.49
X171.75Y-146.99
X175.25Y-143.49
X175.25Y-146.99
X178.75Y-143.49
X178.75Y-146.99
X182.25Y-143.49
X182.25Y-146.99
X185.75Y-143.49
X185.75Y-146.99
X189.25Y-143.49
X189.25Y-146.99
X192.75Y-143.49
X192.75Y-146.99
X196.25Y-143.49
X196.25Y-146.99
X199.75Y-143.49
X199.75Y-146.99
X203.25Y-143.49
X203.25Y-146.99
X106.75Y-143.49
X106.75Y-146.99
X110.25Y-143.49
X110.25Y-146.99
X113.75Y-143.49
X113.75Y-146.99
X117.25Y-143.49
X117.25Y-146.99
X120.75Y-143.49
X120.75Y-146.99
X124.25Y-143.49
X124.25Y-146.99
X127.75Y-143.49
X127.75Y-146.99
X131.25Y-143.49
X131.25Y-146.99
X134.75Y-143.49
X134.75Y-146.99
X138.25Y-143.49
X138.25Y-146.99
T4
X132.3Y-96.27
X132.3Y-109.73
X135.7Y-96.27
X135.7Y-109.73
X123.8Y-96.27
X123.8Y-109.73
X127.2Y-96.27
X127.2Y-109.73
X115.3Y-96.27
X115.3Y-109.73
X118.7Y-96.27
X118.7Y-109.73
X199.8Y-96.27
X199.8Y-109.73
X203.2Y-96.27
X203.2Y-109.73
X182.8Y-96.27
X182.8Y-109.73
X186.2Y-96.27
X186.2Y-109.73
X149.92Y-97.92
X149.92Y-100.46
X149.92Y-103.0
X149.92Y-105.54
X149.92Y-108.08
X152.46Y-97.92
X152.46Y-108.08
X155.0Y-97.92
X155.0Y-108.08
X157.54Y-97.92
X157.54Y-108.08
X160.08Y-97.92
X160.08Y-100.46
X160.08Y-103.0
X160.08Y-105.54
X160.08Y-108.08
X191.3Y-96.27
X191.3Y-109.73
X194.7Y-96.27
X194.7Y-109.73
X165.8Y-96.27
X165.8Y-109.73
X169.2Y-96.27
X169.2Y-109.73
X140.8Y-96.27
X140.8Y-109.73
X144.2Y-96.27
X144.2Y-109.73
X106.8Y-96.27
X106.8Y-109.73
X110.2Y-96.27
X110.2Y-109.73
X174.3Y-96.27
X174.3Y-109.73
X177.7Y-96.27
X177.7Y-109.73
T5
X55.0Y-90.0
X155.0Y-90.0
X55.0Y-135.0
X155.0Y-143.5
X210.0Y-135.0
X210.0Y-90.0
X90.0Y-90.0
X90.0Y-143.5
T0
M30
