G04 #@! TF.GenerationSoftware,KiCad,Pcbnew,(5.1.4-0-10_14)*
G04 #@! TF.CreationDate,2019-12-14T17:20:14+01:00*
G04 #@! TF.ProjectId,PowerUnit,506f7765-7255-46e6-9974-2e6b69636164,A*
G04 #@! TF.SameCoordinates,Original*
G04 #@! TF.FileFunction,Copper,L4,Bot*
G04 #@! TF.FilePolarity,Positive*
%FSLAX46Y46*%
G04 Gerber Fmt 4.6, Leading zero omitted, Abs format (unit mm)*
G04 Created by KiCad (PCBNEW (5.1.4-0-10_14)) date 2019-12-14 17:20:14*
%MOMM*%
%LPD*%
G04 APERTURE LIST*
%ADD10C,0.900000*%
%ADD11C,8.600000*%
%ADD12C,2.700000*%
%ADD13C,2.300000*%
%ADD14O,1.700000X1.700000*%
%ADD15R,1.700000X1.700000*%
%ADD16C,1.300000*%
%ADD17C,0.800000*%
%ADD18C,0.800000*%
%ADD19C,1.800000*%
%ADD20C,0.300000*%
%ADD21C,0.254000*%
G04 APERTURE END LIST*
D10*
X212280419Y-132719581D03*
X210000000Y-131775000D03*
X207719581Y-132719581D03*
X206775000Y-135000000D03*
X207719581Y-137280419D03*
X210000000Y-138225000D03*
X212280419Y-137280419D03*
X213225000Y-135000000D03*
D11*
X210000000Y-135000000D03*
D10*
X212280419Y-87719581D03*
X210000000Y-86775000D03*
X207719581Y-87719581D03*
X206775000Y-90000000D03*
X207719581Y-92280419D03*
X210000000Y-93225000D03*
X212280419Y-92280419D03*
X213225000Y-90000000D03*
D11*
X210000000Y-90000000D03*
D10*
X157280419Y-141219581D03*
X155000000Y-140275000D03*
X152719581Y-141219581D03*
X151775000Y-143500000D03*
X152719581Y-145780419D03*
X155000000Y-146725000D03*
X157280419Y-145780419D03*
X158225000Y-143500000D03*
D11*
X155000000Y-143500000D03*
D10*
X157280419Y-87719581D03*
X155000000Y-86775000D03*
X152719581Y-87719581D03*
X151775000Y-90000000D03*
X152719581Y-92280419D03*
X155000000Y-93225000D03*
X157280419Y-92280419D03*
X158225000Y-90000000D03*
D11*
X155000000Y-90000000D03*
D10*
X92280419Y-141219581D03*
X90000000Y-140275000D03*
X87719581Y-141219581D03*
X86775000Y-143500000D03*
X87719581Y-145780419D03*
X90000000Y-146725000D03*
X92280419Y-145780419D03*
X93225000Y-143500000D03*
D11*
X90000000Y-143500000D03*
D10*
X92280419Y-87719581D03*
X90000000Y-86775000D03*
X87719581Y-87719581D03*
X86775000Y-90000000D03*
X87719581Y-92280419D03*
X90000000Y-93225000D03*
X92280419Y-92280419D03*
X93225000Y-90000000D03*
D11*
X90000000Y-90000000D03*
D10*
X57280419Y-132719581D03*
X55000000Y-131775000D03*
X52719581Y-132719581D03*
X51775000Y-135000000D03*
X52719581Y-137280419D03*
X55000000Y-138225000D03*
X57280419Y-137280419D03*
X58225000Y-135000000D03*
D11*
X55000000Y-135000000D03*
D10*
X57280419Y-87719581D03*
X55000000Y-86775000D03*
X52719581Y-87719581D03*
X51775000Y-90000000D03*
X52719581Y-92280419D03*
X55000000Y-93225000D03*
X57280419Y-92280419D03*
X58225000Y-90000000D03*
D11*
X55000000Y-90000000D03*
D12*
X203200000Y-109730000D03*
X199800000Y-109730000D03*
X199800000Y-96270000D03*
X203200000Y-96270000D03*
X135700000Y-109730000D03*
X132300000Y-109730000D03*
X132300000Y-96270000D03*
X135700000Y-96270000D03*
D13*
X171750000Y-143490000D03*
X175250000Y-143490000D03*
X178750000Y-143490000D03*
X182250000Y-143490000D03*
X185750000Y-143490000D03*
X189250000Y-143490000D03*
X192750000Y-143490000D03*
X196250000Y-143490000D03*
X199750000Y-143490000D03*
X203250000Y-143490000D03*
X171750000Y-146990000D03*
X175250000Y-146990000D03*
X178750000Y-146990000D03*
X182250000Y-146990000D03*
X185750000Y-146990000D03*
X189250000Y-146990000D03*
X192750000Y-146990000D03*
X196250000Y-146990000D03*
X199750000Y-146990000D03*
X203250000Y-146990000D03*
X149920000Y-100460000D03*
X149920000Y-103000000D03*
X149920000Y-105540000D03*
X149920000Y-108080000D03*
X152460000Y-108080000D03*
X155000000Y-108080000D03*
X157540000Y-108080000D03*
X160080000Y-108080000D03*
X160080000Y-105540000D03*
X160080000Y-103000000D03*
X160080000Y-100460000D03*
X160080000Y-97920000D03*
X157540000Y-97920000D03*
X155000000Y-97920000D03*
X152460000Y-97920000D03*
X149920000Y-97920000D03*
X62250000Y-143490000D03*
X65750000Y-143490000D03*
X69250000Y-143490000D03*
X72750000Y-143490000D03*
X62250000Y-146990000D03*
X65750000Y-146990000D03*
X69250000Y-146990000D03*
X72750000Y-146990000D03*
D12*
X144200000Y-109730000D03*
X140800000Y-109730000D03*
X140800000Y-96270000D03*
X144200000Y-96270000D03*
X118700000Y-109730000D03*
X115300000Y-109730000D03*
X115300000Y-96270000D03*
X118700000Y-96270000D03*
X127200000Y-109730000D03*
X123800000Y-109730000D03*
X123800000Y-96270000D03*
X127200000Y-96270000D03*
X169200000Y-109730000D03*
X165800000Y-109730000D03*
X165800000Y-96270000D03*
X169200000Y-96270000D03*
X110200000Y-109730000D03*
X106800000Y-109730000D03*
X106800000Y-96270000D03*
X110200000Y-96270000D03*
X186200000Y-109730000D03*
X182800000Y-109730000D03*
X182800000Y-96270000D03*
X186200000Y-96270000D03*
X177700000Y-109730000D03*
X174300000Y-109730000D03*
X174300000Y-96270000D03*
X177700000Y-96270000D03*
X194700000Y-109730000D03*
X191300000Y-109730000D03*
X191300000Y-96270000D03*
X194700000Y-96270000D03*
D13*
X106750000Y-143490000D03*
X110250000Y-143490000D03*
X113750000Y-143490000D03*
X117250000Y-143490000D03*
X120750000Y-143490000D03*
X124250000Y-143490000D03*
X127750000Y-143490000D03*
X131250000Y-143490000D03*
X134750000Y-143490000D03*
X138250000Y-143490000D03*
X106750000Y-146990000D03*
X110250000Y-146990000D03*
X113750000Y-146990000D03*
X117250000Y-146990000D03*
X120750000Y-146990000D03*
X124250000Y-146990000D03*
X127750000Y-146990000D03*
X131250000Y-146990000D03*
X134750000Y-146990000D03*
X138250000Y-146990000D03*
D14*
X79080000Y-88000000D03*
X76540000Y-88000000D03*
D15*
X74000000Y-88000000D03*
D16*
X192000000Y-132500000D03*
X192000000Y-134500000D03*
X133000000Y-126500000D03*
X131000000Y-126500000D03*
X125500000Y-134500000D03*
X116000000Y-132500000D03*
X116000000Y-134500000D03*
X125500000Y-132500000D03*
X106500000Y-134500000D03*
X97000000Y-132500000D03*
X97000000Y-134500000D03*
X87500000Y-132500000D03*
X87500000Y-134500000D03*
X78000000Y-132500000D03*
X78000000Y-134500000D03*
X68500000Y-132500000D03*
X68500000Y-134500000D03*
X174500000Y-132500000D03*
X174500000Y-134500000D03*
X165000000Y-132500000D03*
X165000000Y-134500000D03*
X197500000Y-126500000D03*
X199500000Y-126500000D03*
X106500000Y-132500000D03*
X156000000Y-119000000D03*
X154000000Y-119000000D03*
D17*
X169500000Y-87500000D03*
X178000000Y-87500000D03*
X186500000Y-87500000D03*
X195000000Y-87500000D03*
X203500000Y-87500000D03*
X106500000Y-87500000D03*
X115000000Y-87500000D03*
X123500000Y-87500000D03*
X132000000Y-87500000D03*
X140500000Y-87500000D03*
D16*
X146500000Y-132500000D03*
X146500000Y-134500000D03*
D17*
X162000000Y-120500000D03*
X159500000Y-120500000D03*
X157000000Y-120500000D03*
X56500000Y-120500000D03*
X54000000Y-120500000D03*
X154500000Y-120500000D03*
X152000000Y-120500000D03*
X149500000Y-120500000D03*
D16*
X97500000Y-94500000D03*
X99500000Y-94500000D03*
D17*
X89000000Y-96500000D03*
X87500000Y-96500000D03*
X87500000Y-101500000D03*
X89000000Y-101500000D03*
X93000000Y-99000000D03*
X86500000Y-96500000D03*
X82500000Y-101500000D03*
X60000000Y-95000000D03*
X71000000Y-87000000D03*
X73000000Y-90500000D03*
X69500000Y-103450000D03*
X74500000Y-103450000D03*
X65000000Y-92500000D03*
X65000000Y-95000000D03*
X78000000Y-100000000D03*
X73000000Y-100000000D03*
X67500000Y-100500000D03*
X62500000Y-100500000D03*
X82500000Y-96500000D03*
X94500000Y-95500000D03*
X93000000Y-96000000D03*
X93000000Y-97000000D03*
X82500000Y-99000000D03*
X65000000Y-88500000D03*
X63000000Y-104000000D03*
X68000000Y-104000000D03*
X182000000Y-117500000D03*
X159500000Y-124500000D03*
X146000000Y-117500000D03*
X149500000Y-124500000D03*
X68000000Y-117500000D03*
X56500000Y-124500000D03*
X172500000Y-117500000D03*
X162000000Y-124500000D03*
X129000000Y-92000000D03*
D16*
X118000000Y-121500000D03*
X118000000Y-119500000D03*
X119500000Y-118500000D03*
X110000000Y-118500000D03*
X108500000Y-119500000D03*
X108500000Y-121500000D03*
X99000000Y-121500000D03*
X99000000Y-119500000D03*
X100500000Y-118500000D03*
X91000000Y-118500000D03*
X89500000Y-119500000D03*
X89500000Y-121500000D03*
D17*
X191500000Y-117500000D03*
X157000000Y-124500000D03*
X87000000Y-117500000D03*
X54000000Y-124500000D03*
X125000000Y-117500000D03*
X152000000Y-124500000D03*
X96500000Y-117500000D03*
X77500000Y-117500000D03*
X154500000Y-124500000D03*
X120500000Y-92000000D03*
D16*
X72000000Y-118500000D03*
X70500000Y-119500000D03*
X70500000Y-121500000D03*
X61000000Y-121500000D03*
X61000000Y-119500000D03*
X62500000Y-118500000D03*
D17*
X146000000Y-92000000D03*
D16*
X135000000Y-124500000D03*
X136500000Y-124500000D03*
X136500000Y-126500000D03*
X135000000Y-126500000D03*
X135000000Y-128500000D03*
X136500000Y-128500000D03*
X140500000Y-118500000D03*
X139000000Y-119500000D03*
X139000000Y-121500000D03*
X165500000Y-121500000D03*
X165500000Y-119500000D03*
X167000000Y-118500000D03*
D17*
X164000000Y-92000000D03*
D16*
X154000000Y-111000000D03*
X156000000Y-111000000D03*
D17*
X172500000Y-92000000D03*
D16*
X176500000Y-118500000D03*
X175000000Y-119500000D03*
X175000000Y-121500000D03*
D17*
X181000000Y-92000000D03*
D16*
X186000000Y-118500000D03*
X184500000Y-119500000D03*
X184500000Y-121500000D03*
D17*
X112000000Y-92000000D03*
D16*
X80000000Y-121500000D03*
X80000000Y-119500000D03*
X81500000Y-118500000D03*
D17*
X106000000Y-117500000D03*
X77500000Y-106999988D03*
D16*
X99000000Y-124500000D03*
X99000000Y-126500000D03*
X99000000Y-128500000D03*
X102500000Y-130500000D03*
X100500000Y-130500000D03*
X104500000Y-130500000D03*
X106000000Y-128500000D03*
X106000000Y-126500000D03*
X106000000Y-124500000D03*
X109500000Y-140500000D03*
X175000000Y-124500000D03*
X175000000Y-126500000D03*
X175000000Y-128500000D03*
X182000000Y-128500000D03*
X182000000Y-126500000D03*
X182000000Y-124500000D03*
X178500000Y-130500000D03*
X176500000Y-130500000D03*
X180500000Y-130500000D03*
X139000000Y-124500000D03*
X139000000Y-126500000D03*
X139000000Y-128500000D03*
X142500000Y-130500000D03*
X140500000Y-130500000D03*
X144500000Y-130500000D03*
X146000000Y-128500000D03*
X146000000Y-126500000D03*
X146000000Y-124500000D03*
X68000000Y-124500000D03*
X68000000Y-126500000D03*
X68000000Y-128500000D03*
X64500000Y-130500000D03*
X66500000Y-130500000D03*
X62500000Y-130500000D03*
X61000000Y-128500000D03*
X61000000Y-126500000D03*
X61000000Y-124500000D03*
X96500000Y-124500000D03*
X96500000Y-126500000D03*
X96500000Y-128500000D03*
X89500000Y-128500000D03*
X89500000Y-126500000D03*
X89500000Y-124500000D03*
X93000000Y-130500000D03*
X95000000Y-130500000D03*
X91000000Y-130500000D03*
X165500000Y-124500000D03*
X165500000Y-126500000D03*
X165500000Y-128500000D03*
X169000000Y-130500000D03*
X171000000Y-130500000D03*
X167000000Y-130500000D03*
X172500000Y-128500000D03*
X172500000Y-126500000D03*
X172500000Y-124500000D03*
D17*
X115500000Y-117500000D03*
X73500000Y-106000000D03*
D16*
X108500000Y-124500000D03*
X108500000Y-126500000D03*
X108500000Y-128500000D03*
X112000000Y-130500000D03*
X110000000Y-130500000D03*
X114000000Y-130500000D03*
X115500000Y-128500000D03*
X115500000Y-126500000D03*
X115500000Y-124500000D03*
X110500000Y-136500000D03*
X184500000Y-124500000D03*
X184500000Y-126500000D03*
X184500000Y-128500000D03*
X191500000Y-124500000D03*
X191500000Y-126500000D03*
X191500000Y-128500000D03*
X188000000Y-130500000D03*
X190000000Y-130500000D03*
X186000000Y-130500000D03*
X87000000Y-124500000D03*
X87000000Y-126500000D03*
X87000000Y-128500000D03*
X83500000Y-130500000D03*
X85500000Y-130500000D03*
X81500000Y-130500000D03*
X80000000Y-128500000D03*
X80000000Y-126500000D03*
X80000000Y-124500000D03*
X125000000Y-124500000D03*
X125000000Y-126500000D03*
X125000000Y-128500000D03*
X118000000Y-124500000D03*
X118000000Y-126500000D03*
X118000000Y-128500000D03*
X121500000Y-130500000D03*
X123500000Y-130500000D03*
X119500000Y-130500000D03*
X117000000Y-138500000D03*
X119000000Y-138500000D03*
X121000000Y-138500000D03*
X77500000Y-124500000D03*
X77500000Y-126500000D03*
X77500000Y-128500000D03*
X74000000Y-130500000D03*
X76000000Y-130500000D03*
X72000000Y-130500000D03*
X70500000Y-128500000D03*
X70500000Y-126500000D03*
X70500000Y-124500000D03*
D17*
X60000010Y-106000000D03*
X64500000Y-106000000D03*
X73000000Y-94500000D03*
X189500000Y-92000000D03*
D16*
X194000000Y-124500000D03*
X195500000Y-124500000D03*
X194000000Y-126500000D03*
X195500000Y-126500000D03*
X195500000Y-128500000D03*
X194000000Y-128500000D03*
D17*
X161500000Y-131000000D03*
X149500000Y-131000000D03*
X154500000Y-128500000D03*
X159500000Y-128500000D03*
X149500000Y-128500000D03*
X56500000Y-128500000D03*
X54000000Y-128500000D03*
X152000000Y-128500000D03*
X157000000Y-128500000D03*
X137500000Y-92000000D03*
D16*
X127500000Y-124500000D03*
X129000000Y-124500000D03*
X127500000Y-126500000D03*
X129000000Y-126500000D03*
X127500000Y-128500000D03*
X129000000Y-128500000D03*
X132000000Y-118500000D03*
D17*
X198000000Y-92000000D03*
D16*
X201500000Y-124500000D03*
X203000000Y-124500000D03*
X203000000Y-126500000D03*
X201500000Y-126500000D03*
X201500000Y-128500000D03*
X203000000Y-128500000D03*
X198500000Y-118500000D03*
D18*
X149000000Y-140500000D02*
X109500000Y-140500000D01*
X187500000Y-142000000D02*
X186000000Y-140500000D01*
X189250000Y-146990000D02*
X187500001Y-145240001D01*
X186000000Y-140500000D02*
X161000000Y-140500000D01*
X187500001Y-145240001D02*
X187500000Y-142000000D01*
X158500000Y-138000000D02*
X151500000Y-138000000D01*
X151500000Y-138000000D02*
X149000000Y-140500000D01*
X161000000Y-140500000D02*
X158500000Y-138000000D01*
X113750000Y-144250000D02*
X113750000Y-143490000D01*
X112600001Y-144639999D02*
X113750000Y-143490000D01*
X112000000Y-145240000D02*
X112600001Y-144639999D01*
X71260000Y-149000000D02*
X110830003Y-149000000D01*
X112000000Y-147830003D02*
X112000000Y-145240000D01*
X110830003Y-149000000D02*
X112000000Y-147830003D01*
X69250000Y-146990000D02*
X71260000Y-149000000D01*
X147000000Y-136500000D02*
X110500000Y-136500000D01*
X160500000Y-134000000D02*
X149500000Y-134000000D01*
X149500000Y-134000000D02*
X147000000Y-136500000D01*
X163000000Y-136500000D02*
X160500000Y-134000000D01*
X188000000Y-136500000D02*
X163000000Y-136500000D01*
X191000001Y-139500001D02*
X188000000Y-136500000D01*
X191000001Y-142649999D02*
X191000001Y-139500001D01*
X190999999Y-145239999D02*
X191000001Y-142649999D01*
X192750000Y-146990000D02*
X190999999Y-145239999D01*
D19*
X59500000Y-142000000D02*
X64000000Y-137500000D01*
X59500000Y-145000000D02*
X59500000Y-142000000D01*
X61490000Y-146990000D02*
X59500000Y-145000000D01*
X62250000Y-146990000D02*
X61490000Y-146990000D01*
X64000000Y-137500000D02*
X94000000Y-137500000D01*
X95000000Y-138500000D02*
X94000000Y-137500000D01*
X117000000Y-138500000D02*
X95000000Y-138500000D01*
X123500000Y-138500000D02*
X117000000Y-138500000D01*
X159500000Y-136000000D02*
X150500000Y-136000000D01*
X162000000Y-138500000D02*
X159500000Y-136000000D01*
X187000000Y-138500000D02*
X162000000Y-138500000D01*
X148000000Y-138500000D02*
X123500000Y-138500000D01*
X150500000Y-136000000D02*
X148000000Y-138500000D01*
X189250000Y-140750000D02*
X187000000Y-138500000D01*
X189250000Y-143490000D02*
X189250000Y-140750000D01*
D20*
X76540000Y-90960000D02*
X73000000Y-94500000D01*
X76540000Y-88000000D02*
X76540000Y-90960000D01*
D18*
X196250000Y-146990000D02*
X199750000Y-146990000D01*
X136760000Y-149000000D02*
X134750000Y-146990000D01*
X194240000Y-149000000D02*
X196250000Y-146990000D01*
X194240000Y-149000000D02*
X136760000Y-149000000D01*
D21*
G36*
X173373000Y-129947394D02*
G01*
X171947394Y-131373000D01*
X166052606Y-131373000D01*
X164627000Y-129947394D01*
X164627000Y-123154916D01*
X173373000Y-123154916D01*
X173373000Y-129947394D01*
X173373000Y-129947394D01*
G37*
X173373000Y-129947394D02*
X171947394Y-131373000D01*
X166052606Y-131373000D01*
X164627000Y-129947394D01*
X164627000Y-123154916D01*
X173373000Y-123154916D01*
X173373000Y-129947394D01*
G36*
X137873000Y-108052606D02*
G01*
X137873000Y-112947394D01*
X133410197Y-117410197D01*
X133394403Y-117429443D01*
X133382667Y-117451399D01*
X133375440Y-117475224D01*
X133373000Y-117500000D01*
X133373000Y-122373000D01*
X130000000Y-122373000D01*
X129975224Y-122375440D01*
X129951399Y-122382667D01*
X129929443Y-122394403D01*
X129910197Y-122410197D01*
X129894403Y-122429443D01*
X129882667Y-122451399D01*
X129875440Y-122475224D01*
X129873000Y-122500000D01*
X129873000Y-129873000D01*
X126627000Y-129873000D01*
X126627000Y-117052606D01*
X130089803Y-113589803D01*
X130105597Y-113570557D01*
X130117333Y-113548601D01*
X130124560Y-113524776D01*
X130127000Y-113500000D01*
X130127000Y-108052606D01*
X131052606Y-107127000D01*
X136947394Y-107127000D01*
X137873000Y-108052606D01*
X137873000Y-108052606D01*
G37*
X137873000Y-108052606D02*
X137873000Y-112947394D01*
X133410197Y-117410197D01*
X133394403Y-117429443D01*
X133382667Y-117451399D01*
X133375440Y-117475224D01*
X133373000Y-117500000D01*
X133373000Y-122373000D01*
X130000000Y-122373000D01*
X129975224Y-122375440D01*
X129951399Y-122382667D01*
X129929443Y-122394403D01*
X129910197Y-122410197D01*
X129894403Y-122429443D01*
X129882667Y-122451399D01*
X129875440Y-122475224D01*
X129873000Y-122500000D01*
X129873000Y-129873000D01*
X126627000Y-129873000D01*
X126627000Y-117052606D01*
X130089803Y-113589803D01*
X130105597Y-113570557D01*
X130117333Y-113548601D01*
X130124560Y-113524776D01*
X130127000Y-113500000D01*
X130127000Y-108052606D01*
X131052606Y-107127000D01*
X136947394Y-107127000D01*
X137873000Y-108052606D01*
G36*
X129373000Y-108052606D02*
G01*
X129373000Y-112947394D01*
X126447394Y-115873000D01*
X120500000Y-115873000D01*
X120475224Y-115875440D01*
X120451399Y-115882667D01*
X120429443Y-115894403D01*
X120410197Y-115910197D01*
X120394403Y-115929443D01*
X120382667Y-115951399D01*
X120375440Y-115975224D01*
X120373000Y-116000000D01*
X120373000Y-122373000D01*
X117127000Y-122373000D01*
X117127000Y-116000000D01*
X117124560Y-115975224D01*
X117117333Y-115951399D01*
X117105597Y-115929443D01*
X117089803Y-115910197D01*
X117070557Y-115894403D01*
X117048601Y-115882667D01*
X117024776Y-115875440D01*
X117000000Y-115873000D01*
X111000000Y-115873000D01*
X110975224Y-115875440D01*
X110951399Y-115882667D01*
X110929443Y-115894403D01*
X110910197Y-115910197D01*
X110894403Y-115929443D01*
X110882667Y-115951399D01*
X110875440Y-115975224D01*
X110873000Y-116000000D01*
X110873000Y-122373000D01*
X107627000Y-122373000D01*
X107627000Y-116000000D01*
X107624560Y-115975224D01*
X107617333Y-115951399D01*
X107605597Y-115929443D01*
X107589803Y-115910197D01*
X107570557Y-115894403D01*
X107548601Y-115882667D01*
X107524776Y-115875440D01*
X107500000Y-115873000D01*
X101500000Y-115873000D01*
X101475224Y-115875440D01*
X101451399Y-115882667D01*
X101429443Y-115894403D01*
X101410197Y-115910197D01*
X101394403Y-115929443D01*
X101382667Y-115951399D01*
X101375440Y-115975224D01*
X101373000Y-116000000D01*
X101373000Y-122373000D01*
X98127000Y-122373000D01*
X98127000Y-116000000D01*
X98124560Y-115975224D01*
X98117333Y-115951399D01*
X98105597Y-115929443D01*
X98089803Y-115910197D01*
X98070557Y-115894403D01*
X98048601Y-115882667D01*
X98024776Y-115875440D01*
X98000000Y-115873000D01*
X92000000Y-115873000D01*
X91975224Y-115875440D01*
X91951399Y-115882667D01*
X91929443Y-115894403D01*
X91910197Y-115910197D01*
X91894403Y-115929443D01*
X91882667Y-115951399D01*
X91875440Y-115975224D01*
X91873000Y-116000000D01*
X91873000Y-122373000D01*
X88627000Y-122373000D01*
X88627000Y-113552606D01*
X89552606Y-112627000D01*
X121500000Y-112627000D01*
X121524776Y-112624560D01*
X121548601Y-112617333D01*
X121570557Y-112605597D01*
X121589803Y-112589803D01*
X121605597Y-112570557D01*
X121617333Y-112548601D01*
X121624560Y-112524776D01*
X121627000Y-112500000D01*
X121627000Y-107127000D01*
X128447394Y-107127000D01*
X129373000Y-108052606D01*
X129373000Y-108052606D01*
G37*
X129373000Y-108052606D02*
X129373000Y-112947394D01*
X126447394Y-115873000D01*
X120500000Y-115873000D01*
X120475224Y-115875440D01*
X120451399Y-115882667D01*
X120429443Y-115894403D01*
X120410197Y-115910197D01*
X120394403Y-115929443D01*
X120382667Y-115951399D01*
X120375440Y-115975224D01*
X120373000Y-116000000D01*
X120373000Y-122373000D01*
X117127000Y-122373000D01*
X117127000Y-116000000D01*
X117124560Y-115975224D01*
X117117333Y-115951399D01*
X117105597Y-115929443D01*
X117089803Y-115910197D01*
X117070557Y-115894403D01*
X117048601Y-115882667D01*
X117024776Y-115875440D01*
X117000000Y-115873000D01*
X111000000Y-115873000D01*
X110975224Y-115875440D01*
X110951399Y-115882667D01*
X110929443Y-115894403D01*
X110910197Y-115910197D01*
X110894403Y-115929443D01*
X110882667Y-115951399D01*
X110875440Y-115975224D01*
X110873000Y-116000000D01*
X110873000Y-122373000D01*
X107627000Y-122373000D01*
X107627000Y-116000000D01*
X107624560Y-115975224D01*
X107617333Y-115951399D01*
X107605597Y-115929443D01*
X107589803Y-115910197D01*
X107570557Y-115894403D01*
X107548601Y-115882667D01*
X107524776Y-115875440D01*
X107500000Y-115873000D01*
X101500000Y-115873000D01*
X101475224Y-115875440D01*
X101451399Y-115882667D01*
X101429443Y-115894403D01*
X101410197Y-115910197D01*
X101394403Y-115929443D01*
X101382667Y-115951399D01*
X101375440Y-115975224D01*
X101373000Y-116000000D01*
X101373000Y-122373000D01*
X98127000Y-122373000D01*
X98127000Y-116000000D01*
X98124560Y-115975224D01*
X98117333Y-115951399D01*
X98105597Y-115929443D01*
X98089803Y-115910197D01*
X98070557Y-115894403D01*
X98048601Y-115882667D01*
X98024776Y-115875440D01*
X98000000Y-115873000D01*
X92000000Y-115873000D01*
X91975224Y-115875440D01*
X91951399Y-115882667D01*
X91929443Y-115894403D01*
X91910197Y-115910197D01*
X91894403Y-115929443D01*
X91882667Y-115951399D01*
X91875440Y-115975224D01*
X91873000Y-116000000D01*
X91873000Y-122373000D01*
X88627000Y-122373000D01*
X88627000Y-113552606D01*
X89552606Y-112627000D01*
X121500000Y-112627000D01*
X121524776Y-112624560D01*
X121548601Y-112617333D01*
X121570557Y-112605597D01*
X121589803Y-112589803D01*
X121605597Y-112570557D01*
X121617333Y-112548601D01*
X121624560Y-112524776D01*
X121627000Y-112500000D01*
X121627000Y-107127000D01*
X128447394Y-107127000D01*
X129373000Y-108052606D01*
G36*
X152410197Y-95589803D02*
G01*
X152429443Y-95605597D01*
X152451399Y-95617333D01*
X152475224Y-95624560D01*
X152500000Y-95627000D01*
X157500000Y-95627000D01*
X157524776Y-95624560D01*
X157548601Y-95617333D01*
X157570557Y-95605597D01*
X157589803Y-95589803D01*
X160052606Y-93127000D01*
X203947394Y-93127000D01*
X204873000Y-94052606D01*
X204873000Y-99947394D01*
X198947394Y-105873000D01*
X164000000Y-105873000D01*
X163975224Y-105875440D01*
X163951399Y-105882667D01*
X163929443Y-105894403D01*
X163910197Y-105910197D01*
X162410197Y-107410197D01*
X162394403Y-107429443D01*
X162382667Y-107451399D01*
X162375440Y-107475224D01*
X162373000Y-107500000D01*
X162373000Y-111447394D01*
X158947394Y-114873000D01*
X151052473Y-114873000D01*
X147614703Y-111447426D01*
X147626999Y-107500396D01*
X147624636Y-107475612D01*
X147617484Y-107451765D01*
X147605816Y-107429772D01*
X147589803Y-107410197D01*
X146089803Y-105910197D01*
X146070557Y-105894403D01*
X146048601Y-105882667D01*
X146024776Y-105875440D01*
X146000000Y-105873000D01*
X121540277Y-105873000D01*
X118341178Y-102662470D01*
X151573000Y-102662470D01*
X151573000Y-103337530D01*
X151704697Y-103999619D01*
X151963032Y-104623293D01*
X152338075Y-105184585D01*
X152815415Y-105661925D01*
X153376707Y-106036968D01*
X154000381Y-106295303D01*
X154662470Y-106427000D01*
X155337530Y-106427000D01*
X155999619Y-106295303D01*
X156623293Y-106036968D01*
X157184585Y-105661925D01*
X157661925Y-105184585D01*
X158036968Y-104623293D01*
X158295303Y-103999619D01*
X158427000Y-103337530D01*
X158427000Y-102662470D01*
X158295303Y-102000381D01*
X158036968Y-101376707D01*
X157661925Y-100815415D01*
X157184585Y-100338075D01*
X156623293Y-99963032D01*
X155999619Y-99704697D01*
X155337530Y-99573000D01*
X154662470Y-99573000D01*
X154000381Y-99704697D01*
X153376707Y-99963032D01*
X152815415Y-100338075D01*
X152338075Y-100815415D01*
X151963032Y-101376707D01*
X151704697Y-102000381D01*
X151573000Y-102662470D01*
X118341178Y-102662470D01*
X118089963Y-102410358D01*
X118070746Y-102394529D01*
X118048810Y-102382754D01*
X118024999Y-102375485D01*
X118000000Y-102373000D01*
X107552606Y-102373000D01*
X105127000Y-99947394D01*
X105127000Y-94052606D01*
X106052606Y-93127000D01*
X149947394Y-93127000D01*
X152410197Y-95589803D01*
X152410197Y-95589803D01*
G37*
X152410197Y-95589803D02*
X152429443Y-95605597D01*
X152451399Y-95617333D01*
X152475224Y-95624560D01*
X152500000Y-95627000D01*
X157500000Y-95627000D01*
X157524776Y-95624560D01*
X157548601Y-95617333D01*
X157570557Y-95605597D01*
X157589803Y-95589803D01*
X160052606Y-93127000D01*
X203947394Y-93127000D01*
X204873000Y-94052606D01*
X204873000Y-99947394D01*
X198947394Y-105873000D01*
X164000000Y-105873000D01*
X163975224Y-105875440D01*
X163951399Y-105882667D01*
X163929443Y-105894403D01*
X163910197Y-105910197D01*
X162410197Y-107410197D01*
X162394403Y-107429443D01*
X162382667Y-107451399D01*
X162375440Y-107475224D01*
X162373000Y-107500000D01*
X162373000Y-111447394D01*
X158947394Y-114873000D01*
X151052473Y-114873000D01*
X147614703Y-111447426D01*
X147626999Y-107500396D01*
X147624636Y-107475612D01*
X147617484Y-107451765D01*
X147605816Y-107429772D01*
X147589803Y-107410197D01*
X146089803Y-105910197D01*
X146070557Y-105894403D01*
X146048601Y-105882667D01*
X146024776Y-105875440D01*
X146000000Y-105873000D01*
X121540277Y-105873000D01*
X118341178Y-102662470D01*
X151573000Y-102662470D01*
X151573000Y-103337530D01*
X151704697Y-103999619D01*
X151963032Y-104623293D01*
X152338075Y-105184585D01*
X152815415Y-105661925D01*
X153376707Y-106036968D01*
X154000381Y-106295303D01*
X154662470Y-106427000D01*
X155337530Y-106427000D01*
X155999619Y-106295303D01*
X156623293Y-106036968D01*
X157184585Y-105661925D01*
X157661925Y-105184585D01*
X158036968Y-104623293D01*
X158295303Y-103999619D01*
X158427000Y-103337530D01*
X158427000Y-102662470D01*
X158295303Y-102000381D01*
X158036968Y-101376707D01*
X157661925Y-100815415D01*
X157184585Y-100338075D01*
X156623293Y-99963032D01*
X155999619Y-99704697D01*
X155337530Y-99573000D01*
X154662470Y-99573000D01*
X154000381Y-99704697D01*
X153376707Y-99963032D01*
X152815415Y-100338075D01*
X152338075Y-100815415D01*
X151963032Y-101376707D01*
X151704697Y-102000381D01*
X151573000Y-102662470D01*
X118341178Y-102662470D01*
X118089963Y-102410358D01*
X118070746Y-102394529D01*
X118048810Y-102382754D01*
X118024999Y-102375485D01*
X118000000Y-102373000D01*
X107552606Y-102373000D01*
X105127000Y-99947394D01*
X105127000Y-94052606D01*
X106052606Y-93127000D01*
X149947394Y-93127000D01*
X152410197Y-95589803D01*
G36*
X179873000Y-108052606D02*
G01*
X179873000Y-112947394D01*
X177410197Y-115410197D01*
X177394403Y-115429443D01*
X177382667Y-115451399D01*
X177375440Y-115475224D01*
X177373000Y-115500000D01*
X177373000Y-122373000D01*
X174127000Y-122373000D01*
X174127000Y-115000000D01*
X174124560Y-114975224D01*
X174117333Y-114951399D01*
X174105597Y-114929443D01*
X174089803Y-114910197D01*
X172127000Y-112947394D01*
X172127000Y-108052606D01*
X173052606Y-107127000D01*
X178947394Y-107127000D01*
X179873000Y-108052606D01*
X179873000Y-108052606D01*
G37*
X179873000Y-108052606D02*
X179873000Y-112947394D01*
X177410197Y-115410197D01*
X177394403Y-115429443D01*
X177382667Y-115451399D01*
X177375440Y-115475224D01*
X177373000Y-115500000D01*
X177373000Y-122373000D01*
X174127000Y-122373000D01*
X174127000Y-115000000D01*
X174124560Y-114975224D01*
X174117333Y-114951399D01*
X174105597Y-114929443D01*
X174089803Y-114910197D01*
X172127000Y-112947394D01*
X172127000Y-108052606D01*
X173052606Y-107127000D01*
X178947394Y-107127000D01*
X179873000Y-108052606D01*
G36*
X182873000Y-129980592D02*
G01*
X181447394Y-131406198D01*
X175552606Y-131406198D01*
X174127000Y-129980592D01*
X174127000Y-123188114D01*
X182873000Y-123188114D01*
X182873000Y-129980592D01*
X182873000Y-129980592D01*
G37*
X182873000Y-129980592D02*
X181447394Y-131406198D01*
X175552606Y-131406198D01*
X174127000Y-129980592D01*
X174127000Y-123188114D01*
X182873000Y-123188114D01*
X182873000Y-129980592D01*
G36*
X192373000Y-129947394D02*
G01*
X190947394Y-131373000D01*
X185052606Y-131373000D01*
X183627000Y-129947394D01*
X183627000Y-123154916D01*
X192373000Y-123154916D01*
X192373000Y-129947394D01*
X192373000Y-129947394D01*
G37*
X192373000Y-129947394D02*
X190947394Y-131373000D01*
X185052606Y-131373000D01*
X183627000Y-129947394D01*
X183627000Y-123154916D01*
X192373000Y-123154916D01*
X192373000Y-129947394D01*
G36*
X120873000Y-107052606D02*
G01*
X120873000Y-111873000D01*
X113127000Y-111873000D01*
X113127000Y-107500000D01*
X113124560Y-107475224D01*
X113117333Y-107451399D01*
X113105597Y-107429443D01*
X113089803Y-107410197D01*
X113070557Y-107394403D01*
X113048601Y-107382667D01*
X113024776Y-107375440D01*
X113000000Y-107373000D01*
X84000000Y-107373000D01*
X83975224Y-107375440D01*
X83951399Y-107382667D01*
X83929443Y-107394403D01*
X83910197Y-107410197D01*
X75447394Y-115873000D01*
X73000000Y-115873000D01*
X72975224Y-115875440D01*
X72951399Y-115882667D01*
X72929443Y-115894403D01*
X72910197Y-115910197D01*
X72894403Y-115929443D01*
X72882667Y-115951399D01*
X72875440Y-115975224D01*
X72873000Y-116000000D01*
X72873000Y-122373000D01*
X69627000Y-122373000D01*
X69627000Y-116000000D01*
X69624560Y-115975224D01*
X69617333Y-115951399D01*
X69605597Y-115929443D01*
X69589803Y-115910197D01*
X69570557Y-115894403D01*
X69548601Y-115882667D01*
X69524776Y-115875440D01*
X69500000Y-115873000D01*
X63500000Y-115873000D01*
X63475224Y-115875440D01*
X63451399Y-115882667D01*
X63429443Y-115894403D01*
X63410197Y-115910197D01*
X63394403Y-115929443D01*
X63382667Y-115951399D01*
X63375440Y-115975224D01*
X63373000Y-116000000D01*
X63373000Y-122373000D01*
X60127000Y-122373000D01*
X60127000Y-115052606D01*
X62552606Y-112627000D01*
X73000000Y-112627000D01*
X73024776Y-112624560D01*
X73048601Y-112617333D01*
X73070557Y-112605597D01*
X73089803Y-112589803D01*
X82052606Y-103627000D01*
X117447394Y-103627000D01*
X120873000Y-107052606D01*
X120873000Y-107052606D01*
G37*
X120873000Y-107052606D02*
X120873000Y-111873000D01*
X113127000Y-111873000D01*
X113127000Y-107500000D01*
X113124560Y-107475224D01*
X113117333Y-107451399D01*
X113105597Y-107429443D01*
X113089803Y-107410197D01*
X113070557Y-107394403D01*
X113048601Y-107382667D01*
X113024776Y-107375440D01*
X113000000Y-107373000D01*
X84000000Y-107373000D01*
X83975224Y-107375440D01*
X83951399Y-107382667D01*
X83929443Y-107394403D01*
X83910197Y-107410197D01*
X75447394Y-115873000D01*
X73000000Y-115873000D01*
X72975224Y-115875440D01*
X72951399Y-115882667D01*
X72929443Y-115894403D01*
X72910197Y-115910197D01*
X72894403Y-115929443D01*
X72882667Y-115951399D01*
X72875440Y-115975224D01*
X72873000Y-116000000D01*
X72873000Y-122373000D01*
X69627000Y-122373000D01*
X69627000Y-116000000D01*
X69624560Y-115975224D01*
X69617333Y-115951399D01*
X69605597Y-115929443D01*
X69589803Y-115910197D01*
X69570557Y-115894403D01*
X69548601Y-115882667D01*
X69524776Y-115875440D01*
X69500000Y-115873000D01*
X63500000Y-115873000D01*
X63475224Y-115875440D01*
X63451399Y-115882667D01*
X63429443Y-115894403D01*
X63410197Y-115910197D01*
X63394403Y-115929443D01*
X63382667Y-115951399D01*
X63375440Y-115975224D01*
X63373000Y-116000000D01*
X63373000Y-122373000D01*
X60127000Y-122373000D01*
X60127000Y-115052606D01*
X62552606Y-112627000D01*
X73000000Y-112627000D01*
X73024776Y-112624560D01*
X73048601Y-112617333D01*
X73070557Y-112605597D01*
X73089803Y-112589803D01*
X82052606Y-103627000D01*
X117447394Y-103627000D01*
X120873000Y-107052606D01*
G36*
X112373000Y-109052606D02*
G01*
X112373000Y-111873000D01*
X86500000Y-111873000D01*
X86475224Y-111875440D01*
X86451399Y-111882667D01*
X86429443Y-111894403D01*
X86410197Y-111910197D01*
X82410197Y-115910197D01*
X82394403Y-115929443D01*
X82382667Y-115951399D01*
X82375440Y-115975224D01*
X82373000Y-116000000D01*
X82373000Y-122373000D01*
X79127000Y-122373000D01*
X79127000Y-113552606D01*
X84552606Y-108127000D01*
X111447394Y-108127000D01*
X112373000Y-109052606D01*
X112373000Y-109052606D01*
G37*
X112373000Y-109052606D02*
X112373000Y-111873000D01*
X86500000Y-111873000D01*
X86475224Y-111875440D01*
X86451399Y-111882667D01*
X86429443Y-111894403D01*
X86410197Y-111910197D01*
X82410197Y-115910197D01*
X82394403Y-115929443D01*
X82382667Y-115951399D01*
X82375440Y-115975224D01*
X82373000Y-116000000D01*
X82373000Y-122373000D01*
X79127000Y-122373000D01*
X79127000Y-113552606D01*
X84552606Y-108127000D01*
X111447394Y-108127000D01*
X112373000Y-109052606D01*
G36*
X205373000Y-108052606D02*
G01*
X205373000Y-112947394D01*
X203910197Y-114410197D01*
X203894403Y-114429443D01*
X203882667Y-114451399D01*
X203875440Y-114475224D01*
X203873000Y-114500000D01*
X203873000Y-129873000D01*
X200627000Y-129873000D01*
X200627000Y-122500000D01*
X200624560Y-122475224D01*
X200617333Y-122451399D01*
X200605597Y-122429443D01*
X200589803Y-122410197D01*
X200570557Y-122394403D01*
X200548601Y-122382667D01*
X200524776Y-122375440D01*
X200500000Y-122373000D01*
X197127000Y-122373000D01*
X197127000Y-114052606D01*
X197589803Y-113589803D01*
X197605597Y-113570557D01*
X197617333Y-113548601D01*
X197624560Y-113524776D01*
X197627000Y-113500000D01*
X197627000Y-108052606D01*
X198552606Y-107127000D01*
X204447394Y-107127000D01*
X205373000Y-108052606D01*
X205373000Y-108052606D01*
G37*
X205373000Y-108052606D02*
X205373000Y-112947394D01*
X203910197Y-114410197D01*
X203894403Y-114429443D01*
X203882667Y-114451399D01*
X203875440Y-114475224D01*
X203873000Y-114500000D01*
X203873000Y-129873000D01*
X200627000Y-129873000D01*
X200627000Y-122500000D01*
X200624560Y-122475224D01*
X200617333Y-122451399D01*
X200605597Y-122429443D01*
X200589803Y-122410197D01*
X200570557Y-122394403D01*
X200548601Y-122382667D01*
X200524776Y-122375440D01*
X200500000Y-122373000D01*
X197127000Y-122373000D01*
X197127000Y-114052606D01*
X197589803Y-113589803D01*
X197605597Y-113570557D01*
X197617333Y-113548601D01*
X197624560Y-113524776D01*
X197627000Y-113500000D01*
X197627000Y-108052606D01*
X198552606Y-107127000D01*
X204447394Y-107127000D01*
X205373000Y-108052606D01*
G36*
X196873000Y-108052606D02*
G01*
X196873000Y-112947394D01*
X196410197Y-113410197D01*
X196394403Y-113429443D01*
X196382667Y-113451399D01*
X196375440Y-113475224D01*
X196373000Y-113500000D01*
X196373000Y-129873000D01*
X193127000Y-129873000D01*
X193127000Y-117000000D01*
X193124560Y-116975224D01*
X193117333Y-116951399D01*
X193105597Y-116929443D01*
X193089803Y-116910197D01*
X189127000Y-112947394D01*
X189127000Y-108052606D01*
X190052606Y-107127000D01*
X195947394Y-107127000D01*
X196873000Y-108052606D01*
X196873000Y-108052606D01*
G37*
X196873000Y-108052606D02*
X196873000Y-112947394D01*
X196410197Y-113410197D01*
X196394403Y-113429443D01*
X196382667Y-113451399D01*
X196375440Y-113475224D01*
X196373000Y-113500000D01*
X196373000Y-129873000D01*
X193127000Y-129873000D01*
X193127000Y-117000000D01*
X193124560Y-116975224D01*
X193117333Y-116951399D01*
X193105597Y-116929443D01*
X193089803Y-116910197D01*
X189127000Y-112947394D01*
X189127000Y-108052606D01*
X190052606Y-107127000D01*
X195947394Y-107127000D01*
X196873000Y-108052606D01*
G36*
X188373000Y-108052606D02*
G01*
X188373000Y-112947394D01*
X186910197Y-114410197D01*
X186894403Y-114429443D01*
X186882667Y-114451399D01*
X186875440Y-114475224D01*
X186873000Y-114500000D01*
X186873000Y-122373000D01*
X183627000Y-122373000D01*
X183627000Y-116000000D01*
X183624560Y-115975224D01*
X183617333Y-115951399D01*
X183605597Y-115929443D01*
X183589803Y-115910197D01*
X180627000Y-112947394D01*
X180627000Y-108052606D01*
X181552606Y-107127000D01*
X187447394Y-107127000D01*
X188373000Y-108052606D01*
X188373000Y-108052606D01*
G37*
X188373000Y-108052606D02*
X188373000Y-112947394D01*
X186910197Y-114410197D01*
X186894403Y-114429443D01*
X186882667Y-114451399D01*
X186875440Y-114475224D01*
X186873000Y-114500000D01*
X186873000Y-122373000D01*
X183627000Y-122373000D01*
X183627000Y-116000000D01*
X183624560Y-115975224D01*
X183617333Y-115951399D01*
X183605597Y-115929443D01*
X183589803Y-115910197D01*
X180627000Y-112947394D01*
X180627000Y-108052606D01*
X181552606Y-107127000D01*
X187447394Y-107127000D01*
X188373000Y-108052606D01*
G36*
X171373000Y-108052606D02*
G01*
X171373000Y-112947394D01*
X167910197Y-116410197D01*
X167894403Y-116429443D01*
X167882667Y-116451399D01*
X167875440Y-116475224D01*
X167873000Y-116500000D01*
X167873000Y-122373000D01*
X164627000Y-122373000D01*
X164627000Y-114000000D01*
X164624560Y-113975224D01*
X164617333Y-113951399D01*
X164605597Y-113929443D01*
X164589803Y-113910197D01*
X163627000Y-112947394D01*
X163627000Y-108052606D01*
X164552606Y-107127000D01*
X170447394Y-107127000D01*
X171373000Y-108052606D01*
X171373000Y-108052606D01*
G37*
X171373000Y-108052606D02*
X171373000Y-112947394D01*
X167910197Y-116410197D01*
X167894403Y-116429443D01*
X167882667Y-116451399D01*
X167875440Y-116475224D01*
X167873000Y-116500000D01*
X167873000Y-122373000D01*
X164627000Y-122373000D01*
X164627000Y-114000000D01*
X164624560Y-113975224D01*
X164617333Y-113951399D01*
X164605597Y-113929443D01*
X164589803Y-113910197D01*
X163627000Y-112947394D01*
X163627000Y-108052606D01*
X164552606Y-107127000D01*
X170447394Y-107127000D01*
X171373000Y-108052606D01*
G36*
X146373000Y-108052606D02*
G01*
X146373000Y-112947394D01*
X143447394Y-115873000D01*
X141500000Y-115873000D01*
X141475224Y-115875440D01*
X141451399Y-115882667D01*
X141429443Y-115894403D01*
X141410197Y-115910197D01*
X141394403Y-115929443D01*
X141382667Y-115951399D01*
X141375440Y-115975224D01*
X141373000Y-116000000D01*
X141373000Y-122373000D01*
X137500000Y-122373000D01*
X137475224Y-122375440D01*
X137451399Y-122382667D01*
X137429443Y-122394403D01*
X137410197Y-122410197D01*
X137394403Y-122429443D01*
X137382667Y-122451399D01*
X137375440Y-122475224D01*
X137373000Y-122500000D01*
X137373000Y-129873000D01*
X134127000Y-129873000D01*
X134127000Y-118052606D01*
X138589803Y-113589803D01*
X138605597Y-113570557D01*
X138617333Y-113548601D01*
X138624560Y-113524776D01*
X138627000Y-113500000D01*
X138627000Y-108052606D01*
X139552606Y-107127000D01*
X145447394Y-107127000D01*
X146373000Y-108052606D01*
X146373000Y-108052606D01*
G37*
X146373000Y-108052606D02*
X146373000Y-112947394D01*
X143447394Y-115873000D01*
X141500000Y-115873000D01*
X141475224Y-115875440D01*
X141451399Y-115882667D01*
X141429443Y-115894403D01*
X141410197Y-115910197D01*
X141394403Y-115929443D01*
X141382667Y-115951399D01*
X141375440Y-115975224D01*
X141373000Y-116000000D01*
X141373000Y-122373000D01*
X137500000Y-122373000D01*
X137475224Y-122375440D01*
X137451399Y-122382667D01*
X137429443Y-122394403D01*
X137410197Y-122410197D01*
X137394403Y-122429443D01*
X137382667Y-122451399D01*
X137375440Y-122475224D01*
X137373000Y-122500000D01*
X137373000Y-129873000D01*
X134127000Y-129873000D01*
X134127000Y-118052606D01*
X138589803Y-113589803D01*
X138605597Y-113570557D01*
X138617333Y-113548601D01*
X138624560Y-113524776D01*
X138627000Y-113500000D01*
X138627000Y-108052606D01*
X139552606Y-107127000D01*
X145447394Y-107127000D01*
X146373000Y-108052606D01*
G36*
X146873000Y-129947394D02*
G01*
X145447394Y-131373000D01*
X139552606Y-131373000D01*
X138127000Y-129947394D01*
X138127000Y-123154916D01*
X146873000Y-123154916D01*
X146873000Y-129947394D01*
X146873000Y-129947394D01*
G37*
X146873000Y-129947394D02*
X145447394Y-131373000D01*
X139552606Y-131373000D01*
X138127000Y-129947394D01*
X138127000Y-123154916D01*
X146873000Y-123154916D01*
X146873000Y-129947394D01*
G36*
X125873000Y-129947394D02*
G01*
X124447394Y-131373000D01*
X118552606Y-131373000D01*
X117127000Y-129947394D01*
X117127000Y-123154916D01*
X125873000Y-123154916D01*
X125873000Y-129947394D01*
X125873000Y-129947394D01*
G37*
X125873000Y-129947394D02*
X124447394Y-131373000D01*
X118552606Y-131373000D01*
X117127000Y-129947394D01*
X117127000Y-123154916D01*
X125873000Y-123154916D01*
X125873000Y-129947394D01*
G36*
X116373000Y-129947394D02*
G01*
X114947394Y-131373000D01*
X109052606Y-131373000D01*
X107627000Y-129947394D01*
X107627000Y-123154916D01*
X116373000Y-123154916D01*
X116373000Y-129947394D01*
X116373000Y-129947394D01*
G37*
X116373000Y-129947394D02*
X114947394Y-131373000D01*
X109052606Y-131373000D01*
X107627000Y-129947394D01*
X107627000Y-123154916D01*
X116373000Y-123154916D01*
X116373000Y-129947394D01*
G36*
X106873000Y-129947394D02*
G01*
X105447394Y-131373000D01*
X99552606Y-131373000D01*
X98127000Y-129947394D01*
X98127000Y-123154916D01*
X106873000Y-123154916D01*
X106873000Y-129947394D01*
X106873000Y-129947394D01*
G37*
X106873000Y-129947394D02*
X105447394Y-131373000D01*
X99552606Y-131373000D01*
X98127000Y-129947394D01*
X98127000Y-123154916D01*
X106873000Y-123154916D01*
X106873000Y-129947394D01*
G36*
X97373000Y-129919478D02*
G01*
X95947394Y-131345084D01*
X90052606Y-131345084D01*
X88627000Y-129919478D01*
X88627000Y-123127000D01*
X97373000Y-123127000D01*
X97373000Y-129919478D01*
X97373000Y-129919478D01*
G37*
X97373000Y-129919478D02*
X95947394Y-131345084D01*
X90052606Y-131345084D01*
X88627000Y-129919478D01*
X88627000Y-123127000D01*
X97373000Y-123127000D01*
X97373000Y-129919478D01*
G36*
X87873000Y-129919478D02*
G01*
X86447394Y-131345084D01*
X80552606Y-131345084D01*
X79127000Y-129919478D01*
X79127000Y-123127000D01*
X87873000Y-123127000D01*
X87873000Y-129919478D01*
X87873000Y-129919478D01*
G37*
X87873000Y-129919478D02*
X86447394Y-131345084D01*
X80552606Y-131345084D01*
X79127000Y-129919478D01*
X79127000Y-123127000D01*
X87873000Y-123127000D01*
X87873000Y-129919478D01*
G36*
X78373000Y-129919478D02*
G01*
X76947394Y-131345084D01*
X71052606Y-131345084D01*
X69627000Y-129919478D01*
X69627000Y-123127000D01*
X78373000Y-123127000D01*
X78373000Y-129919478D01*
X78373000Y-129919478D01*
G37*
X78373000Y-129919478D02*
X76947394Y-131345084D01*
X71052606Y-131345084D01*
X69627000Y-129919478D01*
X69627000Y-123127000D01*
X78373000Y-123127000D01*
X78373000Y-129919478D01*
G36*
X68873000Y-129947394D02*
G01*
X67447394Y-131373000D01*
X61552606Y-131373000D01*
X60127000Y-129947394D01*
X60127000Y-123154916D01*
X68873000Y-123154916D01*
X68873000Y-129947394D01*
X68873000Y-129947394D01*
G37*
X68873000Y-129947394D02*
X67447394Y-131373000D01*
X61552606Y-131373000D01*
X60127000Y-129947394D01*
X60127000Y-123154916D01*
X68873000Y-123154916D01*
X68873000Y-129947394D01*
M02*
