G04 #@! TF.GenerationSoftware,KiCad,Pcbnew,7.0.11*
G04 #@! TF.CreationDate,2025-01-12T20:45:55+01:00*
G04 #@! TF.ProjectId,PowerUnit,506f7765-7255-46e6-9974-2e6b69636164,C*
G04 #@! TF.SameCoordinates,Original*
G04 #@! TF.FileFunction,Copper,L4,Bot*
G04 #@! TF.FilePolarity,Positive*
%FSLAX46Y46*%
G04 Gerber Fmt 4.6, Leading zero omitted, Abs format (unit mm)*
G04 Created by KiCad (PCBNEW 7.0.11) date 2025-01-12 20:45:55*
%MOMM*%
%LPD*%
G01*
G04 APERTURE LIST*
G04 #@! TA.AperFunction,ComponentPad*
%ADD10C,2.300000*%
G04 #@! TD*
G04 #@! TA.AperFunction,ComponentPad*
%ADD11C,2.700000*%
G04 #@! TD*
G04 #@! TA.AperFunction,ComponentPad*
%ADD12C,0.900000*%
G04 #@! TD*
G04 #@! TA.AperFunction,ComponentPad*
%ADD13C,8.600000*%
G04 #@! TD*
G04 #@! TA.AperFunction,ComponentPad*
%ADD14C,2.100000*%
G04 #@! TD*
G04 #@! TA.AperFunction,ViaPad*
%ADD15C,1.300000*%
G04 #@! TD*
G04 #@! TA.AperFunction,ViaPad*
%ADD16C,0.800000*%
G04 #@! TD*
G04 #@! TA.AperFunction,Conductor*
%ADD17C,0.800000*%
G04 #@! TD*
G04 #@! TA.AperFunction,Conductor*
%ADD18C,1.800000*%
G04 #@! TD*
G04 #@! TA.AperFunction,Conductor*
%ADD19C,0.300000*%
G04 #@! TD*
G04 APERTURE END LIST*
D10*
X106750000Y-143490000D03*
X110250000Y-143490000D03*
X113750000Y-143490000D03*
X117250000Y-143490000D03*
X120750000Y-143490000D03*
X124250000Y-143490000D03*
X127750000Y-143490000D03*
X131250000Y-143490000D03*
X134750000Y-143490000D03*
X138250000Y-143490000D03*
X106750000Y-146990000D03*
X110250000Y-146990000D03*
X113750000Y-146990000D03*
X117250000Y-146990000D03*
X120750000Y-146990000D03*
X124250000Y-146990000D03*
X127750000Y-146990000D03*
X131250000Y-146990000D03*
X134750000Y-146990000D03*
X138250000Y-146990000D03*
D11*
X110200000Y-96270000D03*
X106800000Y-96270000D03*
X110200000Y-109730000D03*
X106800000Y-109730000D03*
X118700000Y-96270000D03*
X115300000Y-96270000D03*
X118700000Y-109730000D03*
X115300000Y-109730000D03*
D10*
X62250000Y-143490000D03*
X65750000Y-143490000D03*
X69250000Y-143490000D03*
X72750000Y-143490000D03*
X62250000Y-146990000D03*
X65750000Y-146990000D03*
X69250000Y-146990000D03*
X72750000Y-146990000D03*
X171750000Y-143490000D03*
X175250000Y-143490000D03*
X178750000Y-143490000D03*
X182250000Y-143490000D03*
X185750000Y-143490000D03*
X189250000Y-143490000D03*
X192750000Y-143490000D03*
X196250000Y-143490000D03*
X199750000Y-143490000D03*
X203250000Y-143490000D03*
X171750000Y-146990000D03*
X175250000Y-146990000D03*
X178750000Y-146990000D03*
X182250000Y-146990000D03*
X185750000Y-146990000D03*
X189250000Y-146990000D03*
X192750000Y-146990000D03*
X196250000Y-146990000D03*
X199750000Y-146990000D03*
X203250000Y-146990000D03*
D11*
X203200000Y-96270000D03*
X199800000Y-96270000D03*
X203200000Y-109730000D03*
X199800000Y-109730000D03*
X169200000Y-96270000D03*
X165800000Y-96270000D03*
X169200000Y-109730000D03*
X165800000Y-109730000D03*
D10*
X149920000Y-97920000D03*
X152460000Y-97920000D03*
X155000000Y-97920000D03*
X157540000Y-97920000D03*
X160080000Y-97920000D03*
X160080000Y-100460000D03*
X160080000Y-103000000D03*
X160080000Y-105540000D03*
X160080000Y-108080000D03*
X157540000Y-108080000D03*
X155000000Y-108080000D03*
X152460000Y-108080000D03*
X149920000Y-108080000D03*
X149920000Y-105540000D03*
X149920000Y-103000000D03*
X149920000Y-100460000D03*
D11*
X127200000Y-96270000D03*
X123800000Y-96270000D03*
X127200000Y-109730000D03*
X123800000Y-109730000D03*
X135700000Y-96270000D03*
X132300000Y-96270000D03*
X135700000Y-109730000D03*
X132300000Y-109730000D03*
X194700000Y-96270000D03*
X191300000Y-96270000D03*
X194700000Y-109730000D03*
X191300000Y-109730000D03*
X177700000Y-96270000D03*
X174300000Y-96270000D03*
X177700000Y-109730000D03*
X174300000Y-109730000D03*
X186200000Y-96270000D03*
X182800000Y-96270000D03*
X186200000Y-109730000D03*
X182800000Y-109730000D03*
X144200000Y-96270000D03*
X140800000Y-96270000D03*
X144200000Y-109730000D03*
X140800000Y-109730000D03*
D12*
X51775000Y-90000000D03*
X52719581Y-87719581D03*
X52719581Y-92280419D03*
X55000000Y-86775000D03*
D13*
X55000000Y-90000000D03*
D12*
X55000000Y-93225000D03*
X57280419Y-87719581D03*
X57280419Y-92280419D03*
X58225000Y-90000000D03*
X51775000Y-135000000D03*
X52719581Y-132719581D03*
X52719581Y-137280419D03*
X55000000Y-131775000D03*
D13*
X55000000Y-135000000D03*
D12*
X55000000Y-138225000D03*
X57280419Y-132719581D03*
X57280419Y-137280419D03*
X58225000Y-135000000D03*
X86775000Y-90000000D03*
X87719581Y-87719581D03*
X87719581Y-92280419D03*
X90000000Y-86775000D03*
D13*
X90000000Y-90000000D03*
D12*
X90000000Y-93225000D03*
X92280419Y-87719581D03*
X92280419Y-92280419D03*
X93225000Y-90000000D03*
X86775000Y-143500000D03*
X87719581Y-141219581D03*
X87719581Y-145780419D03*
X90000000Y-140275000D03*
D13*
X90000000Y-143500000D03*
D12*
X90000000Y-146725000D03*
X92280419Y-141219581D03*
X92280419Y-145780419D03*
X93225000Y-143500000D03*
X151775000Y-90000000D03*
X152719581Y-87719581D03*
X152719581Y-92280419D03*
X155000000Y-86775000D03*
D13*
X155000000Y-90000000D03*
D12*
X155000000Y-93225000D03*
X157280419Y-87719581D03*
X157280419Y-92280419D03*
X158225000Y-90000000D03*
X151775000Y-143500000D03*
X152719581Y-141219581D03*
X152719581Y-145780419D03*
X155000000Y-140275000D03*
D13*
X155000000Y-143500000D03*
D12*
X155000000Y-146725000D03*
X157280419Y-141219581D03*
X157280419Y-145780419D03*
X158225000Y-143500000D03*
X206775000Y-90000000D03*
X207719581Y-87719581D03*
X207719581Y-92280419D03*
X210000000Y-86775000D03*
D13*
X210000000Y-90000000D03*
D12*
X210000000Y-93225000D03*
X212280419Y-87719581D03*
X212280419Y-92280419D03*
X213225000Y-90000000D03*
X206775000Y-135000000D03*
X207719581Y-132719581D03*
X207719581Y-137280419D03*
X210000000Y-131775000D03*
D13*
X210000000Y-135000000D03*
D12*
X210000000Y-138225000D03*
X212280419Y-132719581D03*
X212280419Y-137280419D03*
X213225000Y-135000000D03*
D14*
X80905000Y-87730000D03*
X79635000Y-90270000D03*
X78365000Y-87730000D03*
X77095000Y-90270000D03*
D15*
X131000000Y-126500000D03*
X125500000Y-134500000D03*
X108000000Y-134500000D03*
X108000000Y-132500000D03*
X125500000Y-132500000D03*
X98500000Y-132500000D03*
X97000000Y-132500000D03*
X97000000Y-134500000D03*
X87500000Y-132500000D03*
X87500000Y-134500000D03*
X78000000Y-132500000D03*
X78000000Y-134500000D03*
X68500000Y-132500000D03*
X68500000Y-134500000D03*
X165000000Y-132500000D03*
X165000000Y-134500000D03*
X98500000Y-134500000D03*
X146500000Y-132500000D03*
X146500000Y-134500000D03*
X158950000Y-112000000D03*
X158950000Y-114000000D03*
X97500000Y-94500000D03*
X99500000Y-94500000D03*
X199500000Y-126500000D03*
X192000000Y-132500000D03*
X192000000Y-134500000D03*
X174500000Y-132500000D03*
X174500000Y-134500000D03*
X89000000Y-102000000D03*
X87500000Y-102000000D03*
X92500000Y-99000000D03*
D16*
X82500000Y-101500000D03*
X69250000Y-103250000D03*
X71000000Y-87000000D03*
X203500000Y-87500000D03*
X67500000Y-100500000D03*
X156700000Y-123200000D03*
X149000000Y-118000000D03*
X123500000Y-87500000D03*
X162500000Y-128000000D03*
X178000000Y-87500000D03*
X73000000Y-100000000D03*
X73000000Y-92000000D03*
D15*
X197500000Y-126500000D03*
D16*
X60000000Y-95000000D03*
X140500000Y-87500000D03*
X186500000Y-87500000D03*
D15*
X133000000Y-126500000D03*
D16*
X169500000Y-87500000D03*
X195000000Y-87500000D03*
X115000000Y-87500000D03*
X132000000Y-87500000D03*
X62500000Y-100500000D03*
X78000000Y-100000000D03*
X74250000Y-103250000D03*
X85000000Y-95000000D03*
X65000000Y-95000000D03*
X65000000Y-92500000D03*
X106500000Y-87500000D03*
X93000000Y-96000000D03*
X93000000Y-97000000D03*
X63000000Y-104000000D03*
X94500000Y-95500000D03*
X82500000Y-99000000D03*
X82500000Y-96500000D03*
X65000000Y-88500000D03*
X68000000Y-104000000D03*
D15*
X125000000Y-123000000D03*
X125000000Y-121000000D03*
X125000000Y-119000000D03*
X115500000Y-121000000D03*
X115500000Y-123000000D03*
X108500000Y-123000000D03*
X108500000Y-121000000D03*
X108500000Y-119000000D03*
X106000000Y-119000000D03*
X106000000Y-121000000D03*
X106000000Y-123000000D03*
X99000000Y-123000000D03*
X99000000Y-121000000D03*
X99000000Y-119000000D03*
X96500000Y-119000000D03*
X96500000Y-121000000D03*
X96500000Y-123000000D03*
X89500000Y-119000000D03*
X89500000Y-121000000D03*
X89500000Y-123000000D03*
X115500000Y-119000000D03*
X118000000Y-119000000D03*
X118000000Y-123000000D03*
D16*
X129000000Y-92000000D03*
D15*
X118000000Y-121000000D03*
X70500000Y-119000000D03*
X70500000Y-123000000D03*
X77500000Y-123000000D03*
X77500000Y-121000000D03*
X77500000Y-119000000D03*
X61000000Y-119000000D03*
X61000000Y-123000000D03*
X68000000Y-123000000D03*
X68000000Y-121000000D03*
X68000000Y-119000000D03*
D16*
X120500000Y-92000000D03*
D15*
X70500000Y-121000000D03*
X61000000Y-121000000D03*
X146000000Y-121000000D03*
X146000000Y-123000000D03*
X139000000Y-123000000D03*
X135000000Y-128500000D03*
X139000000Y-121000000D03*
X135000000Y-124500000D03*
X139000000Y-119000000D03*
X136500000Y-126500000D03*
X136500000Y-128500000D03*
X146000000Y-119000000D03*
D16*
X146000000Y-92000000D03*
D15*
X136500000Y-124500000D03*
X135000000Y-126500000D03*
X172500000Y-123000000D03*
X172500000Y-121000000D03*
X172500000Y-119000000D03*
X165500000Y-123000000D03*
X165500000Y-121000000D03*
X165500000Y-119000000D03*
D16*
X164000000Y-92000000D03*
D15*
X150950000Y-114000000D03*
X150950000Y-112000000D03*
X182000000Y-123000000D03*
D16*
X172500000Y-92000000D03*
D15*
X175000000Y-119000000D03*
X182000000Y-121000000D03*
X175000000Y-121000000D03*
X182000000Y-119000000D03*
X175000000Y-123000000D03*
X184500000Y-119000000D03*
X184500000Y-121000000D03*
X184500000Y-123000000D03*
X191500000Y-119000000D03*
X191500000Y-121000000D03*
X191500000Y-123000000D03*
D16*
X181000000Y-92000000D03*
D15*
X80000000Y-119000000D03*
X87000000Y-119000000D03*
X87000000Y-121000000D03*
X87000000Y-123000000D03*
X80000000Y-123000000D03*
D16*
X112000000Y-92000000D03*
D15*
X80000000Y-121000000D03*
X106000000Y-128500000D03*
X99000000Y-126500000D03*
X99000000Y-128500000D03*
X109500000Y-140500000D03*
X106000000Y-126500000D03*
X182000000Y-126500000D03*
X175000000Y-126500000D03*
X175000000Y-128500000D03*
X182000000Y-128500000D03*
X146000000Y-126500000D03*
X139000000Y-126500000D03*
X146000000Y-128500000D03*
X139000000Y-128500000D03*
X68000000Y-126500000D03*
X68000000Y-128500000D03*
X61000000Y-126500000D03*
X61000000Y-128500000D03*
X89500000Y-128500000D03*
X96500000Y-126500000D03*
X89500000Y-126500000D03*
X96500000Y-128500000D03*
X165500000Y-128500000D03*
X172500000Y-128500000D03*
X165500000Y-126500000D03*
X172500000Y-126500000D03*
X115500000Y-128500000D03*
X108500000Y-126500000D03*
X108500000Y-128500000D03*
X114000000Y-136500000D03*
X115500000Y-126500000D03*
X184500000Y-126500000D03*
X184500000Y-128500000D03*
X191500000Y-126500000D03*
X191500000Y-128500000D03*
X80000000Y-128500000D03*
X87000000Y-126500000D03*
X87000000Y-128500000D03*
X80000000Y-126500000D03*
X118000000Y-128500000D03*
X118000000Y-126500000D03*
X125000000Y-128500000D03*
X125000000Y-126500000D03*
X117000000Y-138500000D03*
X121000000Y-138500000D03*
X119000000Y-138500000D03*
X70500000Y-128500000D03*
X77500000Y-128500000D03*
X77500000Y-126500000D03*
X70500000Y-126500000D03*
D16*
X60000010Y-106000000D03*
X64500000Y-106000000D03*
X74500000Y-94500000D03*
D15*
X195500000Y-124500000D03*
X195500000Y-126500000D03*
X194000000Y-126500000D03*
D16*
X189500000Y-92000000D03*
D15*
X194000000Y-128500000D03*
X194000000Y-124500000D03*
X195500000Y-128500000D03*
D16*
X159500000Y-132500000D03*
X154000000Y-128500000D03*
X156750000Y-132500000D03*
X158500000Y-123000000D03*
X153000000Y-120500000D03*
X56500000Y-128500000D03*
X54000000Y-128500000D03*
X153000000Y-123000000D03*
X158500000Y-120500000D03*
D15*
X129000000Y-126500000D03*
D16*
X137500000Y-92000000D03*
D15*
X127500000Y-128500000D03*
X127500000Y-126500000D03*
X129000000Y-124500000D03*
X132000000Y-118500000D03*
X129000000Y-128500000D03*
X127500000Y-124500000D03*
X198500000Y-118500000D03*
X201500000Y-124500000D03*
X203000000Y-126500000D03*
X201500000Y-128500000D03*
D16*
X198000000Y-92000000D03*
D15*
X203000000Y-128500000D03*
X201500000Y-126500000D03*
X203000000Y-124500000D03*
D16*
X77500000Y-106999988D03*
X102500000Y-127000000D03*
X112000000Y-127000000D03*
X73500000Y-106000000D03*
X162500000Y-123000000D03*
X178500000Y-127000000D03*
X142500000Y-127000000D03*
X149000000Y-120500000D03*
X64500000Y-127000000D03*
X56500000Y-124500000D03*
X149000000Y-125500000D03*
X93000000Y-127000000D03*
X169000000Y-127000000D03*
X162500000Y-125500000D03*
X188000000Y-127000000D03*
X162500000Y-120500000D03*
X83500000Y-127000000D03*
X54000000Y-124500000D03*
X149000000Y-123000000D03*
X121500000Y-127000000D03*
X74000000Y-127000000D03*
X149000000Y-128000000D03*
X156750000Y-127250000D03*
D17*
X151500000Y-138000000D02*
X149000000Y-140500000D01*
X189250000Y-146990000D02*
X187500001Y-145240001D01*
X187500000Y-142000000D02*
X186000000Y-140500000D01*
X149000000Y-140500000D02*
X109500000Y-140500000D01*
X161000000Y-140500000D02*
X158500000Y-138000000D01*
X187500001Y-145240001D02*
X187500000Y-142000000D01*
X158500000Y-138000000D02*
X151500000Y-138000000D01*
X186000000Y-140500000D02*
X161000000Y-140500000D01*
X147000000Y-136500000D02*
X114000000Y-136500000D01*
X149500000Y-134000000D02*
X147000000Y-136500000D01*
X191000001Y-142649999D02*
X191000001Y-139500001D01*
X112600001Y-144639999D02*
X113750000Y-143490000D01*
X112000000Y-145240000D02*
X112600001Y-144639999D01*
X71260000Y-149000000D02*
X110830003Y-149000000D01*
X160500000Y-134000000D02*
X149500000Y-134000000D01*
X110830003Y-149000000D02*
X112000000Y-147830003D01*
X191000001Y-139500001D02*
X188000000Y-136500000D01*
X112000000Y-147830003D02*
X112000000Y-145240000D01*
X163000000Y-136500000D02*
X160500000Y-134000000D01*
X192750000Y-146990000D02*
X190999999Y-145239999D01*
X188000000Y-136500000D02*
X163000000Y-136500000D01*
X113750000Y-144250000D02*
X113750000Y-143490000D01*
X69250000Y-146990000D02*
X71260000Y-149000000D01*
X190999999Y-145239999D02*
X191000001Y-142649999D01*
D18*
X123500000Y-138500000D02*
X117000000Y-138500000D01*
X62250000Y-146990000D02*
X61490000Y-146990000D01*
X162000000Y-138500000D02*
X159500000Y-136000000D01*
X159500000Y-136000000D02*
X150500000Y-136000000D01*
X95000000Y-138500000D02*
X94000000Y-137500000D01*
X187000000Y-138500000D02*
X162000000Y-138500000D01*
X59500000Y-142000000D02*
X64000000Y-137500000D01*
X64000000Y-137500000D02*
X94000000Y-137500000D01*
X117000000Y-138500000D02*
X95000000Y-138500000D01*
X189250000Y-140750000D02*
X187000000Y-138500000D01*
X59500000Y-145000000D02*
X59500000Y-142000000D01*
X189250000Y-143490000D02*
X189250000Y-140750000D01*
X148000000Y-138500000D02*
X123500000Y-138500000D01*
X150500000Y-136000000D02*
X148000000Y-138500000D01*
X61490000Y-146990000D02*
X59500000Y-145000000D01*
D19*
X75405000Y-94500000D02*
X74500000Y-94500000D01*
X79635000Y-90270000D02*
X75405000Y-94500000D01*
D17*
X194240000Y-149000000D02*
X196250000Y-146990000D01*
X194240000Y-149000000D02*
X136760000Y-149000000D01*
X136760000Y-149000000D02*
X134750000Y-146990000D01*
X196250000Y-146990000D02*
X199750000Y-146990000D01*
G04 #@! TA.AperFunction,Conductor*
G36*
X173442121Y-125020002D02*
G01*
X173488614Y-125073658D01*
X173500000Y-125126000D01*
X173500000Y-129447810D01*
X173479998Y-129515931D01*
X173463095Y-129536905D01*
X172536905Y-130463095D01*
X172474593Y-130497121D01*
X172447810Y-130500000D01*
X165552190Y-130500000D01*
X165484069Y-130479998D01*
X165463095Y-130463095D01*
X164536905Y-129536905D01*
X164502879Y-129474593D01*
X164500000Y-129447810D01*
X164500000Y-127000002D01*
X168294355Y-127000002D01*
X168314859Y-127168871D01*
X168375179Y-127327925D01*
X168375181Y-127327929D01*
X168375182Y-127327930D01*
X168471817Y-127467929D01*
X168599148Y-127580734D01*
X168749775Y-127659790D01*
X168749776Y-127659790D01*
X168749778Y-127659791D01*
X168906461Y-127698409D01*
X168914944Y-127700500D01*
X168914947Y-127700500D01*
X169085053Y-127700500D01*
X169085056Y-127700500D01*
X169250225Y-127659790D01*
X169400852Y-127580734D01*
X169528183Y-127467929D01*
X169624818Y-127327930D01*
X169685140Y-127168872D01*
X169691975Y-127112581D01*
X169705645Y-127000002D01*
X169705645Y-126999997D01*
X169685140Y-126831128D01*
X169624820Y-126672074D01*
X169624818Y-126672070D01*
X169528183Y-126532071D01*
X169528181Y-126532069D01*
X169400857Y-126419270D01*
X169400851Y-126419265D01*
X169250225Y-126340210D01*
X169250221Y-126340208D01*
X169085059Y-126299500D01*
X169085056Y-126299500D01*
X168914944Y-126299500D01*
X168914940Y-126299500D01*
X168749778Y-126340208D01*
X168749774Y-126340210D01*
X168599148Y-126419265D01*
X168599142Y-126419270D01*
X168471818Y-126532069D01*
X168471816Y-126532071D01*
X168375181Y-126672070D01*
X168375179Y-126672074D01*
X168314859Y-126831128D01*
X168294355Y-126999997D01*
X168294355Y-127000002D01*
X164500000Y-127000002D01*
X164500000Y-125126000D01*
X164520002Y-125057879D01*
X164573658Y-125011386D01*
X164626000Y-125000000D01*
X173374000Y-125000000D01*
X173442121Y-125020002D01*
G37*
G04 #@! TD.AperFunction*
G04 #@! TA.AperFunction,Conductor*
G36*
X192442121Y-125020002D02*
G01*
X192488614Y-125073658D01*
X192500000Y-125126000D01*
X192500000Y-129447810D01*
X192479998Y-129515931D01*
X192463095Y-129536905D01*
X191536905Y-130463095D01*
X191474593Y-130497121D01*
X191447810Y-130500000D01*
X184552190Y-130500000D01*
X184484069Y-130479998D01*
X184463095Y-130463095D01*
X183536905Y-129536905D01*
X183502879Y-129474593D01*
X183500000Y-129447810D01*
X183500000Y-127000002D01*
X187294355Y-127000002D01*
X187314859Y-127168871D01*
X187375179Y-127327925D01*
X187375181Y-127327929D01*
X187375182Y-127327930D01*
X187471817Y-127467929D01*
X187599148Y-127580734D01*
X187749775Y-127659790D01*
X187749776Y-127659790D01*
X187749778Y-127659791D01*
X187906461Y-127698409D01*
X187914944Y-127700500D01*
X187914947Y-127700500D01*
X188085053Y-127700500D01*
X188085056Y-127700500D01*
X188250225Y-127659790D01*
X188400852Y-127580734D01*
X188528183Y-127467929D01*
X188624818Y-127327930D01*
X188685140Y-127168872D01*
X188691975Y-127112581D01*
X188705645Y-127000002D01*
X188705645Y-126999997D01*
X188685140Y-126831128D01*
X188624820Y-126672074D01*
X188624818Y-126672070D01*
X188528183Y-126532071D01*
X188528181Y-126532069D01*
X188400857Y-126419270D01*
X188400851Y-126419265D01*
X188250225Y-126340210D01*
X188250221Y-126340208D01*
X188085059Y-126299500D01*
X188085056Y-126299500D01*
X187914944Y-126299500D01*
X187914940Y-126299500D01*
X187749778Y-126340208D01*
X187749774Y-126340210D01*
X187599148Y-126419265D01*
X187599142Y-126419270D01*
X187471818Y-126532069D01*
X187471816Y-126532071D01*
X187375181Y-126672070D01*
X187375179Y-126672074D01*
X187314859Y-126831128D01*
X187294355Y-126999997D01*
X187294355Y-127000002D01*
X183500000Y-127000002D01*
X183500000Y-125126000D01*
X183520002Y-125057879D01*
X183573658Y-125011386D01*
X183626000Y-125000000D01*
X192374000Y-125000000D01*
X192442121Y-125020002D01*
G37*
G04 #@! TD.AperFunction*
G04 #@! TA.AperFunction,Conductor*
G36*
X183000000Y-117527916D02*
G01*
X183000000Y-124374000D01*
X182979998Y-124442121D01*
X182926342Y-124488614D01*
X182874000Y-124500000D01*
X174126000Y-124500000D01*
X174057879Y-124479998D01*
X174011386Y-124426342D01*
X174000000Y-124374000D01*
X174000000Y-117527916D01*
X175500000Y-116027916D01*
X181500000Y-116027916D01*
X183000000Y-117527916D01*
G37*
G04 #@! TD.AperFunction*
G04 #@! TA.AperFunction,Conductor*
G36*
X116442121Y-125020002D02*
G01*
X116488614Y-125073658D01*
X116500000Y-125126000D01*
X116500000Y-129447810D01*
X116479998Y-129515931D01*
X116463095Y-129536905D01*
X115536905Y-130463095D01*
X115474593Y-130497121D01*
X115447810Y-130500000D01*
X108552190Y-130500000D01*
X108484069Y-130479998D01*
X108463095Y-130463095D01*
X107536905Y-129536905D01*
X107502879Y-129474593D01*
X107500000Y-129447810D01*
X107500000Y-127000002D01*
X111294355Y-127000002D01*
X111314859Y-127168871D01*
X111375179Y-127327925D01*
X111375181Y-127327929D01*
X111375182Y-127327930D01*
X111471817Y-127467929D01*
X111599148Y-127580734D01*
X111749775Y-127659790D01*
X111749776Y-127659790D01*
X111749778Y-127659791D01*
X111906461Y-127698409D01*
X111914944Y-127700500D01*
X111914947Y-127700500D01*
X112085053Y-127700500D01*
X112085056Y-127700500D01*
X112250225Y-127659790D01*
X112400852Y-127580734D01*
X112528183Y-127467929D01*
X112624818Y-127327930D01*
X112685140Y-127168872D01*
X112691975Y-127112581D01*
X112705645Y-127000002D01*
X112705645Y-126999997D01*
X112685140Y-126831128D01*
X112624820Y-126672074D01*
X112624818Y-126672070D01*
X112528183Y-126532071D01*
X112528181Y-126532069D01*
X112400857Y-126419270D01*
X112400851Y-126419265D01*
X112250225Y-126340210D01*
X112250221Y-126340208D01*
X112085059Y-126299500D01*
X112085056Y-126299500D01*
X111914944Y-126299500D01*
X111914940Y-126299500D01*
X111749778Y-126340208D01*
X111749774Y-126340210D01*
X111599148Y-126419265D01*
X111599142Y-126419270D01*
X111471818Y-126532069D01*
X111471816Y-126532071D01*
X111375181Y-126672070D01*
X111375179Y-126672074D01*
X111314859Y-126831128D01*
X111294355Y-126999997D01*
X111294355Y-127000002D01*
X107500000Y-127000002D01*
X107500000Y-125126000D01*
X107520002Y-125057879D01*
X107573658Y-125011386D01*
X107626000Y-125000000D01*
X116374000Y-125000000D01*
X116442121Y-125020002D01*
G37*
G04 #@! TD.AperFunction*
G04 #@! TA.AperFunction,Conductor*
G36*
X128515931Y-107020002D02*
G01*
X128536905Y-107036905D01*
X129463095Y-107963095D01*
X129497121Y-108025407D01*
X129500000Y-108052190D01*
X129500000Y-112947809D01*
X129479998Y-113015930D01*
X129463095Y-113036904D01*
X126000000Y-116499998D01*
X126000000Y-124374000D01*
X125979998Y-124442121D01*
X125926342Y-124488614D01*
X125874000Y-124500000D01*
X117126000Y-124500000D01*
X117057879Y-124479998D01*
X117011386Y-124426342D01*
X117000000Y-124374000D01*
X117000000Y-116500000D01*
X116500000Y-116500000D01*
X116500000Y-124374000D01*
X116479998Y-124442121D01*
X116426342Y-124488614D01*
X116374000Y-124500000D01*
X107626000Y-124500000D01*
X107557879Y-124479998D01*
X107511386Y-124426342D01*
X107500000Y-124374000D01*
X107500000Y-116500000D01*
X107000000Y-116500000D01*
X107000000Y-124374000D01*
X106979998Y-124442121D01*
X106926342Y-124488614D01*
X106874000Y-124500000D01*
X98126000Y-124500000D01*
X98057879Y-124479998D01*
X98011386Y-124426342D01*
X98000000Y-124374000D01*
X98000000Y-116500000D01*
X97500000Y-116500000D01*
X97500000Y-124374000D01*
X97479998Y-124442121D01*
X97426342Y-124488614D01*
X97374000Y-124500000D01*
X88626000Y-124500000D01*
X88557879Y-124479998D01*
X88511386Y-124426342D01*
X88500000Y-124374000D01*
X88500000Y-117552885D01*
X88520002Y-117484764D01*
X88537745Y-117462957D01*
X89518964Y-116500000D01*
X89518963Y-116500000D01*
X89550006Y-116469535D01*
X89569968Y-116430116D01*
X89572658Y-116427341D01*
X93463095Y-112536905D01*
X93525407Y-112502879D01*
X93552190Y-112500000D01*
X120500000Y-112500000D01*
X121500000Y-111500000D01*
X121500000Y-107126000D01*
X121520002Y-107057879D01*
X121573658Y-107011386D01*
X121626000Y-107000000D01*
X128447810Y-107000000D01*
X128515931Y-107020002D01*
G37*
G04 #@! TD.AperFunction*
G04 #@! TA.AperFunction,Conductor*
G36*
X68942121Y-125020002D02*
G01*
X68988614Y-125073658D01*
X69000000Y-125126000D01*
X69000000Y-129447810D01*
X68979998Y-129515931D01*
X68963095Y-129536905D01*
X68036905Y-130463095D01*
X67974593Y-130497121D01*
X67947810Y-130500000D01*
X61052190Y-130500000D01*
X60984069Y-130479998D01*
X60963095Y-130463095D01*
X60036905Y-129536905D01*
X60002879Y-129474593D01*
X60000000Y-129447810D01*
X60000000Y-127000002D01*
X63794355Y-127000002D01*
X63814859Y-127168871D01*
X63875179Y-127327925D01*
X63875181Y-127327929D01*
X63875182Y-127327930D01*
X63971817Y-127467929D01*
X64099148Y-127580734D01*
X64249775Y-127659790D01*
X64249776Y-127659790D01*
X64249778Y-127659791D01*
X64406461Y-127698409D01*
X64414944Y-127700500D01*
X64414947Y-127700500D01*
X64585053Y-127700500D01*
X64585056Y-127700500D01*
X64750225Y-127659790D01*
X64900852Y-127580734D01*
X65028183Y-127467929D01*
X65124818Y-127327930D01*
X65185140Y-127168872D01*
X65191975Y-127112581D01*
X65205645Y-127000002D01*
X65205645Y-126999997D01*
X65185140Y-126831128D01*
X65124820Y-126672074D01*
X65124818Y-126672070D01*
X65028183Y-126532071D01*
X65028181Y-126532069D01*
X64900857Y-126419270D01*
X64900851Y-126419265D01*
X64750225Y-126340210D01*
X64750221Y-126340208D01*
X64585059Y-126299500D01*
X64585056Y-126299500D01*
X64414944Y-126299500D01*
X64414940Y-126299500D01*
X64249778Y-126340208D01*
X64249774Y-126340210D01*
X64099148Y-126419265D01*
X64099142Y-126419270D01*
X63971818Y-126532069D01*
X63971816Y-126532071D01*
X63875181Y-126672070D01*
X63875179Y-126672074D01*
X63814859Y-126831128D01*
X63794355Y-126999997D01*
X63794355Y-127000002D01*
X60000000Y-127000002D01*
X60000000Y-125126000D01*
X60020002Y-125057879D01*
X60073658Y-125011386D01*
X60126000Y-125000000D01*
X68874000Y-125000000D01*
X68942121Y-125020002D01*
G37*
G04 #@! TD.AperFunction*
G04 #@! TA.AperFunction,Conductor*
G36*
X78442121Y-125020002D02*
G01*
X78488614Y-125073658D01*
X78500000Y-125126000D01*
X78500000Y-129447810D01*
X78479998Y-129515931D01*
X78463095Y-129536905D01*
X77536905Y-130463095D01*
X77474593Y-130497121D01*
X77447810Y-130500000D01*
X70552190Y-130500000D01*
X70484069Y-130479998D01*
X70463095Y-130463095D01*
X69536905Y-129536905D01*
X69502879Y-129474593D01*
X69500000Y-129447810D01*
X69500000Y-127000002D01*
X73294355Y-127000002D01*
X73314859Y-127168871D01*
X73375179Y-127327925D01*
X73375181Y-127327929D01*
X73375182Y-127327930D01*
X73471817Y-127467929D01*
X73599148Y-127580734D01*
X73749775Y-127659790D01*
X73749776Y-127659790D01*
X73749778Y-127659791D01*
X73906461Y-127698409D01*
X73914944Y-127700500D01*
X73914947Y-127700500D01*
X74085053Y-127700500D01*
X74085056Y-127700500D01*
X74250225Y-127659790D01*
X74400852Y-127580734D01*
X74528183Y-127467929D01*
X74624818Y-127327930D01*
X74685140Y-127168872D01*
X74691975Y-127112581D01*
X74705645Y-127000002D01*
X74705645Y-126999997D01*
X74685140Y-126831128D01*
X74624820Y-126672074D01*
X74624818Y-126672070D01*
X74528183Y-126532071D01*
X74528181Y-126532069D01*
X74400857Y-126419270D01*
X74400851Y-126419265D01*
X74250225Y-126340210D01*
X74250221Y-126340208D01*
X74085059Y-126299500D01*
X74085056Y-126299500D01*
X73914944Y-126299500D01*
X73914940Y-126299500D01*
X73749778Y-126340208D01*
X73749774Y-126340210D01*
X73599148Y-126419265D01*
X73599142Y-126419270D01*
X73471818Y-126532069D01*
X73471816Y-126532071D01*
X73375181Y-126672070D01*
X73375179Y-126672074D01*
X73314859Y-126831128D01*
X73294355Y-126999997D01*
X73294355Y-127000002D01*
X69500000Y-127000002D01*
X69500000Y-125126000D01*
X69520002Y-125057879D01*
X69573658Y-125011386D01*
X69626000Y-125000000D01*
X78374000Y-125000000D01*
X78442121Y-125020002D01*
G37*
G04 #@! TD.AperFunction*
G04 #@! TA.AperFunction,Conductor*
G36*
X111515931Y-108020002D02*
G01*
X111536905Y-108036905D01*
X112463095Y-108963095D01*
X112497121Y-109025407D01*
X112500000Y-109052190D01*
X112500000Y-110947810D01*
X112479998Y-111015931D01*
X112463095Y-111036905D01*
X111536905Y-111963095D01*
X111474593Y-111997121D01*
X111447810Y-112000000D01*
X92999998Y-112000000D01*
X88000000Y-116999998D01*
X88000000Y-124374000D01*
X87979998Y-124442121D01*
X87926342Y-124488614D01*
X87874000Y-124500000D01*
X79126000Y-124500000D01*
X79057879Y-124479998D01*
X79011386Y-124426342D01*
X79000000Y-124374000D01*
X79000000Y-117580106D01*
X79020002Y-117511985D01*
X79036905Y-117491011D01*
X80463095Y-116064821D01*
X80525407Y-116030795D01*
X80552190Y-116027916D01*
X83500001Y-116027916D01*
X83510089Y-116017827D01*
X83520002Y-115984069D01*
X83536905Y-115963095D01*
X91463095Y-108036905D01*
X91525407Y-108002879D01*
X91552190Y-108000000D01*
X111447810Y-108000000D01*
X111515931Y-108020002D01*
G37*
G04 #@! TD.AperFunction*
G04 #@! TA.AperFunction,Conductor*
G36*
X87942121Y-125020002D02*
G01*
X87988614Y-125073658D01*
X88000000Y-125126000D01*
X88000000Y-129447810D01*
X87979998Y-129515931D01*
X87963095Y-129536905D01*
X87036905Y-130463095D01*
X86974593Y-130497121D01*
X86947810Y-130500000D01*
X80052190Y-130500000D01*
X79984069Y-130479998D01*
X79963095Y-130463095D01*
X79036905Y-129536905D01*
X79002879Y-129474593D01*
X79000000Y-129447810D01*
X79000000Y-127000002D01*
X82794355Y-127000002D01*
X82814859Y-127168871D01*
X82875179Y-127327925D01*
X82875181Y-127327929D01*
X82875182Y-127327930D01*
X82971817Y-127467929D01*
X83099148Y-127580734D01*
X83249775Y-127659790D01*
X83249776Y-127659790D01*
X83249778Y-127659791D01*
X83406461Y-127698409D01*
X83414944Y-127700500D01*
X83414947Y-127700500D01*
X83585053Y-127700500D01*
X83585056Y-127700500D01*
X83750225Y-127659790D01*
X83900852Y-127580734D01*
X84028183Y-127467929D01*
X84124818Y-127327930D01*
X84185140Y-127168872D01*
X84191975Y-127112581D01*
X84205645Y-127000002D01*
X84205645Y-126999997D01*
X84185140Y-126831128D01*
X84124820Y-126672074D01*
X84124818Y-126672070D01*
X84028183Y-126532071D01*
X84028181Y-126532069D01*
X83900857Y-126419270D01*
X83900851Y-126419265D01*
X83750225Y-126340210D01*
X83750221Y-126340208D01*
X83585059Y-126299500D01*
X83585056Y-126299500D01*
X83414944Y-126299500D01*
X83414940Y-126299500D01*
X83249778Y-126340208D01*
X83249774Y-126340210D01*
X83099148Y-126419265D01*
X83099142Y-126419270D01*
X82971818Y-126532069D01*
X82971816Y-126532071D01*
X82875181Y-126672070D01*
X82875179Y-126672074D01*
X82814859Y-126831128D01*
X82794355Y-126999997D01*
X82794355Y-127000002D01*
X79000000Y-127000002D01*
X79000000Y-125126000D01*
X79020002Y-125057879D01*
X79073658Y-125011386D01*
X79126000Y-125000000D01*
X87874000Y-125000000D01*
X87942121Y-125020002D01*
G37*
G04 #@! TD.AperFunction*
G04 #@! TA.AperFunction,Conductor*
G36*
X106942121Y-125020002D02*
G01*
X106988614Y-125073658D01*
X107000000Y-125126000D01*
X107000000Y-129447810D01*
X106979998Y-129515931D01*
X106963095Y-129536905D01*
X106036905Y-130463095D01*
X105974593Y-130497121D01*
X105947810Y-130500000D01*
X99052190Y-130500000D01*
X98984069Y-130479998D01*
X98963095Y-130463095D01*
X98036905Y-129536905D01*
X98002879Y-129474593D01*
X98000000Y-129447810D01*
X98000000Y-127000002D01*
X101794355Y-127000002D01*
X101814859Y-127168871D01*
X101875179Y-127327925D01*
X101875181Y-127327929D01*
X101875182Y-127327930D01*
X101971817Y-127467929D01*
X102099148Y-127580734D01*
X102249775Y-127659790D01*
X102249776Y-127659790D01*
X102249778Y-127659791D01*
X102406461Y-127698409D01*
X102414944Y-127700500D01*
X102414947Y-127700500D01*
X102585053Y-127700500D01*
X102585056Y-127700500D01*
X102750225Y-127659790D01*
X102900852Y-127580734D01*
X103028183Y-127467929D01*
X103124818Y-127327930D01*
X103185140Y-127168872D01*
X103191975Y-127112581D01*
X103205645Y-127000002D01*
X103205645Y-126999997D01*
X103185140Y-126831128D01*
X103124820Y-126672074D01*
X103124818Y-126672070D01*
X103028183Y-126532071D01*
X103028181Y-126532069D01*
X102900857Y-126419270D01*
X102900851Y-126419265D01*
X102750225Y-126340210D01*
X102750221Y-126340208D01*
X102585059Y-126299500D01*
X102585056Y-126299500D01*
X102414944Y-126299500D01*
X102414940Y-126299500D01*
X102249778Y-126340208D01*
X102249774Y-126340210D01*
X102099148Y-126419265D01*
X102099142Y-126419270D01*
X101971818Y-126532069D01*
X101971816Y-126532071D01*
X101875181Y-126672070D01*
X101875179Y-126672074D01*
X101814859Y-126831128D01*
X101794355Y-126999997D01*
X101794355Y-127000002D01*
X98000000Y-127000002D01*
X98000000Y-125126000D01*
X98020002Y-125057879D01*
X98073658Y-125011386D01*
X98126000Y-125000000D01*
X106874000Y-125000000D01*
X106942121Y-125020002D01*
G37*
G04 #@! TD.AperFunction*
G04 #@! TA.AperFunction,Conductor*
G36*
X125942121Y-125020002D02*
G01*
X125988614Y-125073658D01*
X126000000Y-125126000D01*
X126000000Y-129447810D01*
X125979998Y-129515931D01*
X125963095Y-129536905D01*
X125036905Y-130463095D01*
X124974593Y-130497121D01*
X124947810Y-130500000D01*
X118052190Y-130500000D01*
X117984069Y-130479998D01*
X117963095Y-130463095D01*
X117036905Y-129536905D01*
X117002879Y-129474593D01*
X117000000Y-129447810D01*
X117000000Y-127000002D01*
X120794355Y-127000002D01*
X120814859Y-127168871D01*
X120875179Y-127327925D01*
X120875181Y-127327929D01*
X120875182Y-127327930D01*
X120971817Y-127467929D01*
X121099148Y-127580734D01*
X121249775Y-127659790D01*
X121249776Y-127659790D01*
X121249778Y-127659791D01*
X121406461Y-127698409D01*
X121414944Y-127700500D01*
X121414947Y-127700500D01*
X121585053Y-127700500D01*
X121585056Y-127700500D01*
X121750225Y-127659790D01*
X121900852Y-127580734D01*
X122028183Y-127467929D01*
X122124818Y-127327930D01*
X122185140Y-127168872D01*
X122205645Y-127000000D01*
X122185140Y-126831128D01*
X122124818Y-126672070D01*
X122028183Y-126532071D01*
X121900852Y-126419266D01*
X121900851Y-126419265D01*
X121750225Y-126340210D01*
X121750221Y-126340208D01*
X121585059Y-126299500D01*
X121585056Y-126299500D01*
X121414944Y-126299500D01*
X121414940Y-126299500D01*
X121249778Y-126340208D01*
X121249774Y-126340210D01*
X121099148Y-126419265D01*
X121099142Y-126419270D01*
X120971818Y-126532069D01*
X120971816Y-126532071D01*
X120875181Y-126672070D01*
X120875179Y-126672074D01*
X120814859Y-126831128D01*
X120794355Y-126999997D01*
X120794355Y-127000002D01*
X117000000Y-127000002D01*
X117000000Y-125126000D01*
X117020002Y-125057879D01*
X117073658Y-125011386D01*
X117126000Y-125000000D01*
X125874000Y-125000000D01*
X125942121Y-125020002D01*
G37*
G04 #@! TD.AperFunction*
G04 #@! TA.AperFunction,Conductor*
G36*
X146942121Y-125020002D02*
G01*
X146988614Y-125073658D01*
X147000000Y-125126000D01*
X147000000Y-129447810D01*
X146979998Y-129515931D01*
X146963095Y-129536905D01*
X146036905Y-130463095D01*
X145974593Y-130497121D01*
X145947810Y-130500000D01*
X139052190Y-130500000D01*
X138984069Y-130479998D01*
X138963095Y-130463095D01*
X138036905Y-129536905D01*
X138002879Y-129474593D01*
X138000000Y-129447810D01*
X138000000Y-127000002D01*
X141794355Y-127000002D01*
X141814859Y-127168871D01*
X141875179Y-127327925D01*
X141875181Y-127327929D01*
X141875182Y-127327930D01*
X141971817Y-127467929D01*
X142099148Y-127580734D01*
X142249775Y-127659790D01*
X142249776Y-127659790D01*
X142249778Y-127659791D01*
X142406461Y-127698409D01*
X142414944Y-127700500D01*
X142414947Y-127700500D01*
X142585053Y-127700500D01*
X142585056Y-127700500D01*
X142750225Y-127659790D01*
X142900852Y-127580734D01*
X143028183Y-127467929D01*
X143124818Y-127327930D01*
X143185140Y-127168872D01*
X143205645Y-127000000D01*
X143185140Y-126831128D01*
X143124818Y-126672070D01*
X143028183Y-126532071D01*
X142900852Y-126419266D01*
X142900851Y-126419265D01*
X142750225Y-126340210D01*
X142750221Y-126340208D01*
X142585059Y-126299500D01*
X142585056Y-126299500D01*
X142414944Y-126299500D01*
X142414940Y-126299500D01*
X142249778Y-126340208D01*
X142249774Y-126340210D01*
X142099148Y-126419265D01*
X142099142Y-126419270D01*
X141971818Y-126532069D01*
X141971816Y-126532071D01*
X141875181Y-126672070D01*
X141875179Y-126672074D01*
X141814859Y-126831128D01*
X141794355Y-126999997D01*
X141794355Y-127000002D01*
X138000000Y-127000002D01*
X138000000Y-125126000D01*
X138020002Y-125057879D01*
X138073658Y-125011386D01*
X138126000Y-125000000D01*
X146874000Y-125000000D01*
X146942121Y-125020002D01*
G37*
G04 #@! TD.AperFunction*
G04 #@! TA.AperFunction,Conductor*
G36*
X97442121Y-125020002D02*
G01*
X97488614Y-125073658D01*
X97500000Y-125126000D01*
X97500000Y-129447810D01*
X97479998Y-129515931D01*
X97463095Y-129536905D01*
X96536905Y-130463095D01*
X96474593Y-130497121D01*
X96447810Y-130500000D01*
X89552190Y-130500000D01*
X89484069Y-130479998D01*
X89463095Y-130463095D01*
X88536905Y-129536905D01*
X88502879Y-129474593D01*
X88500000Y-129447810D01*
X88500000Y-127000002D01*
X92294355Y-127000002D01*
X92314859Y-127168871D01*
X92375179Y-127327925D01*
X92375181Y-127327929D01*
X92375182Y-127327930D01*
X92471817Y-127467929D01*
X92599148Y-127580734D01*
X92749775Y-127659790D01*
X92749776Y-127659790D01*
X92749778Y-127659791D01*
X92906461Y-127698409D01*
X92914944Y-127700500D01*
X92914947Y-127700500D01*
X93085053Y-127700500D01*
X93085056Y-127700500D01*
X93250225Y-127659790D01*
X93400852Y-127580734D01*
X93528183Y-127467929D01*
X93624818Y-127327930D01*
X93685140Y-127168872D01*
X93705645Y-127000000D01*
X93685140Y-126831128D01*
X93624818Y-126672070D01*
X93528183Y-126532071D01*
X93400852Y-126419266D01*
X93400851Y-126419265D01*
X93250225Y-126340210D01*
X93250221Y-126340208D01*
X93085059Y-126299500D01*
X93085056Y-126299500D01*
X92914944Y-126299500D01*
X92914940Y-126299500D01*
X92749778Y-126340208D01*
X92749774Y-126340210D01*
X92599148Y-126419265D01*
X92599142Y-126419270D01*
X92471818Y-126532069D01*
X92471816Y-126532071D01*
X92375181Y-126672070D01*
X92375179Y-126672074D01*
X92314859Y-126831128D01*
X92294355Y-126999997D01*
X92294355Y-127000002D01*
X88500000Y-127000002D01*
X88500000Y-125126000D01*
X88520002Y-125057879D01*
X88573658Y-125011386D01*
X88626000Y-125000000D01*
X97374000Y-125000000D01*
X97442121Y-125020002D01*
G37*
G04 #@! TD.AperFunction*
G04 #@! TA.AperFunction,Conductor*
G36*
X182942121Y-125020002D02*
G01*
X182988614Y-125073658D01*
X183000000Y-125126000D01*
X183000000Y-129447810D01*
X182979998Y-129515931D01*
X182963095Y-129536905D01*
X182036905Y-130463095D01*
X181974593Y-130497121D01*
X181947810Y-130500000D01*
X175052190Y-130500000D01*
X174984069Y-130479998D01*
X174963095Y-130463095D01*
X174036905Y-129536905D01*
X174002879Y-129474593D01*
X174000000Y-129447810D01*
X174000000Y-127000002D01*
X177794355Y-127000002D01*
X177814859Y-127168871D01*
X177875179Y-127327925D01*
X177875181Y-127327929D01*
X177875182Y-127327930D01*
X177971817Y-127467929D01*
X178099148Y-127580734D01*
X178249775Y-127659790D01*
X178249776Y-127659790D01*
X178249778Y-127659791D01*
X178406461Y-127698409D01*
X178414944Y-127700500D01*
X178414947Y-127700500D01*
X178585053Y-127700500D01*
X178585056Y-127700500D01*
X178750225Y-127659790D01*
X178900852Y-127580734D01*
X179028183Y-127467929D01*
X179124818Y-127327930D01*
X179185140Y-127168872D01*
X179205645Y-127000000D01*
X179185140Y-126831128D01*
X179124818Y-126672070D01*
X179028183Y-126532071D01*
X178900852Y-126419266D01*
X178900851Y-126419265D01*
X178750225Y-126340210D01*
X178750221Y-126340208D01*
X178585059Y-126299500D01*
X178585056Y-126299500D01*
X178414944Y-126299500D01*
X178414940Y-126299500D01*
X178249778Y-126340208D01*
X178249774Y-126340210D01*
X178099148Y-126419265D01*
X178099142Y-126419270D01*
X177971818Y-126532069D01*
X177971816Y-126532071D01*
X177875181Y-126672070D01*
X177875179Y-126672074D01*
X177814859Y-126831128D01*
X177794355Y-126999997D01*
X177794355Y-127000002D01*
X174000000Y-127000002D01*
X174000000Y-125126000D01*
X174020002Y-125057879D01*
X174073658Y-125011386D01*
X174126000Y-125000000D01*
X182874000Y-125000000D01*
X182942121Y-125020002D01*
G37*
G04 #@! TD.AperFunction*
G04 #@! TA.AperFunction,Conductor*
G36*
X145515931Y-107020002D02*
G01*
X145536905Y-107036905D01*
X146463095Y-107963095D01*
X146497121Y-108025407D01*
X146500000Y-108052190D01*
X146500000Y-113000000D01*
X146500000Y-117000000D01*
X146963096Y-117463096D01*
X146997120Y-117525407D01*
X147000000Y-117552190D01*
X147000000Y-124374000D01*
X146979998Y-124442121D01*
X146926342Y-124488614D01*
X146874000Y-124500000D01*
X137500000Y-124500000D01*
X137500000Y-129874000D01*
X137479998Y-129942121D01*
X137426342Y-129988614D01*
X137374000Y-130000000D01*
X134126000Y-130000000D01*
X134057879Y-129979998D01*
X134011386Y-129926342D01*
X134000000Y-129874000D01*
X134000000Y-118052190D01*
X134020002Y-117984069D01*
X134036905Y-117963095D01*
X138500000Y-113500000D01*
X138500000Y-108052190D01*
X138520002Y-107984069D01*
X138536905Y-107963095D01*
X139463095Y-107036905D01*
X139525407Y-107002879D01*
X139552190Y-107000000D01*
X145447810Y-107000000D01*
X145515931Y-107020002D01*
G37*
G04 #@! TD.AperFunction*
G04 #@! TA.AperFunction,Conductor*
G36*
X170515931Y-107020002D02*
G01*
X170536905Y-107036905D01*
X171463095Y-107963095D01*
X171497121Y-108025407D01*
X171500000Y-108052190D01*
X171500000Y-113500001D01*
X173463095Y-115463095D01*
X173497120Y-115525407D01*
X173500000Y-115552190D01*
X173500000Y-124374000D01*
X173479998Y-124442121D01*
X173426342Y-124488614D01*
X173374000Y-124500000D01*
X164626000Y-124500000D01*
X164557879Y-124479998D01*
X164511386Y-124426342D01*
X164500000Y-124374000D01*
X164500000Y-114000000D01*
X164499999Y-113999998D01*
X163536905Y-113036904D01*
X163502879Y-112974592D01*
X163500000Y-112947809D01*
X163500000Y-108052190D01*
X163520002Y-107984069D01*
X163536905Y-107963095D01*
X164463095Y-107036905D01*
X164525407Y-107002879D01*
X164552190Y-107000000D01*
X170447810Y-107000000D01*
X170515931Y-107020002D01*
G37*
G04 #@! TD.AperFunction*
G04 #@! TA.AperFunction,Conductor*
G36*
X187515931Y-107020002D02*
G01*
X187536905Y-107036905D01*
X188463095Y-107963095D01*
X188497121Y-108025407D01*
X188500000Y-108052190D01*
X188500000Y-113500000D01*
X192463405Y-117491066D01*
X192497213Y-117553495D01*
X192500000Y-117579850D01*
X192500000Y-124374000D01*
X192479998Y-124442121D01*
X192426342Y-124488614D01*
X192374000Y-124500000D01*
X183626000Y-124500000D01*
X183557879Y-124479998D01*
X183511386Y-124426342D01*
X183500000Y-124374000D01*
X183500000Y-116000000D01*
X183499999Y-115999998D01*
X180536905Y-113036904D01*
X180502879Y-112974592D01*
X180500000Y-112947809D01*
X180500000Y-108052190D01*
X180520002Y-107984069D01*
X180536905Y-107963095D01*
X181463095Y-107036905D01*
X181525407Y-107002879D01*
X181552190Y-107000000D01*
X187447810Y-107000000D01*
X187515931Y-107020002D01*
G37*
G04 #@! TD.AperFunction*
G04 #@! TA.AperFunction,Conductor*
G36*
X196015931Y-107020002D02*
G01*
X196036905Y-107036905D01*
X196963095Y-107963095D01*
X196997121Y-108025407D01*
X197000000Y-108052190D01*
X197000000Y-112947809D01*
X196979998Y-113015930D01*
X196963095Y-113036904D01*
X196500000Y-113499998D01*
X196500000Y-129874000D01*
X196479998Y-129942121D01*
X196426342Y-129988614D01*
X196374000Y-130000000D01*
X193126000Y-130000000D01*
X193057879Y-129979998D01*
X193011386Y-129926342D01*
X193000000Y-129874000D01*
X193000000Y-117000000D01*
X192999999Y-116999998D01*
X189036905Y-113036904D01*
X189002879Y-112974592D01*
X189000000Y-112947809D01*
X189000000Y-108052190D01*
X189020002Y-107984069D01*
X189036905Y-107963095D01*
X189963095Y-107036905D01*
X190025407Y-107002879D01*
X190052190Y-107000000D01*
X195947810Y-107000000D01*
X196015931Y-107020002D01*
G37*
G04 #@! TD.AperFunction*
G04 #@! TA.AperFunction,Conductor*
G36*
X204515931Y-107020002D02*
G01*
X204536905Y-107036905D01*
X205463095Y-107963095D01*
X205497121Y-108025407D01*
X205500000Y-108052190D01*
X205500000Y-112947809D01*
X205479998Y-113015930D01*
X205463095Y-113036904D01*
X204000000Y-114499998D01*
X204000000Y-129874000D01*
X203979998Y-129942121D01*
X203926342Y-129988614D01*
X203874000Y-130000000D01*
X200626000Y-130000000D01*
X200557879Y-129979998D01*
X200511386Y-129926342D01*
X200500000Y-129874000D01*
X200500000Y-122500000D01*
X197126000Y-122500000D01*
X197057879Y-122479998D01*
X197011386Y-122426342D01*
X197000000Y-122374000D01*
X197000000Y-114052190D01*
X197020002Y-113984069D01*
X197036900Y-113963099D01*
X197500000Y-113500000D01*
X197500000Y-108052190D01*
X197520002Y-107984069D01*
X197536905Y-107963095D01*
X198463095Y-107036905D01*
X198525407Y-107002879D01*
X198552190Y-107000000D01*
X204447810Y-107000000D01*
X204515931Y-107020002D01*
G37*
G04 #@! TD.AperFunction*
G04 #@! TA.AperFunction,Conductor*
G36*
X179015931Y-107020002D02*
G01*
X179036905Y-107036905D01*
X179963095Y-107963095D01*
X179997121Y-108025407D01*
X180000000Y-108052190D01*
X180000000Y-113500001D01*
X182963095Y-116463095D01*
X182997121Y-116525407D01*
X183000000Y-116552190D01*
X183000000Y-118000000D01*
X174000000Y-118000000D01*
X174000000Y-115000000D01*
X173999999Y-114999998D01*
X172036905Y-113036904D01*
X172002879Y-112974592D01*
X172000000Y-112947809D01*
X172000000Y-108052190D01*
X172020002Y-107984069D01*
X172036905Y-107963095D01*
X172963095Y-107036905D01*
X173025407Y-107002879D01*
X173052190Y-107000000D01*
X178947810Y-107000000D01*
X179015931Y-107020002D01*
G37*
G04 #@! TD.AperFunction*
G04 #@! TA.AperFunction,Conductor*
G36*
X150015931Y-93020002D02*
G01*
X150036905Y-93036905D01*
X152499998Y-95499999D01*
X152500000Y-95500000D01*
X157500000Y-95500000D01*
X159963095Y-93036905D01*
X160025407Y-93002880D01*
X160052190Y-93000000D01*
X203947810Y-93000000D01*
X204015931Y-93020002D01*
X204036905Y-93036905D01*
X204963095Y-93963095D01*
X204997121Y-94025407D01*
X205000000Y-94052190D01*
X205000000Y-99947810D01*
X204979998Y-100015931D01*
X204963095Y-100036905D01*
X199036905Y-105963095D01*
X198974593Y-105997121D01*
X198947810Y-106000000D01*
X163999998Y-106000000D01*
X162500000Y-107499998D01*
X162500000Y-109447810D01*
X162479998Y-109515931D01*
X162463095Y-109536905D01*
X161536905Y-110463095D01*
X161474593Y-110497121D01*
X161447810Y-110500000D01*
X155999998Y-110500000D01*
X155000000Y-111499998D01*
X155000000Y-113947810D01*
X154979998Y-114015931D01*
X154963095Y-114036905D01*
X154036905Y-114963095D01*
X153974593Y-114997121D01*
X153947810Y-115000000D01*
X150052008Y-115000000D01*
X149983887Y-114979998D01*
X149963134Y-114963317D01*
X149962911Y-114963095D01*
X147524794Y-112537070D01*
X147490615Y-112474844D01*
X147487669Y-112447449D01*
X147500000Y-107500000D01*
X147499998Y-107499998D01*
X147499999Y-107499998D01*
X146000001Y-106000000D01*
X146000000Y-106000000D01*
X121539861Y-106000000D01*
X121471740Y-105979998D01*
X121450607Y-105962936D01*
X118498221Y-103000000D01*
X151844536Y-103000000D01*
X151864376Y-103353295D01*
X151923648Y-103702150D01*
X152021611Y-104042188D01*
X152157024Y-104369103D01*
X152157027Y-104369108D01*
X152328189Y-104678804D01*
X152532956Y-104967396D01*
X152532961Y-104967403D01*
X152634931Y-105081506D01*
X152768750Y-105231250D01*
X152936311Y-105380992D01*
X153032596Y-105467038D01*
X153032603Y-105467043D01*
X153321195Y-105671810D01*
X153414812Y-105723550D01*
X153630895Y-105842975D01*
X153957816Y-105978390D01*
X154297843Y-106076350D01*
X154646700Y-106135623D01*
X154911608Y-106150500D01*
X154911621Y-106150500D01*
X155088379Y-106150500D01*
X155088392Y-106150500D01*
X155353300Y-106135623D01*
X155702157Y-106076350D01*
X156042184Y-105978390D01*
X156369105Y-105842975D01*
X156678808Y-105671808D01*
X156967400Y-105467041D01*
X157231250Y-105231250D01*
X157467041Y-104967400D01*
X157671808Y-104678808D01*
X157842975Y-104369105D01*
X157978390Y-104042184D01*
X158076350Y-103702157D01*
X158135623Y-103353300D01*
X158155464Y-103000000D01*
X158135623Y-102646700D01*
X158076350Y-102297843D01*
X157978390Y-101957816D01*
X157842975Y-101630895D01*
X157671808Y-101321192D01*
X157467041Y-101032600D01*
X157467040Y-101032599D01*
X157467038Y-101032596D01*
X157380992Y-100936311D01*
X157231250Y-100768750D01*
X157081506Y-100634931D01*
X156967403Y-100532961D01*
X156967396Y-100532956D01*
X156678804Y-100328189D01*
X156462725Y-100208767D01*
X156369105Y-100157025D01*
X156369103Y-100157024D01*
X156042188Y-100021611D01*
X155702150Y-99923648D01*
X155353294Y-99864376D01*
X155353296Y-99864376D01*
X155088401Y-99849500D01*
X155088392Y-99849500D01*
X154911608Y-99849500D01*
X154911598Y-99849500D01*
X154646704Y-99864376D01*
X154297849Y-99923648D01*
X153957811Y-100021611D01*
X153630896Y-100157024D01*
X153630891Y-100157027D01*
X153321195Y-100328189D01*
X153032603Y-100532956D01*
X153032596Y-100532961D01*
X152768750Y-100768750D01*
X152532961Y-101032596D01*
X152532956Y-101032603D01*
X152328189Y-101321195D01*
X152157027Y-101630891D01*
X152157024Y-101630896D01*
X152021611Y-101957811D01*
X151923648Y-102297849D01*
X151864376Y-102646704D01*
X151844536Y-103000000D01*
X118498221Y-103000000D01*
X118000001Y-102500000D01*
X118000000Y-102500000D01*
X107552190Y-102500000D01*
X107484069Y-102479998D01*
X107463095Y-102463095D01*
X105036905Y-100036905D01*
X105002879Y-99974593D01*
X105000000Y-99947810D01*
X105000000Y-94052190D01*
X105020002Y-93984069D01*
X105036905Y-93963095D01*
X105963095Y-93036905D01*
X106025407Y-93002879D01*
X106052190Y-93000000D01*
X149947810Y-93000000D01*
X150015931Y-93020002D01*
G37*
G04 #@! TD.AperFunction*
G04 #@! TA.AperFunction,Conductor*
G36*
X117515931Y-103520002D02*
G01*
X117536905Y-103536905D01*
X120963095Y-106963095D01*
X120997121Y-107025407D01*
X121000000Y-107052190D01*
X121000000Y-110947810D01*
X120979998Y-111015931D01*
X120963095Y-111036905D01*
X120036905Y-111963095D01*
X119974593Y-111997121D01*
X119947810Y-112000000D01*
X114052190Y-112000000D01*
X113984069Y-111979998D01*
X113963095Y-111963095D01*
X113036905Y-111036905D01*
X113002879Y-110974593D01*
X113000000Y-110947810D01*
X113000000Y-108500000D01*
X112999999Y-108499998D01*
X112000001Y-107500000D01*
X112000000Y-107500000D01*
X91000000Y-107500000D01*
X90999998Y-107500000D01*
X83036905Y-115463095D01*
X82974593Y-115497121D01*
X82947810Y-115500000D01*
X79999998Y-115500000D01*
X78500000Y-116999998D01*
X78500000Y-124374000D01*
X78479998Y-124442121D01*
X78426342Y-124488614D01*
X78374000Y-124500000D01*
X69626000Y-124500000D01*
X69557879Y-124479998D01*
X69511386Y-124426342D01*
X69500000Y-124374000D01*
X69500000Y-116500000D01*
X69000000Y-116500000D01*
X69000000Y-124374000D01*
X68979998Y-124442121D01*
X68926342Y-124488614D01*
X68874000Y-124500000D01*
X60126000Y-124500000D01*
X60057879Y-124479998D01*
X60011386Y-124426342D01*
X60000000Y-124374000D01*
X60000000Y-117552885D01*
X60020002Y-117484764D01*
X60037745Y-117462957D01*
X61018964Y-116500000D01*
X61018963Y-116500000D01*
X61061172Y-116458577D01*
X61072477Y-116436254D01*
X61080562Y-116428388D01*
X61201195Y-116321160D01*
X61463244Y-116063988D01*
X61510463Y-116038776D01*
X61509462Y-116036141D01*
X61531094Y-116027916D01*
X61531095Y-116027916D01*
X65464196Y-112531826D01*
X65528399Y-112501519D01*
X65547906Y-112500000D01*
X77500000Y-112500000D01*
X78463095Y-111536905D01*
X78525407Y-111502880D01*
X78552190Y-111500000D01*
X81500000Y-111500000D01*
X89463095Y-103536905D01*
X89525407Y-103502879D01*
X89552190Y-103500000D01*
X117447810Y-103500000D01*
X117515931Y-103520002D01*
G37*
G04 #@! TD.AperFunction*
G04 #@! TA.AperFunction,Conductor*
G36*
X137015931Y-107020002D02*
G01*
X137036905Y-107036905D01*
X137963095Y-107963095D01*
X137997121Y-108025407D01*
X138000000Y-108052190D01*
X138000000Y-112947809D01*
X137979998Y-113015930D01*
X137963095Y-113036904D01*
X133500000Y-117499998D01*
X133500000Y-122374000D01*
X133479998Y-122442121D01*
X133426342Y-122488614D01*
X133374000Y-122500000D01*
X130000000Y-122500000D01*
X130000000Y-129874000D01*
X129979998Y-129942121D01*
X129926342Y-129988614D01*
X129874000Y-130000000D01*
X126626000Y-130000000D01*
X126557879Y-129979998D01*
X126511386Y-129926342D01*
X126500000Y-129874000D01*
X126500000Y-117052190D01*
X126520002Y-116984069D01*
X126536905Y-116963095D01*
X130000000Y-113500000D01*
X130000000Y-108052190D01*
X130020002Y-107984069D01*
X130036905Y-107963095D01*
X130963095Y-107036905D01*
X131025407Y-107002879D01*
X131052190Y-107000000D01*
X136947810Y-107000000D01*
X137015931Y-107020002D01*
G37*
G04 #@! TD.AperFunction*
M02*
