G04 #@! TF.GenerationSoftware,KiCad,Pcbnew,7.0.11*
G04 #@! TF.CreationDate,2025-01-13T21:33:00+01:00*
G04 #@! TF.ProjectId,PowerUnit,506f7765-7255-46e6-9974-2e6b69636164,C*
G04 #@! TF.SameCoordinates,Original*
G04 #@! TF.FileFunction,Copper,L2,Inr*
G04 #@! TF.FilePolarity,Positive*
%FSLAX46Y46*%
G04 Gerber Fmt 4.6, Leading zero omitted, Abs format (unit mm)*
G04 Created by KiCad (PCBNEW 7.0.11) date 2025-01-13 21:33:00*
%MOMM*%
%LPD*%
G01*
G04 APERTURE LIST*
G04 #@! TA.AperFunction,ComponentPad*
%ADD10C,2.300000*%
G04 #@! TD*
G04 #@! TA.AperFunction,ComponentPad*
%ADD11C,2.700000*%
G04 #@! TD*
G04 #@! TA.AperFunction,ComponentPad*
%ADD12C,0.900000*%
G04 #@! TD*
G04 #@! TA.AperFunction,ComponentPad*
%ADD13C,8.600000*%
G04 #@! TD*
G04 #@! TA.AperFunction,ComponentPad*
%ADD14C,2.100000*%
G04 #@! TD*
G04 #@! TA.AperFunction,ViaPad*
%ADD15C,1.300000*%
G04 #@! TD*
G04 #@! TA.AperFunction,ViaPad*
%ADD16C,0.800000*%
G04 #@! TD*
G04 #@! TA.AperFunction,Conductor*
%ADD17C,0.300000*%
G04 #@! TD*
G04 APERTURE END LIST*
D10*
X106750000Y-143490000D03*
X110250000Y-143490000D03*
X113750000Y-143490000D03*
X117250000Y-143490000D03*
X120750000Y-143490000D03*
X124250000Y-143490000D03*
X127750000Y-143490000D03*
X131250000Y-143490000D03*
X134750000Y-143490000D03*
X138250000Y-143490000D03*
X106750000Y-146990000D03*
X110250000Y-146990000D03*
X113750000Y-146990000D03*
X117250000Y-146990000D03*
X120750000Y-146990000D03*
X124250000Y-146990000D03*
X127750000Y-146990000D03*
X131250000Y-146990000D03*
X134750000Y-146990000D03*
X138250000Y-146990000D03*
D11*
X110200000Y-96270000D03*
X106800000Y-96270000D03*
X110200000Y-109730000D03*
X106800000Y-109730000D03*
X118700000Y-96270000D03*
X115300000Y-96270000D03*
X118700000Y-109730000D03*
X115300000Y-109730000D03*
D10*
X62250000Y-143490000D03*
X65750000Y-143490000D03*
X69250000Y-143490000D03*
X72750000Y-143490000D03*
X62250000Y-146990000D03*
X65750000Y-146990000D03*
X69250000Y-146990000D03*
X72750000Y-146990000D03*
X171750000Y-143490000D03*
X175250000Y-143490000D03*
X178750000Y-143490000D03*
X182250000Y-143490000D03*
X185750000Y-143490000D03*
X189250000Y-143490000D03*
X192750000Y-143490000D03*
X196250000Y-143490000D03*
X199750000Y-143490000D03*
X203250000Y-143490000D03*
X171750000Y-146990000D03*
X175250000Y-146990000D03*
X178750000Y-146990000D03*
X182250000Y-146990000D03*
X185750000Y-146990000D03*
X189250000Y-146990000D03*
X192750000Y-146990000D03*
X196250000Y-146990000D03*
X199750000Y-146990000D03*
X203250000Y-146990000D03*
D11*
X203200000Y-96270000D03*
X199800000Y-96270000D03*
X203200000Y-109730000D03*
X199800000Y-109730000D03*
X169200000Y-96270000D03*
X165800000Y-96270000D03*
X169200000Y-109730000D03*
X165800000Y-109730000D03*
D10*
X149920000Y-97920000D03*
X152460000Y-97920000D03*
X155000000Y-97920000D03*
X157540000Y-97920000D03*
X160080000Y-97920000D03*
X160080000Y-100460000D03*
X160080000Y-103000000D03*
X160080000Y-105540000D03*
X160080000Y-108080000D03*
X157540000Y-108080000D03*
X155000000Y-108080000D03*
X152460000Y-108080000D03*
X149920000Y-108080000D03*
X149920000Y-105540000D03*
X149920000Y-103000000D03*
X149920000Y-100460000D03*
D11*
X127200000Y-96270000D03*
X123800000Y-96270000D03*
X127200000Y-109730000D03*
X123800000Y-109730000D03*
X135700000Y-96270000D03*
X132300000Y-96270000D03*
X135700000Y-109730000D03*
X132300000Y-109730000D03*
X194700000Y-96270000D03*
X191300000Y-96270000D03*
X194700000Y-109730000D03*
X191300000Y-109730000D03*
X177700000Y-96270000D03*
X174300000Y-96270000D03*
X177700000Y-109730000D03*
X174300000Y-109730000D03*
X186200000Y-96270000D03*
X182800000Y-96270000D03*
X186200000Y-109730000D03*
X182800000Y-109730000D03*
X144200000Y-96270000D03*
X140800000Y-96270000D03*
X144200000Y-109730000D03*
X140800000Y-109730000D03*
D12*
X51775000Y-90000000D03*
X52719581Y-87719581D03*
X52719581Y-92280419D03*
X55000000Y-86775000D03*
D13*
X55000000Y-90000000D03*
D12*
X55000000Y-93225000D03*
X57280419Y-87719581D03*
X57280419Y-92280419D03*
X58225000Y-90000000D03*
X51775000Y-135000000D03*
X52719581Y-132719581D03*
X52719581Y-137280419D03*
X55000000Y-131775000D03*
D13*
X55000000Y-135000000D03*
D12*
X55000000Y-138225000D03*
X57280419Y-132719581D03*
X57280419Y-137280419D03*
X58225000Y-135000000D03*
X86775000Y-90000000D03*
X87719581Y-87719581D03*
X87719581Y-92280419D03*
X90000000Y-86775000D03*
D13*
X90000000Y-90000000D03*
D12*
X90000000Y-93225000D03*
X92280419Y-87719581D03*
X92280419Y-92280419D03*
X93225000Y-90000000D03*
X86775000Y-143500000D03*
X87719581Y-141219581D03*
X87719581Y-145780419D03*
X90000000Y-140275000D03*
D13*
X90000000Y-143500000D03*
D12*
X90000000Y-146725000D03*
X92280419Y-141219581D03*
X92280419Y-145780419D03*
X93225000Y-143500000D03*
X151775000Y-90000000D03*
X152719581Y-87719581D03*
X152719581Y-92280419D03*
X155000000Y-86775000D03*
D13*
X155000000Y-90000000D03*
D12*
X155000000Y-93225000D03*
X157280419Y-87719581D03*
X157280419Y-92280419D03*
X158225000Y-90000000D03*
X151775000Y-143500000D03*
X152719581Y-141219581D03*
X152719581Y-145780419D03*
X155000000Y-140275000D03*
D13*
X155000000Y-143500000D03*
D12*
X155000000Y-146725000D03*
X157280419Y-141219581D03*
X157280419Y-145780419D03*
X158225000Y-143500000D03*
X206775000Y-90000000D03*
X207719581Y-87719581D03*
X207719581Y-92280419D03*
X210000000Y-86775000D03*
D13*
X210000000Y-90000000D03*
D12*
X210000000Y-93225000D03*
X212280419Y-87719581D03*
X212280419Y-92280419D03*
X213225000Y-90000000D03*
X206775000Y-135000000D03*
X207719581Y-132719581D03*
X207719581Y-137280419D03*
X210000000Y-131775000D03*
D13*
X210000000Y-135000000D03*
D12*
X210000000Y-138225000D03*
X212280419Y-132719581D03*
X212280419Y-137280419D03*
X213225000Y-135000000D03*
D14*
X80905000Y-87730000D03*
X79635000Y-90270000D03*
X78365000Y-87730000D03*
X77095000Y-90270000D03*
D15*
X131000000Y-126500000D03*
X125500000Y-134500000D03*
X108000000Y-134500000D03*
X108000000Y-132500000D03*
X125500000Y-132500000D03*
X98500000Y-132500000D03*
X97000000Y-132500000D03*
X97000000Y-134500000D03*
X87500000Y-132500000D03*
X87500000Y-134500000D03*
X78000000Y-132500000D03*
X78000000Y-134500000D03*
X68500000Y-132500000D03*
X68500000Y-134500000D03*
X165000000Y-132500000D03*
X165000000Y-134500000D03*
X98500000Y-134500000D03*
X146500000Y-132500000D03*
X146500000Y-134500000D03*
X158950000Y-112000000D03*
X158950000Y-114000000D03*
X97500000Y-94500000D03*
X99500000Y-94500000D03*
X199500000Y-126500000D03*
X192000000Y-132500000D03*
X192000000Y-134500000D03*
X174500000Y-132500000D03*
X174500000Y-134500000D03*
X89000000Y-102000000D03*
X87500000Y-102000000D03*
X92500000Y-99000000D03*
D16*
X82500000Y-101500000D03*
X69250000Y-103250000D03*
X71000000Y-87000000D03*
X203500000Y-87500000D03*
X67500000Y-100500000D03*
X156700000Y-123200000D03*
X149000000Y-118000000D03*
X123500000Y-87500000D03*
X162500000Y-128000000D03*
X178000000Y-87500000D03*
X73000000Y-100000000D03*
X73000000Y-92000000D03*
D15*
X197500000Y-126500000D03*
D16*
X60000000Y-95000000D03*
X140500000Y-87500000D03*
X186500000Y-87500000D03*
D15*
X133000000Y-126500000D03*
D16*
X169500000Y-87500000D03*
X195000000Y-87500000D03*
X115000000Y-87500000D03*
X132000000Y-87500000D03*
X62500000Y-100500000D03*
X78000000Y-100000000D03*
X74250000Y-103250000D03*
X85000000Y-95000000D03*
X65000000Y-95000000D03*
X65000000Y-92500000D03*
X106500000Y-87500000D03*
X93000000Y-96000000D03*
X93000000Y-97000000D03*
X63000000Y-104000000D03*
X94500000Y-95500000D03*
X82500000Y-99000000D03*
X82500000Y-96500000D03*
X65000000Y-88500000D03*
X68000000Y-104000000D03*
D15*
X125000000Y-123000000D03*
X125000000Y-121000000D03*
X125000000Y-119000000D03*
X115500000Y-121000000D03*
X115500000Y-123000000D03*
X108500000Y-123000000D03*
X108500000Y-121000000D03*
X108500000Y-119000000D03*
X106000000Y-119000000D03*
X106000000Y-121000000D03*
X106000000Y-123000000D03*
X99000000Y-123000000D03*
X99000000Y-121000000D03*
X99000000Y-119000000D03*
X96500000Y-119000000D03*
X96500000Y-121000000D03*
X96500000Y-123000000D03*
X89500000Y-119000000D03*
X89500000Y-121000000D03*
X89500000Y-123000000D03*
X115500000Y-119000000D03*
X118000000Y-119000000D03*
X118000000Y-123000000D03*
D16*
X129000000Y-92000000D03*
D15*
X118000000Y-121000000D03*
X70500000Y-119000000D03*
X70500000Y-123000000D03*
X77500000Y-123000000D03*
X77500000Y-121000000D03*
X77500000Y-119000000D03*
X61000000Y-119000000D03*
X61000000Y-123000000D03*
X68000000Y-123000000D03*
X68000000Y-121000000D03*
X68000000Y-119000000D03*
D16*
X120500000Y-92000000D03*
D15*
X70500000Y-121000000D03*
X61000000Y-121000000D03*
X146000000Y-121000000D03*
X146000000Y-123000000D03*
X139000000Y-123000000D03*
X135000000Y-128500000D03*
X139000000Y-121000000D03*
X135000000Y-124500000D03*
X139000000Y-119000000D03*
X136500000Y-126500000D03*
X136500000Y-128500000D03*
X146000000Y-119000000D03*
D16*
X146000000Y-92000000D03*
D15*
X136500000Y-124500000D03*
X135000000Y-126500000D03*
X172500000Y-123000000D03*
X172500000Y-121000000D03*
X172500000Y-119000000D03*
X165500000Y-123000000D03*
X165500000Y-121000000D03*
X165500000Y-119000000D03*
D16*
X164000000Y-92000000D03*
D15*
X150950000Y-114000000D03*
X150950000Y-112000000D03*
X182000000Y-123000000D03*
D16*
X172500000Y-92000000D03*
D15*
X175000000Y-119000000D03*
X182000000Y-121000000D03*
X175000000Y-121000000D03*
X182000000Y-119000000D03*
X175000000Y-123000000D03*
X184500000Y-119000000D03*
X184500000Y-121000000D03*
X184500000Y-123000000D03*
X191500000Y-119000000D03*
X191500000Y-121000000D03*
X191500000Y-123000000D03*
D16*
X181000000Y-92000000D03*
D15*
X80000000Y-119000000D03*
X87000000Y-119000000D03*
X87000000Y-121000000D03*
X87000000Y-123000000D03*
X80000000Y-123000000D03*
D16*
X112000000Y-92000000D03*
D15*
X80000000Y-121000000D03*
X106000000Y-128500000D03*
X99000000Y-126500000D03*
X99000000Y-128500000D03*
X109500000Y-140500000D03*
X106000000Y-126500000D03*
X182000000Y-126500000D03*
X175000000Y-126500000D03*
X175000000Y-128500000D03*
X182000000Y-128500000D03*
X146000000Y-126500000D03*
X139000000Y-126500000D03*
X146000000Y-128500000D03*
X139000000Y-128500000D03*
X68000000Y-126500000D03*
X68000000Y-128500000D03*
X61000000Y-126500000D03*
X61000000Y-128500000D03*
X89500000Y-128500000D03*
X96500000Y-126500000D03*
X89500000Y-126500000D03*
X96500000Y-128500000D03*
X165500000Y-128500000D03*
X172500000Y-128500000D03*
X165500000Y-126500000D03*
X172500000Y-126500000D03*
X115500000Y-128500000D03*
X108500000Y-126500000D03*
X108500000Y-128500000D03*
X114000000Y-136500000D03*
X115500000Y-126500000D03*
X184500000Y-126500000D03*
X184500000Y-128500000D03*
X191500000Y-126500000D03*
X191500000Y-128500000D03*
X80000000Y-128500000D03*
X87000000Y-126500000D03*
X87000000Y-128500000D03*
X80000000Y-126500000D03*
X118000000Y-128500000D03*
X118000000Y-126500000D03*
X125000000Y-128500000D03*
X125000000Y-126500000D03*
X117000000Y-138500000D03*
X121000000Y-138500000D03*
X119000000Y-138500000D03*
X70500000Y-128500000D03*
X77500000Y-128500000D03*
X77500000Y-126500000D03*
X70500000Y-126500000D03*
D16*
X60000010Y-106000000D03*
X64500000Y-106000000D03*
X74500000Y-94500000D03*
D15*
X195500000Y-124500000D03*
X195500000Y-126500000D03*
X194000000Y-126500000D03*
D16*
X189500000Y-92000000D03*
D15*
X194000000Y-128500000D03*
X194000000Y-124500000D03*
X195500000Y-128500000D03*
D16*
X159500000Y-132500000D03*
X154000000Y-128500000D03*
X156750000Y-132500000D03*
X158500000Y-123000000D03*
X153000000Y-120500000D03*
X56500000Y-128500000D03*
X54000000Y-128500000D03*
X153000000Y-123000000D03*
X158500000Y-120500000D03*
D15*
X129000000Y-126500000D03*
D16*
X137500000Y-92000000D03*
D15*
X127500000Y-128500000D03*
X127500000Y-126500000D03*
X129000000Y-124500000D03*
X132000000Y-118500000D03*
X129000000Y-128500000D03*
X127500000Y-124500000D03*
X198500000Y-118500000D03*
X201500000Y-124500000D03*
X203000000Y-126500000D03*
X201500000Y-128500000D03*
D16*
X198000000Y-92000000D03*
D15*
X203000000Y-128500000D03*
X201500000Y-126500000D03*
X203000000Y-124500000D03*
D16*
X77500000Y-106999988D03*
X102500000Y-127000000D03*
X112000000Y-127000000D03*
X73500000Y-106000000D03*
X162500000Y-123000000D03*
X178500000Y-127000000D03*
X142500000Y-127000000D03*
X149000000Y-120500000D03*
X64500000Y-127000000D03*
X56500000Y-124500000D03*
X149000000Y-125500000D03*
X93000000Y-127000000D03*
X169000000Y-127000000D03*
X162500000Y-125500000D03*
X188000000Y-127000000D03*
X162500000Y-120500000D03*
X83500000Y-127000000D03*
X54000000Y-124500000D03*
X149000000Y-123000000D03*
X121500000Y-127000000D03*
X74000000Y-127000000D03*
X149000000Y-128000000D03*
X156750000Y-127250000D03*
D17*
X129500000Y-107430000D02*
X127200000Y-109730000D01*
X129000000Y-92000000D02*
X129500000Y-92500000D01*
X129500000Y-92500000D02*
X129500000Y-107430000D01*
X121000000Y-107430000D02*
X118700000Y-109730000D01*
X120500000Y-92000000D02*
X121000000Y-92500000D01*
X121000000Y-92500000D02*
X121000000Y-107430000D01*
X146000000Y-92000000D02*
X146500000Y-92500000D01*
X146500000Y-92500000D02*
X146500000Y-107430000D01*
X146500000Y-107430000D02*
X144200000Y-109730000D01*
X164000000Y-92000000D02*
X163500000Y-92500000D01*
X163500000Y-107430000D02*
X165800000Y-109730000D01*
X163500000Y-92500000D02*
X163500000Y-107430000D01*
X172000000Y-92500000D02*
X172000000Y-107430000D01*
X172500000Y-92000000D02*
X172000000Y-92500000D01*
X172000000Y-107430000D02*
X174300000Y-109730000D01*
X181000000Y-92000000D02*
X180500000Y-92500000D01*
X180500000Y-107430000D02*
X182800000Y-109730000D01*
X180500000Y-92500000D02*
X180500000Y-107430000D01*
X112500000Y-92500000D02*
X112500000Y-107430000D01*
X112500000Y-107430000D02*
X110200000Y-109730000D01*
X112000000Y-92000000D02*
X112500000Y-92500000D01*
X57000000Y-130000000D02*
X52500000Y-130000000D01*
X52500000Y-130000000D02*
X51500000Y-129000000D01*
X110250000Y-146990000D02*
X108500000Y-145240000D01*
X62000000Y-110000000D02*
X62000000Y-107000000D01*
X51500000Y-120500000D02*
X62000000Y-110000000D01*
X62000000Y-107000000D02*
X61000000Y-106000000D01*
X108500000Y-141500000D02*
X105500000Y-138500000D01*
X108500000Y-145240000D02*
X108500000Y-141500000D01*
X65500000Y-138500000D02*
X57000000Y-130000000D01*
X51500000Y-129000000D02*
X51500000Y-120500000D01*
X61000000Y-106000000D02*
X60000010Y-106000000D01*
X105500000Y-138500000D02*
X65500000Y-138500000D01*
X63500000Y-106000000D02*
X64500000Y-106000000D01*
X112000000Y-145240000D02*
X112000000Y-141519998D01*
X52000000Y-128500000D02*
X52000000Y-121000000D01*
X62500000Y-107000000D02*
X63500000Y-106000000D01*
X113750000Y-146990000D02*
X112000000Y-145240000D01*
X62500000Y-110500000D02*
X62500000Y-107000000D01*
X108480002Y-138000000D02*
X66000000Y-138000000D01*
X112000000Y-141519998D02*
X108480002Y-138000000D01*
X52000000Y-121000000D02*
X62500000Y-110500000D01*
X57500000Y-129500000D02*
X53000000Y-129500000D01*
X66000000Y-138000000D02*
X57500000Y-129500000D01*
X53000000Y-129500000D02*
X52000000Y-128500000D01*
X189000000Y-107430000D02*
X191300000Y-109730000D01*
X189500000Y-92000000D02*
X189000000Y-92500000D01*
X189000000Y-92500000D02*
X189000000Y-107430000D01*
X180500000Y-145240000D02*
X180500000Y-142000000D01*
X177000000Y-138500000D02*
X165500000Y-138500000D01*
X180500000Y-142000000D02*
X177000000Y-138500000D01*
X182250000Y-146990000D02*
X180500000Y-145240000D01*
X165500000Y-138500000D02*
X159500000Y-132500000D01*
X127750000Y-146990000D02*
X129500000Y-145240000D01*
X132500000Y-139000000D02*
X146000000Y-139000000D01*
X153000000Y-132000000D02*
X153000000Y-129500000D01*
X153000000Y-129500000D02*
X154000000Y-128500000D01*
X129500000Y-145240000D02*
X129500000Y-142000000D01*
X129500000Y-142000000D02*
X132500000Y-139000000D01*
X146000000Y-139000000D02*
X153000000Y-132000000D01*
X177000000Y-142000000D02*
X177000000Y-145240000D01*
X160000000Y-134000000D02*
X158250000Y-134000000D01*
X165000000Y-139000000D02*
X174000000Y-139000000D01*
X158250000Y-134000000D02*
X156750000Y-132500000D01*
X174000000Y-139000000D02*
X177000000Y-142000000D01*
X177000000Y-145240000D02*
X178750000Y-146990000D01*
X165000000Y-139000000D02*
X160000000Y-134000000D01*
X160875000Y-132000000D02*
X160875000Y-132875000D01*
X180000000Y-138000000D02*
X184000000Y-142000000D01*
X160875000Y-132875000D02*
X166000000Y-138000000D01*
X158500000Y-129625000D02*
X160875000Y-132000000D01*
X184000000Y-145240000D02*
X185750000Y-146990000D01*
X166000000Y-138000000D02*
X180000000Y-138000000D01*
X184000000Y-142000000D02*
X184000000Y-145240000D01*
X158500000Y-123000000D02*
X158500000Y-129625000D01*
X150500000Y-123000000D02*
X153000000Y-120500000D01*
X145000000Y-138000000D02*
X150500000Y-132500000D01*
X150500000Y-132500000D02*
X150500000Y-123000000D01*
X126240000Y-138000000D02*
X145000000Y-138000000D01*
X120750000Y-143490000D02*
X126240000Y-138000000D01*
X66500000Y-137500000D02*
X95000000Y-137500000D01*
X115480000Y-141980000D02*
X115480000Y-145220000D01*
X56500000Y-128500000D02*
X57500000Y-128500000D01*
X95000008Y-137499992D02*
X108999992Y-137499992D01*
X112500000Y-141000000D02*
X114500000Y-141000000D01*
X95000000Y-137500000D02*
X95000008Y-137499992D01*
X115480000Y-145220000D02*
X117250000Y-146990000D01*
X108999992Y-137499992D02*
X112500000Y-141000000D01*
X57500000Y-128500000D02*
X66500000Y-137500000D01*
X114500000Y-141000000D02*
X115480000Y-141980000D01*
X57500000Y-127500000D02*
X66999982Y-136999982D01*
X113000000Y-140500000D02*
X117500000Y-140500000D01*
X55000000Y-127500000D02*
X57500000Y-127500000D01*
X109499982Y-136999982D02*
X113000000Y-140500000D01*
X66999982Y-136999982D02*
X109499982Y-136999982D01*
X119000000Y-142000000D02*
X119000000Y-145240000D01*
X119000000Y-145240000D02*
X120750000Y-146990000D01*
X117500000Y-140500000D02*
X119000000Y-142000000D01*
X54000000Y-128500000D02*
X55000000Y-127500000D01*
X129500000Y-138500000D02*
X145500000Y-138500000D01*
X145500000Y-138500000D02*
X151000000Y-133000000D01*
X126000000Y-145240000D02*
X126000000Y-142000000D01*
X126000000Y-142000000D02*
X129500000Y-138500000D01*
X124250000Y-146990000D02*
X126000000Y-145240000D01*
X151000000Y-133000000D02*
X151000000Y-125000000D01*
X151000000Y-125000000D02*
X153000000Y-123000000D01*
X158500000Y-120500000D02*
X157500000Y-121500000D01*
X155500000Y-130500000D02*
X146500000Y-139500000D01*
X146500000Y-139500000D02*
X136000000Y-139500000D01*
X155500000Y-125750000D02*
X157500000Y-123750000D01*
X133000000Y-142500000D02*
X133000000Y-145240000D01*
X133000000Y-145240000D02*
X131250000Y-146990000D01*
X157500000Y-121500000D02*
X157500000Y-123750000D01*
X136000000Y-139500000D02*
X133000000Y-142500000D01*
X155500000Y-130500000D02*
X155500000Y-125750000D01*
X137500000Y-92000000D02*
X138000000Y-92500000D01*
X138000000Y-107430000D02*
X135700000Y-109730000D01*
X138000000Y-92500000D02*
X138000000Y-107430000D01*
X198000000Y-92000000D02*
X197500000Y-92500000D01*
X197500000Y-92500000D02*
X197500000Y-107430000D01*
X197500000Y-107430000D02*
X199800000Y-109730000D01*
X77500012Y-107000000D02*
X89000000Y-107000000D01*
X77500000Y-106999988D02*
X77500012Y-107000000D01*
X102500000Y-120500000D02*
X102500000Y-127000000D01*
X89000000Y-107000000D02*
X102500000Y-120500000D01*
X78000000Y-106000000D02*
X73500000Y-106000000D01*
X104500000Y-124500000D02*
X103000000Y-123000000D01*
X89500000Y-106500000D02*
X78500000Y-106500000D01*
X109500000Y-124500000D02*
X104500000Y-124500000D01*
X103000000Y-123000000D02*
X103000000Y-120000000D01*
X112000000Y-127000000D02*
X109500000Y-124500000D01*
X103000000Y-120000000D02*
X89500000Y-106500000D01*
X78500000Y-106500000D02*
X78000000Y-106000000D01*
X162500000Y-123000000D02*
X162500000Y-123500000D01*
X163500000Y-124500000D02*
X168500000Y-124500000D01*
X169000000Y-125000000D02*
X176500000Y-125000000D01*
X176500000Y-125000000D02*
X178500000Y-127000000D01*
X162500000Y-123500000D02*
X163500000Y-124500000D01*
X168500000Y-124500000D02*
X169000000Y-125000000D01*
X148000000Y-121500000D02*
X149000000Y-120500000D01*
X148000000Y-122889998D02*
X148000000Y-121500000D01*
X143889998Y-127000000D02*
X142500000Y-127000000D01*
X148000000Y-122889998D02*
X143889998Y-127000000D01*
X62500000Y-125000000D02*
X57000000Y-125000000D01*
X64500000Y-127000000D02*
X62500000Y-125000000D01*
X57000000Y-125000000D02*
X56500000Y-124500000D01*
X148000000Y-129000000D02*
X148000000Y-126500000D01*
X148000000Y-126500000D02*
X149000000Y-125500000D01*
X93000000Y-127000000D02*
X96500000Y-130500000D01*
X146500000Y-130500000D02*
X148000000Y-129000000D01*
X96500000Y-130500000D02*
X146500000Y-130500000D01*
X162500000Y-125500000D02*
X163000000Y-125000000D01*
X169000000Y-126000000D02*
X169000000Y-127000000D01*
X163000000Y-125000000D02*
X168000000Y-125000000D01*
X168000000Y-125000000D02*
X169000000Y-126000000D01*
X164000000Y-122000000D02*
X162500000Y-120500000D01*
X188000000Y-127000000D02*
X185500000Y-124500000D01*
X185500000Y-124500000D02*
X169500000Y-124500000D01*
X167000000Y-122000000D02*
X164000000Y-122000000D01*
X169500000Y-124500000D02*
X167000000Y-122000000D01*
X58000000Y-124500000D02*
X57249999Y-123749999D01*
X57249999Y-123749999D02*
X54750001Y-123749999D01*
X81000000Y-124500000D02*
X58000000Y-124500000D01*
X54750001Y-123749999D02*
X54000000Y-124500000D01*
X83500000Y-127000000D02*
X81000000Y-124500000D01*
X147500000Y-128500000D02*
X147500000Y-124500000D01*
X147500000Y-128500000D02*
X146000000Y-130000000D01*
X147500000Y-124500000D02*
X149000000Y-123000000D01*
X121500000Y-127000000D02*
X124500000Y-130000000D01*
X124500000Y-130000000D02*
X146000000Y-130000000D01*
X148500000Y-128500000D02*
X149000000Y-128000000D01*
X148500000Y-129500000D02*
X148500000Y-128500000D01*
X147000000Y-131000000D02*
X148500000Y-129500000D01*
X74000000Y-127000000D02*
X78000000Y-131000000D01*
X147000000Y-131000000D02*
X78000000Y-131000000D01*
X175250000Y-146990000D02*
X173500000Y-145240000D01*
X155500000Y-133000000D02*
X155500000Y-132000000D01*
X157000000Y-134500000D02*
X155500000Y-133000000D01*
X155500000Y-132000000D02*
X156750000Y-130750000D01*
X173500000Y-145240000D02*
X173500000Y-142000000D01*
X156750000Y-130750000D02*
X156750000Y-127250000D01*
X164500000Y-139500000D02*
X159500000Y-134500000D01*
X159500000Y-134500000D02*
X157000000Y-134500000D01*
X171000000Y-139500000D02*
X164500000Y-139500000D01*
X173500000Y-142000000D02*
X171000000Y-139500000D01*
G04 #@! TA.AperFunction,Conductor*
G36*
X84016431Y-85520502D02*
G01*
X84037405Y-85537405D01*
X84963095Y-86463095D01*
X84997121Y-86525407D01*
X85000000Y-86552190D01*
X85000000Y-94179820D01*
X84979998Y-94247941D01*
X84926342Y-94294434D01*
X84904154Y-94302159D01*
X84749777Y-94340209D01*
X84749774Y-94340210D01*
X84599148Y-94419265D01*
X84599142Y-94419270D01*
X84471818Y-94532069D01*
X84471816Y-94532071D01*
X84375181Y-94672070D01*
X84375179Y-94672074D01*
X84314859Y-94831128D01*
X84294355Y-94999997D01*
X84294355Y-95000000D01*
X84314859Y-95168871D01*
X84375179Y-95327925D01*
X84375181Y-95327929D01*
X84375182Y-95327930D01*
X84471817Y-95467929D01*
X84599148Y-95580734D01*
X84749775Y-95659790D01*
X84749776Y-95659790D01*
X84749778Y-95659791D01*
X84906461Y-95698409D01*
X84914944Y-95700500D01*
X84914947Y-95700500D01*
X85085053Y-95700500D01*
X85085056Y-95700500D01*
X85250225Y-95659790D01*
X85400852Y-95580734D01*
X85528183Y-95467929D01*
X85624818Y-95327930D01*
X85685140Y-95168872D01*
X85692190Y-95110813D01*
X85720256Y-95045600D01*
X85779125Y-95005913D01*
X85817271Y-95000000D01*
X95447810Y-95000000D01*
X95515931Y-95020002D01*
X95536905Y-95036905D01*
X95963095Y-95463095D01*
X95997121Y-95525407D01*
X96000000Y-95552190D01*
X96000000Y-96947810D01*
X95979998Y-97015931D01*
X95963095Y-97036905D01*
X95536905Y-97463095D01*
X95474593Y-97497121D01*
X95447810Y-97500000D01*
X86500000Y-97500000D01*
X86500000Y-101947810D01*
X86479998Y-102015931D01*
X86463095Y-102036905D01*
X85536905Y-102963095D01*
X85474593Y-102997121D01*
X85447810Y-103000000D01*
X81499998Y-103000000D01*
X79536905Y-104963095D01*
X79474593Y-104997120D01*
X79447810Y-105000000D01*
X58552190Y-105000000D01*
X58484069Y-104979998D01*
X58463095Y-104963095D01*
X57536905Y-104036905D01*
X57502879Y-103974593D01*
X57500000Y-103947810D01*
X57500000Y-103250002D01*
X68544355Y-103250002D01*
X68564859Y-103418871D01*
X68625179Y-103577925D01*
X68625181Y-103577929D01*
X68625182Y-103577930D01*
X68721817Y-103717929D01*
X68849148Y-103830734D01*
X68999775Y-103909790D01*
X68999776Y-103909790D01*
X68999778Y-103909791D01*
X69154030Y-103947810D01*
X69164944Y-103950500D01*
X69164947Y-103950500D01*
X69335053Y-103950500D01*
X69335056Y-103950500D01*
X69500225Y-103909790D01*
X69650852Y-103830734D01*
X69778183Y-103717929D01*
X69874818Y-103577930D01*
X69935140Y-103418872D01*
X69955645Y-103250002D01*
X73544355Y-103250002D01*
X73564859Y-103418871D01*
X73625179Y-103577925D01*
X73625181Y-103577929D01*
X73625182Y-103577930D01*
X73721817Y-103717929D01*
X73849148Y-103830734D01*
X73999775Y-103909790D01*
X73999776Y-103909790D01*
X73999778Y-103909791D01*
X74154030Y-103947810D01*
X74164944Y-103950500D01*
X74164947Y-103950500D01*
X74335053Y-103950500D01*
X74335056Y-103950500D01*
X74500225Y-103909790D01*
X74650852Y-103830734D01*
X74778183Y-103717929D01*
X74874818Y-103577930D01*
X74935140Y-103418872D01*
X74955645Y-103250000D01*
X74935140Y-103081128D01*
X74887344Y-102955099D01*
X74874820Y-102922074D01*
X74874818Y-102922070D01*
X74778183Y-102782071D01*
X74778181Y-102782069D01*
X74650857Y-102669270D01*
X74650851Y-102669265D01*
X74500225Y-102590210D01*
X74500221Y-102590208D01*
X74335059Y-102549500D01*
X74335056Y-102549500D01*
X74164944Y-102549500D01*
X74164940Y-102549500D01*
X73999778Y-102590208D01*
X73999774Y-102590210D01*
X73849148Y-102669265D01*
X73849142Y-102669270D01*
X73721818Y-102782069D01*
X73721816Y-102782071D01*
X73625181Y-102922070D01*
X73625179Y-102922074D01*
X73564859Y-103081128D01*
X73544355Y-103249997D01*
X73544355Y-103250002D01*
X69955645Y-103250002D01*
X69955645Y-103250000D01*
X69935140Y-103081128D01*
X69887344Y-102955099D01*
X69874820Y-102922074D01*
X69874818Y-102922070D01*
X69778183Y-102782071D01*
X69778181Y-102782069D01*
X69650857Y-102669270D01*
X69650851Y-102669265D01*
X69500225Y-102590210D01*
X69500221Y-102590208D01*
X69335059Y-102549500D01*
X69335056Y-102549500D01*
X69164944Y-102549500D01*
X69164940Y-102549500D01*
X68999778Y-102590208D01*
X68999774Y-102590210D01*
X68849148Y-102669265D01*
X68849142Y-102669270D01*
X68721818Y-102782069D01*
X68721816Y-102782071D01*
X68625181Y-102922070D01*
X68625179Y-102922074D01*
X68564859Y-103081128D01*
X68544355Y-103249997D01*
X68544355Y-103250002D01*
X57500000Y-103250002D01*
X57500000Y-101500002D01*
X81794355Y-101500002D01*
X81814859Y-101668871D01*
X81875179Y-101827925D01*
X81875181Y-101827929D01*
X81957930Y-101947810D01*
X81971817Y-101967929D01*
X82099148Y-102080734D01*
X82249775Y-102159790D01*
X82249776Y-102159790D01*
X82249778Y-102159791D01*
X82357457Y-102186331D01*
X82414944Y-102200500D01*
X82414947Y-102200500D01*
X82585053Y-102200500D01*
X82585056Y-102200500D01*
X82750225Y-102159790D01*
X82900852Y-102080734D01*
X83028183Y-101967929D01*
X83124818Y-101827930D01*
X83185140Y-101668872D01*
X83205645Y-101500000D01*
X83201926Y-101469375D01*
X83185140Y-101331128D01*
X83124820Y-101172074D01*
X83124818Y-101172070D01*
X83028183Y-101032071D01*
X83028181Y-101032069D01*
X82900857Y-100919270D01*
X82900851Y-100919265D01*
X82750225Y-100840210D01*
X82750221Y-100840208D01*
X82585059Y-100799500D01*
X82585056Y-100799500D01*
X82414944Y-100799500D01*
X82414940Y-100799500D01*
X82249778Y-100840208D01*
X82249774Y-100840210D01*
X82099148Y-100919265D01*
X82099142Y-100919270D01*
X81971818Y-101032069D01*
X81971816Y-101032071D01*
X81875181Y-101172070D01*
X81875179Y-101172074D01*
X81814859Y-101331128D01*
X81794355Y-101499997D01*
X81794355Y-101500002D01*
X57500000Y-101500002D01*
X57500000Y-100500002D01*
X61794355Y-100500002D01*
X61814859Y-100668871D01*
X61875179Y-100827925D01*
X61875181Y-100827929D01*
X61971816Y-100967928D01*
X61971818Y-100967930D01*
X62058700Y-101044901D01*
X62099148Y-101080734D01*
X62249775Y-101159790D01*
X62249776Y-101159790D01*
X62249778Y-101159791D01*
X62406461Y-101198409D01*
X62414944Y-101200500D01*
X62414947Y-101200500D01*
X62585053Y-101200500D01*
X62585056Y-101200500D01*
X62750225Y-101159790D01*
X62900852Y-101080734D01*
X63028183Y-100967929D01*
X63124818Y-100827930D01*
X63185140Y-100668872D01*
X63205645Y-100500002D01*
X66794355Y-100500002D01*
X66814859Y-100668871D01*
X66875179Y-100827925D01*
X66875181Y-100827929D01*
X66971816Y-100967928D01*
X66971818Y-100967930D01*
X67058700Y-101044901D01*
X67099148Y-101080734D01*
X67249775Y-101159790D01*
X67249776Y-101159790D01*
X67249778Y-101159791D01*
X67406461Y-101198409D01*
X67414944Y-101200500D01*
X67414947Y-101200500D01*
X67585053Y-101200500D01*
X67585056Y-101200500D01*
X67750225Y-101159790D01*
X67900852Y-101080734D01*
X68028183Y-100967929D01*
X68124818Y-100827930D01*
X68185140Y-100668872D01*
X68205645Y-100500000D01*
X68185140Y-100331128D01*
X68124818Y-100172070D01*
X68028183Y-100032071D01*
X68028181Y-100032069D01*
X67991985Y-100000002D01*
X72294355Y-100000002D01*
X72314859Y-100168871D01*
X72375179Y-100327925D01*
X72375181Y-100327929D01*
X72375182Y-100327930D01*
X72471817Y-100467929D01*
X72599148Y-100580734D01*
X72749775Y-100659790D01*
X72749776Y-100659790D01*
X72749778Y-100659791D01*
X72906461Y-100698409D01*
X72914944Y-100700500D01*
X72914947Y-100700500D01*
X73085053Y-100700500D01*
X73085056Y-100700500D01*
X73250225Y-100659790D01*
X73400852Y-100580734D01*
X73528183Y-100467929D01*
X73624818Y-100327930D01*
X73685140Y-100168872D01*
X73705645Y-100000002D01*
X77294355Y-100000002D01*
X77314859Y-100168871D01*
X77375179Y-100327925D01*
X77375181Y-100327929D01*
X77375182Y-100327930D01*
X77471817Y-100467929D01*
X77599148Y-100580734D01*
X77749775Y-100659790D01*
X77749776Y-100659790D01*
X77749778Y-100659791D01*
X77906461Y-100698409D01*
X77914944Y-100700500D01*
X77914947Y-100700500D01*
X78085053Y-100700500D01*
X78085056Y-100700500D01*
X78250225Y-100659790D01*
X78400852Y-100580734D01*
X78528183Y-100467929D01*
X78624818Y-100327930D01*
X78685140Y-100168872D01*
X78705645Y-100000000D01*
X78695842Y-99919270D01*
X78685140Y-99831128D01*
X78624820Y-99672074D01*
X78624818Y-99672070D01*
X78528183Y-99532071D01*
X78528181Y-99532069D01*
X78400857Y-99419270D01*
X78400851Y-99419265D01*
X78250225Y-99340210D01*
X78250221Y-99340208D01*
X78085059Y-99299500D01*
X78085056Y-99299500D01*
X77914944Y-99299500D01*
X77914940Y-99299500D01*
X77749778Y-99340208D01*
X77749774Y-99340210D01*
X77599148Y-99419265D01*
X77599142Y-99419270D01*
X77471818Y-99532069D01*
X77471816Y-99532071D01*
X77375181Y-99672070D01*
X77375179Y-99672074D01*
X77314859Y-99831128D01*
X77294355Y-99999997D01*
X77294355Y-100000002D01*
X73705645Y-100000002D01*
X73705645Y-100000000D01*
X73695842Y-99919270D01*
X73685140Y-99831128D01*
X73624820Y-99672074D01*
X73624818Y-99672070D01*
X73528183Y-99532071D01*
X73528181Y-99532069D01*
X73400857Y-99419270D01*
X73400851Y-99419265D01*
X73250225Y-99340210D01*
X73250221Y-99340208D01*
X73085059Y-99299500D01*
X73085056Y-99299500D01*
X72914944Y-99299500D01*
X72914940Y-99299500D01*
X72749778Y-99340208D01*
X72749774Y-99340210D01*
X72599148Y-99419265D01*
X72599142Y-99419270D01*
X72471818Y-99532069D01*
X72471816Y-99532071D01*
X72375181Y-99672070D01*
X72375179Y-99672074D01*
X72314859Y-99831128D01*
X72294355Y-99999997D01*
X72294355Y-100000002D01*
X67991985Y-100000002D01*
X67900857Y-99919270D01*
X67900851Y-99919265D01*
X67750225Y-99840210D01*
X67750221Y-99840208D01*
X67585059Y-99799500D01*
X67585056Y-99799500D01*
X67414944Y-99799500D01*
X67414940Y-99799500D01*
X67249778Y-99840208D01*
X67249774Y-99840210D01*
X67099148Y-99919265D01*
X67099142Y-99919270D01*
X66971818Y-100032069D01*
X66971816Y-100032071D01*
X66875181Y-100172070D01*
X66875179Y-100172074D01*
X66814859Y-100331128D01*
X66794355Y-100499997D01*
X66794355Y-100500002D01*
X63205645Y-100500002D01*
X63205645Y-100500000D01*
X63185140Y-100331128D01*
X63124818Y-100172070D01*
X63028183Y-100032071D01*
X63028181Y-100032069D01*
X62900857Y-99919270D01*
X62900851Y-99919265D01*
X62750225Y-99840210D01*
X62750221Y-99840208D01*
X62585059Y-99799500D01*
X62585056Y-99799500D01*
X62414944Y-99799500D01*
X62414940Y-99799500D01*
X62249778Y-99840208D01*
X62249774Y-99840210D01*
X62099148Y-99919265D01*
X62099142Y-99919270D01*
X61971818Y-100032069D01*
X61971816Y-100032071D01*
X61875181Y-100172070D01*
X61875179Y-100172074D01*
X61814859Y-100331128D01*
X61794355Y-100499997D01*
X61794355Y-100500002D01*
X57500000Y-100500002D01*
X57500000Y-95052190D01*
X57515324Y-95000000D01*
X59294355Y-95000000D01*
X59314859Y-95168871D01*
X59375179Y-95327925D01*
X59375181Y-95327929D01*
X59375182Y-95327930D01*
X59471817Y-95467929D01*
X59599148Y-95580734D01*
X59749775Y-95659790D01*
X59749776Y-95659790D01*
X59749778Y-95659791D01*
X59906461Y-95698409D01*
X59914944Y-95700500D01*
X59914947Y-95700500D01*
X60085053Y-95700500D01*
X60085056Y-95700500D01*
X60250225Y-95659790D01*
X60400852Y-95580734D01*
X60528183Y-95467929D01*
X60624818Y-95327930D01*
X60685140Y-95168872D01*
X60705645Y-95000000D01*
X64294355Y-95000000D01*
X64314859Y-95168871D01*
X64375179Y-95327925D01*
X64375181Y-95327929D01*
X64375182Y-95327930D01*
X64471817Y-95467929D01*
X64599148Y-95580734D01*
X64749775Y-95659790D01*
X64749776Y-95659790D01*
X64749778Y-95659791D01*
X64906461Y-95698409D01*
X64914944Y-95700500D01*
X64914947Y-95700500D01*
X65085053Y-95700500D01*
X65085056Y-95700500D01*
X65250225Y-95659790D01*
X65400852Y-95580734D01*
X65528183Y-95467929D01*
X65624818Y-95327930D01*
X65685140Y-95168872D01*
X65705645Y-95000000D01*
X65685140Y-94831128D01*
X65624818Y-94672070D01*
X65528183Y-94532071D01*
X65522457Y-94526998D01*
X65491985Y-94500002D01*
X73794355Y-94500002D01*
X73814859Y-94668871D01*
X73875179Y-94827925D01*
X73875181Y-94827929D01*
X73971816Y-94967928D01*
X73971818Y-94967930D01*
X74059489Y-95045600D01*
X74099148Y-95080734D01*
X74249775Y-95159790D01*
X74249776Y-95159790D01*
X74249778Y-95159791D01*
X74406461Y-95198409D01*
X74414944Y-95200500D01*
X74414947Y-95200500D01*
X74585053Y-95200500D01*
X74585056Y-95200500D01*
X74750225Y-95159790D01*
X74900852Y-95080734D01*
X75028183Y-94967929D01*
X75124818Y-94827930D01*
X75185140Y-94668872D01*
X75205645Y-94500000D01*
X75197097Y-94429605D01*
X75185140Y-94331128D01*
X75124820Y-94172074D01*
X75124818Y-94172070D01*
X75028183Y-94032071D01*
X75028181Y-94032069D01*
X74900857Y-93919270D01*
X74900851Y-93919265D01*
X74750225Y-93840210D01*
X74750221Y-93840208D01*
X74585059Y-93799500D01*
X74585056Y-93799500D01*
X74414944Y-93799500D01*
X74414940Y-93799500D01*
X74249778Y-93840208D01*
X74249774Y-93840210D01*
X74099148Y-93919265D01*
X74099142Y-93919270D01*
X73971818Y-94032069D01*
X73971816Y-94032071D01*
X73875181Y-94172070D01*
X73875179Y-94172074D01*
X73814859Y-94331128D01*
X73794355Y-94499997D01*
X73794355Y-94500002D01*
X65491985Y-94500002D01*
X65400857Y-94419270D01*
X65400851Y-94419265D01*
X65250225Y-94340210D01*
X65250221Y-94340208D01*
X65085059Y-94299500D01*
X65085056Y-94299500D01*
X64914944Y-94299500D01*
X64914940Y-94299500D01*
X64749778Y-94340208D01*
X64749774Y-94340210D01*
X64599148Y-94419265D01*
X64599142Y-94419270D01*
X64471818Y-94532069D01*
X64471816Y-94532071D01*
X64375181Y-94672070D01*
X64375179Y-94672074D01*
X64314859Y-94831128D01*
X64294355Y-94999997D01*
X64294355Y-95000000D01*
X60705645Y-95000000D01*
X60685140Y-94831128D01*
X60624818Y-94672070D01*
X60528183Y-94532071D01*
X60522457Y-94526998D01*
X60400857Y-94419270D01*
X60400851Y-94419265D01*
X60250225Y-94340210D01*
X60250221Y-94340208D01*
X60085059Y-94299500D01*
X60085056Y-94299500D01*
X59914944Y-94299500D01*
X59914940Y-94299500D01*
X59749778Y-94340208D01*
X59749774Y-94340210D01*
X59599148Y-94419265D01*
X59599142Y-94419270D01*
X59471818Y-94532069D01*
X59471816Y-94532071D01*
X59375181Y-94672070D01*
X59375179Y-94672074D01*
X59314859Y-94831128D01*
X59294355Y-94999997D01*
X59294355Y-95000000D01*
X57515324Y-95000000D01*
X57520002Y-94984069D01*
X57536905Y-94963095D01*
X59999998Y-92500002D01*
X64294355Y-92500002D01*
X64314859Y-92668871D01*
X64375179Y-92827925D01*
X64375181Y-92827929D01*
X64375182Y-92827930D01*
X64471817Y-92967929D01*
X64599148Y-93080734D01*
X64749775Y-93159790D01*
X64749776Y-93159790D01*
X64749778Y-93159791D01*
X64906461Y-93198409D01*
X64914944Y-93200500D01*
X64914947Y-93200500D01*
X65085053Y-93200500D01*
X65085056Y-93200500D01*
X65250225Y-93159790D01*
X65400852Y-93080734D01*
X65528183Y-92967929D01*
X65624818Y-92827930D01*
X65685140Y-92668872D01*
X65705645Y-92500000D01*
X65685140Y-92331128D01*
X65624818Y-92172070D01*
X65528183Y-92032071D01*
X65528181Y-92032069D01*
X65491985Y-92000002D01*
X72294355Y-92000002D01*
X72314859Y-92168871D01*
X72375179Y-92327925D01*
X72375181Y-92327929D01*
X72375182Y-92327930D01*
X72471817Y-92467929D01*
X72599148Y-92580734D01*
X72749775Y-92659790D01*
X72749776Y-92659790D01*
X72749778Y-92659791D01*
X72906461Y-92698409D01*
X72914944Y-92700500D01*
X72914947Y-92700500D01*
X73085053Y-92700500D01*
X73085056Y-92700500D01*
X73250225Y-92659790D01*
X73400852Y-92580734D01*
X73528183Y-92467929D01*
X73624818Y-92327930D01*
X73685140Y-92168872D01*
X73705645Y-92000000D01*
X73695842Y-91919270D01*
X73685140Y-91831128D01*
X73624820Y-91672074D01*
X73624818Y-91672070D01*
X73528183Y-91532071D01*
X73528181Y-91532069D01*
X73400857Y-91419270D01*
X73400851Y-91419265D01*
X73250225Y-91340210D01*
X73250221Y-91340208D01*
X73085059Y-91299500D01*
X73085056Y-91299500D01*
X72914944Y-91299500D01*
X72914940Y-91299500D01*
X72749778Y-91340208D01*
X72749774Y-91340210D01*
X72599148Y-91419265D01*
X72599142Y-91419270D01*
X72471818Y-91532069D01*
X72471816Y-91532071D01*
X72375181Y-91672070D01*
X72375179Y-91672074D01*
X72314859Y-91831128D01*
X72294355Y-91999997D01*
X72294355Y-92000002D01*
X65491985Y-92000002D01*
X65400857Y-91919270D01*
X65400851Y-91919265D01*
X65250225Y-91840210D01*
X65250221Y-91840208D01*
X65085059Y-91799500D01*
X65085056Y-91799500D01*
X64914944Y-91799500D01*
X64914940Y-91799500D01*
X64749778Y-91840208D01*
X64749774Y-91840210D01*
X64599148Y-91919265D01*
X64599142Y-91919270D01*
X64471818Y-92032069D01*
X64471816Y-92032071D01*
X64375181Y-92172070D01*
X64375179Y-92172074D01*
X64314859Y-92331128D01*
X64294355Y-92499997D01*
X64294355Y-92500002D01*
X59999998Y-92500002D01*
X60000000Y-92500000D01*
X60000000Y-87786330D01*
X74610710Y-87786330D01*
X74627975Y-87913791D01*
X74640925Y-88009390D01*
X74710484Y-88223467D01*
X74817144Y-88421675D01*
X74817148Y-88421682D01*
X74831412Y-88439568D01*
X74957104Y-88597180D01*
X74957493Y-88597667D01*
X74999870Y-88634690D01*
X75127004Y-88745765D01*
X75320236Y-88861215D01*
X75530976Y-88940307D01*
X75530978Y-88940307D01*
X75530980Y-88940308D01*
X75664229Y-88964489D01*
X75752453Y-88980500D01*
X75752454Y-88980500D01*
X75921149Y-88980500D01*
X75921155Y-88980500D01*
X76089188Y-88965377D01*
X76234148Y-88925370D01*
X76305133Y-88926528D01*
X76364226Y-88965881D01*
X76392661Y-89030934D01*
X76381413Y-89101034D01*
X76339939Y-89150042D01*
X76223602Y-89231502D01*
X76223596Y-89231507D01*
X76056507Y-89398596D01*
X76056498Y-89398607D01*
X75920966Y-89592167D01*
X75821098Y-89806334D01*
X75821096Y-89806338D01*
X75759937Y-90034588D01*
X75739341Y-90270000D01*
X75759937Y-90505411D01*
X75821096Y-90733661D01*
X75821098Y-90733665D01*
X75920965Y-90947830D01*
X76003755Y-91066067D01*
X76056505Y-91141401D01*
X76223599Y-91308495D01*
X76417170Y-91444035D01*
X76631337Y-91543903D01*
X76859592Y-91605063D01*
X77095000Y-91625659D01*
X77330408Y-91605063D01*
X77558663Y-91543903D01*
X77772830Y-91444035D01*
X77966401Y-91308495D01*
X78133495Y-91141401D01*
X78261787Y-90958180D01*
X78317244Y-90913853D01*
X78387863Y-90906544D01*
X78451224Y-90938575D01*
X78468213Y-90958181D01*
X78543755Y-91066067D01*
X78596505Y-91141401D01*
X78763599Y-91308495D01*
X78957170Y-91444035D01*
X79171337Y-91543903D01*
X79399592Y-91605063D01*
X79635000Y-91625659D01*
X79870408Y-91605063D01*
X80098663Y-91543903D01*
X80312830Y-91444035D01*
X80506401Y-91308495D01*
X80673495Y-91141401D01*
X80718504Y-91077121D01*
X80773959Y-91032794D01*
X80844578Y-91025485D01*
X80907939Y-91057515D01*
X80921143Y-91071997D01*
X81064175Y-91255764D01*
X81241031Y-91418571D01*
X81442272Y-91550049D01*
X81662409Y-91646610D01*
X81662410Y-91646610D01*
X81662412Y-91646611D01*
X81729766Y-91663667D01*
X81895437Y-91705620D01*
X82075010Y-91720500D01*
X82075016Y-91720500D01*
X82194984Y-91720500D01*
X82194990Y-91720500D01*
X82374563Y-91705620D01*
X82607591Y-91646610D01*
X82827728Y-91550049D01*
X83028969Y-91418571D01*
X83205825Y-91255764D01*
X83353472Y-91066067D01*
X83467882Y-90854656D01*
X83545934Y-90627297D01*
X83585500Y-90390192D01*
X83585500Y-90149808D01*
X83545934Y-89912703D01*
X83467882Y-89685344D01*
X83353472Y-89473933D01*
X83205825Y-89284236D01*
X83197874Y-89276917D01*
X83060051Y-89150042D01*
X83028969Y-89121429D01*
X82827728Y-88989951D01*
X82827725Y-88989949D01*
X82827724Y-88989949D01*
X82607594Y-88893391D01*
X82607587Y-88893388D01*
X82374570Y-88834381D01*
X82374565Y-88834380D01*
X82374563Y-88834380D01*
X82274881Y-88826120D01*
X82208645Y-88800560D01*
X82166742Y-88743248D01*
X82162476Y-88672380D01*
X82177855Y-88634715D01*
X82297479Y-88439508D01*
X82391328Y-88212935D01*
X82448576Y-87974478D01*
X82467817Y-87730000D01*
X82448576Y-87485521D01*
X82391328Y-87247064D01*
X82297479Y-87020491D01*
X82174462Y-86819747D01*
X82174460Y-86819747D01*
X81583899Y-87410307D01*
X81558941Y-87352447D01*
X81454244Y-87211815D01*
X81319938Y-87099118D01*
X81224568Y-87051221D01*
X81815251Y-86460538D01*
X81815251Y-86460537D01*
X81614503Y-86337518D01*
X81387935Y-86243671D01*
X81149478Y-86186423D01*
X80905000Y-86167182D01*
X80660521Y-86186423D01*
X80422064Y-86243671D01*
X80195496Y-86337518D01*
X79994747Y-86460537D01*
X79994747Y-86460538D01*
X80583201Y-87048992D01*
X80566109Y-87055213D01*
X80419627Y-87151555D01*
X80299312Y-87279082D01*
X80224482Y-87408691D01*
X79635538Y-86819747D01*
X79635536Y-86819747D01*
X79614957Y-86853330D01*
X79562309Y-86900961D01*
X79492268Y-86912567D01*
X79427070Y-86884463D01*
X79407081Y-86862772D01*
X79407032Y-86862814D01*
X79406134Y-86861744D01*
X79404315Y-86859770D01*
X79404177Y-86859573D01*
X79403495Y-86858599D01*
X79236401Y-86691505D01*
X79042830Y-86555965D01*
X78828663Y-86456097D01*
X78828661Y-86456096D01*
X78600411Y-86394937D01*
X78365000Y-86374341D01*
X78129588Y-86394937D01*
X77901338Y-86456096D01*
X77901334Y-86456098D01*
X77687167Y-86555966D01*
X77493607Y-86691498D01*
X77493596Y-86691507D01*
X77326507Y-86858596D01*
X77326498Y-86858607D01*
X77190966Y-87052167D01*
X77190966Y-87052168D01*
X77171449Y-87094021D01*
X77124531Y-87147305D01*
X77056253Y-87166765D01*
X76988294Y-87146222D01*
X76946300Y-87100476D01*
X76912855Y-87038323D01*
X76912851Y-87038317D01*
X76790155Y-86884463D01*
X76772508Y-86862334D01*
X76769573Y-86859770D01*
X76602998Y-86714237D01*
X76602996Y-86714235D01*
X76409764Y-86598785D01*
X76295673Y-86555966D01*
X76199019Y-86519691D01*
X76002724Y-86484069D01*
X75977547Y-86479500D01*
X75808845Y-86479500D01*
X75777558Y-86482315D01*
X75640810Y-86494622D01*
X75640810Y-86494623D01*
X75423832Y-86554505D01*
X75221031Y-86652168D01*
X75221023Y-86652173D01*
X75038921Y-86784478D01*
X75038920Y-86784479D01*
X74883369Y-86947172D01*
X74759367Y-87135027D01*
X74759363Y-87135035D01*
X74670897Y-87342011D01*
X74670896Y-87342013D01*
X74631771Y-87513433D01*
X74620809Y-87561463D01*
X74610710Y-87786330D01*
X60000000Y-87786330D01*
X60000000Y-87000002D01*
X70294355Y-87000002D01*
X70314859Y-87168871D01*
X70375179Y-87327925D01*
X70375181Y-87327929D01*
X70471816Y-87467928D01*
X70471818Y-87467930D01*
X70523180Y-87513433D01*
X70599148Y-87580734D01*
X70749775Y-87659790D01*
X70749776Y-87659790D01*
X70749778Y-87659791D01*
X70856496Y-87686094D01*
X70914944Y-87700500D01*
X70914947Y-87700500D01*
X71085053Y-87700500D01*
X71085056Y-87700500D01*
X71250225Y-87659790D01*
X71400852Y-87580734D01*
X71528183Y-87467929D01*
X71624818Y-87327930D01*
X71685140Y-87168872D01*
X71700992Y-87038319D01*
X71705645Y-87000002D01*
X71705645Y-86999997D01*
X71685140Y-86831128D01*
X71624820Y-86672074D01*
X71624818Y-86672070D01*
X71528183Y-86532071D01*
X71528181Y-86532069D01*
X71400857Y-86419270D01*
X71400851Y-86419265D01*
X71250225Y-86340210D01*
X71250221Y-86340208D01*
X71085059Y-86299500D01*
X71085056Y-86299500D01*
X70914944Y-86299500D01*
X70914940Y-86299500D01*
X70749778Y-86340208D01*
X70749774Y-86340210D01*
X70599148Y-86419265D01*
X70599142Y-86419270D01*
X70471818Y-86532069D01*
X70471816Y-86532071D01*
X70375181Y-86672070D01*
X70375179Y-86672074D01*
X70314859Y-86831128D01*
X70294355Y-86999997D01*
X70294355Y-87000002D01*
X60000000Y-87000002D01*
X60000000Y-86552190D01*
X60020002Y-86484069D01*
X60036905Y-86463095D01*
X60962595Y-85537405D01*
X61024907Y-85503379D01*
X61051690Y-85500500D01*
X83948310Y-85500500D01*
X84016431Y-85520502D01*
G37*
G04 #@! TD.AperFunction*
M02*
