G04 #@! TF.GenerationSoftware,KiCad,Pcbnew,(5.1.5-0-10_14)*
G04 #@! TF.CreationDate,2020-04-25T01:09:03+02:00*
G04 #@! TF.ProjectId,PowerUnit,506f7765-7255-46e6-9974-2e6b69636164,B*
G04 #@! TF.SameCoordinates,Original*
G04 #@! TF.FileFunction,Legend,Top*
G04 #@! TF.FilePolarity,Positive*
%FSLAX46Y46*%
G04 Gerber Fmt 4.6, Leading zero omitted, Abs format (unit mm)*
G04 Created by KiCad (PCBNEW (5.1.5-0-10_14)) date 2020-04-25 01:09:03*
%MOMM*%
%LPD*%
G04 APERTURE LIST*
%ADD10C,0.300000*%
%ADD11C,0.120000*%
%ADD12C,0.010000*%
%ADD13C,0.150000*%
G04 APERTURE END LIST*
D10*
X213904761Y-128023809D02*
X211904761Y-128023809D01*
X211904761Y-127261904D01*
X212000000Y-127071428D01*
X212095238Y-126976190D01*
X212285714Y-126880952D01*
X212571428Y-126880952D01*
X212761904Y-126976190D01*
X212857142Y-127071428D01*
X212952380Y-127261904D01*
X212952380Y-128023809D01*
X213904761Y-126023809D02*
X212571428Y-126023809D01*
X212952380Y-126023809D02*
X212761904Y-125928571D01*
X212666666Y-125833333D01*
X212571428Y-125642857D01*
X212571428Y-125452380D01*
X213904761Y-124500000D02*
X213809523Y-124690476D01*
X213714285Y-124785714D01*
X213523809Y-124880952D01*
X212952380Y-124880952D01*
X212761904Y-124785714D01*
X212666666Y-124690476D01*
X212571428Y-124500000D01*
X212571428Y-124214285D01*
X212666666Y-124023809D01*
X212761904Y-123928571D01*
X212952380Y-123833333D01*
X213523809Y-123833333D01*
X213714285Y-123928571D01*
X213809523Y-124023809D01*
X213904761Y-124214285D01*
X213904761Y-124500000D01*
X213904761Y-122119047D02*
X211904761Y-122119047D01*
X213809523Y-122119047D02*
X213904761Y-122309523D01*
X213904761Y-122690476D01*
X213809523Y-122880952D01*
X213714285Y-122976190D01*
X213523809Y-123071428D01*
X212952380Y-123071428D01*
X212761904Y-122976190D01*
X212666666Y-122880952D01*
X212571428Y-122690476D01*
X212571428Y-122309523D01*
X212666666Y-122119047D01*
X213714285Y-121166666D02*
X213809523Y-121071428D01*
X213904761Y-121166666D01*
X213809523Y-121261904D01*
X213714285Y-121166666D01*
X213904761Y-121166666D01*
X213904761Y-117642857D02*
X213904761Y-118785714D01*
X213904761Y-118214285D02*
X211904761Y-118214285D01*
X212190476Y-118404761D01*
X212380952Y-118595238D01*
X212476190Y-118785714D01*
X213904761Y-115738095D02*
X213904761Y-116880952D01*
X213904761Y-116309523D02*
X211904761Y-116309523D01*
X212190476Y-116500000D01*
X212380952Y-116690476D01*
X212476190Y-116880952D01*
X211904761Y-114500000D02*
X211904761Y-114309523D01*
X212000000Y-114119047D01*
X212095238Y-114023809D01*
X212285714Y-113928571D01*
X212666666Y-113833333D01*
X213142857Y-113833333D01*
X213523809Y-113928571D01*
X213714285Y-114023809D01*
X213809523Y-114119047D01*
X213904761Y-114309523D01*
X213904761Y-114500000D01*
X213809523Y-114690476D01*
X213714285Y-114785714D01*
X213523809Y-114880952D01*
X213142857Y-114976190D01*
X212666666Y-114976190D01*
X212285714Y-114880952D01*
X212095238Y-114785714D01*
X212000000Y-114690476D01*
X211904761Y-114500000D01*
X211904761Y-112595238D02*
X211904761Y-112404761D01*
X212000000Y-112214285D01*
X212095238Y-112119047D01*
X212285714Y-112023809D01*
X212666666Y-111928571D01*
X213142857Y-111928571D01*
X213523809Y-112023809D01*
X213714285Y-112119047D01*
X213809523Y-112214285D01*
X213904761Y-112404761D01*
X213904761Y-112595238D01*
X213809523Y-112785714D01*
X213714285Y-112880952D01*
X213523809Y-112976190D01*
X213142857Y-113071428D01*
X212666666Y-113071428D01*
X212285714Y-112976190D01*
X212095238Y-112880952D01*
X212000000Y-112785714D01*
X211904761Y-112595238D01*
X211904761Y-110690476D02*
X211904761Y-110500000D01*
X212000000Y-110309523D01*
X212095238Y-110214285D01*
X212285714Y-110119047D01*
X212666666Y-110023809D01*
X213142857Y-110023809D01*
X213523809Y-110119047D01*
X213714285Y-110214285D01*
X213809523Y-110309523D01*
X213904761Y-110500000D01*
X213904761Y-110690476D01*
X213809523Y-110880952D01*
X213714285Y-110976190D01*
X213523809Y-111071428D01*
X213142857Y-111166666D01*
X212666666Y-111166666D01*
X212285714Y-111071428D01*
X212095238Y-110976190D01*
X212000000Y-110880952D01*
X211904761Y-110690476D01*
X211904761Y-108785714D02*
X211904761Y-108595238D01*
X212000000Y-108404761D01*
X212095238Y-108309523D01*
X212285714Y-108214285D01*
X212666666Y-108119047D01*
X213142857Y-108119047D01*
X213523809Y-108214285D01*
X213714285Y-108309523D01*
X213809523Y-108404761D01*
X213904761Y-108595238D01*
X213904761Y-108785714D01*
X213809523Y-108976190D01*
X213714285Y-109071428D01*
X213523809Y-109166666D01*
X213142857Y-109261904D01*
X212666666Y-109261904D01*
X212285714Y-109166666D01*
X212095238Y-109071428D01*
X212000000Y-108976190D01*
X211904761Y-108785714D01*
X213904761Y-104595238D02*
X212952380Y-105261904D01*
X213904761Y-105738095D02*
X211904761Y-105738095D01*
X211904761Y-104976190D01*
X212000000Y-104785714D01*
X212095238Y-104690476D01*
X212285714Y-104595238D01*
X212571428Y-104595238D01*
X212761904Y-104690476D01*
X212857142Y-104785714D01*
X212952380Y-104976190D01*
X212952380Y-105738095D01*
X213809523Y-102976190D02*
X213904761Y-103166666D01*
X213904761Y-103547619D01*
X213809523Y-103738095D01*
X213619047Y-103833333D01*
X212857142Y-103833333D01*
X212666666Y-103738095D01*
X212571428Y-103547619D01*
X212571428Y-103166666D01*
X212666666Y-102976190D01*
X212857142Y-102880952D01*
X213047619Y-102880952D01*
X213238095Y-103833333D01*
X212571428Y-102214285D02*
X213904761Y-101738095D01*
X212571428Y-101261904D01*
X213714285Y-100500000D02*
X213809523Y-100404761D01*
X213904761Y-100500000D01*
X213809523Y-100595238D01*
X213714285Y-100500000D01*
X213904761Y-100500000D01*
X212857142Y-97357142D02*
X212952380Y-97071428D01*
X213047619Y-96976190D01*
X213238095Y-96880952D01*
X213523809Y-96880952D01*
X213714285Y-96976190D01*
X213809523Y-97071428D01*
X213904761Y-97261904D01*
X213904761Y-98023809D01*
X211904761Y-98023809D01*
X211904761Y-97357142D01*
X212000000Y-97166666D01*
X212095238Y-97071428D01*
X212285714Y-96976190D01*
X212476190Y-96976190D01*
X212666666Y-97071428D01*
X212761904Y-97166666D01*
X212857142Y-97357142D01*
X212857142Y-98023809D01*
D11*
X160758578Y-124790000D02*
X160241422Y-124790000D01*
X160758578Y-126210000D02*
X160241422Y-126210000D01*
X114980000Y-125570000D02*
X114980000Y-126670000D01*
X115450000Y-125570000D02*
X114980000Y-125570000D01*
X115450000Y-124070000D02*
X115450000Y-125570000D01*
X109020000Y-125570000D02*
X109020000Y-128400000D01*
X108550000Y-125570000D02*
X109020000Y-125570000D01*
X108550000Y-124070000D02*
X108550000Y-125570000D01*
X105480000Y-125570000D02*
X105480000Y-126670000D01*
X105950000Y-125570000D02*
X105480000Y-125570000D01*
X105950000Y-124070000D02*
X105950000Y-125570000D01*
X99520000Y-125570000D02*
X99520000Y-128400000D01*
X99050000Y-125570000D02*
X99520000Y-125570000D01*
X99050000Y-124070000D02*
X99050000Y-125570000D01*
X171980000Y-125570000D02*
X171980000Y-126670000D01*
X172450000Y-125570000D02*
X171980000Y-125570000D01*
X172450000Y-124070000D02*
X172450000Y-125570000D01*
X166020000Y-125570000D02*
X166020000Y-128400000D01*
X165550000Y-125570000D02*
X166020000Y-125570000D01*
X165550000Y-124070000D02*
X165550000Y-125570000D01*
X76980000Y-125570000D02*
X76980000Y-126670000D01*
X77450000Y-125570000D02*
X76980000Y-125570000D01*
X77450000Y-124070000D02*
X77450000Y-125570000D01*
X71020000Y-125570000D02*
X71020000Y-128400000D01*
X70550000Y-125570000D02*
X71020000Y-125570000D01*
X70550000Y-124070000D02*
X70550000Y-125570000D01*
X95980000Y-125570000D02*
X95980000Y-126670000D01*
X96450000Y-125570000D02*
X95980000Y-125570000D01*
X96450000Y-124070000D02*
X96450000Y-125570000D01*
X90020000Y-125570000D02*
X90020000Y-128400000D01*
X89550000Y-125570000D02*
X90020000Y-125570000D01*
X89550000Y-124070000D02*
X89550000Y-125570000D01*
X124480000Y-125570000D02*
X124480000Y-126670000D01*
X124950000Y-125570000D02*
X124480000Y-125570000D01*
X124950000Y-124070000D02*
X124950000Y-125570000D01*
X118520000Y-125570000D02*
X118520000Y-128400000D01*
X118050000Y-125570000D02*
X118520000Y-125570000D01*
X118050000Y-124070000D02*
X118050000Y-125570000D01*
X67480000Y-125570000D02*
X67480000Y-126670000D01*
X67950000Y-125570000D02*
X67480000Y-125570000D01*
X67950000Y-124070000D02*
X67950000Y-125570000D01*
X61520000Y-125570000D02*
X61520000Y-128400000D01*
X61050000Y-125570000D02*
X61520000Y-125570000D01*
X61050000Y-124070000D02*
X61050000Y-125570000D01*
X145480000Y-125570000D02*
X145480000Y-126670000D01*
X145950000Y-125570000D02*
X145480000Y-125570000D01*
X145950000Y-124070000D02*
X145950000Y-125570000D01*
X139520000Y-125570000D02*
X139520000Y-128400000D01*
X139050000Y-125570000D02*
X139520000Y-125570000D01*
X139050000Y-124070000D02*
X139050000Y-125570000D01*
X86480000Y-125570000D02*
X86480000Y-126670000D01*
X86950000Y-125570000D02*
X86480000Y-125570000D01*
X86950000Y-124070000D02*
X86950000Y-125570000D01*
X80520000Y-125570000D02*
X80520000Y-128400000D01*
X80050000Y-125570000D02*
X80520000Y-125570000D01*
X80050000Y-124070000D02*
X80050000Y-125570000D01*
X190980000Y-125570000D02*
X190980000Y-126670000D01*
X191450000Y-125570000D02*
X190980000Y-125570000D01*
X191450000Y-124070000D02*
X191450000Y-125570000D01*
X185020000Y-125570000D02*
X185020000Y-128400000D01*
X184550000Y-125570000D02*
X185020000Y-125570000D01*
X184550000Y-124070000D02*
X184550000Y-125570000D01*
X181480000Y-125570000D02*
X181480000Y-126670000D01*
X181950000Y-125570000D02*
X181480000Y-125570000D01*
X181950000Y-124070000D02*
X181950000Y-125570000D01*
X175520000Y-125570000D02*
X175520000Y-128400000D01*
X175050000Y-125570000D02*
X175520000Y-125570000D01*
X175050000Y-124070000D02*
X175050000Y-125570000D01*
X150741422Y-128710000D02*
X151258578Y-128710000D01*
X150741422Y-127290000D02*
X151258578Y-127290000D01*
X150741422Y-123710000D02*
X151258578Y-123710000D01*
X150741422Y-122290000D02*
X151258578Y-122290000D01*
X53290000Y-126241422D02*
X53290000Y-126758578D01*
X54710000Y-126241422D02*
X54710000Y-126758578D01*
X160758578Y-122290000D02*
X160241422Y-122290000D01*
X160758578Y-123710000D02*
X160241422Y-123710000D01*
X71210000Y-98258578D02*
X71210000Y-97741422D01*
X69790000Y-98258578D02*
X69790000Y-97741422D01*
X160758578Y-127290000D02*
X160241422Y-127290000D01*
X160758578Y-128710000D02*
X160241422Y-128710000D01*
X73710000Y-98258578D02*
X73710000Y-97741422D01*
X72290000Y-98258578D02*
X72290000Y-97741422D01*
X150741422Y-126210000D02*
X151258578Y-126210000D01*
X150741422Y-124790000D02*
X151258578Y-124790000D01*
X55790000Y-126241422D02*
X55790000Y-126758578D01*
X57210000Y-126241422D02*
X57210000Y-126758578D01*
X150741422Y-121210000D02*
X151258578Y-121210000D01*
X150741422Y-119790000D02*
X151258578Y-119790000D01*
X72260000Y-103830000D02*
X70800000Y-103830000D01*
X72260000Y-100670000D02*
X70100000Y-100670000D01*
X72260000Y-100670000D02*
X72260000Y-101600000D01*
X72260000Y-103830000D02*
X72260000Y-102900000D01*
X72665000Y-86200000D02*
X85335000Y-86200000D01*
X72665000Y-91800000D02*
X72665000Y-86200000D01*
X85335000Y-86200000D02*
X85335000Y-91800000D01*
X72665000Y-91800000D02*
X85335000Y-91800000D01*
X155050000Y-129500000D02*
X150750000Y-129500000D01*
X155050000Y-131500000D02*
X155050000Y-129500000D01*
X150750000Y-131500000D02*
X155050000Y-131500000D01*
X155050000Y-132000000D02*
X150750000Y-132000000D01*
X155050000Y-134000000D02*
X155050000Y-132000000D01*
X150750000Y-134000000D02*
X155050000Y-134000000D01*
X70600000Y-131850000D02*
X76000000Y-131850000D01*
X70600000Y-135150000D02*
X76000000Y-135150000D01*
X70600000Y-131850000D02*
X70600000Y-135150000D01*
X118100000Y-131850000D02*
X123500000Y-131850000D01*
X118100000Y-135150000D02*
X123500000Y-135150000D01*
X118100000Y-131850000D02*
X118100000Y-135150000D01*
X80100000Y-131850000D02*
X85500000Y-131850000D01*
X80100000Y-135150000D02*
X85500000Y-135150000D01*
X80100000Y-131850000D02*
X80100000Y-135150000D01*
X184600000Y-131850000D02*
X190000000Y-131850000D01*
X184600000Y-135150000D02*
X190000000Y-135150000D01*
X184600000Y-131850000D02*
X184600000Y-135150000D01*
X115400000Y-135150000D02*
X110000000Y-135150000D01*
X115400000Y-131850000D02*
X110000000Y-131850000D01*
X115400000Y-135150000D02*
X115400000Y-131850000D01*
X172400000Y-135150000D02*
X167000000Y-135150000D01*
X172400000Y-131850000D02*
X167000000Y-131850000D01*
X172400000Y-135150000D02*
X172400000Y-131850000D01*
X89600000Y-131850000D02*
X95000000Y-131850000D01*
X89600000Y-135150000D02*
X95000000Y-135150000D01*
X89600000Y-131850000D02*
X89600000Y-135150000D01*
X61100000Y-131850000D02*
X66500000Y-131850000D01*
X61100000Y-135150000D02*
X66500000Y-135150000D01*
X61100000Y-131850000D02*
X61100000Y-135150000D01*
X139100000Y-131850000D02*
X144500000Y-131850000D01*
X139100000Y-135150000D02*
X144500000Y-135150000D01*
X139100000Y-131850000D02*
X139100000Y-135150000D01*
X105900000Y-135150000D02*
X100500000Y-135150000D01*
X105900000Y-131850000D02*
X100500000Y-131850000D01*
X105900000Y-135150000D02*
X105900000Y-131850000D01*
X61258578Y-103290000D02*
X60741422Y-103290000D01*
X61258578Y-104710000D02*
X60741422Y-104710000D01*
X130350000Y-133900000D02*
X130350000Y-128500000D01*
X133650000Y-133900000D02*
X133650000Y-128500000D01*
X130350000Y-133900000D02*
X133650000Y-133900000D01*
X201241422Y-88210000D02*
X201758578Y-88210000D01*
X201241422Y-86790000D02*
X201758578Y-86790000D01*
X134258578Y-86790000D02*
X133741422Y-86790000D01*
X134258578Y-88210000D02*
X133741422Y-88210000D01*
X204870000Y-93090000D02*
X204870000Y-112910000D01*
X198130000Y-93090000D02*
X204870000Y-93090000D01*
X204870000Y-112910000D02*
X198130000Y-112910000D01*
X198130000Y-93090000D02*
X198130000Y-112910000D01*
X137370000Y-93090000D02*
X137370000Y-112910000D01*
X130630000Y-93090000D02*
X137370000Y-93090000D01*
X137370000Y-112910000D02*
X130630000Y-112910000D01*
X130630000Y-93090000D02*
X130630000Y-112910000D01*
X200150000Y-119100000D02*
X200150000Y-124500000D01*
X196850000Y-119100000D02*
X196850000Y-124500000D01*
X200150000Y-119100000D02*
X196850000Y-119100000D01*
X199815000Y-90960000D02*
X202500000Y-90960000D01*
X199815000Y-89040000D02*
X199815000Y-90960000D01*
X202500000Y-89040000D02*
X199815000Y-89040000D01*
X197000000Y-86450000D02*
X197000000Y-90750000D01*
X199000000Y-86450000D02*
X197000000Y-86450000D01*
X199000000Y-90750000D02*
X199000000Y-86450000D01*
X135685000Y-89040000D02*
X133000000Y-89040000D01*
X135685000Y-90960000D02*
X135685000Y-89040000D01*
X133000000Y-90960000D02*
X135685000Y-90960000D01*
X136500000Y-86450000D02*
X136500000Y-90750000D01*
X138500000Y-86450000D02*
X136500000Y-86450000D01*
X138500000Y-90750000D02*
X138500000Y-86450000D01*
X133650000Y-119100000D02*
X133650000Y-124500000D01*
X130350000Y-119100000D02*
X130350000Y-124500000D01*
X133650000Y-119100000D02*
X130350000Y-119100000D01*
X160090000Y-150000000D02*
X160090000Y-142090000D01*
X214910000Y-142090000D02*
X214910000Y-150000000D01*
X160090000Y-142090000D02*
X214910000Y-142090000D01*
X196850000Y-133900000D02*
X196850000Y-128500000D01*
X200150000Y-133900000D02*
X200150000Y-128500000D01*
X196850000Y-133900000D02*
X200150000Y-133900000D01*
X181900000Y-135150000D02*
X176500000Y-135150000D01*
X181900000Y-131850000D02*
X176500000Y-131850000D01*
X181900000Y-135150000D02*
X181900000Y-131850000D01*
X148500000Y-96500000D02*
X161500000Y-96500000D01*
X148500000Y-109500000D02*
X148500000Y-96500000D01*
X161500000Y-96500000D02*
X161500000Y-109500000D01*
X148500000Y-109500000D02*
X161500000Y-109500000D01*
X50590000Y-150000000D02*
X50590000Y-142090000D01*
X84410000Y-142090000D02*
X84410000Y-150000000D01*
X50590000Y-142090000D02*
X84410000Y-142090000D01*
X145870000Y-93090000D02*
X145870000Y-112910000D01*
X139130000Y-93090000D02*
X145870000Y-93090000D01*
X145870000Y-112910000D02*
X139130000Y-112910000D01*
X139130000Y-93090000D02*
X139130000Y-112910000D01*
X120370000Y-93090000D02*
X120370000Y-112910000D01*
X113630000Y-93090000D02*
X120370000Y-93090000D01*
X120370000Y-112910000D02*
X113630000Y-112910000D01*
X113630000Y-93090000D02*
X113630000Y-112910000D01*
X128870000Y-93090000D02*
X128870000Y-112910000D01*
X122130000Y-93090000D02*
X128870000Y-93090000D01*
X128870000Y-112910000D02*
X122130000Y-112910000D01*
X122130000Y-93090000D02*
X122130000Y-112910000D01*
X170870000Y-93090000D02*
X170870000Y-112910000D01*
X164130000Y-93090000D02*
X170870000Y-93090000D01*
X170870000Y-112910000D02*
X164130000Y-112910000D01*
X164130000Y-93090000D02*
X164130000Y-112910000D01*
X111870000Y-93090000D02*
X111870000Y-112910000D01*
X105130000Y-93090000D02*
X111870000Y-93090000D01*
X111870000Y-112910000D02*
X105130000Y-112910000D01*
X105130000Y-93090000D02*
X105130000Y-112910000D01*
X187870000Y-93090000D02*
X187870000Y-112910000D01*
X181130000Y-93090000D02*
X187870000Y-93090000D01*
X187870000Y-112910000D02*
X181130000Y-112910000D01*
X181130000Y-93090000D02*
X181130000Y-112910000D01*
X179370000Y-93090000D02*
X179370000Y-112910000D01*
X172630000Y-93090000D02*
X179370000Y-93090000D01*
X179370000Y-112910000D02*
X172630000Y-112910000D01*
X172630000Y-93090000D02*
X172630000Y-112910000D01*
X196370000Y-93090000D02*
X196370000Y-112910000D01*
X189630000Y-93090000D02*
X196370000Y-93090000D01*
X196370000Y-112910000D02*
X189630000Y-112910000D01*
X189630000Y-93090000D02*
X189630000Y-112910000D01*
X95090000Y-150000000D02*
X95090000Y-142090000D01*
X149910000Y-142090000D02*
X149910000Y-150000000D01*
X95090000Y-142090000D02*
X149910000Y-142090000D01*
X156650000Y-111600000D02*
X156650000Y-117000000D01*
X153350000Y-111600000D02*
X153350000Y-117000000D01*
X156650000Y-111600000D02*
X153350000Y-111600000D01*
X95600000Y-102410000D02*
X89590000Y-102410000D01*
X93350000Y-95590000D02*
X89590000Y-95590000D01*
X89590000Y-102410000D02*
X89590000Y-101150000D01*
X89590000Y-95590000D02*
X89590000Y-96850000D01*
X71560000Y-92000000D02*
X71560000Y-88550000D01*
X71560000Y-92000000D02*
X71560000Y-93950000D01*
X66440000Y-92000000D02*
X66440000Y-90050000D01*
X66440000Y-92000000D02*
X66440000Y-93950000D01*
X108758578Y-86790000D02*
X108241422Y-86790000D01*
X108758578Y-88210000D02*
X108241422Y-88210000D01*
X184241422Y-88210000D02*
X184758578Y-88210000D01*
X184241422Y-86790000D02*
X184758578Y-86790000D01*
X175741422Y-88210000D02*
X176258578Y-88210000D01*
X175741422Y-86790000D02*
X176258578Y-86790000D01*
X192741422Y-88210000D02*
X193258578Y-88210000D01*
X192741422Y-86790000D02*
X193258578Y-86790000D01*
X125758578Y-86790000D02*
X125241422Y-86790000D01*
X125758578Y-88210000D02*
X125241422Y-88210000D01*
X167241422Y-88210000D02*
X167758578Y-88210000D01*
X167241422Y-86790000D02*
X167758578Y-86790000D01*
X142758578Y-86790000D02*
X142241422Y-86790000D01*
X142758578Y-88210000D02*
X142241422Y-88210000D01*
X117258578Y-86790000D02*
X116741422Y-86790000D01*
X117258578Y-88210000D02*
X116741422Y-88210000D01*
X84758578Y-100790000D02*
X84241422Y-100790000D01*
X84758578Y-102210000D02*
X84241422Y-102210000D01*
X76210000Y-98258578D02*
X76210000Y-97741422D01*
X74790000Y-98258578D02*
X74790000Y-97741422D01*
X73710000Y-94258578D02*
X73710000Y-93741422D01*
X72290000Y-94258578D02*
X72290000Y-93741422D01*
X78710000Y-98258578D02*
X78710000Y-97741422D01*
X77290000Y-98258578D02*
X77290000Y-97741422D01*
X64290000Y-100741422D02*
X64290000Y-101258578D01*
X65710000Y-100741422D02*
X65710000Y-101258578D01*
X66258578Y-103290000D02*
X65741422Y-103290000D01*
X66258578Y-104710000D02*
X65741422Y-104710000D01*
X59290000Y-100741422D02*
X59290000Y-101258578D01*
X60710000Y-100741422D02*
X60710000Y-101258578D01*
X77260000Y-103830000D02*
X75800000Y-103830000D01*
X77260000Y-100670000D02*
X75100000Y-100670000D01*
X77260000Y-100670000D02*
X77260000Y-101600000D01*
X77260000Y-103830000D02*
X77260000Y-102900000D01*
X110185000Y-89040000D02*
X107500000Y-89040000D01*
X110185000Y-90960000D02*
X110185000Y-89040000D01*
X107500000Y-90960000D02*
X110185000Y-90960000D01*
X182815000Y-90960000D02*
X185500000Y-90960000D01*
X182815000Y-89040000D02*
X182815000Y-90960000D01*
X185500000Y-89040000D02*
X182815000Y-89040000D01*
X174315000Y-90960000D02*
X177000000Y-90960000D01*
X174315000Y-89040000D02*
X174315000Y-90960000D01*
X177000000Y-89040000D02*
X174315000Y-89040000D01*
X191315000Y-90960000D02*
X194000000Y-90960000D01*
X191315000Y-89040000D02*
X191315000Y-90960000D01*
X194000000Y-89040000D02*
X191315000Y-89040000D01*
X111000000Y-86450000D02*
X111000000Y-90750000D01*
X113000000Y-86450000D02*
X111000000Y-86450000D01*
X113000000Y-90750000D02*
X113000000Y-86450000D01*
X180000000Y-86450000D02*
X180000000Y-90750000D01*
X182000000Y-86450000D02*
X180000000Y-86450000D01*
X182000000Y-90750000D02*
X182000000Y-86450000D01*
X171500000Y-86450000D02*
X171500000Y-90750000D01*
X173500000Y-86450000D02*
X171500000Y-86450000D01*
X173500000Y-90750000D02*
X173500000Y-86450000D01*
X188500000Y-86450000D02*
X188500000Y-90750000D01*
X190500000Y-86450000D02*
X188500000Y-86450000D01*
X190500000Y-90750000D02*
X190500000Y-86450000D01*
X127185000Y-89040000D02*
X124500000Y-89040000D01*
X127185000Y-90960000D02*
X127185000Y-89040000D01*
X124500000Y-90960000D02*
X127185000Y-90960000D01*
X165815000Y-90960000D02*
X168500000Y-90960000D01*
X165815000Y-89040000D02*
X165815000Y-90960000D01*
X168500000Y-89040000D02*
X165815000Y-89040000D01*
X144185000Y-89040000D02*
X141500000Y-89040000D01*
X144185000Y-90960000D02*
X144185000Y-89040000D01*
X141500000Y-90960000D02*
X144185000Y-90960000D01*
X118685000Y-89040000D02*
X116000000Y-89040000D01*
X118685000Y-90960000D02*
X118685000Y-89040000D01*
X116000000Y-90960000D02*
X118685000Y-90960000D01*
X86185000Y-98040000D02*
X83500000Y-98040000D01*
X86185000Y-99960000D02*
X86185000Y-98040000D01*
X83500000Y-99960000D02*
X86185000Y-99960000D01*
X128000000Y-86450000D02*
X128000000Y-90750000D01*
X130000000Y-86450000D02*
X128000000Y-86450000D01*
X130000000Y-90750000D02*
X130000000Y-86450000D01*
X163000000Y-86450000D02*
X163000000Y-90750000D01*
X165000000Y-86450000D02*
X163000000Y-86450000D01*
X165000000Y-90750000D02*
X165000000Y-86450000D01*
X145000000Y-86450000D02*
X145000000Y-90750000D01*
X147000000Y-86450000D02*
X145000000Y-86450000D01*
X147000000Y-90750000D02*
X147000000Y-86450000D01*
X119500000Y-86450000D02*
X119500000Y-90750000D01*
X121500000Y-86450000D02*
X119500000Y-86450000D01*
X121500000Y-90750000D02*
X121500000Y-86450000D01*
X156450000Y-131500000D02*
X160750000Y-131500000D01*
X156450000Y-129500000D02*
X156450000Y-131500000D01*
X160750000Y-129500000D02*
X156450000Y-129500000D01*
X156450000Y-134000000D02*
X160750000Y-134000000D01*
X156450000Y-132000000D02*
X156450000Y-134000000D01*
X160750000Y-132000000D02*
X156450000Y-132000000D01*
X66500000Y-97450000D02*
X66500000Y-101750000D01*
X68500000Y-97450000D02*
X66500000Y-97450000D01*
X68500000Y-101750000D02*
X68500000Y-97450000D01*
X61500000Y-97450000D02*
X61500000Y-101750000D01*
X63500000Y-97450000D02*
X61500000Y-97450000D01*
X63500000Y-101750000D02*
X63500000Y-97450000D01*
X84241422Y-97210000D02*
X84758578Y-97210000D01*
X84241422Y-95790000D02*
X84758578Y-95790000D01*
X102710000Y-99258578D02*
X102710000Y-98741422D01*
X101290000Y-99258578D02*
X101290000Y-98741422D01*
X100210000Y-102760000D02*
X100210000Y-96000000D01*
X96790000Y-102760000D02*
X100210000Y-102760000D01*
X96790000Y-96000000D02*
X96790000Y-102760000D01*
X64290000Y-90241422D02*
X64290000Y-90758578D01*
X65710000Y-90241422D02*
X65710000Y-90758578D01*
X65710000Y-97258578D02*
X65710000Y-96741422D01*
X64290000Y-97258578D02*
X64290000Y-96741422D01*
X60710000Y-97258578D02*
X60710000Y-96741422D01*
X59290000Y-97258578D02*
X59290000Y-96741422D01*
X68741422Y-87710000D02*
X69258578Y-87710000D01*
X68741422Y-86290000D02*
X69258578Y-86290000D01*
D12*
G36*
X207937302Y-96073563D02*
G01*
X207980452Y-95884167D01*
X208046128Y-95687612D01*
X208136209Y-95595444D01*
X208308467Y-95568235D01*
X208445647Y-95566667D01*
X208678355Y-95574238D01*
X208787981Y-95617692D01*
X208820708Y-95728145D01*
X208822667Y-95820667D01*
X208796688Y-96005799D01*
X208698308Y-96071539D01*
X208648465Y-96074667D01*
X208539901Y-96095965D01*
X208495896Y-96189785D01*
X208497968Y-96401013D01*
X208500299Y-96434500D01*
X208528389Y-96662270D01*
X208588670Y-96766771D01*
X208711305Y-96794054D01*
X208735980Y-96794333D01*
X208869436Y-96765668D01*
X208985868Y-96657233D01*
X209116172Y-96435369D01*
X209174818Y-96316267D01*
X209328864Y-96037454D01*
X209491494Y-95808268D01*
X209597844Y-95702433D01*
X209897306Y-95583970D01*
X210250443Y-95573575D01*
X210584104Y-95667114D01*
X210739373Y-95766926D01*
X210871314Y-95902543D01*
X210946078Y-96059528D01*
X210983115Y-96294054D01*
X210995869Y-96507760D01*
X210994542Y-96833689D01*
X210966833Y-97124311D01*
X210930053Y-97281167D01*
X210852050Y-97428430D01*
X210730307Y-97496181D01*
X210506249Y-97513848D01*
X210466611Y-97514000D01*
X210235124Y-97506264D01*
X210126535Y-97462060D01*
X210094481Y-97349898D01*
X210092667Y-97260000D01*
X210120692Y-97072254D01*
X210221304Y-97007617D01*
X210252822Y-97006000D01*
X210392884Y-96934054D01*
X210473168Y-96758698D01*
X210475532Y-96540659D01*
X210430404Y-96411596D01*
X210272226Y-96274055D01*
X210128480Y-96244000D01*
X210003764Y-96267485D01*
X209897506Y-96359823D01*
X209782174Y-96553834D01*
X209672211Y-96787919D01*
X209525745Y-97074758D01*
X209376749Y-97303030D01*
X209257985Y-97422919D01*
X208999693Y-97496298D01*
X208677298Y-97507638D01*
X208384241Y-97456980D01*
X208301933Y-97422519D01*
X208095350Y-97222334D01*
X207960223Y-96904491D01*
X207904793Y-96508424D01*
X207937302Y-96073563D01*
G37*
X207937302Y-96073563D02*
X207980452Y-95884167D01*
X208046128Y-95687612D01*
X208136209Y-95595444D01*
X208308467Y-95568235D01*
X208445647Y-95566667D01*
X208678355Y-95574238D01*
X208787981Y-95617692D01*
X208820708Y-95728145D01*
X208822667Y-95820667D01*
X208796688Y-96005799D01*
X208698308Y-96071539D01*
X208648465Y-96074667D01*
X208539901Y-96095965D01*
X208495896Y-96189785D01*
X208497968Y-96401013D01*
X208500299Y-96434500D01*
X208528389Y-96662270D01*
X208588670Y-96766771D01*
X208711305Y-96794054D01*
X208735980Y-96794333D01*
X208869436Y-96765668D01*
X208985868Y-96657233D01*
X209116172Y-96435369D01*
X209174818Y-96316267D01*
X209328864Y-96037454D01*
X209491494Y-95808268D01*
X209597844Y-95702433D01*
X209897306Y-95583970D01*
X210250443Y-95573575D01*
X210584104Y-95667114D01*
X210739373Y-95766926D01*
X210871314Y-95902543D01*
X210946078Y-96059528D01*
X210983115Y-96294054D01*
X210995869Y-96507760D01*
X210994542Y-96833689D01*
X210966833Y-97124311D01*
X210930053Y-97281167D01*
X210852050Y-97428430D01*
X210730307Y-97496181D01*
X210506249Y-97513848D01*
X210466611Y-97514000D01*
X210235124Y-97506264D01*
X210126535Y-97462060D01*
X210094481Y-97349898D01*
X210092667Y-97260000D01*
X210120692Y-97072254D01*
X210221304Y-97007617D01*
X210252822Y-97006000D01*
X210392884Y-96934054D01*
X210473168Y-96758698D01*
X210475532Y-96540659D01*
X210430404Y-96411596D01*
X210272226Y-96274055D01*
X210128480Y-96244000D01*
X210003764Y-96267485D01*
X209897506Y-96359823D01*
X209782174Y-96553834D01*
X209672211Y-96787919D01*
X209525745Y-97074758D01*
X209376749Y-97303030D01*
X209257985Y-97422919D01*
X208999693Y-97496298D01*
X208677298Y-97507638D01*
X208384241Y-97456980D01*
X208301933Y-97422519D01*
X208095350Y-97222334D01*
X207960223Y-96904491D01*
X207904793Y-96508424D01*
X207937302Y-96073563D01*
G36*
X208547500Y-99410810D02*
G01*
X208864383Y-99235174D01*
X209157214Y-99069136D01*
X209365204Y-98947185D01*
X209373000Y-98942426D01*
X209627000Y-98786853D01*
X209065375Y-98785427D01*
X208759311Y-98790855D01*
X208582241Y-98816499D01*
X208494073Y-98873468D01*
X208459468Y-98953333D01*
X208349386Y-99093491D01*
X208195593Y-99122667D01*
X208083922Y-99115625D01*
X208018466Y-99070705D01*
X207986883Y-98952219D01*
X207976833Y-98724477D01*
X207976000Y-98487667D01*
X207978435Y-98164745D01*
X207993969Y-97975465D01*
X208034944Y-97884138D01*
X208113701Y-97855075D01*
X208195593Y-97852667D01*
X208392159Y-97909291D01*
X208459468Y-98022000D01*
X208486191Y-98087409D01*
X208543927Y-98133409D01*
X208658841Y-98163398D01*
X208857097Y-98180772D01*
X209164861Y-98188927D01*
X209608297Y-98191261D01*
X209763875Y-98191333D01*
X211024000Y-98191333D01*
X211024000Y-98484098D01*
X211024018Y-98593576D01*
X211010459Y-98680397D01*
X210962905Y-98760761D01*
X210860937Y-98850867D01*
X210684136Y-98966917D01*
X210412085Y-99125109D01*
X210024364Y-99341643D01*
X209754000Y-99491705D01*
X209203667Y-99797389D01*
X209859834Y-99798695D01*
X210200963Y-99793110D01*
X210403517Y-99770799D01*
X210497902Y-99725937D01*
X210516000Y-99673000D01*
X210591728Y-99572174D01*
X210770000Y-99546000D01*
X211024000Y-99546000D01*
X211024000Y-100731333D01*
X210770000Y-100731333D01*
X210568348Y-100693469D01*
X210516000Y-100604333D01*
X210490526Y-100549578D01*
X210396835Y-100512742D01*
X210209022Y-100490585D01*
X209901181Y-100479870D01*
X209500000Y-100477333D01*
X209061959Y-100480518D01*
X208767264Y-100492229D01*
X208590010Y-100515706D01*
X208504293Y-100554186D01*
X208484000Y-100604333D01*
X208408272Y-100705160D01*
X208230000Y-100731333D01*
X208088972Y-100724577D01*
X208013105Y-100677589D01*
X207982194Y-100550294D01*
X207976039Y-100302616D01*
X207976000Y-100227477D01*
X207976000Y-99723621D01*
X208547500Y-99410810D01*
G37*
X208547500Y-99410810D02*
X208864383Y-99235174D01*
X209157214Y-99069136D01*
X209365204Y-98947185D01*
X209373000Y-98942426D01*
X209627000Y-98786853D01*
X209065375Y-98785427D01*
X208759311Y-98790855D01*
X208582241Y-98816499D01*
X208494073Y-98873468D01*
X208459468Y-98953333D01*
X208349386Y-99093491D01*
X208195593Y-99122667D01*
X208083922Y-99115625D01*
X208018466Y-99070705D01*
X207986883Y-98952219D01*
X207976833Y-98724477D01*
X207976000Y-98487667D01*
X207978435Y-98164745D01*
X207993969Y-97975465D01*
X208034944Y-97884138D01*
X208113701Y-97855075D01*
X208195593Y-97852667D01*
X208392159Y-97909291D01*
X208459468Y-98022000D01*
X208486191Y-98087409D01*
X208543927Y-98133409D01*
X208658841Y-98163398D01*
X208857097Y-98180772D01*
X209164861Y-98188927D01*
X209608297Y-98191261D01*
X209763875Y-98191333D01*
X211024000Y-98191333D01*
X211024000Y-98484098D01*
X211024018Y-98593576D01*
X211010459Y-98680397D01*
X210962905Y-98760761D01*
X210860937Y-98850867D01*
X210684136Y-98966917D01*
X210412085Y-99125109D01*
X210024364Y-99341643D01*
X209754000Y-99491705D01*
X209203667Y-99797389D01*
X209859834Y-99798695D01*
X210200963Y-99793110D01*
X210403517Y-99770799D01*
X210497902Y-99725937D01*
X210516000Y-99673000D01*
X210591728Y-99572174D01*
X210770000Y-99546000D01*
X211024000Y-99546000D01*
X211024000Y-100731333D01*
X210770000Y-100731333D01*
X210568348Y-100693469D01*
X210516000Y-100604333D01*
X210490526Y-100549578D01*
X210396835Y-100512742D01*
X210209022Y-100490585D01*
X209901181Y-100479870D01*
X209500000Y-100477333D01*
X209061959Y-100480518D01*
X208767264Y-100492229D01*
X208590010Y-100515706D01*
X208504293Y-100554186D01*
X208484000Y-100604333D01*
X208408272Y-100705160D01*
X208230000Y-100731333D01*
X208088972Y-100724577D01*
X208013105Y-100677589D01*
X207982194Y-100550294D01*
X207976039Y-100302616D01*
X207976000Y-100227477D01*
X207976000Y-99723621D01*
X208547500Y-99410810D01*
G36*
X207927194Y-102234395D02*
G01*
X208070761Y-101791161D01*
X208340285Y-101460030D01*
X208733228Y-101242820D01*
X209247053Y-101141348D01*
X209464041Y-101133500D01*
X210011167Y-101193702D01*
X210455490Y-101370189D01*
X210781921Y-101656781D01*
X210799613Y-101680322D01*
X210935851Y-101979811D01*
X210999390Y-102361512D01*
X210985549Y-102752569D01*
X210889647Y-103080123D01*
X210889553Y-103080306D01*
X210631536Y-103403647D01*
X210244453Y-103629397D01*
X209743089Y-103749302D01*
X209679547Y-103755862D01*
X209457667Y-103750996D01*
X209457667Y-103059667D01*
X209793080Y-103055050D01*
X210006910Y-103032358D01*
X210146838Y-102978328D01*
X210260544Y-102879695D01*
X210311664Y-102822112D01*
X210480666Y-102557933D01*
X210493338Y-102319109D01*
X210360214Y-102081705D01*
X210155958Y-101943047D01*
X209843264Y-101854495D01*
X209475983Y-101817828D01*
X209107967Y-101834823D01*
X208793067Y-101907257D01*
X208597405Y-102023524D01*
X208448379Y-102282072D01*
X208457018Y-102567173D01*
X208597481Y-102814918D01*
X208716540Y-102939598D01*
X208839039Y-103012741D01*
X209012935Y-103047990D01*
X209286183Y-103058991D01*
X209457667Y-103059667D01*
X209457667Y-103750996D01*
X209130610Y-103743823D01*
X208663483Y-103611214D01*
X208294557Y-103372266D01*
X208040222Y-103041209D01*
X207916869Y-102632274D01*
X207927194Y-102234395D01*
G37*
X207927194Y-102234395D02*
X208070761Y-101791161D01*
X208340285Y-101460030D01*
X208733228Y-101242820D01*
X209247053Y-101141348D01*
X209464041Y-101133500D01*
X210011167Y-101193702D01*
X210455490Y-101370189D01*
X210781921Y-101656781D01*
X210799613Y-101680322D01*
X210935851Y-101979811D01*
X210999390Y-102361512D01*
X210985549Y-102752569D01*
X210889647Y-103080123D01*
X210889553Y-103080306D01*
X210631536Y-103403647D01*
X210244453Y-103629397D01*
X209743089Y-103749302D01*
X209679547Y-103755862D01*
X209457667Y-103750996D01*
X209457667Y-103059667D01*
X209793080Y-103055050D01*
X210006910Y-103032358D01*
X210146838Y-102978328D01*
X210260544Y-102879695D01*
X210311664Y-102822112D01*
X210480666Y-102557933D01*
X210493338Y-102319109D01*
X210360214Y-102081705D01*
X210155958Y-101943047D01*
X209843264Y-101854495D01*
X209475983Y-101817828D01*
X209107967Y-101834823D01*
X208793067Y-101907257D01*
X208597405Y-102023524D01*
X208448379Y-102282072D01*
X208457018Y-102567173D01*
X208597481Y-102814918D01*
X208716540Y-102939598D01*
X208839039Y-103012741D01*
X209012935Y-103047990D01*
X209286183Y-103058991D01*
X209457667Y-103059667D01*
X209457667Y-103750996D01*
X209130610Y-103743823D01*
X208663483Y-103611214D01*
X208294557Y-103372266D01*
X208040222Y-103041209D01*
X207916869Y-102632274D01*
X207927194Y-102234395D01*
G36*
X208230000Y-104202667D02*
G01*
X208431652Y-104240531D01*
X208484000Y-104329667D01*
X208509474Y-104384422D01*
X208603165Y-104421259D01*
X208790979Y-104443416D01*
X209098819Y-104454130D01*
X209500000Y-104456667D01*
X209938041Y-104453483D01*
X210232736Y-104441771D01*
X210409990Y-104418295D01*
X210495708Y-104379814D01*
X210516000Y-104329667D01*
X210591728Y-104228841D01*
X210770000Y-104202667D01*
X211024000Y-104202667D01*
X211024000Y-105388000D01*
X210770000Y-105388000D01*
X210568348Y-105350136D01*
X210516000Y-105261000D01*
X210490526Y-105206245D01*
X210396835Y-105169408D01*
X210209022Y-105147251D01*
X209901181Y-105136537D01*
X209500000Y-105134000D01*
X209061959Y-105137184D01*
X208767264Y-105148896D01*
X208590010Y-105172372D01*
X208504293Y-105210853D01*
X208484000Y-105261000D01*
X208408272Y-105361826D01*
X208230000Y-105388000D01*
X207976000Y-105388000D01*
X207976000Y-104202667D01*
X208230000Y-104202667D01*
G37*
X208230000Y-104202667D02*
X208431652Y-104240531D01*
X208484000Y-104329667D01*
X208509474Y-104384422D01*
X208603165Y-104421259D01*
X208790979Y-104443416D01*
X209098819Y-104454130D01*
X209500000Y-104456667D01*
X209938041Y-104453483D01*
X210232736Y-104441771D01*
X210409990Y-104418295D01*
X210495708Y-104379814D01*
X210516000Y-104329667D01*
X210591728Y-104228841D01*
X210770000Y-104202667D01*
X211024000Y-104202667D01*
X211024000Y-105388000D01*
X210770000Y-105388000D01*
X210568348Y-105350136D01*
X210516000Y-105261000D01*
X210490526Y-105206245D01*
X210396835Y-105169408D01*
X210209022Y-105147251D01*
X209901181Y-105136537D01*
X209500000Y-105134000D01*
X209061959Y-105137184D01*
X208767264Y-105148896D01*
X208590010Y-105172372D01*
X208504293Y-105210853D01*
X208484000Y-105261000D01*
X208408272Y-105361826D01*
X208230000Y-105388000D01*
X207976000Y-105388000D01*
X207976000Y-104202667D01*
X208230000Y-104202667D01*
G36*
X208399334Y-105811333D02*
G01*
X208649936Y-105816883D01*
X208774903Y-105851003D01*
X208817913Y-105939902D01*
X208822667Y-106065333D01*
X208796056Y-106251254D01*
X208697045Y-106316713D01*
X208653334Y-106319333D01*
X208511829Y-106379202D01*
X208484000Y-106488667D01*
X208493968Y-106560147D01*
X208542580Y-106608084D01*
X208657897Y-106637153D01*
X208867980Y-106652032D01*
X209200889Y-106657398D01*
X209500000Y-106658000D01*
X209928882Y-106656339D01*
X210216501Y-106648237D01*
X210390918Y-106629017D01*
X210480194Y-106594004D01*
X210512390Y-106538519D01*
X210516000Y-106488667D01*
X210555916Y-106364720D01*
X210704433Y-106321080D01*
X210770000Y-106319333D01*
X211024000Y-106319333D01*
X211024000Y-107674000D01*
X210770000Y-107674000D01*
X210584080Y-107647390D01*
X210518621Y-107548378D01*
X210516000Y-107504667D01*
X210506032Y-107433186D01*
X210457420Y-107385250D01*
X210342103Y-107356180D01*
X210132021Y-107341301D01*
X209799111Y-107335935D01*
X209500000Y-107335333D01*
X209071118Y-107336995D01*
X208783499Y-107345097D01*
X208609082Y-107364316D01*
X208519806Y-107399330D01*
X208487611Y-107454815D01*
X208484000Y-107504667D01*
X208543869Y-107646171D01*
X208653334Y-107674000D01*
X208777280Y-107713916D01*
X208820920Y-107862433D01*
X208822667Y-107928000D01*
X208813418Y-108078362D01*
X208756551Y-108153342D01*
X208608386Y-108179148D01*
X208399334Y-108182000D01*
X207976000Y-108182000D01*
X207976000Y-105811333D01*
X208399334Y-105811333D01*
G37*
X208399334Y-105811333D02*
X208649936Y-105816883D01*
X208774903Y-105851003D01*
X208817913Y-105939902D01*
X208822667Y-106065333D01*
X208796056Y-106251254D01*
X208697045Y-106316713D01*
X208653334Y-106319333D01*
X208511829Y-106379202D01*
X208484000Y-106488667D01*
X208493968Y-106560147D01*
X208542580Y-106608084D01*
X208657897Y-106637153D01*
X208867980Y-106652032D01*
X209200889Y-106657398D01*
X209500000Y-106658000D01*
X209928882Y-106656339D01*
X210216501Y-106648237D01*
X210390918Y-106629017D01*
X210480194Y-106594004D01*
X210512390Y-106538519D01*
X210516000Y-106488667D01*
X210555916Y-106364720D01*
X210704433Y-106321080D01*
X210770000Y-106319333D01*
X211024000Y-106319333D01*
X211024000Y-107674000D01*
X210770000Y-107674000D01*
X210584080Y-107647390D01*
X210518621Y-107548378D01*
X210516000Y-107504667D01*
X210506032Y-107433186D01*
X210457420Y-107385250D01*
X210342103Y-107356180D01*
X210132021Y-107341301D01*
X209799111Y-107335935D01*
X209500000Y-107335333D01*
X209071118Y-107336995D01*
X208783499Y-107345097D01*
X208609082Y-107364316D01*
X208519806Y-107399330D01*
X208487611Y-107454815D01*
X208484000Y-107504667D01*
X208543869Y-107646171D01*
X208653334Y-107674000D01*
X208777280Y-107713916D01*
X208820920Y-107862433D01*
X208822667Y-107928000D01*
X208813418Y-108078362D01*
X208756551Y-108153342D01*
X208608386Y-108179148D01*
X208399334Y-108182000D01*
X207976000Y-108182000D01*
X207976000Y-105811333D01*
X208399334Y-105811333D01*
G36*
X207979232Y-108972965D02*
G01*
X207997532Y-108795707D01*
X208043809Y-108714019D01*
X208130971Y-108691025D01*
X208183460Y-108690000D01*
X208369758Y-108733181D01*
X208458626Y-108806123D01*
X208558631Y-108867926D01*
X208787580Y-108914927D01*
X209161457Y-108949763D01*
X209415334Y-108963798D01*
X209944294Y-109001666D01*
X210331851Y-109064462D01*
X210605199Y-109161332D01*
X210791532Y-109301423D01*
X210903350Y-109464279D01*
X210986973Y-109743413D01*
X211015747Y-110097601D01*
X210986827Y-110440746D01*
X210941021Y-110604473D01*
X210824209Y-110781768D01*
X210642839Y-110960980D01*
X210638636Y-110964306D01*
X210518863Y-111044523D01*
X210378794Y-111097062D01*
X210181374Y-111127594D01*
X209889549Y-111141794D01*
X209466262Y-111145333D01*
X209456124Y-111145333D01*
X209041290Y-111147522D01*
X208765419Y-111157524D01*
X208598158Y-111180496D01*
X208509159Y-111221596D01*
X208468069Y-111285980D01*
X208459468Y-111314667D01*
X208349386Y-111454825D01*
X208195593Y-111484000D01*
X208083922Y-111476958D01*
X208018466Y-111432038D01*
X207986883Y-111313552D01*
X207976833Y-111085810D01*
X207976000Y-110849000D01*
X207978435Y-110526078D01*
X207993969Y-110336798D01*
X208034944Y-110245471D01*
X208113701Y-110216409D01*
X208195593Y-110214000D01*
X208392159Y-110270624D01*
X208459468Y-110383333D01*
X208496685Y-110465570D01*
X208578939Y-110515849D01*
X208741172Y-110541747D01*
X209018321Y-110550840D01*
X209234708Y-110551419D01*
X209714249Y-110535075D01*
X210049611Y-110481654D01*
X210263681Y-110381706D01*
X210379345Y-110225781D01*
X210415535Y-110063848D01*
X210404827Y-109887007D01*
X210318284Y-109762570D01*
X210134219Y-109682367D01*
X209830941Y-109638231D01*
X209386761Y-109621994D01*
X209240488Y-109621333D01*
X208870278Y-109626340D01*
X208640183Y-109644606D01*
X208521191Y-109681003D01*
X208484293Y-109740401D01*
X208484000Y-109748333D01*
X208408272Y-109849160D01*
X208230000Y-109875333D01*
X207976000Y-109875333D01*
X207976000Y-109282667D01*
X207979232Y-108972965D01*
G37*
X207979232Y-108972965D02*
X207997532Y-108795707D01*
X208043809Y-108714019D01*
X208130971Y-108691025D01*
X208183460Y-108690000D01*
X208369758Y-108733181D01*
X208458626Y-108806123D01*
X208558631Y-108867926D01*
X208787580Y-108914927D01*
X209161457Y-108949763D01*
X209415334Y-108963798D01*
X209944294Y-109001666D01*
X210331851Y-109064462D01*
X210605199Y-109161332D01*
X210791532Y-109301423D01*
X210903350Y-109464279D01*
X210986973Y-109743413D01*
X211015747Y-110097601D01*
X210986827Y-110440746D01*
X210941021Y-110604473D01*
X210824209Y-110781768D01*
X210642839Y-110960980D01*
X210638636Y-110964306D01*
X210518863Y-111044523D01*
X210378794Y-111097062D01*
X210181374Y-111127594D01*
X209889549Y-111141794D01*
X209466262Y-111145333D01*
X209456124Y-111145333D01*
X209041290Y-111147522D01*
X208765419Y-111157524D01*
X208598158Y-111180496D01*
X208509159Y-111221596D01*
X208468069Y-111285980D01*
X208459468Y-111314667D01*
X208349386Y-111454825D01*
X208195593Y-111484000D01*
X208083922Y-111476958D01*
X208018466Y-111432038D01*
X207986883Y-111313552D01*
X207976833Y-111085810D01*
X207976000Y-110849000D01*
X207978435Y-110526078D01*
X207993969Y-110336798D01*
X208034944Y-110245471D01*
X208113701Y-110216409D01*
X208195593Y-110214000D01*
X208392159Y-110270624D01*
X208459468Y-110383333D01*
X208496685Y-110465570D01*
X208578939Y-110515849D01*
X208741172Y-110541747D01*
X209018321Y-110550840D01*
X209234708Y-110551419D01*
X209714249Y-110535075D01*
X210049611Y-110481654D01*
X210263681Y-110381706D01*
X210379345Y-110225781D01*
X210415535Y-110063848D01*
X210404827Y-109887007D01*
X210318284Y-109762570D01*
X210134219Y-109682367D01*
X209830941Y-109638231D01*
X209386761Y-109621994D01*
X209240488Y-109621333D01*
X208870278Y-109626340D01*
X208640183Y-109644606D01*
X208521191Y-109681003D01*
X208484293Y-109740401D01*
X208484000Y-109748333D01*
X208408272Y-109849160D01*
X208230000Y-109875333D01*
X207976000Y-109875333D01*
X207976000Y-109282667D01*
X207979232Y-108972965D01*
G36*
X208230000Y-112415333D02*
G01*
X208415920Y-112441944D01*
X208481380Y-112540955D01*
X208484000Y-112584667D01*
X208494326Y-112657423D01*
X208544404Y-112705713D01*
X208662880Y-112734521D01*
X208878404Y-112748828D01*
X209219624Y-112753618D01*
X209457667Y-112754000D01*
X210431334Y-112754000D01*
X210431334Y-112492074D01*
X210394295Y-112282099D01*
X210268365Y-112187595D01*
X210262000Y-112185866D01*
X210119751Y-112072605D01*
X210092667Y-111939792D01*
X210106162Y-111824095D01*
X210174173Y-111763843D01*
X210337987Y-111741145D01*
X210558334Y-111738000D01*
X211024000Y-111738000D01*
X211024000Y-112655222D01*
X211019079Y-113033667D01*
X211005757Y-113347211D01*
X210986197Y-113558541D01*
X210967556Y-113628889D01*
X210830322Y-113685691D01*
X210660279Y-113675165D01*
X210536203Y-113609621D01*
X210516000Y-113558333D01*
X210438266Y-113499137D01*
X210231284Y-113455904D01*
X209934385Y-113428634D01*
X209586901Y-113417328D01*
X209228163Y-113421985D01*
X208897502Y-113442606D01*
X208634250Y-113479190D01*
X208477738Y-113531737D01*
X208453382Y-113558333D01*
X208340619Y-113654985D01*
X208190324Y-113685333D01*
X208081319Y-113677723D01*
X208017424Y-113631106D01*
X207986598Y-113509807D01*
X207976798Y-113278147D01*
X207976000Y-113050333D01*
X207976000Y-112415333D01*
X208230000Y-112415333D01*
G37*
X208230000Y-112415333D02*
X208415920Y-112441944D01*
X208481380Y-112540955D01*
X208484000Y-112584667D01*
X208494326Y-112657423D01*
X208544404Y-112705713D01*
X208662880Y-112734521D01*
X208878404Y-112748828D01*
X209219624Y-112753618D01*
X209457667Y-112754000D01*
X210431334Y-112754000D01*
X210431334Y-112492074D01*
X210394295Y-112282099D01*
X210268365Y-112187595D01*
X210262000Y-112185866D01*
X210119751Y-112072605D01*
X210092667Y-111939792D01*
X210106162Y-111824095D01*
X210174173Y-111763843D01*
X210337987Y-111741145D01*
X210558334Y-111738000D01*
X211024000Y-111738000D01*
X211024000Y-112655222D01*
X211019079Y-113033667D01*
X211005757Y-113347211D01*
X210986197Y-113558541D01*
X210967556Y-113628889D01*
X210830322Y-113685691D01*
X210660279Y-113675165D01*
X210536203Y-113609621D01*
X210516000Y-113558333D01*
X210438266Y-113499137D01*
X210231284Y-113455904D01*
X209934385Y-113428634D01*
X209586901Y-113417328D01*
X209228163Y-113421985D01*
X208897502Y-113442606D01*
X208634250Y-113479190D01*
X208477738Y-113531737D01*
X208453382Y-113558333D01*
X208340619Y-113654985D01*
X208190324Y-113685333D01*
X208081319Y-113677723D01*
X208017424Y-113631106D01*
X207986598Y-113509807D01*
X207976798Y-113278147D01*
X207976000Y-113050333D01*
X207976000Y-112415333D01*
X208230000Y-112415333D01*
G36*
X207929855Y-115027563D02*
G01*
X208074329Y-114620563D01*
X208347590Y-114298435D01*
X208734508Y-114074556D01*
X209219954Y-113962304D01*
X209675194Y-113962410D01*
X210198660Y-114068079D01*
X210590378Y-114279357D01*
X210852470Y-114598164D01*
X210987064Y-115026420D01*
X211001822Y-115161098D01*
X210986133Y-115576184D01*
X210880522Y-115880648D01*
X210611449Y-116237742D01*
X210237870Y-116471315D01*
X209890033Y-116570686D01*
X209523031Y-116597712D01*
X209334203Y-116583596D01*
X209334203Y-115916852D01*
X209715758Y-115899782D01*
X210057130Y-115822224D01*
X210299728Y-115687037D01*
X210308182Y-115678849D01*
X210481423Y-115430910D01*
X210489052Y-115185617D01*
X210331541Y-114922145D01*
X210325500Y-114915155D01*
X210073559Y-114738741D01*
X209731991Y-114645074D01*
X209351739Y-114631864D01*
X208983745Y-114696825D01*
X208678953Y-114837669D01*
X208519471Y-114996257D01*
X208436503Y-115261419D01*
X208491717Y-115534213D01*
X208670792Y-115748680D01*
X208684899Y-115758084D01*
X208971054Y-115870572D01*
X209334203Y-115916852D01*
X209334203Y-116583596D01*
X209107715Y-116566664D01*
X208721196Y-116487099D01*
X208488288Y-116396961D01*
X208215651Y-116164095D01*
X208014822Y-115819080D01*
X207929300Y-115506057D01*
X207929855Y-115027563D01*
G37*
X207929855Y-115027563D02*
X208074329Y-114620563D01*
X208347590Y-114298435D01*
X208734508Y-114074556D01*
X209219954Y-113962304D01*
X209675194Y-113962410D01*
X210198660Y-114068079D01*
X210590378Y-114279357D01*
X210852470Y-114598164D01*
X210987064Y-115026420D01*
X211001822Y-115161098D01*
X210986133Y-115576184D01*
X210880522Y-115880648D01*
X210611449Y-116237742D01*
X210237870Y-116471315D01*
X209890033Y-116570686D01*
X209523031Y-116597712D01*
X209334203Y-116583596D01*
X209334203Y-115916852D01*
X209715758Y-115899782D01*
X210057130Y-115822224D01*
X210299728Y-115687037D01*
X210308182Y-115678849D01*
X210481423Y-115430910D01*
X210489052Y-115185617D01*
X210331541Y-114922145D01*
X210325500Y-114915155D01*
X210073559Y-114738741D01*
X209731991Y-114645074D01*
X209351739Y-114631864D01*
X208983745Y-114696825D01*
X208678953Y-114837669D01*
X208519471Y-114996257D01*
X208436503Y-115261419D01*
X208491717Y-115534213D01*
X208670792Y-115748680D01*
X208684899Y-115758084D01*
X208971054Y-115870572D01*
X209334203Y-115916852D01*
X209334203Y-116583596D01*
X209107715Y-116566664D01*
X208721196Y-116487099D01*
X208488288Y-116396961D01*
X208215651Y-116164095D01*
X208014822Y-115819080D01*
X207929300Y-115506057D01*
X207929855Y-115027563D01*
G36*
X207938841Y-117489518D02*
G01*
X207970539Y-117346283D01*
X208039125Y-117124767D01*
X208125021Y-117020523D01*
X208286642Y-116989351D01*
X208444930Y-116987333D01*
X208677923Y-116994866D01*
X208787790Y-117038149D01*
X208820673Y-117148210D01*
X208822667Y-117241333D01*
X208796056Y-117427254D01*
X208697045Y-117492713D01*
X208653334Y-117495333D01*
X208546518Y-117520923D01*
X208496663Y-117626622D01*
X208484012Y-117855823D01*
X208484000Y-117867275D01*
X208508014Y-118137037D01*
X208586438Y-118273041D01*
X208621732Y-118292069D01*
X208800845Y-118287626D01*
X208975702Y-118128837D01*
X209153341Y-117808862D01*
X209178953Y-117750533D01*
X209353853Y-117398399D01*
X209531464Y-117178691D01*
X209743805Y-117057056D01*
X209854065Y-117026285D01*
X210278695Y-116998878D01*
X210617649Y-117113606D01*
X210859448Y-117360394D01*
X210992617Y-117729169D01*
X211015244Y-118045667D01*
X210998610Y-118342152D01*
X210965994Y-118600828D01*
X210948653Y-118680667D01*
X210888054Y-118813591D01*
X210768066Y-118882830D01*
X210537528Y-118914955D01*
X210491426Y-118918139D01*
X210250383Y-118927289D01*
X210133350Y-118898789D01*
X210095706Y-118810436D01*
X210092667Y-118719713D01*
X210148761Y-118518707D01*
X210254829Y-118453074D01*
X210404444Y-118343858D01*
X210472751Y-118154199D01*
X210464015Y-117940696D01*
X210382501Y-117759946D01*
X210232473Y-117668549D01*
X210195521Y-117665963D01*
X210045117Y-117689746D01*
X209922034Y-117778859D01*
X209798248Y-117964592D01*
X209645733Y-118278235D01*
X209644286Y-118281422D01*
X209489848Y-118581763D01*
X209338556Y-118766791D01*
X209149213Y-118884617D01*
X209115086Y-118899425D01*
X208761554Y-118970027D01*
X208423625Y-118902558D01*
X208151248Y-118710161D01*
X208089463Y-118629556D01*
X207961668Y-118314069D01*
X207909375Y-117911556D01*
X207938841Y-117489518D01*
G37*
X207938841Y-117489518D02*
X207970539Y-117346283D01*
X208039125Y-117124767D01*
X208125021Y-117020523D01*
X208286642Y-116989351D01*
X208444930Y-116987333D01*
X208677923Y-116994866D01*
X208787790Y-117038149D01*
X208820673Y-117148210D01*
X208822667Y-117241333D01*
X208796056Y-117427254D01*
X208697045Y-117492713D01*
X208653334Y-117495333D01*
X208546518Y-117520923D01*
X208496663Y-117626622D01*
X208484012Y-117855823D01*
X208484000Y-117867275D01*
X208508014Y-118137037D01*
X208586438Y-118273041D01*
X208621732Y-118292069D01*
X208800845Y-118287626D01*
X208975702Y-118128837D01*
X209153341Y-117808862D01*
X209178953Y-117750533D01*
X209353853Y-117398399D01*
X209531464Y-117178691D01*
X209743805Y-117057056D01*
X209854065Y-117026285D01*
X210278695Y-116998878D01*
X210617649Y-117113606D01*
X210859448Y-117360394D01*
X210992617Y-117729169D01*
X211015244Y-118045667D01*
X210998610Y-118342152D01*
X210965994Y-118600828D01*
X210948653Y-118680667D01*
X210888054Y-118813591D01*
X210768066Y-118882830D01*
X210537528Y-118914955D01*
X210491426Y-118918139D01*
X210250383Y-118927289D01*
X210133350Y-118898789D01*
X210095706Y-118810436D01*
X210092667Y-118719713D01*
X210148761Y-118518707D01*
X210254829Y-118453074D01*
X210404444Y-118343858D01*
X210472751Y-118154199D01*
X210464015Y-117940696D01*
X210382501Y-117759946D01*
X210232473Y-117668549D01*
X210195521Y-117665963D01*
X210045117Y-117689746D01*
X209922034Y-117778859D01*
X209798248Y-117964592D01*
X209645733Y-118278235D01*
X209644286Y-118281422D01*
X209489848Y-118581763D01*
X209338556Y-118766791D01*
X209149213Y-118884617D01*
X209115086Y-118899425D01*
X208761554Y-118970027D01*
X208423625Y-118902558D01*
X208151248Y-118710161D01*
X208089463Y-118629556D01*
X207961668Y-118314069D01*
X207909375Y-117911556D01*
X207938841Y-117489518D01*
G36*
X207902994Y-119585633D02*
G01*
X207932357Y-119456349D01*
X207947607Y-119442667D01*
X208038579Y-119476238D01*
X208258994Y-119569800D01*
X208584437Y-119712623D01*
X208990492Y-119893976D01*
X209452744Y-120103131D01*
X209513940Y-120131006D01*
X211024000Y-120819345D01*
X211024000Y-121147006D01*
X211002886Y-121354951D01*
X210950337Y-121467889D01*
X210931666Y-121474667D01*
X210828459Y-121441815D01*
X210596432Y-121350387D01*
X210261285Y-121211073D01*
X209848716Y-121034563D01*
X209384425Y-120831547D01*
X209365332Y-120823111D01*
X207891334Y-120171554D01*
X207891334Y-119807111D01*
X207902994Y-119585633D01*
G37*
X207902994Y-119585633D02*
X207932357Y-119456349D01*
X207947607Y-119442667D01*
X208038579Y-119476238D01*
X208258994Y-119569800D01*
X208584437Y-119712623D01*
X208990492Y-119893976D01*
X209452744Y-120103131D01*
X209513940Y-120131006D01*
X211024000Y-120819345D01*
X211024000Y-121147006D01*
X211002886Y-121354951D01*
X210950337Y-121467889D01*
X210931666Y-121474667D01*
X210828459Y-121441815D01*
X210596432Y-121350387D01*
X210261285Y-121211073D01*
X209848716Y-121034563D01*
X209384425Y-120831547D01*
X209365332Y-120823111D01*
X207891334Y-120171554D01*
X207891334Y-119807111D01*
X207902994Y-119585633D01*
G36*
X207989460Y-123043158D02*
G01*
X208006413Y-122635709D01*
X208030767Y-122360125D01*
X208070216Y-122178935D01*
X208132456Y-122054670D01*
X208211185Y-121963658D01*
X208373530Y-121842537D01*
X208584323Y-121784506D01*
X208865428Y-121771000D01*
X209277693Y-121826171D01*
X209568818Y-121997370D01*
X209748496Y-122293121D01*
X209816622Y-122607701D01*
X209849885Y-122845235D01*
X209907429Y-122959542D01*
X210032117Y-122995706D01*
X210188345Y-122998667D01*
X210405488Y-122983427D01*
X210499473Y-122922329D01*
X210516000Y-122829333D01*
X210555916Y-122705387D01*
X210704433Y-122661747D01*
X210770000Y-122660000D01*
X211024000Y-122660000D01*
X211024000Y-123238556D01*
X211016287Y-123537301D01*
X210996063Y-123765309D01*
X210967696Y-123873413D01*
X210967556Y-123873556D01*
X210830322Y-123930358D01*
X210660279Y-123919832D01*
X210536203Y-123854288D01*
X210516000Y-123803000D01*
X210438266Y-123743804D01*
X210231284Y-123700571D01*
X209934385Y-123673301D01*
X209586901Y-123661995D01*
X209228163Y-123666652D01*
X208907334Y-123686658D01*
X208907334Y-122998667D01*
X209159238Y-122991117D01*
X209284929Y-122955309D01*
X209327309Y-122871507D01*
X209330667Y-122803933D01*
X209288843Y-122604899D01*
X209229067Y-122507600D01*
X209045695Y-122422681D01*
X208807085Y-122416207D01*
X208608062Y-122488179D01*
X208585600Y-122507600D01*
X208503577Y-122669785D01*
X208484000Y-122803933D01*
X208500414Y-122919810D01*
X208578257Y-122977627D01*
X208760434Y-122997122D01*
X208907334Y-122998667D01*
X208907334Y-123686658D01*
X208897502Y-123687272D01*
X208634250Y-123723857D01*
X208477738Y-123776404D01*
X208453382Y-123803000D01*
X208340969Y-123898374D01*
X208182617Y-123930000D01*
X207960587Y-123930000D01*
X207989460Y-123043158D01*
G37*
X207989460Y-123043158D02*
X208006413Y-122635709D01*
X208030767Y-122360125D01*
X208070216Y-122178935D01*
X208132456Y-122054670D01*
X208211185Y-121963658D01*
X208373530Y-121842537D01*
X208584323Y-121784506D01*
X208865428Y-121771000D01*
X209277693Y-121826171D01*
X209568818Y-121997370D01*
X209748496Y-122293121D01*
X209816622Y-122607701D01*
X209849885Y-122845235D01*
X209907429Y-122959542D01*
X210032117Y-122995706D01*
X210188345Y-122998667D01*
X210405488Y-122983427D01*
X210499473Y-122922329D01*
X210516000Y-122829333D01*
X210555916Y-122705387D01*
X210704433Y-122661747D01*
X210770000Y-122660000D01*
X211024000Y-122660000D01*
X211024000Y-123238556D01*
X211016287Y-123537301D01*
X210996063Y-123765309D01*
X210967696Y-123873413D01*
X210967556Y-123873556D01*
X210830322Y-123930358D01*
X210660279Y-123919832D01*
X210536203Y-123854288D01*
X210516000Y-123803000D01*
X210438266Y-123743804D01*
X210231284Y-123700571D01*
X209934385Y-123673301D01*
X209586901Y-123661995D01*
X209228163Y-123666652D01*
X208907334Y-123686658D01*
X208907334Y-122998667D01*
X209159238Y-122991117D01*
X209284929Y-122955309D01*
X209327309Y-122871507D01*
X209330667Y-122803933D01*
X209288843Y-122604899D01*
X209229067Y-122507600D01*
X209045695Y-122422681D01*
X208807085Y-122416207D01*
X208608062Y-122488179D01*
X208585600Y-122507600D01*
X208503577Y-122669785D01*
X208484000Y-122803933D01*
X208500414Y-122919810D01*
X208578257Y-122977627D01*
X208760434Y-122997122D01*
X208907334Y-122998667D01*
X208907334Y-123686658D01*
X208897502Y-123687272D01*
X208634250Y-123723857D01*
X208477738Y-123776404D01*
X208453382Y-123803000D01*
X208340969Y-123898374D01*
X208182617Y-123930000D01*
X207960587Y-123930000D01*
X207989460Y-123043158D01*
G36*
X207989460Y-125837158D02*
G01*
X208016852Y-125352978D01*
X208073580Y-125011028D01*
X208176572Y-124784656D01*
X208342759Y-124647216D01*
X208589072Y-124572056D01*
X208811716Y-124542852D01*
X209080026Y-124528513D01*
X209256107Y-124566618D01*
X209414638Y-124681040D01*
X209498875Y-124762516D01*
X209759522Y-125023163D01*
X210137761Y-124794698D01*
X210352154Y-124646321D01*
X210489234Y-124515181D01*
X210516000Y-124459783D01*
X210590828Y-124382073D01*
X210770000Y-124353333D01*
X210933716Y-124367027D01*
X211005885Y-124440671D01*
X211023687Y-124623114D01*
X211024000Y-124687038D01*
X211017066Y-124857017D01*
X210975822Y-124978668D01*
X210869606Y-125085970D01*
X210667759Y-125212902D01*
X210431900Y-125343204D01*
X210155023Y-125501372D01*
X209947230Y-125634126D01*
X209844367Y-125718121D01*
X209839233Y-125729167D01*
X209914012Y-125768936D01*
X210101501Y-125791051D01*
X210177334Y-125792667D01*
X210412819Y-125771696D01*
X210509854Y-125702178D01*
X210516000Y-125665667D01*
X210591728Y-125564841D01*
X210770000Y-125538667D01*
X211024000Y-125538667D01*
X211024000Y-126074889D01*
X211015695Y-126362301D01*
X210994055Y-126577880D01*
X210967556Y-126667556D01*
X210830322Y-126724358D01*
X210660279Y-126713832D01*
X210536203Y-126648288D01*
X210516000Y-126597000D01*
X210438266Y-126537804D01*
X210231284Y-126494571D01*
X209934385Y-126467301D01*
X209586901Y-126455995D01*
X209228163Y-126460652D01*
X208907334Y-126480658D01*
X208907334Y-125792667D01*
X209159238Y-125785117D01*
X209284929Y-125749309D01*
X209327309Y-125665507D01*
X209330667Y-125597933D01*
X209288843Y-125398899D01*
X209229067Y-125301600D01*
X209045695Y-125216681D01*
X208807085Y-125210207D01*
X208608062Y-125282179D01*
X208585600Y-125301600D01*
X208503577Y-125463785D01*
X208484000Y-125597933D01*
X208500414Y-125713810D01*
X208578257Y-125771627D01*
X208760434Y-125791122D01*
X208907334Y-125792667D01*
X208907334Y-126480658D01*
X208897502Y-126481272D01*
X208634250Y-126517857D01*
X208477738Y-126570404D01*
X208453382Y-126597000D01*
X208340969Y-126692374D01*
X208182617Y-126724000D01*
X207960587Y-126724000D01*
X207989460Y-125837158D01*
G37*
X207989460Y-125837158D02*
X208016852Y-125352978D01*
X208073580Y-125011028D01*
X208176572Y-124784656D01*
X208342759Y-124647216D01*
X208589072Y-124572056D01*
X208811716Y-124542852D01*
X209080026Y-124528513D01*
X209256107Y-124566618D01*
X209414638Y-124681040D01*
X209498875Y-124762516D01*
X209759522Y-125023163D01*
X210137761Y-124794698D01*
X210352154Y-124646321D01*
X210489234Y-124515181D01*
X210516000Y-124459783D01*
X210590828Y-124382073D01*
X210770000Y-124353333D01*
X210933716Y-124367027D01*
X211005885Y-124440671D01*
X211023687Y-124623114D01*
X211024000Y-124687038D01*
X211017066Y-124857017D01*
X210975822Y-124978668D01*
X210869606Y-125085970D01*
X210667759Y-125212902D01*
X210431900Y-125343204D01*
X210155023Y-125501372D01*
X209947230Y-125634126D01*
X209844367Y-125718121D01*
X209839233Y-125729167D01*
X209914012Y-125768936D01*
X210101501Y-125791051D01*
X210177334Y-125792667D01*
X210412819Y-125771696D01*
X210509854Y-125702178D01*
X210516000Y-125665667D01*
X210591728Y-125564841D01*
X210770000Y-125538667D01*
X211024000Y-125538667D01*
X211024000Y-126074889D01*
X211015695Y-126362301D01*
X210994055Y-126577880D01*
X210967556Y-126667556D01*
X210830322Y-126724358D01*
X210660279Y-126713832D01*
X210536203Y-126648288D01*
X210516000Y-126597000D01*
X210438266Y-126537804D01*
X210231284Y-126494571D01*
X209934385Y-126467301D01*
X209586901Y-126455995D01*
X209228163Y-126460652D01*
X208907334Y-126480658D01*
X208907334Y-125792667D01*
X209159238Y-125785117D01*
X209284929Y-125749309D01*
X209327309Y-125665507D01*
X209330667Y-125597933D01*
X209288843Y-125398899D01*
X209229067Y-125301600D01*
X209045695Y-125216681D01*
X208807085Y-125210207D01*
X208608062Y-125282179D01*
X208585600Y-125301600D01*
X208503577Y-125463785D01*
X208484000Y-125597933D01*
X208500414Y-125713810D01*
X208578257Y-125771627D01*
X208760434Y-125791122D01*
X208907334Y-125792667D01*
X208907334Y-126480658D01*
X208897502Y-126481272D01*
X208634250Y-126517857D01*
X208477738Y-126570404D01*
X208453382Y-126597000D01*
X208340969Y-126692374D01*
X208182617Y-126724000D01*
X207960587Y-126724000D01*
X207989460Y-125837158D01*
G36*
X208399334Y-127062667D02*
G01*
X208650374Y-127069247D01*
X208775600Y-127104005D01*
X208818436Y-127189466D01*
X208822667Y-127282260D01*
X208766043Y-127478825D01*
X208653333Y-127546135D01*
X208514981Y-127649655D01*
X208484000Y-127749875D01*
X208496260Y-127817316D01*
X208551635Y-127862561D01*
X208678021Y-127889988D01*
X208903312Y-127903975D01*
X209255402Y-127908900D01*
X209500000Y-127909333D01*
X209928882Y-127907672D01*
X210216501Y-127899570D01*
X210390918Y-127880351D01*
X210480194Y-127845337D01*
X210512390Y-127789852D01*
X210516000Y-127740000D01*
X210555916Y-127616053D01*
X210704433Y-127572414D01*
X210770000Y-127570667D01*
X211024000Y-127570667D01*
X211024000Y-128925333D01*
X210770000Y-128925333D01*
X210584080Y-128898723D01*
X210518621Y-128799712D01*
X210516000Y-128756000D01*
X210506032Y-128684520D01*
X210457420Y-128636583D01*
X210342103Y-128607514D01*
X210132021Y-128592635D01*
X209799111Y-128587269D01*
X209500000Y-128586667D01*
X209071118Y-128588328D01*
X208783499Y-128596430D01*
X208609082Y-128615650D01*
X208519806Y-128650663D01*
X208487611Y-128706148D01*
X208484000Y-128756000D01*
X208543869Y-128897504D01*
X208653334Y-128925333D01*
X208777280Y-128965249D01*
X208820920Y-129113766D01*
X208822667Y-129179333D01*
X208813418Y-129329695D01*
X208756551Y-129404675D01*
X208608386Y-129430481D01*
X208399334Y-129433333D01*
X207976000Y-129433333D01*
X207976000Y-127062667D01*
X208399334Y-127062667D01*
G37*
X208399334Y-127062667D02*
X208650374Y-127069247D01*
X208775600Y-127104005D01*
X208818436Y-127189466D01*
X208822667Y-127282260D01*
X208766043Y-127478825D01*
X208653333Y-127546135D01*
X208514981Y-127649655D01*
X208484000Y-127749875D01*
X208496260Y-127817316D01*
X208551635Y-127862561D01*
X208678021Y-127889988D01*
X208903312Y-127903975D01*
X209255402Y-127908900D01*
X209500000Y-127909333D01*
X209928882Y-127907672D01*
X210216501Y-127899570D01*
X210390918Y-127880351D01*
X210480194Y-127845337D01*
X210512390Y-127789852D01*
X210516000Y-127740000D01*
X210555916Y-127616053D01*
X210704433Y-127572414D01*
X210770000Y-127570667D01*
X211024000Y-127570667D01*
X211024000Y-128925333D01*
X210770000Y-128925333D01*
X210584080Y-128898723D01*
X210518621Y-128799712D01*
X210516000Y-128756000D01*
X210506032Y-128684520D01*
X210457420Y-128636583D01*
X210342103Y-128607514D01*
X210132021Y-128592635D01*
X209799111Y-128587269D01*
X209500000Y-128586667D01*
X209071118Y-128588328D01*
X208783499Y-128596430D01*
X208609082Y-128615650D01*
X208519806Y-128650663D01*
X208487611Y-128706148D01*
X208484000Y-128756000D01*
X208543869Y-128897504D01*
X208653334Y-128925333D01*
X208777280Y-128965249D01*
X208820920Y-129113766D01*
X208822667Y-129179333D01*
X208813418Y-129329695D01*
X208756551Y-129404675D01*
X208608386Y-129430481D01*
X208399334Y-129433333D01*
X207976000Y-129433333D01*
X207976000Y-127062667D01*
X208399334Y-127062667D01*
D13*
X163952380Y-125666666D02*
X163476190Y-126000000D01*
X163952380Y-126238095D02*
X162952380Y-126238095D01*
X162952380Y-125857142D01*
X163000000Y-125761904D01*
X163047619Y-125714285D01*
X163142857Y-125666666D01*
X163285714Y-125666666D01*
X163380952Y-125714285D01*
X163428571Y-125761904D01*
X163476190Y-125857142D01*
X163476190Y-126238095D01*
X163952380Y-125190476D02*
X163952380Y-125000000D01*
X163904761Y-124904761D01*
X163857142Y-124857142D01*
X163714285Y-124761904D01*
X163523809Y-124714285D01*
X163142857Y-124714285D01*
X163047619Y-124761904D01*
X163000000Y-124809523D01*
X162952380Y-124904761D01*
X162952380Y-125095238D01*
X163000000Y-125190476D01*
X163047619Y-125238095D01*
X163142857Y-125285714D01*
X163380952Y-125285714D01*
X163476190Y-125238095D01*
X163523809Y-125190476D01*
X163571428Y-125095238D01*
X163571428Y-124904761D01*
X163523809Y-124809523D01*
X163476190Y-124761904D01*
X163380952Y-124714285D01*
X110761904Y-115952380D02*
X110761904Y-116761904D01*
X110809523Y-116857142D01*
X110857142Y-116904761D01*
X110952380Y-116952380D01*
X111142857Y-116952380D01*
X111238095Y-116904761D01*
X111285714Y-116857142D01*
X111333333Y-116761904D01*
X111333333Y-115952380D01*
X112333333Y-116952380D02*
X111761904Y-116952380D01*
X112047619Y-116952380D02*
X112047619Y-115952380D01*
X111952380Y-116095238D01*
X111857142Y-116190476D01*
X111761904Y-116238095D01*
X112666666Y-115952380D02*
X113285714Y-115952380D01*
X112952380Y-116333333D01*
X113095238Y-116333333D01*
X113190476Y-116380952D01*
X113238095Y-116428571D01*
X113285714Y-116523809D01*
X113285714Y-116761904D01*
X113238095Y-116857142D01*
X113190476Y-116904761D01*
X113095238Y-116952380D01*
X112809523Y-116952380D01*
X112714285Y-116904761D01*
X112666666Y-116857142D01*
X101261904Y-115952380D02*
X101261904Y-116761904D01*
X101309523Y-116857142D01*
X101357142Y-116904761D01*
X101452380Y-116952380D01*
X101642857Y-116952380D01*
X101738095Y-116904761D01*
X101785714Y-116857142D01*
X101833333Y-116761904D01*
X101833333Y-115952380D01*
X102833333Y-116952380D02*
X102261904Y-116952380D01*
X102547619Y-116952380D02*
X102547619Y-115952380D01*
X102452380Y-116095238D01*
X102357142Y-116190476D01*
X102261904Y-116238095D01*
X103214285Y-116047619D02*
X103261904Y-116000000D01*
X103357142Y-115952380D01*
X103595238Y-115952380D01*
X103690476Y-116000000D01*
X103738095Y-116047619D01*
X103785714Y-116142857D01*
X103785714Y-116238095D01*
X103738095Y-116380952D01*
X103166666Y-116952380D01*
X103785714Y-116952380D01*
X167761904Y-115952380D02*
X167761904Y-116761904D01*
X167809523Y-116857142D01*
X167857142Y-116904761D01*
X167952380Y-116952380D01*
X168142857Y-116952380D01*
X168238095Y-116904761D01*
X168285714Y-116857142D01*
X168333333Y-116761904D01*
X168333333Y-115952380D01*
X169333333Y-116952380D02*
X168761904Y-116952380D01*
X169047619Y-116952380D02*
X169047619Y-115952380D01*
X168952380Y-116095238D01*
X168857142Y-116190476D01*
X168761904Y-116238095D01*
X170285714Y-116952380D02*
X169714285Y-116952380D01*
X170000000Y-116952380D02*
X170000000Y-115952380D01*
X169904761Y-116095238D01*
X169809523Y-116190476D01*
X169714285Y-116238095D01*
X72761904Y-115952380D02*
X72761904Y-116761904D01*
X72809523Y-116857142D01*
X72857142Y-116904761D01*
X72952380Y-116952380D01*
X73142857Y-116952380D01*
X73238095Y-116904761D01*
X73285714Y-116857142D01*
X73333333Y-116761904D01*
X73333333Y-115952380D01*
X74333333Y-116952380D02*
X73761904Y-116952380D01*
X74047619Y-116952380D02*
X74047619Y-115952380D01*
X73952380Y-116095238D01*
X73857142Y-116190476D01*
X73761904Y-116238095D01*
X74952380Y-115952380D02*
X75047619Y-115952380D01*
X75142857Y-116000000D01*
X75190476Y-116047619D01*
X75238095Y-116142857D01*
X75285714Y-116333333D01*
X75285714Y-116571428D01*
X75238095Y-116761904D01*
X75190476Y-116857142D01*
X75142857Y-116904761D01*
X75047619Y-116952380D01*
X74952380Y-116952380D01*
X74857142Y-116904761D01*
X74809523Y-116857142D01*
X74761904Y-116761904D01*
X74714285Y-116571428D01*
X74714285Y-116333333D01*
X74761904Y-116142857D01*
X74809523Y-116047619D01*
X74857142Y-116000000D01*
X74952380Y-115952380D01*
X92238095Y-115952380D02*
X92238095Y-116761904D01*
X92285714Y-116857142D01*
X92333333Y-116904761D01*
X92428571Y-116952380D01*
X92619047Y-116952380D01*
X92714285Y-116904761D01*
X92761904Y-116857142D01*
X92809523Y-116761904D01*
X92809523Y-115952380D01*
X93333333Y-116952380D02*
X93523809Y-116952380D01*
X93619047Y-116904761D01*
X93666666Y-116857142D01*
X93761904Y-116714285D01*
X93809523Y-116523809D01*
X93809523Y-116142857D01*
X93761904Y-116047619D01*
X93714285Y-116000000D01*
X93619047Y-115952380D01*
X93428571Y-115952380D01*
X93333333Y-116000000D01*
X93285714Y-116047619D01*
X93238095Y-116142857D01*
X93238095Y-116380952D01*
X93285714Y-116476190D01*
X93333333Y-116523809D01*
X93428571Y-116571428D01*
X93619047Y-116571428D01*
X93714285Y-116523809D01*
X93761904Y-116476190D01*
X93809523Y-116380952D01*
X120738095Y-115952380D02*
X120738095Y-116761904D01*
X120785714Y-116857142D01*
X120833333Y-116904761D01*
X120928571Y-116952380D01*
X121119047Y-116952380D01*
X121214285Y-116904761D01*
X121261904Y-116857142D01*
X121309523Y-116761904D01*
X121309523Y-115952380D01*
X121928571Y-116380952D02*
X121833333Y-116333333D01*
X121785714Y-116285714D01*
X121738095Y-116190476D01*
X121738095Y-116142857D01*
X121785714Y-116047619D01*
X121833333Y-116000000D01*
X121928571Y-115952380D01*
X122119047Y-115952380D01*
X122214285Y-116000000D01*
X122261904Y-116047619D01*
X122309523Y-116142857D01*
X122309523Y-116190476D01*
X122261904Y-116285714D01*
X122214285Y-116333333D01*
X122119047Y-116380952D01*
X121928571Y-116380952D01*
X121833333Y-116428571D01*
X121785714Y-116476190D01*
X121738095Y-116571428D01*
X121738095Y-116761904D01*
X121785714Y-116857142D01*
X121833333Y-116904761D01*
X121928571Y-116952380D01*
X122119047Y-116952380D01*
X122214285Y-116904761D01*
X122261904Y-116857142D01*
X122309523Y-116761904D01*
X122309523Y-116571428D01*
X122261904Y-116476190D01*
X122214285Y-116428571D01*
X122119047Y-116380952D01*
X63738095Y-115952380D02*
X63738095Y-116761904D01*
X63785714Y-116857142D01*
X63833333Y-116904761D01*
X63928571Y-116952380D01*
X64119047Y-116952380D01*
X64214285Y-116904761D01*
X64261904Y-116857142D01*
X64309523Y-116761904D01*
X64309523Y-115952380D01*
X64690476Y-115952380D02*
X65357142Y-115952380D01*
X64928571Y-116952380D01*
X141738095Y-115952380D02*
X141738095Y-116761904D01*
X141785714Y-116857142D01*
X141833333Y-116904761D01*
X141928571Y-116952380D01*
X142119047Y-116952380D01*
X142214285Y-116904761D01*
X142261904Y-116857142D01*
X142309523Y-116761904D01*
X142309523Y-115952380D01*
X143214285Y-115952380D02*
X143023809Y-115952380D01*
X142928571Y-116000000D01*
X142880952Y-116047619D01*
X142785714Y-116190476D01*
X142738095Y-116380952D01*
X142738095Y-116761904D01*
X142785714Y-116857142D01*
X142833333Y-116904761D01*
X142928571Y-116952380D01*
X143119047Y-116952380D01*
X143214285Y-116904761D01*
X143261904Y-116857142D01*
X143309523Y-116761904D01*
X143309523Y-116523809D01*
X143261904Y-116428571D01*
X143214285Y-116380952D01*
X143119047Y-116333333D01*
X142928571Y-116333333D01*
X142833333Y-116380952D01*
X142785714Y-116428571D01*
X142738095Y-116523809D01*
X82738095Y-115952380D02*
X82738095Y-116761904D01*
X82785714Y-116857142D01*
X82833333Y-116904761D01*
X82928571Y-116952380D01*
X83119047Y-116952380D01*
X83214285Y-116904761D01*
X83261904Y-116857142D01*
X83309523Y-116761904D01*
X83309523Y-115952380D01*
X84261904Y-115952380D02*
X83785714Y-115952380D01*
X83738095Y-116428571D01*
X83785714Y-116380952D01*
X83880952Y-116333333D01*
X84119047Y-116333333D01*
X84214285Y-116380952D01*
X84261904Y-116428571D01*
X84309523Y-116523809D01*
X84309523Y-116761904D01*
X84261904Y-116857142D01*
X84214285Y-116904761D01*
X84119047Y-116952380D01*
X83880952Y-116952380D01*
X83785714Y-116904761D01*
X83738095Y-116857142D01*
X187238095Y-115952380D02*
X187238095Y-116761904D01*
X187285714Y-116857142D01*
X187333333Y-116904761D01*
X187428571Y-116952380D01*
X187619047Y-116952380D01*
X187714285Y-116904761D01*
X187761904Y-116857142D01*
X187809523Y-116761904D01*
X187809523Y-115952380D01*
X188714285Y-116285714D02*
X188714285Y-116952380D01*
X188476190Y-115904761D02*
X188238095Y-116619047D01*
X188857142Y-116619047D01*
X177738095Y-115952380D02*
X177738095Y-116761904D01*
X177785714Y-116857142D01*
X177833333Y-116904761D01*
X177928571Y-116952380D01*
X178119047Y-116952380D01*
X178214285Y-116904761D01*
X178261904Y-116857142D01*
X178309523Y-116761904D01*
X178309523Y-115952380D01*
X178690476Y-115952380D02*
X179309523Y-115952380D01*
X178976190Y-116333333D01*
X179119047Y-116333333D01*
X179214285Y-116380952D01*
X179261904Y-116428571D01*
X179309523Y-116523809D01*
X179309523Y-116761904D01*
X179261904Y-116857142D01*
X179214285Y-116904761D01*
X179119047Y-116952380D01*
X178833333Y-116952380D01*
X178738095Y-116904761D01*
X178690476Y-116857142D01*
X148452380Y-130142857D02*
X147976190Y-130476190D01*
X148452380Y-130714285D02*
X147452380Y-130714285D01*
X147452380Y-130333333D01*
X147500000Y-130238095D01*
X147547619Y-130190476D01*
X147642857Y-130142857D01*
X147785714Y-130142857D01*
X147880952Y-130190476D01*
X147928571Y-130238095D01*
X147976190Y-130333333D01*
X147976190Y-130714285D01*
X147785714Y-129285714D02*
X148452380Y-129285714D01*
X147404761Y-129523809D02*
X148119047Y-129761904D01*
X148119047Y-129142857D01*
X147452380Y-128571428D02*
X147452380Y-128476190D01*
X147500000Y-128380952D01*
X147547619Y-128333333D01*
X147642857Y-128285714D01*
X147833333Y-128238095D01*
X148071428Y-128238095D01*
X148261904Y-128285714D01*
X148357142Y-128333333D01*
X148404761Y-128380952D01*
X148452380Y-128476190D01*
X148452380Y-128571428D01*
X148404761Y-128666666D01*
X148357142Y-128714285D01*
X148261904Y-128761904D01*
X148071428Y-128809523D01*
X147833333Y-128809523D01*
X147642857Y-128761904D01*
X147547619Y-128714285D01*
X147500000Y-128666666D01*
X147452380Y-128571428D01*
X148452380Y-123142857D02*
X147976190Y-123476190D01*
X148452380Y-123714285D02*
X147452380Y-123714285D01*
X147452380Y-123333333D01*
X147500000Y-123238095D01*
X147547619Y-123190476D01*
X147642857Y-123142857D01*
X147785714Y-123142857D01*
X147880952Y-123190476D01*
X147928571Y-123238095D01*
X147976190Y-123333333D01*
X147976190Y-123714285D01*
X147547619Y-122761904D02*
X147500000Y-122714285D01*
X147452380Y-122619047D01*
X147452380Y-122380952D01*
X147500000Y-122285714D01*
X147547619Y-122238095D01*
X147642857Y-122190476D01*
X147738095Y-122190476D01*
X147880952Y-122238095D01*
X148452380Y-122809523D01*
X148452380Y-122190476D01*
X147452380Y-121857142D02*
X147452380Y-121238095D01*
X147833333Y-121571428D01*
X147833333Y-121428571D01*
X147880952Y-121333333D01*
X147928571Y-121285714D01*
X148023809Y-121238095D01*
X148261904Y-121238095D01*
X148357142Y-121285714D01*
X148404761Y-121333333D01*
X148452380Y-121428571D01*
X148452380Y-121714285D01*
X148404761Y-121809523D01*
X148357142Y-121857142D01*
X52952380Y-127142857D02*
X52476190Y-127476190D01*
X52952380Y-127714285D02*
X51952380Y-127714285D01*
X51952380Y-127333333D01*
X52000000Y-127238095D01*
X52047619Y-127190476D01*
X52142857Y-127142857D01*
X52285714Y-127142857D01*
X52380952Y-127190476D01*
X52428571Y-127238095D01*
X52476190Y-127333333D01*
X52476190Y-127714285D01*
X52047619Y-126761904D02*
X52000000Y-126714285D01*
X51952380Y-126619047D01*
X51952380Y-126380952D01*
X52000000Y-126285714D01*
X52047619Y-126238095D01*
X52142857Y-126190476D01*
X52238095Y-126190476D01*
X52380952Y-126238095D01*
X52952380Y-126809523D01*
X52952380Y-126190476D01*
X52047619Y-125809523D02*
X52000000Y-125761904D01*
X51952380Y-125666666D01*
X51952380Y-125428571D01*
X52000000Y-125333333D01*
X52047619Y-125285714D01*
X52142857Y-125238095D01*
X52238095Y-125238095D01*
X52380952Y-125285714D01*
X52952380Y-125857142D01*
X52952380Y-125238095D01*
X163952380Y-123142857D02*
X163476190Y-123476190D01*
X163952380Y-123714285D02*
X162952380Y-123714285D01*
X162952380Y-123333333D01*
X163000000Y-123238095D01*
X163047619Y-123190476D01*
X163142857Y-123142857D01*
X163285714Y-123142857D01*
X163380952Y-123190476D01*
X163428571Y-123238095D01*
X163476190Y-123333333D01*
X163476190Y-123714285D01*
X163047619Y-122761904D02*
X163000000Y-122714285D01*
X162952380Y-122619047D01*
X162952380Y-122380952D01*
X163000000Y-122285714D01*
X163047619Y-122238095D01*
X163142857Y-122190476D01*
X163238095Y-122190476D01*
X163380952Y-122238095D01*
X163952380Y-122809523D01*
X163952380Y-122190476D01*
X163952380Y-121238095D02*
X163952380Y-121809523D01*
X163952380Y-121523809D02*
X162952380Y-121523809D01*
X163095238Y-121619047D01*
X163190476Y-121714285D01*
X163238095Y-121809523D01*
X67357142Y-96952380D02*
X67023809Y-96476190D01*
X66785714Y-96952380D02*
X66785714Y-95952380D01*
X67166666Y-95952380D01*
X67261904Y-96000000D01*
X67309523Y-96047619D01*
X67357142Y-96142857D01*
X67357142Y-96285714D01*
X67309523Y-96380952D01*
X67261904Y-96428571D01*
X67166666Y-96476190D01*
X66785714Y-96476190D01*
X68309523Y-96952380D02*
X67738095Y-96952380D01*
X68023809Y-96952380D02*
X68023809Y-95952380D01*
X67928571Y-96095238D01*
X67833333Y-96190476D01*
X67738095Y-96238095D01*
X68880952Y-96380952D02*
X68785714Y-96333333D01*
X68738095Y-96285714D01*
X68690476Y-96190476D01*
X68690476Y-96142857D01*
X68738095Y-96047619D01*
X68785714Y-96000000D01*
X68880952Y-95952380D01*
X69071428Y-95952380D01*
X69166666Y-96000000D01*
X69214285Y-96047619D01*
X69261904Y-96142857D01*
X69261904Y-96190476D01*
X69214285Y-96285714D01*
X69166666Y-96333333D01*
X69071428Y-96380952D01*
X68880952Y-96380952D01*
X68785714Y-96428571D01*
X68738095Y-96476190D01*
X68690476Y-96571428D01*
X68690476Y-96761904D01*
X68738095Y-96857142D01*
X68785714Y-96904761D01*
X68880952Y-96952380D01*
X69071428Y-96952380D01*
X69166666Y-96904761D01*
X69214285Y-96857142D01*
X69261904Y-96761904D01*
X69261904Y-96571428D01*
X69214285Y-96476190D01*
X69166666Y-96428571D01*
X69071428Y-96380952D01*
X163952380Y-129142857D02*
X163476190Y-129476190D01*
X163952380Y-129714285D02*
X162952380Y-129714285D01*
X162952380Y-129333333D01*
X163000000Y-129238095D01*
X163047619Y-129190476D01*
X163142857Y-129142857D01*
X163285714Y-129142857D01*
X163380952Y-129190476D01*
X163428571Y-129238095D01*
X163476190Y-129333333D01*
X163476190Y-129714285D01*
X163952380Y-128190476D02*
X163952380Y-128761904D01*
X163952380Y-128476190D02*
X162952380Y-128476190D01*
X163095238Y-128571428D01*
X163190476Y-128666666D01*
X163238095Y-128761904D01*
X162952380Y-127857142D02*
X162952380Y-127190476D01*
X163952380Y-127619047D01*
X74452380Y-101642857D02*
X73976190Y-101976190D01*
X74452380Y-102214285D02*
X73452380Y-102214285D01*
X73452380Y-101833333D01*
X73500000Y-101738095D01*
X73547619Y-101690476D01*
X73642857Y-101642857D01*
X73785714Y-101642857D01*
X73880952Y-101690476D01*
X73928571Y-101738095D01*
X73976190Y-101833333D01*
X73976190Y-102214285D01*
X74452380Y-100690476D02*
X74452380Y-101261904D01*
X74452380Y-100976190D02*
X73452380Y-100976190D01*
X73595238Y-101071428D01*
X73690476Y-101166666D01*
X73738095Y-101261904D01*
X73452380Y-100357142D02*
X73452380Y-99738095D01*
X73833333Y-100071428D01*
X73833333Y-99928571D01*
X73880952Y-99833333D01*
X73928571Y-99785714D01*
X74023809Y-99738095D01*
X74261904Y-99738095D01*
X74357142Y-99785714D01*
X74404761Y-99833333D01*
X74452380Y-99928571D01*
X74452380Y-100214285D01*
X74404761Y-100309523D01*
X74357142Y-100357142D01*
X148452380Y-126642857D02*
X147976190Y-126976190D01*
X148452380Y-127214285D02*
X147452380Y-127214285D01*
X147452380Y-126833333D01*
X147500000Y-126738095D01*
X147547619Y-126690476D01*
X147642857Y-126642857D01*
X147785714Y-126642857D01*
X147880952Y-126690476D01*
X147928571Y-126738095D01*
X147976190Y-126833333D01*
X147976190Y-127214285D01*
X148452380Y-125690476D02*
X148452380Y-126261904D01*
X148452380Y-125976190D02*
X147452380Y-125976190D01*
X147595238Y-126071428D01*
X147690476Y-126166666D01*
X147738095Y-126261904D01*
X147547619Y-125309523D02*
X147500000Y-125261904D01*
X147452380Y-125166666D01*
X147452380Y-124928571D01*
X147500000Y-124833333D01*
X147547619Y-124785714D01*
X147642857Y-124738095D01*
X147738095Y-124738095D01*
X147880952Y-124785714D01*
X148452380Y-125357142D01*
X148452380Y-124738095D01*
X58452380Y-127142857D02*
X57976190Y-127476190D01*
X58452380Y-127714285D02*
X57452380Y-127714285D01*
X57452380Y-127333333D01*
X57500000Y-127238095D01*
X57547619Y-127190476D01*
X57642857Y-127142857D01*
X57785714Y-127142857D01*
X57880952Y-127190476D01*
X57928571Y-127238095D01*
X57976190Y-127333333D01*
X57976190Y-127714285D01*
X58452380Y-126190476D02*
X58452380Y-126761904D01*
X58452380Y-126476190D02*
X57452380Y-126476190D01*
X57595238Y-126571428D01*
X57690476Y-126666666D01*
X57738095Y-126761904D01*
X58452380Y-125238095D02*
X58452380Y-125809523D01*
X58452380Y-125523809D02*
X57452380Y-125523809D01*
X57595238Y-125619047D01*
X57690476Y-125714285D01*
X57738095Y-125809523D01*
X148452380Y-119642857D02*
X147976190Y-119976190D01*
X148452380Y-120214285D02*
X147452380Y-120214285D01*
X147452380Y-119833333D01*
X147500000Y-119738095D01*
X147547619Y-119690476D01*
X147642857Y-119642857D01*
X147785714Y-119642857D01*
X147880952Y-119690476D01*
X147928571Y-119738095D01*
X147976190Y-119833333D01*
X147976190Y-120214285D01*
X148452380Y-118690476D02*
X148452380Y-119261904D01*
X148452380Y-118976190D02*
X147452380Y-118976190D01*
X147595238Y-119071428D01*
X147690476Y-119166666D01*
X147738095Y-119261904D01*
X147452380Y-118071428D02*
X147452380Y-117976190D01*
X147500000Y-117880952D01*
X147547619Y-117833333D01*
X147642857Y-117785714D01*
X147833333Y-117738095D01*
X148071428Y-117738095D01*
X148261904Y-117785714D01*
X148357142Y-117833333D01*
X148404761Y-117880952D01*
X148452380Y-117976190D01*
X148452380Y-118071428D01*
X148404761Y-118166666D01*
X148357142Y-118214285D01*
X148261904Y-118261904D01*
X148071428Y-118309523D01*
X147833333Y-118309523D01*
X147642857Y-118261904D01*
X147547619Y-118214285D01*
X147500000Y-118166666D01*
X147452380Y-118071428D01*
X71404761Y-105547619D02*
X71309523Y-105500000D01*
X71214285Y-105404761D01*
X71071428Y-105261904D01*
X70976190Y-105214285D01*
X70880952Y-105214285D01*
X70928571Y-105452380D02*
X70833333Y-105404761D01*
X70738095Y-105309523D01*
X70690476Y-105119047D01*
X70690476Y-104785714D01*
X70738095Y-104595238D01*
X70833333Y-104500000D01*
X70928571Y-104452380D01*
X71119047Y-104452380D01*
X71214285Y-104500000D01*
X71309523Y-104595238D01*
X71357142Y-104785714D01*
X71357142Y-105119047D01*
X71309523Y-105309523D01*
X71214285Y-105404761D01*
X71119047Y-105452380D01*
X70928571Y-105452380D01*
X71738095Y-104547619D02*
X71785714Y-104500000D01*
X71880952Y-104452380D01*
X72119047Y-104452380D01*
X72214285Y-104500000D01*
X72261904Y-104547619D01*
X72309523Y-104642857D01*
X72309523Y-104738095D01*
X72261904Y-104880952D01*
X71690476Y-105452380D01*
X72309523Y-105452380D01*
X84166666Y-91952380D02*
X84166666Y-92666666D01*
X84119047Y-92809523D01*
X84023809Y-92904761D01*
X83880952Y-92952380D01*
X83785714Y-92952380D01*
X85119047Y-91952380D02*
X84642857Y-91952380D01*
X84595238Y-92428571D01*
X84642857Y-92380952D01*
X84738095Y-92333333D01*
X84976190Y-92333333D01*
X85071428Y-92380952D01*
X85119047Y-92428571D01*
X85166666Y-92523809D01*
X85166666Y-92761904D01*
X85119047Y-92857142D01*
X85071428Y-92904761D01*
X84976190Y-92952380D01*
X84738095Y-92952380D01*
X84642857Y-92904761D01*
X84595238Y-92857142D01*
X155452380Y-129214285D02*
X154452380Y-129214285D01*
X154452380Y-128976190D01*
X154500000Y-128833333D01*
X154595238Y-128738095D01*
X154690476Y-128690476D01*
X154880952Y-128642857D01*
X155023809Y-128642857D01*
X155214285Y-128690476D01*
X155309523Y-128738095D01*
X155404761Y-128833333D01*
X155452380Y-128976190D01*
X155452380Y-129214285D01*
X155452380Y-127690476D02*
X155452380Y-128261904D01*
X155452380Y-127976190D02*
X154452380Y-127976190D01*
X154595238Y-128071428D01*
X154690476Y-128166666D01*
X154738095Y-128261904D01*
X154880952Y-127119047D02*
X154833333Y-127214285D01*
X154785714Y-127261904D01*
X154690476Y-127309523D01*
X154642857Y-127309523D01*
X154547619Y-127261904D01*
X154500000Y-127214285D01*
X154452380Y-127119047D01*
X154452380Y-126928571D01*
X154500000Y-126833333D01*
X154547619Y-126785714D01*
X154642857Y-126738095D01*
X154690476Y-126738095D01*
X154785714Y-126785714D01*
X154833333Y-126833333D01*
X154880952Y-126928571D01*
X154880952Y-127119047D01*
X154928571Y-127214285D01*
X154976190Y-127261904D01*
X155071428Y-127309523D01*
X155261904Y-127309523D01*
X155357142Y-127261904D01*
X155404761Y-127214285D01*
X155452380Y-127119047D01*
X155452380Y-126928571D01*
X155404761Y-126833333D01*
X155357142Y-126785714D01*
X155261904Y-126738095D01*
X155071428Y-126738095D01*
X154976190Y-126785714D01*
X154928571Y-126833333D01*
X154880952Y-126928571D01*
X151285714Y-135452380D02*
X151285714Y-134452380D01*
X151523809Y-134452380D01*
X151666666Y-134500000D01*
X151761904Y-134595238D01*
X151809523Y-134690476D01*
X151857142Y-134880952D01*
X151857142Y-135023809D01*
X151809523Y-135214285D01*
X151761904Y-135309523D01*
X151666666Y-135404761D01*
X151523809Y-135452380D01*
X151285714Y-135452380D01*
X152809523Y-135452380D02*
X152238095Y-135452380D01*
X152523809Y-135452380D02*
X152523809Y-134452380D01*
X152428571Y-134595238D01*
X152333333Y-134690476D01*
X152238095Y-134738095D01*
X153666666Y-134452380D02*
X153476190Y-134452380D01*
X153380952Y-134500000D01*
X153333333Y-134547619D01*
X153238095Y-134690476D01*
X153190476Y-134880952D01*
X153190476Y-135261904D01*
X153238095Y-135357142D01*
X153285714Y-135404761D01*
X153380952Y-135452380D01*
X153571428Y-135452380D01*
X153666666Y-135404761D01*
X153714285Y-135357142D01*
X153761904Y-135261904D01*
X153761904Y-135023809D01*
X153714285Y-134928571D01*
X153666666Y-134880952D01*
X153571428Y-134833333D01*
X153380952Y-134833333D01*
X153285714Y-134880952D01*
X153238095Y-134928571D01*
X153190476Y-135023809D01*
X72785714Y-136452380D02*
X72785714Y-135452380D01*
X73023809Y-135452380D01*
X73166666Y-135500000D01*
X73261904Y-135595238D01*
X73309523Y-135690476D01*
X73357142Y-135880952D01*
X73357142Y-136023809D01*
X73309523Y-136214285D01*
X73261904Y-136309523D01*
X73166666Y-136404761D01*
X73023809Y-136452380D01*
X72785714Y-136452380D01*
X74309523Y-136452380D02*
X73738095Y-136452380D01*
X74023809Y-136452380D02*
X74023809Y-135452380D01*
X73928571Y-135595238D01*
X73833333Y-135690476D01*
X73738095Y-135738095D01*
X75214285Y-135452380D02*
X74738095Y-135452380D01*
X74690476Y-135928571D01*
X74738095Y-135880952D01*
X74833333Y-135833333D01*
X75071428Y-135833333D01*
X75166666Y-135880952D01*
X75214285Y-135928571D01*
X75261904Y-136023809D01*
X75261904Y-136261904D01*
X75214285Y-136357142D01*
X75166666Y-136404761D01*
X75071428Y-136452380D01*
X74833333Y-136452380D01*
X74738095Y-136404761D01*
X74690476Y-136357142D01*
X120285714Y-136452380D02*
X120285714Y-135452380D01*
X120523809Y-135452380D01*
X120666666Y-135500000D01*
X120761904Y-135595238D01*
X120809523Y-135690476D01*
X120857142Y-135880952D01*
X120857142Y-136023809D01*
X120809523Y-136214285D01*
X120761904Y-136309523D01*
X120666666Y-136404761D01*
X120523809Y-136452380D01*
X120285714Y-136452380D01*
X121809523Y-136452380D02*
X121238095Y-136452380D01*
X121523809Y-136452380D02*
X121523809Y-135452380D01*
X121428571Y-135595238D01*
X121333333Y-135690476D01*
X121238095Y-135738095D01*
X122666666Y-135785714D02*
X122666666Y-136452380D01*
X122428571Y-135404761D02*
X122190476Y-136119047D01*
X122809523Y-136119047D01*
X82285714Y-136452380D02*
X82285714Y-135452380D01*
X82523809Y-135452380D01*
X82666666Y-135500000D01*
X82761904Y-135595238D01*
X82809523Y-135690476D01*
X82857142Y-135880952D01*
X82857142Y-136023809D01*
X82809523Y-136214285D01*
X82761904Y-136309523D01*
X82666666Y-136404761D01*
X82523809Y-136452380D01*
X82285714Y-136452380D01*
X83809523Y-136452380D02*
X83238095Y-136452380D01*
X83523809Y-136452380D02*
X83523809Y-135452380D01*
X83428571Y-135595238D01*
X83333333Y-135690476D01*
X83238095Y-135738095D01*
X84142857Y-135452380D02*
X84761904Y-135452380D01*
X84428571Y-135833333D01*
X84571428Y-135833333D01*
X84666666Y-135880952D01*
X84714285Y-135928571D01*
X84761904Y-136023809D01*
X84761904Y-136261904D01*
X84714285Y-136357142D01*
X84666666Y-136404761D01*
X84571428Y-136452380D01*
X84285714Y-136452380D01*
X84190476Y-136404761D01*
X84142857Y-136357142D01*
X186785714Y-136452380D02*
X186785714Y-135452380D01*
X187023809Y-135452380D01*
X187166666Y-135500000D01*
X187261904Y-135595238D01*
X187309523Y-135690476D01*
X187357142Y-135880952D01*
X187357142Y-136023809D01*
X187309523Y-136214285D01*
X187261904Y-136309523D01*
X187166666Y-136404761D01*
X187023809Y-136452380D01*
X186785714Y-136452380D01*
X188309523Y-136452380D02*
X187738095Y-136452380D01*
X188023809Y-136452380D02*
X188023809Y-135452380D01*
X187928571Y-135595238D01*
X187833333Y-135690476D01*
X187738095Y-135738095D01*
X188690476Y-135547619D02*
X188738095Y-135500000D01*
X188833333Y-135452380D01*
X189071428Y-135452380D01*
X189166666Y-135500000D01*
X189214285Y-135547619D01*
X189261904Y-135642857D01*
X189261904Y-135738095D01*
X189214285Y-135880952D01*
X188642857Y-136452380D01*
X189261904Y-136452380D01*
X110785714Y-136452380D02*
X110785714Y-135452380D01*
X111023809Y-135452380D01*
X111166666Y-135500000D01*
X111261904Y-135595238D01*
X111309523Y-135690476D01*
X111357142Y-135880952D01*
X111357142Y-136023809D01*
X111309523Y-136214285D01*
X111261904Y-136309523D01*
X111166666Y-136404761D01*
X111023809Y-136452380D01*
X110785714Y-136452380D01*
X112309523Y-136452380D02*
X111738095Y-136452380D01*
X112023809Y-136452380D02*
X112023809Y-135452380D01*
X111928571Y-135595238D01*
X111833333Y-135690476D01*
X111738095Y-135738095D01*
X113261904Y-136452380D02*
X112690476Y-136452380D01*
X112976190Y-136452380D02*
X112976190Y-135452380D01*
X112880952Y-135595238D01*
X112785714Y-135690476D01*
X112690476Y-135738095D01*
X167785714Y-136452380D02*
X167785714Y-135452380D01*
X168023809Y-135452380D01*
X168166666Y-135500000D01*
X168261904Y-135595238D01*
X168309523Y-135690476D01*
X168357142Y-135880952D01*
X168357142Y-136023809D01*
X168309523Y-136214285D01*
X168261904Y-136309523D01*
X168166666Y-136404761D01*
X168023809Y-136452380D01*
X167785714Y-136452380D01*
X169309523Y-136452380D02*
X168738095Y-136452380D01*
X169023809Y-136452380D02*
X169023809Y-135452380D01*
X168928571Y-135595238D01*
X168833333Y-135690476D01*
X168738095Y-135738095D01*
X169928571Y-135452380D02*
X170023809Y-135452380D01*
X170119047Y-135500000D01*
X170166666Y-135547619D01*
X170214285Y-135642857D01*
X170261904Y-135833333D01*
X170261904Y-136071428D01*
X170214285Y-136261904D01*
X170166666Y-136357142D01*
X170119047Y-136404761D01*
X170023809Y-136452380D01*
X169928571Y-136452380D01*
X169833333Y-136404761D01*
X169785714Y-136357142D01*
X169738095Y-136261904D01*
X169690476Y-136071428D01*
X169690476Y-135833333D01*
X169738095Y-135642857D01*
X169785714Y-135547619D01*
X169833333Y-135500000D01*
X169928571Y-135452380D01*
X92261904Y-136452380D02*
X92261904Y-135452380D01*
X92500000Y-135452380D01*
X92642857Y-135500000D01*
X92738095Y-135595238D01*
X92785714Y-135690476D01*
X92833333Y-135880952D01*
X92833333Y-136023809D01*
X92785714Y-136214285D01*
X92738095Y-136309523D01*
X92642857Y-136404761D01*
X92500000Y-136452380D01*
X92261904Y-136452380D01*
X93166666Y-135452380D02*
X93833333Y-135452380D01*
X93404761Y-136452380D01*
X63761904Y-136452380D02*
X63761904Y-135452380D01*
X64000000Y-135452380D01*
X64142857Y-135500000D01*
X64238095Y-135595238D01*
X64285714Y-135690476D01*
X64333333Y-135880952D01*
X64333333Y-136023809D01*
X64285714Y-136214285D01*
X64238095Y-136309523D01*
X64142857Y-136404761D01*
X64000000Y-136452380D01*
X63761904Y-136452380D01*
X65190476Y-135452380D02*
X65000000Y-135452380D01*
X64904761Y-135500000D01*
X64857142Y-135547619D01*
X64761904Y-135690476D01*
X64714285Y-135880952D01*
X64714285Y-136261904D01*
X64761904Y-136357142D01*
X64809523Y-136404761D01*
X64904761Y-136452380D01*
X65095238Y-136452380D01*
X65190476Y-136404761D01*
X65238095Y-136357142D01*
X65285714Y-136261904D01*
X65285714Y-136023809D01*
X65238095Y-135928571D01*
X65190476Y-135880952D01*
X65095238Y-135833333D01*
X64904761Y-135833333D01*
X64809523Y-135880952D01*
X64761904Y-135928571D01*
X64714285Y-136023809D01*
X141761904Y-136452380D02*
X141761904Y-135452380D01*
X142000000Y-135452380D01*
X142142857Y-135500000D01*
X142238095Y-135595238D01*
X142285714Y-135690476D01*
X142333333Y-135880952D01*
X142333333Y-136023809D01*
X142285714Y-136214285D01*
X142238095Y-136309523D01*
X142142857Y-136404761D01*
X142000000Y-136452380D01*
X141761904Y-136452380D01*
X143238095Y-135452380D02*
X142761904Y-135452380D01*
X142714285Y-135928571D01*
X142761904Y-135880952D01*
X142857142Y-135833333D01*
X143095238Y-135833333D01*
X143190476Y-135880952D01*
X143238095Y-135928571D01*
X143285714Y-136023809D01*
X143285714Y-136261904D01*
X143238095Y-136357142D01*
X143190476Y-136404761D01*
X143095238Y-136452380D01*
X142857142Y-136452380D01*
X142761904Y-136404761D01*
X142714285Y-136357142D01*
X101761904Y-136452380D02*
X101761904Y-135452380D01*
X102000000Y-135452380D01*
X102142857Y-135500000D01*
X102238095Y-135595238D01*
X102285714Y-135690476D01*
X102333333Y-135880952D01*
X102333333Y-136023809D01*
X102285714Y-136214285D01*
X102238095Y-136309523D01*
X102142857Y-136404761D01*
X102000000Y-136452380D01*
X101761904Y-136452380D01*
X102666666Y-135452380D02*
X103285714Y-135452380D01*
X102952380Y-135833333D01*
X103095238Y-135833333D01*
X103190476Y-135880952D01*
X103238095Y-135928571D01*
X103285714Y-136023809D01*
X103285714Y-136261904D01*
X103238095Y-136357142D01*
X103190476Y-136404761D01*
X103095238Y-136452380D01*
X102809523Y-136452380D01*
X102714285Y-136404761D01*
X102666666Y-136357142D01*
X204738095Y-138952380D02*
X204738095Y-137952380D01*
X204738095Y-138428571D02*
X205309523Y-138428571D01*
X205309523Y-138952380D02*
X205309523Y-137952380D01*
X205928571Y-138380952D02*
X205833333Y-138333333D01*
X205785714Y-138285714D01*
X205738095Y-138190476D01*
X205738095Y-138142857D01*
X205785714Y-138047619D01*
X205833333Y-138000000D01*
X205928571Y-137952380D01*
X206119047Y-137952380D01*
X206214285Y-138000000D01*
X206261904Y-138047619D01*
X206309523Y-138142857D01*
X206309523Y-138190476D01*
X206261904Y-138285714D01*
X206214285Y-138333333D01*
X206119047Y-138380952D01*
X205928571Y-138380952D01*
X205833333Y-138428571D01*
X205785714Y-138476190D01*
X205738095Y-138571428D01*
X205738095Y-138761904D01*
X205785714Y-138857142D01*
X205833333Y-138904761D01*
X205928571Y-138952380D01*
X206119047Y-138952380D01*
X206214285Y-138904761D01*
X206261904Y-138857142D01*
X206309523Y-138761904D01*
X206309523Y-138571428D01*
X206261904Y-138476190D01*
X206214285Y-138428571D01*
X206119047Y-138380952D01*
X204738095Y-86952380D02*
X204738095Y-85952380D01*
X204738095Y-86428571D02*
X205309523Y-86428571D01*
X205309523Y-86952380D02*
X205309523Y-85952380D01*
X205690476Y-85952380D02*
X206357142Y-85952380D01*
X205928571Y-86952380D01*
X154238095Y-138652380D02*
X154238095Y-137652380D01*
X154238095Y-138128571D02*
X154809523Y-138128571D01*
X154809523Y-138652380D02*
X154809523Y-137652380D01*
X155714285Y-137652380D02*
X155523809Y-137652380D01*
X155428571Y-137700000D01*
X155380952Y-137747619D01*
X155285714Y-137890476D01*
X155238095Y-138080952D01*
X155238095Y-138461904D01*
X155285714Y-138557142D01*
X155333333Y-138604761D01*
X155428571Y-138652380D01*
X155619047Y-138652380D01*
X155714285Y-138604761D01*
X155761904Y-138557142D01*
X155809523Y-138461904D01*
X155809523Y-138223809D01*
X155761904Y-138128571D01*
X155714285Y-138080952D01*
X155619047Y-138033333D01*
X155428571Y-138033333D01*
X155333333Y-138080952D01*
X155285714Y-138128571D01*
X155238095Y-138223809D01*
X158738095Y-86952380D02*
X158738095Y-85952380D01*
X158738095Y-86428571D02*
X159309523Y-86428571D01*
X159309523Y-86952380D02*
X159309523Y-85952380D01*
X160261904Y-85952380D02*
X159785714Y-85952380D01*
X159738095Y-86428571D01*
X159785714Y-86380952D01*
X159880952Y-86333333D01*
X160119047Y-86333333D01*
X160214285Y-86380952D01*
X160261904Y-86428571D01*
X160309523Y-86523809D01*
X160309523Y-86761904D01*
X160261904Y-86857142D01*
X160214285Y-86904761D01*
X160119047Y-86952380D01*
X159880952Y-86952380D01*
X159785714Y-86904761D01*
X159738095Y-86857142D01*
X89238095Y-138652380D02*
X89238095Y-137652380D01*
X89238095Y-138128571D02*
X89809523Y-138128571D01*
X89809523Y-138652380D02*
X89809523Y-137652380D01*
X90714285Y-137985714D02*
X90714285Y-138652380D01*
X90476190Y-137604761D02*
X90238095Y-138319047D01*
X90857142Y-138319047D01*
X93738095Y-86952380D02*
X93738095Y-85952380D01*
X93738095Y-86428571D02*
X94309523Y-86428571D01*
X94309523Y-86952380D02*
X94309523Y-85952380D01*
X94690476Y-85952380D02*
X95309523Y-85952380D01*
X94976190Y-86333333D01*
X95119047Y-86333333D01*
X95214285Y-86380952D01*
X95261904Y-86428571D01*
X95309523Y-86523809D01*
X95309523Y-86761904D01*
X95261904Y-86857142D01*
X95214285Y-86904761D01*
X95119047Y-86952380D01*
X94833333Y-86952380D01*
X94738095Y-86904761D01*
X94690476Y-86857142D01*
X58738095Y-138952380D02*
X58738095Y-137952380D01*
X58738095Y-138428571D02*
X59309523Y-138428571D01*
X59309523Y-138952380D02*
X59309523Y-137952380D01*
X59738095Y-138047619D02*
X59785714Y-138000000D01*
X59880952Y-137952380D01*
X60119047Y-137952380D01*
X60214285Y-138000000D01*
X60261904Y-138047619D01*
X60309523Y-138142857D01*
X60309523Y-138238095D01*
X60261904Y-138380952D01*
X59690476Y-138952380D01*
X60309523Y-138952380D01*
X58738095Y-86952380D02*
X58738095Y-85952380D01*
X58738095Y-86428571D02*
X59309523Y-86428571D01*
X59309523Y-86952380D02*
X59309523Y-85952380D01*
X60309523Y-86952380D02*
X59738095Y-86952380D01*
X60023809Y-86952380D02*
X60023809Y-85952380D01*
X59928571Y-86095238D01*
X59833333Y-86190476D01*
X59738095Y-86238095D01*
X209428571Y-140428571D02*
X209095238Y-140428571D01*
X209095238Y-140952380D02*
X209095238Y-139952380D01*
X209571428Y-139952380D01*
X209952380Y-140952380D02*
X209952380Y-139952380D01*
X210428571Y-140952380D02*
X210428571Y-139952380D01*
X210666666Y-139952380D01*
X210809523Y-140000000D01*
X210904761Y-140095238D01*
X210952380Y-140190476D01*
X211000000Y-140380952D01*
X211000000Y-140523809D01*
X210952380Y-140714285D01*
X210904761Y-140809523D01*
X210809523Y-140904761D01*
X210666666Y-140952380D01*
X210428571Y-140952380D01*
X211380952Y-140047619D02*
X211428571Y-140000000D01*
X211523809Y-139952380D01*
X211761904Y-139952380D01*
X211857142Y-140000000D01*
X211904761Y-140047619D01*
X211952380Y-140142857D01*
X211952380Y-140238095D01*
X211904761Y-140380952D01*
X211333333Y-140952380D01*
X211952380Y-140952380D01*
X53428571Y-95428571D02*
X53095238Y-95428571D01*
X53095238Y-95952380D02*
X53095238Y-94952380D01*
X53571428Y-94952380D01*
X53952380Y-95952380D02*
X53952380Y-94952380D01*
X54428571Y-95952380D02*
X54428571Y-94952380D01*
X54666666Y-94952380D01*
X54809523Y-95000000D01*
X54904761Y-95095238D01*
X54952380Y-95190476D01*
X55000000Y-95380952D01*
X55000000Y-95523809D01*
X54952380Y-95714285D01*
X54904761Y-95809523D01*
X54809523Y-95904761D01*
X54666666Y-95952380D01*
X54428571Y-95952380D01*
X55952380Y-95952380D02*
X55380952Y-95952380D01*
X55666666Y-95952380D02*
X55666666Y-94952380D01*
X55571428Y-95095238D01*
X55476190Y-95190476D01*
X55380952Y-95238095D01*
X60833333Y-105952380D02*
X60500000Y-105476190D01*
X60261904Y-105952380D02*
X60261904Y-104952380D01*
X60642857Y-104952380D01*
X60738095Y-105000000D01*
X60785714Y-105047619D01*
X60833333Y-105142857D01*
X60833333Y-105285714D01*
X60785714Y-105380952D01*
X60738095Y-105428571D01*
X60642857Y-105476190D01*
X60261904Y-105476190D01*
X61785714Y-105952380D02*
X61214285Y-105952380D01*
X61500000Y-105952380D02*
X61500000Y-104952380D01*
X61404761Y-105095238D01*
X61309523Y-105190476D01*
X61214285Y-105238095D01*
X134952380Y-132214285D02*
X133952380Y-132214285D01*
X133952380Y-131976190D01*
X134000000Y-131833333D01*
X134095238Y-131738095D01*
X134190476Y-131690476D01*
X134380952Y-131642857D01*
X134523809Y-131642857D01*
X134714285Y-131690476D01*
X134809523Y-131738095D01*
X134904761Y-131833333D01*
X134952380Y-131976190D01*
X134952380Y-132214285D01*
X134952380Y-130690476D02*
X134952380Y-131261904D01*
X134952380Y-130976190D02*
X133952380Y-130976190D01*
X134095238Y-131071428D01*
X134190476Y-131166666D01*
X134238095Y-131261904D01*
X133952380Y-130357142D02*
X133952380Y-129690476D01*
X134952380Y-130119047D01*
X200857142Y-86452380D02*
X200523809Y-85976190D01*
X200285714Y-86452380D02*
X200285714Y-85452380D01*
X200666666Y-85452380D01*
X200761904Y-85500000D01*
X200809523Y-85547619D01*
X200857142Y-85642857D01*
X200857142Y-85785714D01*
X200809523Y-85880952D01*
X200761904Y-85928571D01*
X200666666Y-85976190D01*
X200285714Y-85976190D01*
X201190476Y-85452380D02*
X201809523Y-85452380D01*
X201476190Y-85833333D01*
X201619047Y-85833333D01*
X201714285Y-85880952D01*
X201761904Y-85928571D01*
X201809523Y-86023809D01*
X201809523Y-86261904D01*
X201761904Y-86357142D01*
X201714285Y-86404761D01*
X201619047Y-86452380D01*
X201333333Y-86452380D01*
X201238095Y-86404761D01*
X201190476Y-86357142D01*
X202380952Y-85880952D02*
X202285714Y-85833333D01*
X202238095Y-85785714D01*
X202190476Y-85690476D01*
X202190476Y-85642857D01*
X202238095Y-85547619D01*
X202285714Y-85500000D01*
X202380952Y-85452380D01*
X202571428Y-85452380D01*
X202666666Y-85500000D01*
X202714285Y-85547619D01*
X202761904Y-85642857D01*
X202761904Y-85690476D01*
X202714285Y-85785714D01*
X202666666Y-85833333D01*
X202571428Y-85880952D01*
X202380952Y-85880952D01*
X202285714Y-85928571D01*
X202238095Y-85976190D01*
X202190476Y-86071428D01*
X202190476Y-86261904D01*
X202238095Y-86357142D01*
X202285714Y-86404761D01*
X202380952Y-86452380D01*
X202571428Y-86452380D01*
X202666666Y-86404761D01*
X202714285Y-86357142D01*
X202761904Y-86261904D01*
X202761904Y-86071428D01*
X202714285Y-85976190D01*
X202666666Y-85928571D01*
X202571428Y-85880952D01*
X133357142Y-86452380D02*
X133023809Y-85976190D01*
X132785714Y-86452380D02*
X132785714Y-85452380D01*
X133166666Y-85452380D01*
X133261904Y-85500000D01*
X133309523Y-85547619D01*
X133357142Y-85642857D01*
X133357142Y-85785714D01*
X133309523Y-85880952D01*
X133261904Y-85928571D01*
X133166666Y-85976190D01*
X132785714Y-85976190D01*
X133690476Y-85452380D02*
X134309523Y-85452380D01*
X133976190Y-85833333D01*
X134119047Y-85833333D01*
X134214285Y-85880952D01*
X134261904Y-85928571D01*
X134309523Y-86023809D01*
X134309523Y-86261904D01*
X134261904Y-86357142D01*
X134214285Y-86404761D01*
X134119047Y-86452380D01*
X133833333Y-86452380D01*
X133738095Y-86404761D01*
X133690476Y-86357142D01*
X134642857Y-85452380D02*
X135309523Y-85452380D01*
X134880952Y-86452380D01*
X201166666Y-113678571D02*
X200833333Y-113678571D01*
X200833333Y-114202380D02*
X200833333Y-113202380D01*
X201309523Y-113202380D01*
X202214285Y-114202380D02*
X201642857Y-114202380D01*
X201928571Y-114202380D02*
X201928571Y-113202380D01*
X201833333Y-113345238D01*
X201738095Y-113440476D01*
X201642857Y-113488095D01*
X133666666Y-113678571D02*
X133333333Y-113678571D01*
X133333333Y-114202380D02*
X133333333Y-113202380D01*
X133809523Y-113202380D01*
X134095238Y-113202380D02*
X134761904Y-113202380D01*
X134333333Y-114202380D01*
X201452380Y-123214285D02*
X200452380Y-123214285D01*
X200452380Y-122976190D01*
X200500000Y-122833333D01*
X200595238Y-122738095D01*
X200690476Y-122690476D01*
X200880952Y-122642857D01*
X201023809Y-122642857D01*
X201214285Y-122690476D01*
X201309523Y-122738095D01*
X201404761Y-122833333D01*
X201452380Y-122976190D01*
X201452380Y-123214285D01*
X200785714Y-121785714D02*
X201452380Y-121785714D01*
X200404761Y-122023809D02*
X201119047Y-122261904D01*
X201119047Y-121642857D01*
X200452380Y-121357142D02*
X200452380Y-120738095D01*
X200833333Y-121071428D01*
X200833333Y-120928571D01*
X200880952Y-120833333D01*
X200928571Y-120785714D01*
X201023809Y-120738095D01*
X201261904Y-120738095D01*
X201357142Y-120785714D01*
X201404761Y-120833333D01*
X201452380Y-120928571D01*
X201452380Y-121214285D01*
X201404761Y-121309523D01*
X201357142Y-121357142D01*
X200035714Y-92452380D02*
X200035714Y-91452380D01*
X200273809Y-91452380D01*
X200416666Y-91500000D01*
X200511904Y-91595238D01*
X200559523Y-91690476D01*
X200607142Y-91880952D01*
X200607142Y-92023809D01*
X200559523Y-92214285D01*
X200511904Y-92309523D01*
X200416666Y-92404761D01*
X200273809Y-92452380D01*
X200035714Y-92452380D01*
X201464285Y-91785714D02*
X201464285Y-92452380D01*
X201226190Y-91404761D02*
X200988095Y-92119047D01*
X201607142Y-92119047D01*
X201940476Y-91547619D02*
X201988095Y-91500000D01*
X202083333Y-91452380D01*
X202321428Y-91452380D01*
X202416666Y-91500000D01*
X202464285Y-91547619D01*
X202511904Y-91642857D01*
X202511904Y-91738095D01*
X202464285Y-91880952D01*
X201892857Y-92452380D01*
X202511904Y-92452380D01*
X196702380Y-90214285D02*
X195702380Y-90214285D01*
X195702380Y-89976190D01*
X195750000Y-89833333D01*
X195845238Y-89738095D01*
X195940476Y-89690476D01*
X196130952Y-89642857D01*
X196273809Y-89642857D01*
X196464285Y-89690476D01*
X196559523Y-89738095D01*
X196654761Y-89833333D01*
X196702380Y-89976190D01*
X196702380Y-90214285D01*
X196035714Y-88785714D02*
X196702380Y-88785714D01*
X195654761Y-89023809D02*
X196369047Y-89261904D01*
X196369047Y-88642857D01*
X196702380Y-87738095D02*
X196702380Y-88309523D01*
X196702380Y-88023809D02*
X195702380Y-88023809D01*
X195845238Y-88119047D01*
X195940476Y-88214285D01*
X195988095Y-88309523D01*
X132785714Y-92452380D02*
X132785714Y-91452380D01*
X133023809Y-91452380D01*
X133166666Y-91500000D01*
X133261904Y-91595238D01*
X133309523Y-91690476D01*
X133357142Y-91880952D01*
X133357142Y-92023809D01*
X133309523Y-92214285D01*
X133261904Y-92309523D01*
X133166666Y-92404761D01*
X133023809Y-92452380D01*
X132785714Y-92452380D01*
X134214285Y-91785714D02*
X134214285Y-92452380D01*
X133976190Y-91404761D02*
X133738095Y-92119047D01*
X134357142Y-92119047D01*
X134928571Y-91452380D02*
X135023809Y-91452380D01*
X135119047Y-91500000D01*
X135166666Y-91547619D01*
X135214285Y-91642857D01*
X135261904Y-91833333D01*
X135261904Y-92071428D01*
X135214285Y-92261904D01*
X135166666Y-92357142D01*
X135119047Y-92404761D01*
X135023809Y-92452380D01*
X134928571Y-92452380D01*
X134833333Y-92404761D01*
X134785714Y-92357142D01*
X134738095Y-92261904D01*
X134690476Y-92071428D01*
X134690476Y-91833333D01*
X134738095Y-91642857D01*
X134785714Y-91547619D01*
X134833333Y-91500000D01*
X134928571Y-91452380D01*
X139952380Y-90214285D02*
X138952380Y-90214285D01*
X138952380Y-89976190D01*
X139000000Y-89833333D01*
X139095238Y-89738095D01*
X139190476Y-89690476D01*
X139380952Y-89642857D01*
X139523809Y-89642857D01*
X139714285Y-89690476D01*
X139809523Y-89738095D01*
X139904761Y-89833333D01*
X139952380Y-89976190D01*
X139952380Y-90214285D01*
X138952380Y-89309523D02*
X138952380Y-88690476D01*
X139333333Y-89023809D01*
X139333333Y-88880952D01*
X139380952Y-88785714D01*
X139428571Y-88738095D01*
X139523809Y-88690476D01*
X139761904Y-88690476D01*
X139857142Y-88738095D01*
X139904761Y-88785714D01*
X139952380Y-88880952D01*
X139952380Y-89166666D01*
X139904761Y-89261904D01*
X139857142Y-89309523D01*
X139952380Y-88214285D02*
X139952380Y-88023809D01*
X139904761Y-87928571D01*
X139857142Y-87880952D01*
X139714285Y-87785714D01*
X139523809Y-87738095D01*
X139142857Y-87738095D01*
X139047619Y-87785714D01*
X139000000Y-87833333D01*
X138952380Y-87928571D01*
X138952380Y-88119047D01*
X139000000Y-88214285D01*
X139047619Y-88261904D01*
X139142857Y-88309523D01*
X139380952Y-88309523D01*
X139476190Y-88261904D01*
X139523809Y-88214285D01*
X139571428Y-88119047D01*
X139571428Y-87928571D01*
X139523809Y-87833333D01*
X139476190Y-87785714D01*
X139380952Y-87738095D01*
X134952380Y-123214285D02*
X133952380Y-123214285D01*
X133952380Y-122976190D01*
X134000000Y-122833333D01*
X134095238Y-122738095D01*
X134190476Y-122690476D01*
X134380952Y-122642857D01*
X134523809Y-122642857D01*
X134714285Y-122690476D01*
X134809523Y-122738095D01*
X134904761Y-122833333D01*
X134952380Y-122976190D01*
X134952380Y-123214285D01*
X133952380Y-122309523D02*
X133952380Y-121690476D01*
X134333333Y-122023809D01*
X134333333Y-121880952D01*
X134380952Y-121785714D01*
X134428571Y-121738095D01*
X134523809Y-121690476D01*
X134761904Y-121690476D01*
X134857142Y-121738095D01*
X134904761Y-121785714D01*
X134952380Y-121880952D01*
X134952380Y-122166666D01*
X134904761Y-122261904D01*
X134857142Y-122309523D01*
X134380952Y-121119047D02*
X134333333Y-121214285D01*
X134285714Y-121261904D01*
X134190476Y-121309523D01*
X134142857Y-121309523D01*
X134047619Y-121261904D01*
X134000000Y-121214285D01*
X133952380Y-121119047D01*
X133952380Y-120928571D01*
X134000000Y-120833333D01*
X134047619Y-120785714D01*
X134142857Y-120738095D01*
X134190476Y-120738095D01*
X134285714Y-120785714D01*
X134333333Y-120833333D01*
X134380952Y-120928571D01*
X134380952Y-121119047D01*
X134428571Y-121214285D01*
X134476190Y-121261904D01*
X134571428Y-121309523D01*
X134761904Y-121309523D01*
X134857142Y-121261904D01*
X134904761Y-121214285D01*
X134952380Y-121119047D01*
X134952380Y-120928571D01*
X134904761Y-120833333D01*
X134857142Y-120785714D01*
X134761904Y-120738095D01*
X134571428Y-120738095D01*
X134476190Y-120785714D01*
X134428571Y-120833333D01*
X134380952Y-120928571D01*
X166816666Y-140772380D02*
X166816666Y-141486666D01*
X166769047Y-141629523D01*
X166673809Y-141724761D01*
X166530952Y-141772380D01*
X166435714Y-141772380D01*
X167816666Y-141772380D02*
X167245238Y-141772380D01*
X167530952Y-141772380D02*
X167530952Y-140772380D01*
X167435714Y-140915238D01*
X167340476Y-141010476D01*
X167245238Y-141058095D01*
X201452380Y-132214285D02*
X200452380Y-132214285D01*
X200452380Y-131976190D01*
X200500000Y-131833333D01*
X200595238Y-131738095D01*
X200690476Y-131690476D01*
X200880952Y-131642857D01*
X201023809Y-131642857D01*
X201214285Y-131690476D01*
X201309523Y-131738095D01*
X201404761Y-131833333D01*
X201452380Y-131976190D01*
X201452380Y-132214285D01*
X200547619Y-131261904D02*
X200500000Y-131214285D01*
X200452380Y-131119047D01*
X200452380Y-130880952D01*
X200500000Y-130785714D01*
X200547619Y-130738095D01*
X200642857Y-130690476D01*
X200738095Y-130690476D01*
X200880952Y-130738095D01*
X201452380Y-131309523D01*
X201452380Y-130690476D01*
X201452380Y-130214285D02*
X201452380Y-130023809D01*
X201404761Y-129928571D01*
X201357142Y-129880952D01*
X201214285Y-129785714D01*
X201023809Y-129738095D01*
X200642857Y-129738095D01*
X200547619Y-129785714D01*
X200500000Y-129833333D01*
X200452380Y-129928571D01*
X200452380Y-130119047D01*
X200500000Y-130214285D01*
X200547619Y-130261904D01*
X200642857Y-130309523D01*
X200880952Y-130309523D01*
X200976190Y-130261904D01*
X201023809Y-130214285D01*
X201071428Y-130119047D01*
X201071428Y-129928571D01*
X201023809Y-129833333D01*
X200976190Y-129785714D01*
X200880952Y-129738095D01*
X177761904Y-136452380D02*
X177761904Y-135452380D01*
X178000000Y-135452380D01*
X178142857Y-135500000D01*
X178238095Y-135595238D01*
X178285714Y-135690476D01*
X178333333Y-135880952D01*
X178333333Y-136023809D01*
X178285714Y-136214285D01*
X178238095Y-136309523D01*
X178142857Y-136404761D01*
X178000000Y-136452380D01*
X177761904Y-136452380D01*
X179190476Y-135785714D02*
X179190476Y-136452380D01*
X178952380Y-135404761D02*
X178714285Y-136119047D01*
X179333333Y-136119047D01*
X151166666Y-95202380D02*
X151166666Y-95916666D01*
X151119047Y-96059523D01*
X151023809Y-96154761D01*
X150880952Y-96202380D01*
X150785714Y-96202380D01*
X152071428Y-95535714D02*
X152071428Y-96202380D01*
X151833333Y-95154761D02*
X151595238Y-95869047D01*
X152214285Y-95869047D01*
X57316666Y-140772380D02*
X57316666Y-141486666D01*
X57269047Y-141629523D01*
X57173809Y-141724761D01*
X57030952Y-141772380D01*
X56935714Y-141772380D01*
X57697619Y-140772380D02*
X58316666Y-140772380D01*
X57983333Y-141153333D01*
X58126190Y-141153333D01*
X58221428Y-141200952D01*
X58269047Y-141248571D01*
X58316666Y-141343809D01*
X58316666Y-141581904D01*
X58269047Y-141677142D01*
X58221428Y-141724761D01*
X58126190Y-141772380D01*
X57840476Y-141772380D01*
X57745238Y-141724761D01*
X57697619Y-141677142D01*
X142166666Y-113678571D02*
X141833333Y-113678571D01*
X141833333Y-114202380D02*
X141833333Y-113202380D01*
X142309523Y-113202380D01*
X143119047Y-113202380D02*
X142928571Y-113202380D01*
X142833333Y-113250000D01*
X142785714Y-113297619D01*
X142690476Y-113440476D01*
X142642857Y-113630952D01*
X142642857Y-114011904D01*
X142690476Y-114107142D01*
X142738095Y-114154761D01*
X142833333Y-114202380D01*
X143023809Y-114202380D01*
X143119047Y-114154761D01*
X143166666Y-114107142D01*
X143214285Y-114011904D01*
X143214285Y-113773809D01*
X143166666Y-113678571D01*
X143119047Y-113630952D01*
X143023809Y-113583333D01*
X142833333Y-113583333D01*
X142738095Y-113630952D01*
X142690476Y-113678571D01*
X142642857Y-113773809D01*
X116666666Y-113678571D02*
X116333333Y-113678571D01*
X116333333Y-114202380D02*
X116333333Y-113202380D01*
X116809523Y-113202380D01*
X117238095Y-114202380D02*
X117428571Y-114202380D01*
X117523809Y-114154761D01*
X117571428Y-114107142D01*
X117666666Y-113964285D01*
X117714285Y-113773809D01*
X117714285Y-113392857D01*
X117666666Y-113297619D01*
X117619047Y-113250000D01*
X117523809Y-113202380D01*
X117333333Y-113202380D01*
X117238095Y-113250000D01*
X117190476Y-113297619D01*
X117142857Y-113392857D01*
X117142857Y-113630952D01*
X117190476Y-113726190D01*
X117238095Y-113773809D01*
X117333333Y-113821428D01*
X117523809Y-113821428D01*
X117619047Y-113773809D01*
X117666666Y-113726190D01*
X117714285Y-113630952D01*
X125166666Y-113678571D02*
X124833333Y-113678571D01*
X124833333Y-114202380D02*
X124833333Y-113202380D01*
X125309523Y-113202380D01*
X125833333Y-113630952D02*
X125738095Y-113583333D01*
X125690476Y-113535714D01*
X125642857Y-113440476D01*
X125642857Y-113392857D01*
X125690476Y-113297619D01*
X125738095Y-113250000D01*
X125833333Y-113202380D01*
X126023809Y-113202380D01*
X126119047Y-113250000D01*
X126166666Y-113297619D01*
X126214285Y-113392857D01*
X126214285Y-113440476D01*
X126166666Y-113535714D01*
X126119047Y-113583333D01*
X126023809Y-113630952D01*
X125833333Y-113630952D01*
X125738095Y-113678571D01*
X125690476Y-113726190D01*
X125642857Y-113821428D01*
X125642857Y-114011904D01*
X125690476Y-114107142D01*
X125738095Y-114154761D01*
X125833333Y-114202380D01*
X126023809Y-114202380D01*
X126119047Y-114154761D01*
X126166666Y-114107142D01*
X126214285Y-114011904D01*
X126214285Y-113821428D01*
X126166666Y-113726190D01*
X126119047Y-113678571D01*
X126023809Y-113630952D01*
X167166666Y-113678571D02*
X166833333Y-113678571D01*
X166833333Y-114202380D02*
X166833333Y-113202380D01*
X167309523Y-113202380D01*
X168166666Y-113202380D02*
X167690476Y-113202380D01*
X167642857Y-113678571D01*
X167690476Y-113630952D01*
X167785714Y-113583333D01*
X168023809Y-113583333D01*
X168119047Y-113630952D01*
X168166666Y-113678571D01*
X168214285Y-113773809D01*
X168214285Y-114011904D01*
X168166666Y-114107142D01*
X168119047Y-114154761D01*
X168023809Y-114202380D01*
X167785714Y-114202380D01*
X167690476Y-114154761D01*
X167642857Y-114107142D01*
X107690476Y-113678571D02*
X107357142Y-113678571D01*
X107357142Y-114202380D02*
X107357142Y-113202380D01*
X107833333Y-113202380D01*
X108738095Y-114202380D02*
X108166666Y-114202380D01*
X108452380Y-114202380D02*
X108452380Y-113202380D01*
X108357142Y-113345238D01*
X108261904Y-113440476D01*
X108166666Y-113488095D01*
X109357142Y-113202380D02*
X109452380Y-113202380D01*
X109547619Y-113250000D01*
X109595238Y-113297619D01*
X109642857Y-113392857D01*
X109690476Y-113583333D01*
X109690476Y-113821428D01*
X109642857Y-114011904D01*
X109595238Y-114107142D01*
X109547619Y-114154761D01*
X109452380Y-114202380D01*
X109357142Y-114202380D01*
X109261904Y-114154761D01*
X109214285Y-114107142D01*
X109166666Y-114011904D01*
X109119047Y-113821428D01*
X109119047Y-113583333D01*
X109166666Y-113392857D01*
X109214285Y-113297619D01*
X109261904Y-113250000D01*
X109357142Y-113202380D01*
X184166666Y-113678571D02*
X183833333Y-113678571D01*
X183833333Y-114202380D02*
X183833333Y-113202380D01*
X184309523Y-113202380D01*
X184595238Y-113202380D02*
X185214285Y-113202380D01*
X184880952Y-113583333D01*
X185023809Y-113583333D01*
X185119047Y-113630952D01*
X185166666Y-113678571D01*
X185214285Y-113773809D01*
X185214285Y-114011904D01*
X185166666Y-114107142D01*
X185119047Y-114154761D01*
X185023809Y-114202380D01*
X184738095Y-114202380D01*
X184642857Y-114154761D01*
X184595238Y-114107142D01*
X175666666Y-113678571D02*
X175333333Y-113678571D01*
X175333333Y-114202380D02*
X175333333Y-113202380D01*
X175809523Y-113202380D01*
X176619047Y-113535714D02*
X176619047Y-114202380D01*
X176380952Y-113154761D02*
X176142857Y-113869047D01*
X176761904Y-113869047D01*
X192666666Y-113678571D02*
X192333333Y-113678571D01*
X192333333Y-114202380D02*
X192333333Y-113202380D01*
X192809523Y-113202380D01*
X193142857Y-113297619D02*
X193190476Y-113250000D01*
X193285714Y-113202380D01*
X193523809Y-113202380D01*
X193619047Y-113250000D01*
X193666666Y-113297619D01*
X193714285Y-113392857D01*
X193714285Y-113488095D01*
X193666666Y-113630952D01*
X193095238Y-114202380D01*
X193714285Y-114202380D01*
X101816666Y-140772380D02*
X101816666Y-141486666D01*
X101769047Y-141629523D01*
X101673809Y-141724761D01*
X101530952Y-141772380D01*
X101435714Y-141772380D01*
X102245238Y-140867619D02*
X102292857Y-140820000D01*
X102388095Y-140772380D01*
X102626190Y-140772380D01*
X102721428Y-140820000D01*
X102769047Y-140867619D01*
X102816666Y-140962857D01*
X102816666Y-141058095D01*
X102769047Y-141200952D01*
X102197619Y-141772380D01*
X102816666Y-141772380D01*
X157952380Y-116214285D02*
X156952380Y-116214285D01*
X156952380Y-115976190D01*
X157000000Y-115833333D01*
X157095238Y-115738095D01*
X157190476Y-115690476D01*
X157380952Y-115642857D01*
X157523809Y-115642857D01*
X157714285Y-115690476D01*
X157809523Y-115738095D01*
X157904761Y-115833333D01*
X157952380Y-115976190D01*
X157952380Y-116214285D01*
X157047619Y-115261904D02*
X157000000Y-115214285D01*
X156952380Y-115119047D01*
X156952380Y-114880952D01*
X157000000Y-114785714D01*
X157047619Y-114738095D01*
X157142857Y-114690476D01*
X157238095Y-114690476D01*
X157380952Y-114738095D01*
X157952380Y-115309523D01*
X157952380Y-114690476D01*
X157380952Y-114119047D02*
X157333333Y-114214285D01*
X157285714Y-114261904D01*
X157190476Y-114309523D01*
X157142857Y-114309523D01*
X157047619Y-114261904D01*
X157000000Y-114214285D01*
X156952380Y-114119047D01*
X156952380Y-113928571D01*
X157000000Y-113833333D01*
X157047619Y-113785714D01*
X157142857Y-113738095D01*
X157190476Y-113738095D01*
X157285714Y-113785714D01*
X157333333Y-113833333D01*
X157380952Y-113928571D01*
X157380952Y-114119047D01*
X157428571Y-114214285D01*
X157476190Y-114261904D01*
X157571428Y-114309523D01*
X157761904Y-114309523D01*
X157857142Y-114261904D01*
X157904761Y-114214285D01*
X157952380Y-114119047D01*
X157952380Y-113928571D01*
X157904761Y-113833333D01*
X157857142Y-113785714D01*
X157761904Y-113738095D01*
X157571428Y-113738095D01*
X157476190Y-113785714D01*
X157428571Y-113833333D01*
X157380952Y-113928571D01*
X89738095Y-102702380D02*
X89738095Y-103511904D01*
X89785714Y-103607142D01*
X89833333Y-103654761D01*
X89928571Y-103702380D01*
X90119047Y-103702380D01*
X90214285Y-103654761D01*
X90261904Y-103607142D01*
X90309523Y-103511904D01*
X90309523Y-102702380D01*
X90738095Y-102797619D02*
X90785714Y-102750000D01*
X90880952Y-102702380D01*
X91119047Y-102702380D01*
X91214285Y-102750000D01*
X91261904Y-102797619D01*
X91309523Y-102892857D01*
X91309523Y-102988095D01*
X91261904Y-103130952D01*
X90690476Y-103702380D01*
X91309523Y-103702380D01*
X65202380Y-94511904D02*
X66011904Y-94511904D01*
X66107142Y-94464285D01*
X66154761Y-94416666D01*
X66202380Y-94321428D01*
X66202380Y-94130952D01*
X66154761Y-94035714D01*
X66107142Y-93988095D01*
X66011904Y-93940476D01*
X65202380Y-93940476D01*
X66202380Y-92940476D02*
X66202380Y-93511904D01*
X66202380Y-93226190D02*
X65202380Y-93226190D01*
X65345238Y-93321428D01*
X65440476Y-93416666D01*
X65488095Y-93511904D01*
X107857142Y-86452380D02*
X107523809Y-85976190D01*
X107285714Y-86452380D02*
X107285714Y-85452380D01*
X107666666Y-85452380D01*
X107761904Y-85500000D01*
X107809523Y-85547619D01*
X107857142Y-85642857D01*
X107857142Y-85785714D01*
X107809523Y-85880952D01*
X107761904Y-85928571D01*
X107666666Y-85976190D01*
X107285714Y-85976190D01*
X108190476Y-85452380D02*
X108809523Y-85452380D01*
X108476190Y-85833333D01*
X108619047Y-85833333D01*
X108714285Y-85880952D01*
X108761904Y-85928571D01*
X108809523Y-86023809D01*
X108809523Y-86261904D01*
X108761904Y-86357142D01*
X108714285Y-86404761D01*
X108619047Y-86452380D01*
X108333333Y-86452380D01*
X108238095Y-86404761D01*
X108190476Y-86357142D01*
X109666666Y-85452380D02*
X109476190Y-85452380D01*
X109380952Y-85500000D01*
X109333333Y-85547619D01*
X109238095Y-85690476D01*
X109190476Y-85880952D01*
X109190476Y-86261904D01*
X109238095Y-86357142D01*
X109285714Y-86404761D01*
X109380952Y-86452380D01*
X109571428Y-86452380D01*
X109666666Y-86404761D01*
X109714285Y-86357142D01*
X109761904Y-86261904D01*
X109761904Y-86023809D01*
X109714285Y-85928571D01*
X109666666Y-85880952D01*
X109571428Y-85833333D01*
X109380952Y-85833333D01*
X109285714Y-85880952D01*
X109238095Y-85928571D01*
X109190476Y-86023809D01*
X183857142Y-86452380D02*
X183523809Y-85976190D01*
X183285714Y-86452380D02*
X183285714Y-85452380D01*
X183666666Y-85452380D01*
X183761904Y-85500000D01*
X183809523Y-85547619D01*
X183857142Y-85642857D01*
X183857142Y-85785714D01*
X183809523Y-85880952D01*
X183761904Y-85928571D01*
X183666666Y-85976190D01*
X183285714Y-85976190D01*
X184190476Y-85452380D02*
X184809523Y-85452380D01*
X184476190Y-85833333D01*
X184619047Y-85833333D01*
X184714285Y-85880952D01*
X184761904Y-85928571D01*
X184809523Y-86023809D01*
X184809523Y-86261904D01*
X184761904Y-86357142D01*
X184714285Y-86404761D01*
X184619047Y-86452380D01*
X184333333Y-86452380D01*
X184238095Y-86404761D01*
X184190476Y-86357142D01*
X185714285Y-85452380D02*
X185238095Y-85452380D01*
X185190476Y-85928571D01*
X185238095Y-85880952D01*
X185333333Y-85833333D01*
X185571428Y-85833333D01*
X185666666Y-85880952D01*
X185714285Y-85928571D01*
X185761904Y-86023809D01*
X185761904Y-86261904D01*
X185714285Y-86357142D01*
X185666666Y-86404761D01*
X185571428Y-86452380D01*
X185333333Y-86452380D01*
X185238095Y-86404761D01*
X185190476Y-86357142D01*
X175357142Y-86452380D02*
X175023809Y-85976190D01*
X174785714Y-86452380D02*
X174785714Y-85452380D01*
X175166666Y-85452380D01*
X175261904Y-85500000D01*
X175309523Y-85547619D01*
X175357142Y-85642857D01*
X175357142Y-85785714D01*
X175309523Y-85880952D01*
X175261904Y-85928571D01*
X175166666Y-85976190D01*
X174785714Y-85976190D01*
X175690476Y-85452380D02*
X176309523Y-85452380D01*
X175976190Y-85833333D01*
X176119047Y-85833333D01*
X176214285Y-85880952D01*
X176261904Y-85928571D01*
X176309523Y-86023809D01*
X176309523Y-86261904D01*
X176261904Y-86357142D01*
X176214285Y-86404761D01*
X176119047Y-86452380D01*
X175833333Y-86452380D01*
X175738095Y-86404761D01*
X175690476Y-86357142D01*
X177166666Y-85785714D02*
X177166666Y-86452380D01*
X176928571Y-85404761D02*
X176690476Y-86119047D01*
X177309523Y-86119047D01*
X192357142Y-86452380D02*
X192023809Y-85976190D01*
X191785714Y-86452380D02*
X191785714Y-85452380D01*
X192166666Y-85452380D01*
X192261904Y-85500000D01*
X192309523Y-85547619D01*
X192357142Y-85642857D01*
X192357142Y-85785714D01*
X192309523Y-85880952D01*
X192261904Y-85928571D01*
X192166666Y-85976190D01*
X191785714Y-85976190D01*
X192690476Y-85452380D02*
X193309523Y-85452380D01*
X192976190Y-85833333D01*
X193119047Y-85833333D01*
X193214285Y-85880952D01*
X193261904Y-85928571D01*
X193309523Y-86023809D01*
X193309523Y-86261904D01*
X193261904Y-86357142D01*
X193214285Y-86404761D01*
X193119047Y-86452380D01*
X192833333Y-86452380D01*
X192738095Y-86404761D01*
X192690476Y-86357142D01*
X193642857Y-85452380D02*
X194261904Y-85452380D01*
X193928571Y-85833333D01*
X194071428Y-85833333D01*
X194166666Y-85880952D01*
X194214285Y-85928571D01*
X194261904Y-86023809D01*
X194261904Y-86261904D01*
X194214285Y-86357142D01*
X194166666Y-86404761D01*
X194071428Y-86452380D01*
X193785714Y-86452380D01*
X193690476Y-86404761D01*
X193642857Y-86357142D01*
X124857142Y-86452380D02*
X124523809Y-85976190D01*
X124285714Y-86452380D02*
X124285714Y-85452380D01*
X124666666Y-85452380D01*
X124761904Y-85500000D01*
X124809523Y-85547619D01*
X124857142Y-85642857D01*
X124857142Y-85785714D01*
X124809523Y-85880952D01*
X124761904Y-85928571D01*
X124666666Y-85976190D01*
X124285714Y-85976190D01*
X125190476Y-85452380D02*
X125809523Y-85452380D01*
X125476190Y-85833333D01*
X125619047Y-85833333D01*
X125714285Y-85880952D01*
X125761904Y-85928571D01*
X125809523Y-86023809D01*
X125809523Y-86261904D01*
X125761904Y-86357142D01*
X125714285Y-86404761D01*
X125619047Y-86452380D01*
X125333333Y-86452380D01*
X125238095Y-86404761D01*
X125190476Y-86357142D01*
X126190476Y-85547619D02*
X126238095Y-85500000D01*
X126333333Y-85452380D01*
X126571428Y-85452380D01*
X126666666Y-85500000D01*
X126714285Y-85547619D01*
X126761904Y-85642857D01*
X126761904Y-85738095D01*
X126714285Y-85880952D01*
X126142857Y-86452380D01*
X126761904Y-86452380D01*
X166857142Y-86452380D02*
X166523809Y-85976190D01*
X166285714Y-86452380D02*
X166285714Y-85452380D01*
X166666666Y-85452380D01*
X166761904Y-85500000D01*
X166809523Y-85547619D01*
X166857142Y-85642857D01*
X166857142Y-85785714D01*
X166809523Y-85880952D01*
X166761904Y-85928571D01*
X166666666Y-85976190D01*
X166285714Y-85976190D01*
X167190476Y-85452380D02*
X167809523Y-85452380D01*
X167476190Y-85833333D01*
X167619047Y-85833333D01*
X167714285Y-85880952D01*
X167761904Y-85928571D01*
X167809523Y-86023809D01*
X167809523Y-86261904D01*
X167761904Y-86357142D01*
X167714285Y-86404761D01*
X167619047Y-86452380D01*
X167333333Y-86452380D01*
X167238095Y-86404761D01*
X167190476Y-86357142D01*
X168761904Y-86452380D02*
X168190476Y-86452380D01*
X168476190Y-86452380D02*
X168476190Y-85452380D01*
X168380952Y-85595238D01*
X168285714Y-85690476D01*
X168190476Y-85738095D01*
X141857142Y-86452380D02*
X141523809Y-85976190D01*
X141285714Y-86452380D02*
X141285714Y-85452380D01*
X141666666Y-85452380D01*
X141761904Y-85500000D01*
X141809523Y-85547619D01*
X141857142Y-85642857D01*
X141857142Y-85785714D01*
X141809523Y-85880952D01*
X141761904Y-85928571D01*
X141666666Y-85976190D01*
X141285714Y-85976190D01*
X142190476Y-85452380D02*
X142809523Y-85452380D01*
X142476190Y-85833333D01*
X142619047Y-85833333D01*
X142714285Y-85880952D01*
X142761904Y-85928571D01*
X142809523Y-86023809D01*
X142809523Y-86261904D01*
X142761904Y-86357142D01*
X142714285Y-86404761D01*
X142619047Y-86452380D01*
X142333333Y-86452380D01*
X142238095Y-86404761D01*
X142190476Y-86357142D01*
X143428571Y-85452380D02*
X143523809Y-85452380D01*
X143619047Y-85500000D01*
X143666666Y-85547619D01*
X143714285Y-85642857D01*
X143761904Y-85833333D01*
X143761904Y-86071428D01*
X143714285Y-86261904D01*
X143666666Y-86357142D01*
X143619047Y-86404761D01*
X143523809Y-86452380D01*
X143428571Y-86452380D01*
X143333333Y-86404761D01*
X143285714Y-86357142D01*
X143238095Y-86261904D01*
X143190476Y-86071428D01*
X143190476Y-85833333D01*
X143238095Y-85642857D01*
X143285714Y-85547619D01*
X143333333Y-85500000D01*
X143428571Y-85452380D01*
X116357142Y-86452380D02*
X116023809Y-85976190D01*
X115785714Y-86452380D02*
X115785714Y-85452380D01*
X116166666Y-85452380D01*
X116261904Y-85500000D01*
X116309523Y-85547619D01*
X116357142Y-85642857D01*
X116357142Y-85785714D01*
X116309523Y-85880952D01*
X116261904Y-85928571D01*
X116166666Y-85976190D01*
X115785714Y-85976190D01*
X116738095Y-85547619D02*
X116785714Y-85500000D01*
X116880952Y-85452380D01*
X117119047Y-85452380D01*
X117214285Y-85500000D01*
X117261904Y-85547619D01*
X117309523Y-85642857D01*
X117309523Y-85738095D01*
X117261904Y-85880952D01*
X116690476Y-86452380D01*
X117309523Y-86452380D01*
X117785714Y-86452380D02*
X117976190Y-86452380D01*
X118071428Y-86404761D01*
X118119047Y-86357142D01*
X118214285Y-86214285D01*
X118261904Y-86023809D01*
X118261904Y-85642857D01*
X118214285Y-85547619D01*
X118166666Y-85500000D01*
X118071428Y-85452380D01*
X117880952Y-85452380D01*
X117785714Y-85500000D01*
X117738095Y-85547619D01*
X117690476Y-85642857D01*
X117690476Y-85880952D01*
X117738095Y-85976190D01*
X117785714Y-86023809D01*
X117880952Y-86071428D01*
X118071428Y-86071428D01*
X118166666Y-86023809D01*
X118214285Y-85976190D01*
X118261904Y-85880952D01*
X83857142Y-103602380D02*
X83523809Y-103126190D01*
X83285714Y-103602380D02*
X83285714Y-102602380D01*
X83666666Y-102602380D01*
X83761904Y-102650000D01*
X83809523Y-102697619D01*
X83857142Y-102792857D01*
X83857142Y-102935714D01*
X83809523Y-103030952D01*
X83761904Y-103078571D01*
X83666666Y-103126190D01*
X83285714Y-103126190D01*
X84238095Y-102697619D02*
X84285714Y-102650000D01*
X84380952Y-102602380D01*
X84619047Y-102602380D01*
X84714285Y-102650000D01*
X84761904Y-102697619D01*
X84809523Y-102792857D01*
X84809523Y-102888095D01*
X84761904Y-103030952D01*
X84190476Y-103602380D01*
X84809523Y-103602380D01*
X85380952Y-103030952D02*
X85285714Y-102983333D01*
X85238095Y-102935714D01*
X85190476Y-102840476D01*
X85190476Y-102792857D01*
X85238095Y-102697619D01*
X85285714Y-102650000D01*
X85380952Y-102602380D01*
X85571428Y-102602380D01*
X85666666Y-102650000D01*
X85714285Y-102697619D01*
X85761904Y-102792857D01*
X85761904Y-102840476D01*
X85714285Y-102935714D01*
X85666666Y-102983333D01*
X85571428Y-103030952D01*
X85380952Y-103030952D01*
X85285714Y-103078571D01*
X85238095Y-103126190D01*
X85190476Y-103221428D01*
X85190476Y-103411904D01*
X85238095Y-103507142D01*
X85285714Y-103554761D01*
X85380952Y-103602380D01*
X85571428Y-103602380D01*
X85666666Y-103554761D01*
X85714285Y-103507142D01*
X85761904Y-103411904D01*
X85761904Y-103221428D01*
X85714285Y-103126190D01*
X85666666Y-103078571D01*
X85571428Y-103030952D01*
X75333333Y-96202380D02*
X75000000Y-95726190D01*
X74761904Y-96202380D02*
X74761904Y-95202380D01*
X75142857Y-95202380D01*
X75238095Y-95250000D01*
X75285714Y-95297619D01*
X75333333Y-95392857D01*
X75333333Y-95535714D01*
X75285714Y-95630952D01*
X75238095Y-95678571D01*
X75142857Y-95726190D01*
X74761904Y-95726190D01*
X75666666Y-95202380D02*
X76333333Y-95202380D01*
X75904761Y-96202380D01*
X74952380Y-93166666D02*
X74476190Y-93500000D01*
X74952380Y-93738095D02*
X73952380Y-93738095D01*
X73952380Y-93357142D01*
X74000000Y-93261904D01*
X74047619Y-93214285D01*
X74142857Y-93166666D01*
X74285714Y-93166666D01*
X74380952Y-93214285D01*
X74428571Y-93261904D01*
X74476190Y-93357142D01*
X74476190Y-93738095D01*
X73952380Y-92309523D02*
X73952380Y-92500000D01*
X74000000Y-92595238D01*
X74047619Y-92642857D01*
X74190476Y-92738095D01*
X74380952Y-92785714D01*
X74761904Y-92785714D01*
X74857142Y-92738095D01*
X74904761Y-92690476D01*
X74952380Y-92595238D01*
X74952380Y-92404761D01*
X74904761Y-92309523D01*
X74857142Y-92261904D01*
X74761904Y-92214285D01*
X74523809Y-92214285D01*
X74428571Y-92261904D01*
X74380952Y-92309523D01*
X74333333Y-92404761D01*
X74333333Y-92595238D01*
X74380952Y-92690476D01*
X74428571Y-92738095D01*
X74523809Y-92785714D01*
X77583333Y-96202380D02*
X77250000Y-95726190D01*
X77011904Y-96202380D02*
X77011904Y-95202380D01*
X77392857Y-95202380D01*
X77488095Y-95250000D01*
X77535714Y-95297619D01*
X77583333Y-95392857D01*
X77583333Y-95535714D01*
X77535714Y-95630952D01*
X77488095Y-95678571D01*
X77392857Y-95726190D01*
X77011904Y-95726190D01*
X78488095Y-95202380D02*
X78011904Y-95202380D01*
X77964285Y-95678571D01*
X78011904Y-95630952D01*
X78107142Y-95583333D01*
X78345238Y-95583333D01*
X78440476Y-95630952D01*
X78488095Y-95678571D01*
X78535714Y-95773809D01*
X78535714Y-96011904D01*
X78488095Y-96107142D01*
X78440476Y-96154761D01*
X78345238Y-96202380D01*
X78107142Y-96202380D01*
X78011904Y-96154761D01*
X77964285Y-96107142D01*
X64202380Y-103666666D02*
X63726190Y-104000000D01*
X64202380Y-104238095D02*
X63202380Y-104238095D01*
X63202380Y-103857142D01*
X63250000Y-103761904D01*
X63297619Y-103714285D01*
X63392857Y-103666666D01*
X63535714Y-103666666D01*
X63630952Y-103714285D01*
X63678571Y-103761904D01*
X63726190Y-103857142D01*
X63726190Y-104238095D01*
X63535714Y-102809523D02*
X64202380Y-102809523D01*
X63154761Y-103047619D02*
X63869047Y-103285714D01*
X63869047Y-102666666D01*
X65833333Y-105952380D02*
X65500000Y-105476190D01*
X65261904Y-105952380D02*
X65261904Y-104952380D01*
X65642857Y-104952380D01*
X65738095Y-105000000D01*
X65785714Y-105047619D01*
X65833333Y-105142857D01*
X65833333Y-105285714D01*
X65785714Y-105380952D01*
X65738095Y-105428571D01*
X65642857Y-105476190D01*
X65261904Y-105476190D01*
X66166666Y-104952380D02*
X66785714Y-104952380D01*
X66452380Y-105333333D01*
X66595238Y-105333333D01*
X66690476Y-105380952D01*
X66738095Y-105428571D01*
X66785714Y-105523809D01*
X66785714Y-105761904D01*
X66738095Y-105857142D01*
X66690476Y-105904761D01*
X66595238Y-105952380D01*
X66309523Y-105952380D01*
X66214285Y-105904761D01*
X66166666Y-105857142D01*
X58952380Y-101166666D02*
X58476190Y-101500000D01*
X58952380Y-101738095D02*
X57952380Y-101738095D01*
X57952380Y-101357142D01*
X58000000Y-101261904D01*
X58047619Y-101214285D01*
X58142857Y-101166666D01*
X58285714Y-101166666D01*
X58380952Y-101214285D01*
X58428571Y-101261904D01*
X58476190Y-101357142D01*
X58476190Y-101738095D01*
X58047619Y-100785714D02*
X58000000Y-100738095D01*
X57952380Y-100642857D01*
X57952380Y-100404761D01*
X58000000Y-100309523D01*
X58047619Y-100261904D01*
X58142857Y-100214285D01*
X58238095Y-100214285D01*
X58380952Y-100261904D01*
X58952380Y-100833333D01*
X58952380Y-100214285D01*
X76404761Y-105547619D02*
X76309523Y-105500000D01*
X76214285Y-105404761D01*
X76071428Y-105261904D01*
X75976190Y-105214285D01*
X75880952Y-105214285D01*
X75928571Y-105452380D02*
X75833333Y-105404761D01*
X75738095Y-105309523D01*
X75690476Y-105119047D01*
X75690476Y-104785714D01*
X75738095Y-104595238D01*
X75833333Y-104500000D01*
X75928571Y-104452380D01*
X76119047Y-104452380D01*
X76214285Y-104500000D01*
X76309523Y-104595238D01*
X76357142Y-104785714D01*
X76357142Y-105119047D01*
X76309523Y-105309523D01*
X76214285Y-105404761D01*
X76119047Y-105452380D01*
X75928571Y-105452380D01*
X77309523Y-105452380D02*
X76738095Y-105452380D01*
X77023809Y-105452380D02*
X77023809Y-104452380D01*
X76928571Y-104595238D01*
X76833333Y-104690476D01*
X76738095Y-104738095D01*
X107285714Y-92452380D02*
X107285714Y-91452380D01*
X107523809Y-91452380D01*
X107666666Y-91500000D01*
X107761904Y-91595238D01*
X107809523Y-91690476D01*
X107857142Y-91880952D01*
X107857142Y-92023809D01*
X107809523Y-92214285D01*
X107761904Y-92309523D01*
X107666666Y-92404761D01*
X107523809Y-92452380D01*
X107285714Y-92452380D01*
X108190476Y-91452380D02*
X108809523Y-91452380D01*
X108476190Y-91833333D01*
X108619047Y-91833333D01*
X108714285Y-91880952D01*
X108761904Y-91928571D01*
X108809523Y-92023809D01*
X108809523Y-92261904D01*
X108761904Y-92357142D01*
X108714285Y-92404761D01*
X108619047Y-92452380D01*
X108333333Y-92452380D01*
X108238095Y-92404761D01*
X108190476Y-92357142D01*
X109142857Y-91452380D02*
X109809523Y-91452380D01*
X109380952Y-92452380D01*
X183285714Y-92452380D02*
X183285714Y-91452380D01*
X183523809Y-91452380D01*
X183666666Y-91500000D01*
X183761904Y-91595238D01*
X183809523Y-91690476D01*
X183857142Y-91880952D01*
X183857142Y-92023809D01*
X183809523Y-92214285D01*
X183761904Y-92309523D01*
X183666666Y-92404761D01*
X183523809Y-92452380D01*
X183285714Y-92452380D01*
X184190476Y-91452380D02*
X184809523Y-91452380D01*
X184476190Y-91833333D01*
X184619047Y-91833333D01*
X184714285Y-91880952D01*
X184761904Y-91928571D01*
X184809523Y-92023809D01*
X184809523Y-92261904D01*
X184761904Y-92357142D01*
X184714285Y-92404761D01*
X184619047Y-92452380D01*
X184333333Y-92452380D01*
X184238095Y-92404761D01*
X184190476Y-92357142D01*
X185666666Y-91452380D02*
X185476190Y-91452380D01*
X185380952Y-91500000D01*
X185333333Y-91547619D01*
X185238095Y-91690476D01*
X185190476Y-91880952D01*
X185190476Y-92261904D01*
X185238095Y-92357142D01*
X185285714Y-92404761D01*
X185380952Y-92452380D01*
X185571428Y-92452380D01*
X185666666Y-92404761D01*
X185714285Y-92357142D01*
X185761904Y-92261904D01*
X185761904Y-92023809D01*
X185714285Y-91928571D01*
X185666666Y-91880952D01*
X185571428Y-91833333D01*
X185380952Y-91833333D01*
X185285714Y-91880952D01*
X185238095Y-91928571D01*
X185190476Y-92023809D01*
X174785714Y-92452380D02*
X174785714Y-91452380D01*
X175023809Y-91452380D01*
X175166666Y-91500000D01*
X175261904Y-91595238D01*
X175309523Y-91690476D01*
X175357142Y-91880952D01*
X175357142Y-92023809D01*
X175309523Y-92214285D01*
X175261904Y-92309523D01*
X175166666Y-92404761D01*
X175023809Y-92452380D01*
X174785714Y-92452380D01*
X175690476Y-91452380D02*
X176309523Y-91452380D01*
X175976190Y-91833333D01*
X176119047Y-91833333D01*
X176214285Y-91880952D01*
X176261904Y-91928571D01*
X176309523Y-92023809D01*
X176309523Y-92261904D01*
X176261904Y-92357142D01*
X176214285Y-92404761D01*
X176119047Y-92452380D01*
X175833333Y-92452380D01*
X175738095Y-92404761D01*
X175690476Y-92357142D01*
X177214285Y-91452380D02*
X176738095Y-91452380D01*
X176690476Y-91928571D01*
X176738095Y-91880952D01*
X176833333Y-91833333D01*
X177071428Y-91833333D01*
X177166666Y-91880952D01*
X177214285Y-91928571D01*
X177261904Y-92023809D01*
X177261904Y-92261904D01*
X177214285Y-92357142D01*
X177166666Y-92404761D01*
X177071428Y-92452380D01*
X176833333Y-92452380D01*
X176738095Y-92404761D01*
X176690476Y-92357142D01*
X191785714Y-92452380D02*
X191785714Y-91452380D01*
X192023809Y-91452380D01*
X192166666Y-91500000D01*
X192261904Y-91595238D01*
X192309523Y-91690476D01*
X192357142Y-91880952D01*
X192357142Y-92023809D01*
X192309523Y-92214285D01*
X192261904Y-92309523D01*
X192166666Y-92404761D01*
X192023809Y-92452380D01*
X191785714Y-92452380D01*
X192690476Y-91452380D02*
X193309523Y-91452380D01*
X192976190Y-91833333D01*
X193119047Y-91833333D01*
X193214285Y-91880952D01*
X193261904Y-91928571D01*
X193309523Y-92023809D01*
X193309523Y-92261904D01*
X193261904Y-92357142D01*
X193214285Y-92404761D01*
X193119047Y-92452380D01*
X192833333Y-92452380D01*
X192738095Y-92404761D01*
X192690476Y-92357142D01*
X194166666Y-91785714D02*
X194166666Y-92452380D01*
X193928571Y-91404761D02*
X193690476Y-92119047D01*
X194309523Y-92119047D01*
X114452380Y-90214285D02*
X113452380Y-90214285D01*
X113452380Y-89976190D01*
X113500000Y-89833333D01*
X113595238Y-89738095D01*
X113690476Y-89690476D01*
X113880952Y-89642857D01*
X114023809Y-89642857D01*
X114214285Y-89690476D01*
X114309523Y-89738095D01*
X114404761Y-89833333D01*
X114452380Y-89976190D01*
X114452380Y-90214285D01*
X113452380Y-89309523D02*
X113452380Y-88690476D01*
X113833333Y-89023809D01*
X113833333Y-88880952D01*
X113880952Y-88785714D01*
X113928571Y-88738095D01*
X114023809Y-88690476D01*
X114261904Y-88690476D01*
X114357142Y-88738095D01*
X114404761Y-88785714D01*
X114452380Y-88880952D01*
X114452380Y-89166666D01*
X114404761Y-89261904D01*
X114357142Y-89309523D01*
X113452380Y-88357142D02*
X113452380Y-87738095D01*
X113833333Y-88071428D01*
X113833333Y-87928571D01*
X113880952Y-87833333D01*
X113928571Y-87785714D01*
X114023809Y-87738095D01*
X114261904Y-87738095D01*
X114357142Y-87785714D01*
X114404761Y-87833333D01*
X114452380Y-87928571D01*
X114452380Y-88214285D01*
X114404761Y-88309523D01*
X114357142Y-88357142D01*
X179702380Y-90214285D02*
X178702380Y-90214285D01*
X178702380Y-89976190D01*
X178750000Y-89833333D01*
X178845238Y-89738095D01*
X178940476Y-89690476D01*
X179130952Y-89642857D01*
X179273809Y-89642857D01*
X179464285Y-89690476D01*
X179559523Y-89738095D01*
X179654761Y-89833333D01*
X179702380Y-89976190D01*
X179702380Y-90214285D01*
X178702380Y-89309523D02*
X178702380Y-88690476D01*
X179083333Y-89023809D01*
X179083333Y-88880952D01*
X179130952Y-88785714D01*
X179178571Y-88738095D01*
X179273809Y-88690476D01*
X179511904Y-88690476D01*
X179607142Y-88738095D01*
X179654761Y-88785714D01*
X179702380Y-88880952D01*
X179702380Y-89166666D01*
X179654761Y-89261904D01*
X179607142Y-89309523D01*
X178797619Y-88309523D02*
X178750000Y-88261904D01*
X178702380Y-88166666D01*
X178702380Y-87928571D01*
X178750000Y-87833333D01*
X178797619Y-87785714D01*
X178892857Y-87738095D01*
X178988095Y-87738095D01*
X179130952Y-87785714D01*
X179702380Y-88357142D01*
X179702380Y-87738095D01*
X171202380Y-90214285D02*
X170202380Y-90214285D01*
X170202380Y-89976190D01*
X170250000Y-89833333D01*
X170345238Y-89738095D01*
X170440476Y-89690476D01*
X170630952Y-89642857D01*
X170773809Y-89642857D01*
X170964285Y-89690476D01*
X171059523Y-89738095D01*
X171154761Y-89833333D01*
X171202380Y-89976190D01*
X171202380Y-90214285D01*
X170202380Y-89309523D02*
X170202380Y-88690476D01*
X170583333Y-89023809D01*
X170583333Y-88880952D01*
X170630952Y-88785714D01*
X170678571Y-88738095D01*
X170773809Y-88690476D01*
X171011904Y-88690476D01*
X171107142Y-88738095D01*
X171154761Y-88785714D01*
X171202380Y-88880952D01*
X171202380Y-89166666D01*
X171154761Y-89261904D01*
X171107142Y-89309523D01*
X171202380Y-87738095D02*
X171202380Y-88309523D01*
X171202380Y-88023809D02*
X170202380Y-88023809D01*
X170345238Y-88119047D01*
X170440476Y-88214285D01*
X170488095Y-88309523D01*
X188202380Y-90214285D02*
X187202380Y-90214285D01*
X187202380Y-89976190D01*
X187250000Y-89833333D01*
X187345238Y-89738095D01*
X187440476Y-89690476D01*
X187630952Y-89642857D01*
X187773809Y-89642857D01*
X187964285Y-89690476D01*
X188059523Y-89738095D01*
X188154761Y-89833333D01*
X188202380Y-89976190D01*
X188202380Y-90214285D01*
X187202380Y-89309523D02*
X187202380Y-88690476D01*
X187583333Y-89023809D01*
X187583333Y-88880952D01*
X187630952Y-88785714D01*
X187678571Y-88738095D01*
X187773809Y-88690476D01*
X188011904Y-88690476D01*
X188107142Y-88738095D01*
X188154761Y-88785714D01*
X188202380Y-88880952D01*
X188202380Y-89166666D01*
X188154761Y-89261904D01*
X188107142Y-89309523D01*
X187202380Y-88071428D02*
X187202380Y-87976190D01*
X187250000Y-87880952D01*
X187297619Y-87833333D01*
X187392857Y-87785714D01*
X187583333Y-87738095D01*
X187821428Y-87738095D01*
X188011904Y-87785714D01*
X188107142Y-87833333D01*
X188154761Y-87880952D01*
X188202380Y-87976190D01*
X188202380Y-88071428D01*
X188154761Y-88166666D01*
X188107142Y-88214285D01*
X188011904Y-88261904D01*
X187821428Y-88309523D01*
X187583333Y-88309523D01*
X187392857Y-88261904D01*
X187297619Y-88214285D01*
X187250000Y-88166666D01*
X187202380Y-88071428D01*
X124285714Y-92452380D02*
X124285714Y-91452380D01*
X124523809Y-91452380D01*
X124666666Y-91500000D01*
X124761904Y-91595238D01*
X124809523Y-91690476D01*
X124857142Y-91880952D01*
X124857142Y-92023809D01*
X124809523Y-92214285D01*
X124761904Y-92309523D01*
X124666666Y-92404761D01*
X124523809Y-92452380D01*
X124285714Y-92452380D01*
X125238095Y-91547619D02*
X125285714Y-91500000D01*
X125380952Y-91452380D01*
X125619047Y-91452380D01*
X125714285Y-91500000D01*
X125761904Y-91547619D01*
X125809523Y-91642857D01*
X125809523Y-91738095D01*
X125761904Y-91880952D01*
X125190476Y-92452380D01*
X125809523Y-92452380D01*
X126142857Y-91452380D02*
X126809523Y-91452380D01*
X126380952Y-92452380D01*
X166285714Y-92452380D02*
X166285714Y-91452380D01*
X166523809Y-91452380D01*
X166666666Y-91500000D01*
X166761904Y-91595238D01*
X166809523Y-91690476D01*
X166857142Y-91880952D01*
X166857142Y-92023809D01*
X166809523Y-92214285D01*
X166761904Y-92309523D01*
X166666666Y-92404761D01*
X166523809Y-92452380D01*
X166285714Y-92452380D01*
X167238095Y-91547619D02*
X167285714Y-91500000D01*
X167380952Y-91452380D01*
X167619047Y-91452380D01*
X167714285Y-91500000D01*
X167761904Y-91547619D01*
X167809523Y-91642857D01*
X167809523Y-91738095D01*
X167761904Y-91880952D01*
X167190476Y-92452380D01*
X167809523Y-92452380D01*
X168666666Y-91452380D02*
X168476190Y-91452380D01*
X168380952Y-91500000D01*
X168333333Y-91547619D01*
X168238095Y-91690476D01*
X168190476Y-91880952D01*
X168190476Y-92261904D01*
X168238095Y-92357142D01*
X168285714Y-92404761D01*
X168380952Y-92452380D01*
X168571428Y-92452380D01*
X168666666Y-92404761D01*
X168714285Y-92357142D01*
X168761904Y-92261904D01*
X168761904Y-92023809D01*
X168714285Y-91928571D01*
X168666666Y-91880952D01*
X168571428Y-91833333D01*
X168380952Y-91833333D01*
X168285714Y-91880952D01*
X168238095Y-91928571D01*
X168190476Y-92023809D01*
X141285714Y-92452380D02*
X141285714Y-91452380D01*
X141523809Y-91452380D01*
X141666666Y-91500000D01*
X141761904Y-91595238D01*
X141809523Y-91690476D01*
X141857142Y-91880952D01*
X141857142Y-92023809D01*
X141809523Y-92214285D01*
X141761904Y-92309523D01*
X141666666Y-92404761D01*
X141523809Y-92452380D01*
X141285714Y-92452380D01*
X142238095Y-91547619D02*
X142285714Y-91500000D01*
X142380952Y-91452380D01*
X142619047Y-91452380D01*
X142714285Y-91500000D01*
X142761904Y-91547619D01*
X142809523Y-91642857D01*
X142809523Y-91738095D01*
X142761904Y-91880952D01*
X142190476Y-92452380D01*
X142809523Y-92452380D01*
X143714285Y-91452380D02*
X143238095Y-91452380D01*
X143190476Y-91928571D01*
X143238095Y-91880952D01*
X143333333Y-91833333D01*
X143571428Y-91833333D01*
X143666666Y-91880952D01*
X143714285Y-91928571D01*
X143761904Y-92023809D01*
X143761904Y-92261904D01*
X143714285Y-92357142D01*
X143666666Y-92404761D01*
X143571428Y-92452380D01*
X143333333Y-92452380D01*
X143238095Y-92404761D01*
X143190476Y-92357142D01*
X115785714Y-92452380D02*
X115785714Y-91452380D01*
X116023809Y-91452380D01*
X116166666Y-91500000D01*
X116261904Y-91595238D01*
X116309523Y-91690476D01*
X116357142Y-91880952D01*
X116357142Y-92023809D01*
X116309523Y-92214285D01*
X116261904Y-92309523D01*
X116166666Y-92404761D01*
X116023809Y-92452380D01*
X115785714Y-92452380D01*
X116738095Y-91547619D02*
X116785714Y-91500000D01*
X116880952Y-91452380D01*
X117119047Y-91452380D01*
X117214285Y-91500000D01*
X117261904Y-91547619D01*
X117309523Y-91642857D01*
X117309523Y-91738095D01*
X117261904Y-91880952D01*
X116690476Y-92452380D01*
X117309523Y-92452380D01*
X118166666Y-91785714D02*
X118166666Y-92452380D01*
X117928571Y-91404761D02*
X117690476Y-92119047D01*
X118309523Y-92119047D01*
X81952380Y-100214285D02*
X80952380Y-100214285D01*
X80952380Y-99976190D01*
X81000000Y-99833333D01*
X81095238Y-99738095D01*
X81190476Y-99690476D01*
X81380952Y-99642857D01*
X81523809Y-99642857D01*
X81714285Y-99690476D01*
X81809523Y-99738095D01*
X81904761Y-99833333D01*
X81952380Y-99976190D01*
X81952380Y-100214285D01*
X81047619Y-99261904D02*
X81000000Y-99214285D01*
X80952380Y-99119047D01*
X80952380Y-98880952D01*
X81000000Y-98785714D01*
X81047619Y-98738095D01*
X81142857Y-98690476D01*
X81238095Y-98690476D01*
X81380952Y-98738095D01*
X81952380Y-99309523D01*
X81952380Y-98690476D01*
X80952380Y-98357142D02*
X80952380Y-97738095D01*
X81333333Y-98071428D01*
X81333333Y-97928571D01*
X81380952Y-97833333D01*
X81428571Y-97785714D01*
X81523809Y-97738095D01*
X81761904Y-97738095D01*
X81857142Y-97785714D01*
X81904761Y-97833333D01*
X81952380Y-97928571D01*
X81952380Y-98214285D01*
X81904761Y-98309523D01*
X81857142Y-98357142D01*
X131452380Y-90214285D02*
X130452380Y-90214285D01*
X130452380Y-89976190D01*
X130500000Y-89833333D01*
X130595238Y-89738095D01*
X130690476Y-89690476D01*
X130880952Y-89642857D01*
X131023809Y-89642857D01*
X131214285Y-89690476D01*
X131309523Y-89738095D01*
X131404761Y-89833333D01*
X131452380Y-89976190D01*
X131452380Y-90214285D01*
X130547619Y-89261904D02*
X130500000Y-89214285D01*
X130452380Y-89119047D01*
X130452380Y-88880952D01*
X130500000Y-88785714D01*
X130547619Y-88738095D01*
X130642857Y-88690476D01*
X130738095Y-88690476D01*
X130880952Y-88738095D01*
X131452380Y-89309523D01*
X131452380Y-88690476D01*
X130547619Y-88309523D02*
X130500000Y-88261904D01*
X130452380Y-88166666D01*
X130452380Y-87928571D01*
X130500000Y-87833333D01*
X130547619Y-87785714D01*
X130642857Y-87738095D01*
X130738095Y-87738095D01*
X130880952Y-87785714D01*
X131452380Y-88357142D01*
X131452380Y-87738095D01*
X162702380Y-90214285D02*
X161702380Y-90214285D01*
X161702380Y-89976190D01*
X161750000Y-89833333D01*
X161845238Y-89738095D01*
X161940476Y-89690476D01*
X162130952Y-89642857D01*
X162273809Y-89642857D01*
X162464285Y-89690476D01*
X162559523Y-89738095D01*
X162654761Y-89833333D01*
X162702380Y-89976190D01*
X162702380Y-90214285D01*
X161797619Y-89261904D02*
X161750000Y-89214285D01*
X161702380Y-89119047D01*
X161702380Y-88880952D01*
X161750000Y-88785714D01*
X161797619Y-88738095D01*
X161892857Y-88690476D01*
X161988095Y-88690476D01*
X162130952Y-88738095D01*
X162702380Y-89309523D01*
X162702380Y-88690476D01*
X162702380Y-87738095D02*
X162702380Y-88309523D01*
X162702380Y-88023809D02*
X161702380Y-88023809D01*
X161845238Y-88119047D01*
X161940476Y-88214285D01*
X161988095Y-88309523D01*
X148452380Y-90214285D02*
X147452380Y-90214285D01*
X147452380Y-89976190D01*
X147500000Y-89833333D01*
X147595238Y-89738095D01*
X147690476Y-89690476D01*
X147880952Y-89642857D01*
X148023809Y-89642857D01*
X148214285Y-89690476D01*
X148309523Y-89738095D01*
X148404761Y-89833333D01*
X148452380Y-89976190D01*
X148452380Y-90214285D01*
X147547619Y-89261904D02*
X147500000Y-89214285D01*
X147452380Y-89119047D01*
X147452380Y-88880952D01*
X147500000Y-88785714D01*
X147547619Y-88738095D01*
X147642857Y-88690476D01*
X147738095Y-88690476D01*
X147880952Y-88738095D01*
X148452380Y-89309523D01*
X148452380Y-88690476D01*
X147452380Y-88071428D02*
X147452380Y-87976190D01*
X147500000Y-87880952D01*
X147547619Y-87833333D01*
X147642857Y-87785714D01*
X147833333Y-87738095D01*
X148071428Y-87738095D01*
X148261904Y-87785714D01*
X148357142Y-87833333D01*
X148404761Y-87880952D01*
X148452380Y-87976190D01*
X148452380Y-88071428D01*
X148404761Y-88166666D01*
X148357142Y-88214285D01*
X148261904Y-88261904D01*
X148071428Y-88309523D01*
X147833333Y-88309523D01*
X147642857Y-88261904D01*
X147547619Y-88214285D01*
X147500000Y-88166666D01*
X147452380Y-88071428D01*
X122952380Y-90214285D02*
X121952380Y-90214285D01*
X121952380Y-89976190D01*
X122000000Y-89833333D01*
X122095238Y-89738095D01*
X122190476Y-89690476D01*
X122380952Y-89642857D01*
X122523809Y-89642857D01*
X122714285Y-89690476D01*
X122809523Y-89738095D01*
X122904761Y-89833333D01*
X122952380Y-89976190D01*
X122952380Y-90214285D01*
X122952380Y-88690476D02*
X122952380Y-89261904D01*
X122952380Y-88976190D02*
X121952380Y-88976190D01*
X122095238Y-89071428D01*
X122190476Y-89166666D01*
X122238095Y-89261904D01*
X122952380Y-88214285D02*
X122952380Y-88023809D01*
X122904761Y-87928571D01*
X122857142Y-87880952D01*
X122714285Y-87785714D01*
X122523809Y-87738095D01*
X122142857Y-87738095D01*
X122047619Y-87785714D01*
X122000000Y-87833333D01*
X121952380Y-87928571D01*
X121952380Y-88119047D01*
X122000000Y-88214285D01*
X122047619Y-88261904D01*
X122142857Y-88309523D01*
X122380952Y-88309523D01*
X122476190Y-88261904D01*
X122523809Y-88214285D01*
X122571428Y-88119047D01*
X122571428Y-87928571D01*
X122523809Y-87833333D01*
X122476190Y-87785714D01*
X122380952Y-87738095D01*
X158261904Y-135452380D02*
X158261904Y-134452380D01*
X158500000Y-134452380D01*
X158642857Y-134500000D01*
X158738095Y-134595238D01*
X158785714Y-134690476D01*
X158833333Y-134880952D01*
X158833333Y-135023809D01*
X158785714Y-135214285D01*
X158738095Y-135309523D01*
X158642857Y-135404761D01*
X158500000Y-135452380D01*
X158261904Y-135452380D01*
X159309523Y-135452380D02*
X159500000Y-135452380D01*
X159595238Y-135404761D01*
X159642857Y-135357142D01*
X159738095Y-135214285D01*
X159785714Y-135023809D01*
X159785714Y-134642857D01*
X159738095Y-134547619D01*
X159690476Y-134500000D01*
X159595238Y-134452380D01*
X159404761Y-134452380D01*
X159309523Y-134500000D01*
X159261904Y-134547619D01*
X159214285Y-134642857D01*
X159214285Y-134880952D01*
X159261904Y-134976190D01*
X159309523Y-135023809D01*
X159404761Y-135071428D01*
X159595238Y-135071428D01*
X159690476Y-135023809D01*
X159738095Y-134976190D01*
X159785714Y-134880952D01*
X156952380Y-129238095D02*
X155952380Y-129238095D01*
X155952380Y-129000000D01*
X156000000Y-128857142D01*
X156095238Y-128761904D01*
X156190476Y-128714285D01*
X156380952Y-128666666D01*
X156523809Y-128666666D01*
X156714285Y-128714285D01*
X156809523Y-128761904D01*
X156904761Y-128857142D01*
X156952380Y-129000000D01*
X156952380Y-129238095D01*
X156380952Y-128095238D02*
X156333333Y-128190476D01*
X156285714Y-128238095D01*
X156190476Y-128285714D01*
X156142857Y-128285714D01*
X156047619Y-128238095D01*
X156000000Y-128190476D01*
X155952380Y-128095238D01*
X155952380Y-127904761D01*
X156000000Y-127809523D01*
X156047619Y-127761904D01*
X156142857Y-127714285D01*
X156190476Y-127714285D01*
X156285714Y-127761904D01*
X156333333Y-127809523D01*
X156380952Y-127904761D01*
X156380952Y-128095238D01*
X156428571Y-128190476D01*
X156476190Y-128238095D01*
X156571428Y-128285714D01*
X156761904Y-128285714D01*
X156857142Y-128238095D01*
X156904761Y-128190476D01*
X156952380Y-128095238D01*
X156952380Y-127904761D01*
X156904761Y-127809523D01*
X156857142Y-127761904D01*
X156761904Y-127714285D01*
X156571428Y-127714285D01*
X156476190Y-127761904D01*
X156428571Y-127809523D01*
X156380952Y-127904761D01*
X69702380Y-101488095D02*
X68702380Y-101488095D01*
X68702380Y-101250000D01*
X68750000Y-101107142D01*
X68845238Y-101011904D01*
X68940476Y-100964285D01*
X69130952Y-100916666D01*
X69273809Y-100916666D01*
X69464285Y-100964285D01*
X69559523Y-101011904D01*
X69654761Y-101107142D01*
X69702380Y-101250000D01*
X69702380Y-101488095D01*
X68797619Y-100535714D02*
X68750000Y-100488095D01*
X68702380Y-100392857D01*
X68702380Y-100154761D01*
X68750000Y-100059523D01*
X68797619Y-100011904D01*
X68892857Y-99964285D01*
X68988095Y-99964285D01*
X69130952Y-100011904D01*
X69702380Y-100583333D01*
X69702380Y-99964285D01*
X61261904Y-97202380D02*
X61261904Y-96202380D01*
X61500000Y-96202380D01*
X61642857Y-96250000D01*
X61738095Y-96345238D01*
X61785714Y-96440476D01*
X61833333Y-96630952D01*
X61833333Y-96773809D01*
X61785714Y-96964285D01*
X61738095Y-97059523D01*
X61642857Y-97154761D01*
X61500000Y-97202380D01*
X61261904Y-97202380D01*
X62785714Y-97202380D02*
X62214285Y-97202380D01*
X62500000Y-97202380D02*
X62500000Y-96202380D01*
X62404761Y-96345238D01*
X62309523Y-96440476D01*
X62214285Y-96488095D01*
X83857142Y-95357142D02*
X83809523Y-95404761D01*
X83666666Y-95452380D01*
X83571428Y-95452380D01*
X83428571Y-95404761D01*
X83333333Y-95309523D01*
X83285714Y-95214285D01*
X83238095Y-95023809D01*
X83238095Y-94880952D01*
X83285714Y-94690476D01*
X83333333Y-94595238D01*
X83428571Y-94500000D01*
X83571428Y-94452380D01*
X83666666Y-94452380D01*
X83809523Y-94500000D01*
X83857142Y-94547619D01*
X84809523Y-95452380D02*
X84238095Y-95452380D01*
X84523809Y-95452380D02*
X84523809Y-94452380D01*
X84428571Y-94595238D01*
X84333333Y-94690476D01*
X84238095Y-94738095D01*
X85714285Y-94452380D02*
X85238095Y-94452380D01*
X85190476Y-94928571D01*
X85238095Y-94880952D01*
X85333333Y-94833333D01*
X85571428Y-94833333D01*
X85666666Y-94880952D01*
X85714285Y-94928571D01*
X85761904Y-95023809D01*
X85761904Y-95261904D01*
X85714285Y-95357142D01*
X85666666Y-95404761D01*
X85571428Y-95452380D01*
X85333333Y-95452380D01*
X85238095Y-95404761D01*
X85190476Y-95357142D01*
X103857142Y-99642857D02*
X103904761Y-99690476D01*
X103952380Y-99833333D01*
X103952380Y-99928571D01*
X103904761Y-100071428D01*
X103809523Y-100166666D01*
X103714285Y-100214285D01*
X103523809Y-100261904D01*
X103380952Y-100261904D01*
X103190476Y-100214285D01*
X103095238Y-100166666D01*
X103000000Y-100071428D01*
X102952380Y-99928571D01*
X102952380Y-99833333D01*
X103000000Y-99690476D01*
X103047619Y-99642857D01*
X103952380Y-98690476D02*
X103952380Y-99261904D01*
X103952380Y-98976190D02*
X102952380Y-98976190D01*
X103095238Y-99071428D01*
X103190476Y-99166666D01*
X103238095Y-99261904D01*
X103285714Y-97833333D02*
X103952380Y-97833333D01*
X102904761Y-98071428D02*
X103619047Y-98309523D01*
X103619047Y-97690476D01*
X101357142Y-101916666D02*
X101404761Y-101964285D01*
X101452380Y-102107142D01*
X101452380Y-102202380D01*
X101404761Y-102345238D01*
X101309523Y-102440476D01*
X101214285Y-102488095D01*
X101023809Y-102535714D01*
X100880952Y-102535714D01*
X100690476Y-102488095D01*
X100595238Y-102440476D01*
X100500000Y-102345238D01*
X100452380Y-102202380D01*
X100452380Y-102107142D01*
X100500000Y-101964285D01*
X100547619Y-101916666D01*
X101452380Y-101440476D02*
X101452380Y-101250000D01*
X101404761Y-101154761D01*
X101357142Y-101107142D01*
X101214285Y-101011904D01*
X101023809Y-100964285D01*
X100642857Y-100964285D01*
X100547619Y-101011904D01*
X100500000Y-101059523D01*
X100452380Y-101154761D01*
X100452380Y-101345238D01*
X100500000Y-101440476D01*
X100547619Y-101488095D01*
X100642857Y-101535714D01*
X100880952Y-101535714D01*
X100976190Y-101488095D01*
X101023809Y-101440476D01*
X101071428Y-101345238D01*
X101071428Y-101154761D01*
X101023809Y-101059523D01*
X100976190Y-101011904D01*
X100880952Y-100964285D01*
X63857142Y-90666666D02*
X63904761Y-90714285D01*
X63952380Y-90857142D01*
X63952380Y-90952380D01*
X63904761Y-91095238D01*
X63809523Y-91190476D01*
X63714285Y-91238095D01*
X63523809Y-91285714D01*
X63380952Y-91285714D01*
X63190476Y-91238095D01*
X63095238Y-91190476D01*
X63000000Y-91095238D01*
X62952380Y-90952380D01*
X62952380Y-90857142D01*
X63000000Y-90714285D01*
X63047619Y-90666666D01*
X63285714Y-89809523D02*
X63952380Y-89809523D01*
X62904761Y-90047619D02*
X63619047Y-90285714D01*
X63619047Y-89666666D01*
X63857142Y-95416666D02*
X63904761Y-95464285D01*
X63952380Y-95607142D01*
X63952380Y-95702380D01*
X63904761Y-95845238D01*
X63809523Y-95940476D01*
X63714285Y-95988095D01*
X63523809Y-96035714D01*
X63380952Y-96035714D01*
X63190476Y-95988095D01*
X63095238Y-95940476D01*
X63000000Y-95845238D01*
X62952380Y-95702380D01*
X62952380Y-95607142D01*
X63000000Y-95464285D01*
X63047619Y-95416666D01*
X62952380Y-95083333D02*
X62952380Y-94464285D01*
X63333333Y-94797619D01*
X63333333Y-94654761D01*
X63380952Y-94559523D01*
X63428571Y-94511904D01*
X63523809Y-94464285D01*
X63761904Y-94464285D01*
X63857142Y-94511904D01*
X63904761Y-94559523D01*
X63952380Y-94654761D01*
X63952380Y-94940476D01*
X63904761Y-95035714D01*
X63857142Y-95083333D01*
X58707142Y-97166666D02*
X58754761Y-97214285D01*
X58802380Y-97357142D01*
X58802380Y-97452380D01*
X58754761Y-97595238D01*
X58659523Y-97690476D01*
X58564285Y-97738095D01*
X58373809Y-97785714D01*
X58230952Y-97785714D01*
X58040476Y-97738095D01*
X57945238Y-97690476D01*
X57850000Y-97595238D01*
X57802380Y-97452380D01*
X57802380Y-97357142D01*
X57850000Y-97214285D01*
X57897619Y-97166666D01*
X57897619Y-96785714D02*
X57850000Y-96738095D01*
X57802380Y-96642857D01*
X57802380Y-96404761D01*
X57850000Y-96309523D01*
X57897619Y-96261904D01*
X57992857Y-96214285D01*
X58088095Y-96214285D01*
X58230952Y-96261904D01*
X58802380Y-96833333D01*
X58802380Y-96214285D01*
X67107142Y-87166666D02*
X67154761Y-87214285D01*
X67202380Y-87357142D01*
X67202380Y-87452380D01*
X67154761Y-87595238D01*
X67059523Y-87690476D01*
X66964285Y-87738095D01*
X66773809Y-87785714D01*
X66630952Y-87785714D01*
X66440476Y-87738095D01*
X66345238Y-87690476D01*
X66250000Y-87595238D01*
X66202380Y-87452380D01*
X66202380Y-87357142D01*
X66250000Y-87214285D01*
X66297619Y-87166666D01*
X67202380Y-86214285D02*
X67202380Y-86785714D01*
X67202380Y-86500000D02*
X66202380Y-86500000D01*
X66345238Y-86595238D01*
X66440476Y-86690476D01*
X66488095Y-86785714D01*
M02*
