G04 #@! TF.GenerationSoftware,KiCad,Pcbnew,7.0.11*
G04 #@! TF.CreationDate,2025-01-12T20:45:55+01:00*
G04 #@! TF.ProjectId,PowerUnit,506f7765-7255-46e6-9974-2e6b69636164,C*
G04 #@! TF.SameCoordinates,Original*
G04 #@! TF.FileFunction,Paste,Top*
G04 #@! TF.FilePolarity,Positive*
%FSLAX46Y46*%
G04 Gerber Fmt 4.6, Leading zero omitted, Abs format (unit mm)*
G04 Created by KiCad (PCBNEW 7.0.11) date 2025-01-12 20:45:55*
%MOMM*%
%LPD*%
G01*
G04 APERTURE LIST*
G04 Aperture macros list*
%AMRoundRect*
0 Rectangle with rounded corners*
0 $1 Rounding radius*
0 $2 $3 $4 $5 $6 $7 $8 $9 X,Y pos of 4 corners*
0 Add a 4 corners polygon primitive as box body*
4,1,4,$2,$3,$4,$5,$6,$7,$8,$9,$2,$3,0*
0 Add four circle primitives for the rounded corners*
1,1,$1+$1,$2,$3*
1,1,$1+$1,$4,$5*
1,1,$1+$1,$6,$7*
1,1,$1+$1,$8,$9*
0 Add four rect primitives between the rounded corners*
20,1,$1+$1,$2,$3,$4,$5,0*
20,1,$1+$1,$4,$5,$6,$7,0*
20,1,$1+$1,$6,$7,$8,$9,0*
20,1,$1+$1,$8,$9,$2,$3,0*%
G04 Aperture macros list end*
%ADD10RoundRect,0.243750X-0.243750X-0.456250X0.243750X-0.456250X0.243750X0.456250X-0.243750X0.456250X0*%
%ADD11RoundRect,0.243750X0.243750X0.456250X-0.243750X0.456250X-0.243750X-0.456250X0.243750X-0.456250X0*%
%ADD12RoundRect,0.243750X0.456250X-0.243750X0.456250X0.243750X-0.456250X0.243750X-0.456250X-0.243750X0*%
%ADD13RoundRect,0.243750X-0.456250X0.243750X-0.456250X-0.243750X0.456250X-0.243750X0.456250X0.243750X0*%
%ADD14R,1.700000X1.300000*%
%ADD15RoundRect,0.225000X-0.425000X-0.225000X0.425000X-0.225000X0.425000X0.225000X-0.425000X0.225000X0*%
%ADD16RoundRect,0.175000X-0.175000X0.800000X-0.175000X-0.800000X0.175000X-0.800000X0.175000X0.800000X0*%
%ADD17R,2.100000X1.400000*%
%ADD18R,1.400000X2.100000*%
%ADD19RoundRect,0.250000X0.925000X-0.787500X0.925000X0.787500X-0.925000X0.787500X-0.925000X-0.787500X0*%
%ADD20R,2.000000X1.500000*%
%ADD21R,2.000000X3.800000*%
%ADD22R,1.300000X1.700000*%
%ADD23R,2.750000X3.050000*%
%ADD24R,0.800000X2.200000*%
%ADD25RoundRect,0.225000X0.225000X-0.425000X0.225000X0.425000X-0.225000X0.425000X-0.225000X-0.425000X0*%
G04 APERTURE END LIST*
D10*
X183562500Y-87500000D03*
X185437500Y-87500000D03*
D11*
X109437500Y-87500000D03*
X107562500Y-87500000D03*
X85437500Y-101500000D03*
X83562500Y-101500000D03*
X117937500Y-87500000D03*
X116062500Y-87500000D03*
X143437500Y-87500000D03*
X141562500Y-87500000D03*
D10*
X166562500Y-87500000D03*
X168437500Y-87500000D03*
X192062500Y-87500000D03*
X193937500Y-87500000D03*
D12*
X75500000Y-98937500D03*
X75500000Y-97062500D03*
X78000000Y-98937500D03*
X78000000Y-97062500D03*
X73000000Y-94937500D03*
X73000000Y-93062500D03*
D13*
X65000000Y-100062500D03*
X65000000Y-101937500D03*
X60000000Y-100062500D03*
X60000000Y-101937500D03*
D14*
X67500000Y-98250000D03*
X67500000Y-101750000D03*
X120500000Y-87250000D03*
X120500000Y-90750000D03*
X146000000Y-87250000D03*
X146000000Y-90750000D03*
D11*
X85437500Y-99000000D03*
X83562500Y-99000000D03*
X117937500Y-90000000D03*
X116062500Y-90000000D03*
X143437500Y-90000000D03*
X141562500Y-90000000D03*
D10*
X166562500Y-90000000D03*
X168437500Y-90000000D03*
D14*
X189500000Y-87250000D03*
X189500000Y-90750000D03*
X181000000Y-87250000D03*
X181000000Y-90750000D03*
X112000000Y-87250000D03*
X112000000Y-90750000D03*
D11*
X109437500Y-90000000D03*
X107562500Y-90000000D03*
D15*
X75500000Y-101300000D03*
X75500000Y-103200000D03*
X77500000Y-102250000D03*
D10*
X83562500Y-96500000D03*
X85437500Y-96500000D03*
D14*
X62500000Y-98250000D03*
X62500000Y-101750000D03*
D13*
X65000000Y-89562500D03*
X65000000Y-91437500D03*
D12*
X60000000Y-97937500D03*
X60000000Y-96062500D03*
X65000000Y-97937500D03*
X65000000Y-96062500D03*
D10*
X68062500Y-87000000D03*
X69937500Y-87000000D03*
D16*
X70905000Y-89525000D03*
X69635000Y-89525000D03*
X68365000Y-89525000D03*
X67095000Y-89525000D03*
X67095000Y-94475000D03*
X68365000Y-94475000D03*
X69635000Y-94475000D03*
X70905000Y-94475000D03*
D10*
X183562500Y-90000000D03*
X185437500Y-90000000D03*
D11*
X126437500Y-87500000D03*
X124562500Y-87500000D03*
D14*
X129000000Y-87250000D03*
X129000000Y-90750000D03*
D11*
X126437500Y-90000000D03*
X124562500Y-90000000D03*
D10*
X175062500Y-87500000D03*
X176937500Y-87500000D03*
D14*
X172500000Y-87250000D03*
X172500000Y-90750000D03*
D10*
X175062500Y-90000000D03*
X176937500Y-90000000D03*
D17*
X132000000Y-132700000D03*
X132000000Y-128300000D03*
D18*
X152750000Y-113000000D03*
X157150000Y-113000000D03*
D14*
X164000000Y-87250000D03*
X164000000Y-90750000D03*
D10*
X200562500Y-87500000D03*
X202437500Y-87500000D03*
D17*
X132000000Y-120300000D03*
X132000000Y-124700000D03*
D14*
X137500000Y-87250000D03*
X137500000Y-90750000D03*
D11*
X134937500Y-90000000D03*
X133062500Y-90000000D03*
D14*
X198000000Y-87250000D03*
X198000000Y-90750000D03*
D10*
X200562500Y-90000000D03*
X202437500Y-90000000D03*
D17*
X198500000Y-120300000D03*
X198500000Y-124700000D03*
D11*
X134937500Y-87500000D03*
X133062500Y-87500000D03*
D18*
X180700000Y-133500000D03*
X176300000Y-133500000D03*
D17*
X198500000Y-132700000D03*
X198500000Y-128300000D03*
D12*
X102000000Y-99937500D03*
X102000000Y-98062500D03*
D19*
X98500000Y-101462500D03*
X98500000Y-96537500D03*
D20*
X94650000Y-101300000D03*
X94650000Y-99000000D03*
D21*
X88350000Y-99000000D03*
D20*
X94650000Y-96700000D03*
D11*
X66937500Y-104000000D03*
X65062500Y-104000000D03*
X61937500Y-104000000D03*
X60062500Y-104000000D03*
D10*
X192062500Y-90000000D03*
X193937500Y-90000000D03*
D18*
X104700000Y-133500000D03*
X100300000Y-133500000D03*
X140300000Y-133500000D03*
X144700000Y-133500000D03*
X62300000Y-133500000D03*
X66700000Y-133500000D03*
X90800000Y-133500000D03*
X95200000Y-133500000D03*
X171200000Y-133500000D03*
X166800000Y-133500000D03*
X114200000Y-133500000D03*
X109800000Y-133500000D03*
X185800000Y-133500000D03*
X190200000Y-133500000D03*
X81300000Y-133500000D03*
X85700000Y-133500000D03*
X119300000Y-133500000D03*
X123700000Y-133500000D03*
X71800000Y-133500000D03*
X76200000Y-133500000D03*
D22*
X153250000Y-133000000D03*
X149750000Y-133000000D03*
D15*
X70500000Y-101300000D03*
X70500000Y-103200000D03*
X72500000Y-102250000D03*
D13*
X56500000Y-125562500D03*
X56500000Y-127437500D03*
D10*
X150062500Y-125500000D03*
X151937500Y-125500000D03*
D12*
X73000000Y-98937500D03*
X73000000Y-97062500D03*
D11*
X161437500Y-125500000D03*
X159562500Y-125500000D03*
D12*
X70500000Y-98937500D03*
X70500000Y-97062500D03*
D13*
X54000000Y-125562500D03*
X54000000Y-127437500D03*
D10*
X150062500Y-123000000D03*
X151937500Y-123000000D03*
X150062500Y-128000000D03*
X151937500Y-128000000D03*
D23*
X186475000Y-122675000D03*
X189525000Y-122675000D03*
X186475000Y-119325000D03*
X189525000Y-119325000D03*
D24*
X185720000Y-127300000D03*
X186860000Y-127300000D03*
X189140000Y-127300000D03*
X190280000Y-127300000D03*
D23*
X81975000Y-122675000D03*
X85025000Y-122675000D03*
X81975000Y-119325000D03*
X85025000Y-119325000D03*
D24*
X81220000Y-127300000D03*
X82360000Y-127300000D03*
X84640000Y-127300000D03*
X85780000Y-127300000D03*
D23*
X62975000Y-122675000D03*
X66025000Y-122675000D03*
X62975000Y-119325000D03*
X66025000Y-119325000D03*
D24*
X62220000Y-127300000D03*
X63360000Y-127300000D03*
X65640000Y-127300000D03*
X66780000Y-127300000D03*
D23*
X91475000Y-122675000D03*
X94525000Y-122675000D03*
X91475000Y-119325000D03*
X94525000Y-119325000D03*
D24*
X90720000Y-127300000D03*
X91860000Y-127300000D03*
X94140000Y-127300000D03*
X95280000Y-127300000D03*
D23*
X72475000Y-122675000D03*
X75525000Y-122675000D03*
X72475000Y-119325000D03*
X75525000Y-119325000D03*
D24*
X71720000Y-127300000D03*
X72860000Y-127300000D03*
X75140000Y-127300000D03*
X76280000Y-127300000D03*
D23*
X100975000Y-122675000D03*
X104025000Y-122675000D03*
X100975000Y-119325000D03*
X104025000Y-119325000D03*
D24*
X100220000Y-127300000D03*
X101360000Y-127300000D03*
X103640000Y-127300000D03*
X104780000Y-127300000D03*
D23*
X110475000Y-122675000D03*
X113525000Y-122675000D03*
X110475000Y-119325000D03*
X113525000Y-119325000D03*
D24*
X109720000Y-127300000D03*
X110860000Y-127300000D03*
X113140000Y-127300000D03*
X114280000Y-127300000D03*
D23*
X176975000Y-122675000D03*
X180025000Y-122675000D03*
X176975000Y-119325000D03*
X180025000Y-119325000D03*
D24*
X176220000Y-127300000D03*
X177360000Y-127300000D03*
X179640000Y-127300000D03*
X180780000Y-127300000D03*
D23*
X119975000Y-122675000D03*
X123025000Y-122675000D03*
X119975000Y-119325000D03*
X123025000Y-119325000D03*
D24*
X119220000Y-127300000D03*
X120360000Y-127300000D03*
X122640000Y-127300000D03*
X123780000Y-127300000D03*
D23*
X167475000Y-122675000D03*
X170525000Y-122675000D03*
X167475000Y-119325000D03*
X170525000Y-119325000D03*
D24*
X166720000Y-127300000D03*
X167860000Y-127300000D03*
X170140000Y-127300000D03*
X171280000Y-127300000D03*
D11*
X161437500Y-120500000D03*
X159562500Y-120500000D03*
D22*
X158250000Y-130500000D03*
X161750000Y-130500000D03*
X158250000Y-133000000D03*
X161750000Y-133000000D03*
X153250000Y-130500000D03*
X149750000Y-130500000D03*
D11*
X161437500Y-123000000D03*
X159562500Y-123000000D03*
D10*
X150062500Y-120500000D03*
X151937500Y-120500000D03*
D23*
X140975000Y-122675000D03*
X144025000Y-122675000D03*
X140975000Y-119325000D03*
X144025000Y-119325000D03*
D24*
X140220000Y-127300000D03*
X141360000Y-127300000D03*
X143640000Y-127300000D03*
X144780000Y-127300000D03*
D10*
X154812500Y-125500000D03*
X156687500Y-125500000D03*
D11*
X151937500Y-118000000D03*
X150062500Y-118000000D03*
D10*
X159562500Y-118000000D03*
X161437500Y-118000000D03*
D25*
X154800000Y-122000000D03*
X156700000Y-122000000D03*
X155750000Y-120000000D03*
D11*
X161437500Y-128000000D03*
X159562500Y-128000000D03*
M02*
