G04 #@! TF.GenerationSoftware,KiCad,Pcbnew,(5.1.5-0-10_14)*
G04 #@! TF.CreationDate,2020-04-25T01:09:03+02:00*
G04 #@! TF.ProjectId,PowerUnit,506f7765-7255-46e6-9974-2e6b69636164,B*
G04 #@! TF.SameCoordinates,Original*
G04 #@! TF.FileFunction,Copper,L2,Inr*
G04 #@! TF.FilePolarity,Positive*
%FSLAX46Y46*%
G04 Gerber Fmt 4.6, Leading zero omitted, Abs format (unit mm)*
G04 Created by KiCad (PCBNEW (5.1.5-0-10_14)) date 2020-04-25 01:09:03*
%MOMM*%
%LPD*%
G04 APERTURE LIST*
%ADD10C,2.100000*%
%ADD11C,0.900000*%
%ADD12C,8.600000*%
%ADD13C,2.700000*%
%ADD14C,2.300000*%
%ADD15C,1.300000*%
%ADD16C,0.800000*%
%ADD17C,0.300000*%
%ADD18C,0.254000*%
G04 APERTURE END LIST*
D10*
X80905000Y-87730000D03*
X79635000Y-90270000D03*
X78365000Y-87730000D03*
X77095000Y-90270000D03*
D11*
X212280419Y-132719581D03*
X210000000Y-131775000D03*
X207719581Y-132719581D03*
X206775000Y-135000000D03*
X207719581Y-137280419D03*
X210000000Y-138225000D03*
X212280419Y-137280419D03*
X213225000Y-135000000D03*
D12*
X210000000Y-135000000D03*
D11*
X212280419Y-87719581D03*
X210000000Y-86775000D03*
X207719581Y-87719581D03*
X206775000Y-90000000D03*
X207719581Y-92280419D03*
X210000000Y-93225000D03*
X212280419Y-92280419D03*
X213225000Y-90000000D03*
D12*
X210000000Y-90000000D03*
D11*
X157280419Y-141219581D03*
X155000000Y-140275000D03*
X152719581Y-141219581D03*
X151775000Y-143500000D03*
X152719581Y-145780419D03*
X155000000Y-146725000D03*
X157280419Y-145780419D03*
X158225000Y-143500000D03*
D12*
X155000000Y-143500000D03*
D11*
X157280419Y-87719581D03*
X155000000Y-86775000D03*
X152719581Y-87719581D03*
X151775000Y-90000000D03*
X152719581Y-92280419D03*
X155000000Y-93225000D03*
X157280419Y-92280419D03*
X158225000Y-90000000D03*
D12*
X155000000Y-90000000D03*
D11*
X92280419Y-141219581D03*
X90000000Y-140275000D03*
X87719581Y-141219581D03*
X86775000Y-143500000D03*
X87719581Y-145780419D03*
X90000000Y-146725000D03*
X92280419Y-145780419D03*
X93225000Y-143500000D03*
D12*
X90000000Y-143500000D03*
D11*
X92280419Y-87719581D03*
X90000000Y-86775000D03*
X87719581Y-87719581D03*
X86775000Y-90000000D03*
X87719581Y-92280419D03*
X90000000Y-93225000D03*
X92280419Y-92280419D03*
X93225000Y-90000000D03*
D12*
X90000000Y-90000000D03*
D11*
X57280419Y-132719581D03*
X55000000Y-131775000D03*
X52719581Y-132719581D03*
X51775000Y-135000000D03*
X52719581Y-137280419D03*
X55000000Y-138225000D03*
X57280419Y-137280419D03*
X58225000Y-135000000D03*
D12*
X55000000Y-135000000D03*
D11*
X57280419Y-87719581D03*
X55000000Y-86775000D03*
X52719581Y-87719581D03*
X51775000Y-90000000D03*
X52719581Y-92280419D03*
X55000000Y-93225000D03*
X57280419Y-92280419D03*
X58225000Y-90000000D03*
D12*
X55000000Y-90000000D03*
D13*
X203200000Y-109730000D03*
X199800000Y-109730000D03*
X199800000Y-96270000D03*
X203200000Y-96270000D03*
X135700000Y-109730000D03*
X132300000Y-109730000D03*
X132300000Y-96270000D03*
X135700000Y-96270000D03*
D14*
X171750000Y-143490000D03*
X175250000Y-143490000D03*
X178750000Y-143490000D03*
X182250000Y-143490000D03*
X185750000Y-143490000D03*
X189250000Y-143490000D03*
X192750000Y-143490000D03*
X196250000Y-143490000D03*
X199750000Y-143490000D03*
X203250000Y-143490000D03*
X171750000Y-146990000D03*
X175250000Y-146990000D03*
X178750000Y-146990000D03*
X182250000Y-146990000D03*
X185750000Y-146990000D03*
X189250000Y-146990000D03*
X192750000Y-146990000D03*
X196250000Y-146990000D03*
X199750000Y-146990000D03*
X203250000Y-146990000D03*
X149920000Y-100460000D03*
X149920000Y-103000000D03*
X149920000Y-105540000D03*
X149920000Y-108080000D03*
X152460000Y-108080000D03*
X155000000Y-108080000D03*
X157540000Y-108080000D03*
X160080000Y-108080000D03*
X160080000Y-105540000D03*
X160080000Y-103000000D03*
X160080000Y-100460000D03*
X160080000Y-97920000D03*
X157540000Y-97920000D03*
X155000000Y-97920000D03*
X152460000Y-97920000D03*
X149920000Y-97920000D03*
X62250000Y-143490000D03*
X65750000Y-143490000D03*
X69250000Y-143490000D03*
X72750000Y-143490000D03*
X62250000Y-146990000D03*
X65750000Y-146990000D03*
X69250000Y-146990000D03*
X72750000Y-146990000D03*
D13*
X144200000Y-109730000D03*
X140800000Y-109730000D03*
X140800000Y-96270000D03*
X144200000Y-96270000D03*
X118700000Y-109730000D03*
X115300000Y-109730000D03*
X115300000Y-96270000D03*
X118700000Y-96270000D03*
X127200000Y-109730000D03*
X123800000Y-109730000D03*
X123800000Y-96270000D03*
X127200000Y-96270000D03*
X169200000Y-109730000D03*
X165800000Y-109730000D03*
X165800000Y-96270000D03*
X169200000Y-96270000D03*
X110200000Y-109730000D03*
X106800000Y-109730000D03*
X106800000Y-96270000D03*
X110200000Y-96270000D03*
X186200000Y-109730000D03*
X182800000Y-109730000D03*
X182800000Y-96270000D03*
X186200000Y-96270000D03*
X177700000Y-109730000D03*
X174300000Y-109730000D03*
X174300000Y-96270000D03*
X177700000Y-96270000D03*
X194700000Y-109730000D03*
X191300000Y-109730000D03*
X191300000Y-96270000D03*
X194700000Y-96270000D03*
D14*
X106750000Y-143490000D03*
X110250000Y-143490000D03*
X113750000Y-143490000D03*
X117250000Y-143490000D03*
X120750000Y-143490000D03*
X124250000Y-143490000D03*
X127750000Y-143490000D03*
X131250000Y-143490000D03*
X134750000Y-143490000D03*
X138250000Y-143490000D03*
X106750000Y-146990000D03*
X110250000Y-146990000D03*
X113750000Y-146990000D03*
X117250000Y-146990000D03*
X120750000Y-146990000D03*
X124250000Y-146990000D03*
X127750000Y-146990000D03*
X131250000Y-146990000D03*
X134750000Y-146990000D03*
X138250000Y-146990000D03*
D15*
X133000000Y-126500000D03*
X131000000Y-126500000D03*
X125500000Y-134500000D03*
X108000000Y-134500000D03*
X108000000Y-132500000D03*
X125500000Y-132500000D03*
X98500000Y-132500000D03*
X97000000Y-132500000D03*
X97000000Y-134500000D03*
X87500000Y-132500000D03*
X87500000Y-134500000D03*
X78000000Y-132500000D03*
X78000000Y-134500000D03*
X68500000Y-132500000D03*
X68500000Y-134500000D03*
X165000000Y-132500000D03*
X165000000Y-134500000D03*
X98500000Y-134500000D03*
X156000000Y-119000000D03*
X154000000Y-119000000D03*
D16*
X169500000Y-87500000D03*
X178000000Y-87500000D03*
X186500000Y-87500000D03*
X195000000Y-87500000D03*
X203500000Y-87500000D03*
X106500000Y-87500000D03*
X115000000Y-87500000D03*
X123500000Y-87500000D03*
X132000000Y-87500000D03*
X140500000Y-87500000D03*
D15*
X146500000Y-132500000D03*
X146500000Y-134500000D03*
X97500000Y-94500000D03*
X99500000Y-94500000D03*
D16*
X82500000Y-101500000D03*
X60000000Y-95000000D03*
X71000000Y-87000000D03*
X69500000Y-103450000D03*
X74500000Y-103450000D03*
X65000000Y-92500000D03*
X65000000Y-95000000D03*
X78000000Y-100000000D03*
X73000000Y-100000000D03*
X67500000Y-100500000D03*
X62500000Y-100500000D03*
D15*
X197500000Y-126500000D03*
X199500000Y-126500000D03*
X192000000Y-132500000D03*
X192000000Y-134500000D03*
X174500000Y-132500000D03*
X174500000Y-134500000D03*
X89000000Y-102000000D03*
X87500000Y-102000000D03*
X92500000Y-99000000D03*
D16*
X85000000Y-95000000D03*
X73000000Y-92000000D03*
X82500000Y-96500000D03*
X94500000Y-95500000D03*
X93000000Y-96000000D03*
X93000000Y-97000000D03*
X82500000Y-99000000D03*
X65000000Y-88500000D03*
X63000000Y-104000000D03*
X68000000Y-104000000D03*
X129000000Y-92000000D03*
D15*
X118000000Y-121000000D03*
X118000000Y-119000000D03*
X118000000Y-123000000D03*
X125000000Y-123000000D03*
X125000000Y-121000000D03*
X125000000Y-119000000D03*
X115500000Y-119000000D03*
X115500000Y-121000000D03*
X115500000Y-123000000D03*
X108500000Y-123000000D03*
X108500000Y-121000000D03*
X108500000Y-119000000D03*
X106000000Y-119000000D03*
X106000000Y-121000000D03*
X106000000Y-123000000D03*
X99000000Y-123000000D03*
X99000000Y-121000000D03*
X99000000Y-119000000D03*
X96500000Y-119000000D03*
X96500000Y-121000000D03*
X96500000Y-123000000D03*
X89500000Y-119000000D03*
X89500000Y-121000000D03*
X89500000Y-123000000D03*
D16*
X120500000Y-92000000D03*
D15*
X70500000Y-121000000D03*
X61000000Y-121000000D03*
X70500000Y-119000000D03*
X70500000Y-123000000D03*
X77500000Y-123000000D03*
X77500000Y-121000000D03*
X77500000Y-119000000D03*
X61000000Y-119000000D03*
X61000000Y-123000000D03*
X68000000Y-123000000D03*
X68000000Y-121000000D03*
X68000000Y-119000000D03*
D16*
X146000000Y-92000000D03*
D15*
X135000000Y-124500000D03*
X136500000Y-124500000D03*
X136500000Y-126500000D03*
X135000000Y-126500000D03*
X135000000Y-128500000D03*
X136500000Y-128500000D03*
X146000000Y-119000000D03*
X139000000Y-119000000D03*
X139000000Y-121000000D03*
X146000000Y-121000000D03*
X146000000Y-123000000D03*
X139000000Y-123000000D03*
D16*
X164000000Y-92000000D03*
D15*
X172500000Y-123000000D03*
X172500000Y-121000000D03*
X172500000Y-119000000D03*
X165500000Y-123000000D03*
X165500000Y-121000000D03*
X165500000Y-119000000D03*
X154000000Y-111000000D03*
X156000000Y-111000000D03*
D16*
X172500000Y-92000000D03*
D15*
X182000000Y-121000000D03*
X182000000Y-123000000D03*
X182000000Y-119000000D03*
X175000000Y-119000000D03*
X175000000Y-121000000D03*
X175000000Y-123000000D03*
D16*
X181000000Y-92000000D03*
D15*
X184500000Y-119000000D03*
X184500000Y-121000000D03*
X184500000Y-123000000D03*
X191500000Y-119000000D03*
X191500000Y-121000000D03*
X191500000Y-123000000D03*
D16*
X112000000Y-92000000D03*
D15*
X80000000Y-121000000D03*
X80000000Y-119000000D03*
X87000000Y-119000000D03*
X87000000Y-121000000D03*
X87000000Y-123000000D03*
X80000000Y-123000000D03*
D16*
X77500000Y-106999988D03*
X102500000Y-127000000D03*
D15*
X106000000Y-126500000D03*
X109500000Y-140500000D03*
X106000000Y-128500000D03*
X99000000Y-126500000D03*
X99000000Y-128500000D03*
X182000000Y-128500000D03*
X182000000Y-126500000D03*
X175000000Y-126500000D03*
X175000000Y-128500000D03*
X139000000Y-126500000D03*
X139000000Y-128500000D03*
X146000000Y-128500000D03*
X146000000Y-126500000D03*
X68000000Y-126500000D03*
X68000000Y-128500000D03*
X61000000Y-126500000D03*
X61000000Y-128500000D03*
X96500000Y-126500000D03*
X96500000Y-128500000D03*
X89500000Y-128500000D03*
X89500000Y-126500000D03*
X165500000Y-126500000D03*
X165500000Y-128500000D03*
X172500000Y-128500000D03*
X172500000Y-126500000D03*
X115500000Y-126500000D03*
X114000000Y-136500000D03*
X115500000Y-128500000D03*
X108500000Y-126500000D03*
X108500000Y-128500000D03*
X184500000Y-126500000D03*
X184500000Y-128500000D03*
X191500000Y-126500000D03*
X191500000Y-128500000D03*
X80000000Y-126500000D03*
X80000000Y-128500000D03*
X87000000Y-126500000D03*
X87000000Y-128500000D03*
X125000000Y-126500000D03*
X125000000Y-128500000D03*
X118000000Y-126500000D03*
X118000000Y-128500000D03*
X117000000Y-138500000D03*
X119000000Y-138500000D03*
X121000000Y-138500000D03*
X70500000Y-126500000D03*
X70500000Y-128500000D03*
X77500000Y-128500000D03*
X77500000Y-126500000D03*
D16*
X60000010Y-106000000D03*
X64500000Y-106000000D03*
X74500000Y-94500000D03*
X189500000Y-92000000D03*
D15*
X194000000Y-124500000D03*
X195500000Y-124500000D03*
X194000000Y-126500000D03*
X195500000Y-126500000D03*
X195500000Y-128500000D03*
X194000000Y-128500000D03*
D16*
X156000000Y-133000000D03*
X154000000Y-128500000D03*
X155500000Y-130500000D03*
X158500000Y-125500000D03*
X153000000Y-120500000D03*
X56500000Y-128500000D03*
X54000000Y-128500000D03*
X153000000Y-123000000D03*
X158500000Y-123000000D03*
X137500000Y-92000000D03*
D15*
X127500000Y-124500000D03*
X129000000Y-124500000D03*
X127500000Y-126500000D03*
X129000000Y-126500000D03*
X127500000Y-128500000D03*
X129000000Y-128500000D03*
X132000000Y-118500000D03*
D16*
X198000000Y-92000000D03*
D15*
X201500000Y-124500000D03*
X203000000Y-124500000D03*
X203000000Y-126500000D03*
X201500000Y-126500000D03*
X201500000Y-128500000D03*
X203000000Y-128500000D03*
X198500000Y-118500000D03*
D16*
X73500000Y-106000000D03*
X112000000Y-127000000D03*
X178500000Y-127000000D03*
X162500000Y-125500000D03*
X142500000Y-127000000D03*
X149000000Y-120500000D03*
X64500000Y-127000000D03*
X56500000Y-124500000D03*
X93000000Y-127000000D03*
X149000000Y-125500000D03*
X169000000Y-127000000D03*
X162500000Y-128000000D03*
X188000000Y-127000000D03*
X162500000Y-123000000D03*
X83500000Y-127000000D03*
X54000000Y-124500000D03*
X121500000Y-127000000D03*
X149000000Y-123000000D03*
X74000000Y-127000000D03*
X149000000Y-128000000D03*
D17*
X129000000Y-92000000D02*
X129500000Y-92500000D01*
X129500000Y-107430000D02*
X127200000Y-109730000D01*
X129500000Y-92500000D02*
X129500000Y-107430000D01*
X120500000Y-92000000D02*
X121000000Y-92500000D01*
X121000000Y-107430000D02*
X118700000Y-109730000D01*
X121000000Y-92500000D02*
X121000000Y-107430000D01*
X146000000Y-92000000D02*
X146500000Y-92500000D01*
X146500000Y-107430000D02*
X144200000Y-109730000D01*
X146500000Y-92500000D02*
X146500000Y-107430000D01*
X164000000Y-92000000D02*
X163500000Y-92500000D01*
X163500000Y-107430000D02*
X165800000Y-109730000D01*
X163500000Y-92500000D02*
X163500000Y-107430000D01*
X172500000Y-92000000D02*
X172000000Y-92500000D01*
X172000000Y-107430000D02*
X174300000Y-109730000D01*
X172000000Y-92500000D02*
X172000000Y-107430000D01*
X181000000Y-92000000D02*
X180500000Y-92500000D01*
X180500000Y-107430000D02*
X182800000Y-109730000D01*
X180500000Y-92500000D02*
X180500000Y-107430000D01*
X112000000Y-92000000D02*
X112500000Y-92500000D01*
X112500000Y-107430000D02*
X110200000Y-109730000D01*
X112500000Y-92500000D02*
X112500000Y-107430000D01*
X102500000Y-120500000D02*
X102500000Y-127000000D01*
X89000000Y-107000000D02*
X102500000Y-120500000D01*
X77500012Y-107000000D02*
X89000000Y-107000000D01*
X77500000Y-106999988D02*
X77500012Y-107000000D01*
X61000000Y-106000000D02*
X60000010Y-106000000D01*
X51500000Y-120500000D02*
X62000000Y-110000000D01*
X57000000Y-130000000D02*
X52500000Y-130000000D01*
X51500000Y-129000000D02*
X51500000Y-120500000D01*
X62000000Y-107000000D02*
X61000000Y-106000000D01*
X108500000Y-141500000D02*
X105500000Y-138500000D01*
X105500000Y-138500000D02*
X65500000Y-138500000D01*
X52500000Y-130000000D02*
X51500000Y-129000000D01*
X65500000Y-138500000D02*
X57000000Y-130000000D01*
X108500000Y-145240000D02*
X108500000Y-141500000D01*
X62000000Y-110000000D02*
X62000000Y-107000000D01*
X110250000Y-146990000D02*
X108500000Y-145240000D01*
X63500000Y-106000000D02*
X64500000Y-106000000D01*
X53000000Y-129500000D02*
X52000000Y-128500000D01*
X57500000Y-129500000D02*
X53000000Y-129500000D01*
X62500000Y-107000000D02*
X63500000Y-106000000D01*
X52000000Y-121000000D02*
X62500000Y-110500000D01*
X52000000Y-128500000D02*
X52000000Y-121000000D01*
X108480002Y-138000000D02*
X66000000Y-138000000D01*
X66000000Y-138000000D02*
X57500000Y-129500000D01*
X62500000Y-110500000D02*
X62500000Y-107000000D01*
X112000000Y-141519998D02*
X108480002Y-138000000D01*
X112000000Y-145240000D02*
X112000000Y-141519998D01*
X113750000Y-146990000D02*
X112000000Y-145240000D01*
X189500000Y-92000000D02*
X189000000Y-92500000D01*
X189000000Y-107430000D02*
X191300000Y-109730000D01*
X189000000Y-92500000D02*
X189000000Y-107430000D01*
X157500000Y-134500000D02*
X156000000Y-133000000D01*
X160000000Y-134500000D02*
X157500000Y-134500000D01*
X177000000Y-138500000D02*
X164000000Y-138500000D01*
X164000000Y-138500000D02*
X160000000Y-134500000D01*
X180500000Y-142000000D02*
X177000000Y-138500000D01*
X180500000Y-145240000D02*
X180500000Y-142000000D01*
X182250000Y-146990000D02*
X180500000Y-145240000D01*
X129500000Y-142000000D02*
X132500000Y-139000000D01*
X132500000Y-139000000D02*
X146000000Y-139000000D01*
X129500000Y-145240000D02*
X129500000Y-142000000D01*
X127750000Y-146990000D02*
X129500000Y-145240000D01*
X146000000Y-139000000D02*
X153000000Y-132000000D01*
X154000000Y-128500000D02*
X154000000Y-129000000D01*
X154000000Y-129000000D02*
X153000000Y-130000000D01*
X153000000Y-130000000D02*
X153000000Y-132000000D01*
X177000000Y-145240000D02*
X178750000Y-146990000D01*
X177000000Y-142000000D02*
X177000000Y-145240000D01*
X174000000Y-139000000D02*
X177000000Y-142000000D01*
X163500000Y-139000000D02*
X174000000Y-139000000D01*
X155500000Y-132000000D02*
X155000000Y-132500000D01*
X156500000Y-135000000D02*
X159500000Y-135000000D01*
X155000000Y-133500000D02*
X156500000Y-135000000D01*
X159500000Y-135000000D02*
X163500000Y-139000000D01*
X155000000Y-132500000D02*
X155000000Y-133500000D01*
X155500000Y-130500000D02*
X155500000Y-132000000D01*
X158500000Y-130000000D02*
X158500000Y-125500000D01*
X158500000Y-132000000D02*
X158500000Y-130000000D01*
X184000000Y-142000000D02*
X180000000Y-138000000D01*
X184000000Y-145240000D02*
X184000000Y-142000000D01*
X164500000Y-138000000D02*
X158500000Y-132000000D01*
X180000000Y-138000000D02*
X164500000Y-138000000D01*
X185750000Y-146990000D02*
X184000000Y-145240000D01*
X126240000Y-138000000D02*
X145000000Y-138000000D01*
X145000000Y-138000000D02*
X148000000Y-135000000D01*
X120750000Y-143490000D02*
X126240000Y-138000000D01*
X148000000Y-135000000D02*
X150500000Y-132500000D01*
X150500000Y-132500000D02*
X150500000Y-123000000D01*
X150500000Y-123000000D02*
X153000000Y-120500000D01*
X115480000Y-141980000D02*
X115480000Y-145220000D01*
X112500000Y-141000000D02*
X114500000Y-141000000D01*
X108999992Y-137499992D02*
X112500000Y-141000000D01*
X115480000Y-145220000D02*
X117250000Y-146990000D01*
X114500000Y-141000000D02*
X115480000Y-141980000D01*
X95000000Y-137500000D02*
X95000008Y-137499992D01*
X95000008Y-137499992D02*
X108999992Y-137499992D01*
X66500000Y-137500000D02*
X95000000Y-137500000D01*
X57500000Y-128500000D02*
X66500000Y-137500000D01*
X56500000Y-128500000D02*
X57500000Y-128500000D01*
X119000000Y-145240000D02*
X120750000Y-146990000D01*
X117500000Y-140500000D02*
X119000000Y-142000000D01*
X109499982Y-136999982D02*
X113000000Y-140500000D01*
X113000000Y-140500000D02*
X117500000Y-140500000D01*
X57500000Y-127500000D02*
X66999982Y-136999982D01*
X55000000Y-127500000D02*
X57500000Y-127500000D01*
X66999982Y-136999982D02*
X109499982Y-136999982D01*
X119000000Y-142000000D02*
X119000000Y-145240000D01*
X54000000Y-128500000D02*
X55000000Y-127500000D01*
X145500000Y-138500000D02*
X148500000Y-135500000D01*
X129500000Y-138500000D02*
X145500000Y-138500000D01*
X124250000Y-146990000D02*
X126000000Y-145240000D01*
X126000000Y-142000000D02*
X129500000Y-138500000D01*
X126000000Y-145240000D02*
X126000000Y-142000000D01*
X148500000Y-135500000D02*
X151000000Y-133000000D01*
X151000000Y-133000000D02*
X151000000Y-128000000D01*
X151000000Y-128000000D02*
X151000000Y-125000000D01*
X151000000Y-125000000D02*
X153000000Y-123000000D01*
X155000000Y-126500000D02*
X158500000Y-123000000D01*
X136000000Y-139500000D02*
X146500000Y-139500000D01*
X131250000Y-146990000D02*
X133000000Y-145240000D01*
X133000000Y-142500000D02*
X136000000Y-139500000D01*
X133000000Y-145240000D02*
X133000000Y-142500000D01*
X146500000Y-139500000D02*
X153500000Y-132500000D01*
X153500000Y-132500000D02*
X153500000Y-130500000D01*
X153500000Y-130500000D02*
X155000000Y-129000000D01*
X155000000Y-129000000D02*
X155000000Y-126500000D01*
X137500000Y-92000000D02*
X138000000Y-92500000D01*
X138000000Y-107430000D02*
X135700000Y-109730000D01*
X138000000Y-92500000D02*
X138000000Y-107430000D01*
X198000000Y-92000000D02*
X197500000Y-92500000D01*
X197500000Y-107430000D02*
X199800000Y-109730000D01*
X197500000Y-92500000D02*
X197500000Y-107430000D01*
X78500000Y-106500000D02*
X78000000Y-106000000D01*
X89500000Y-106500000D02*
X78500000Y-106500000D01*
X109500000Y-124500000D02*
X104500000Y-124500000D01*
X103000000Y-120000000D02*
X89500000Y-106500000D01*
X104500000Y-124500000D02*
X103000000Y-123000000D01*
X78000000Y-106000000D02*
X73500000Y-106000000D01*
X103000000Y-123000000D02*
X103000000Y-120000000D01*
X112000000Y-127000000D02*
X109500000Y-124500000D01*
X177000000Y-125500000D02*
X178500000Y-127000000D01*
X163500000Y-125500000D02*
X164000000Y-125000000D01*
X162500000Y-125500000D02*
X163500000Y-125500000D01*
X164000000Y-125000000D02*
X176500000Y-125000000D01*
X176500000Y-125000000D02*
X177000000Y-125500000D01*
X148000000Y-121500000D02*
X149000000Y-120500000D01*
X148000000Y-122889998D02*
X148000000Y-121500000D01*
X143889998Y-127000000D02*
X142500000Y-127000000D01*
X148000000Y-122889998D02*
X143889998Y-127000000D01*
X64500000Y-127000000D02*
X62500000Y-125000000D01*
X62500000Y-125000000D02*
X57000000Y-125000000D01*
X57000000Y-125000000D02*
X56500000Y-124500000D01*
X146500000Y-130500000D02*
X96500000Y-130500000D01*
X96500000Y-130500000D02*
X93000000Y-127000000D01*
X148249999Y-128750001D02*
X146500000Y-130500000D01*
X148249999Y-126250001D02*
X148249999Y-128750001D01*
X149000000Y-125500000D02*
X148249999Y-126250001D01*
X162500000Y-128000000D02*
X162500000Y-127207120D01*
X162500000Y-127207120D02*
X164207120Y-125500000D01*
X167500000Y-125500000D02*
X169000000Y-127000000D01*
X164207120Y-125500000D02*
X167500000Y-125500000D01*
X186000000Y-125000000D02*
X188000000Y-127000000D01*
X162500000Y-123000000D02*
X164000000Y-124500000D01*
X164000000Y-124500000D02*
X185500000Y-124500000D01*
X185500000Y-124500000D02*
X186000000Y-125000000D01*
X83500000Y-127000000D02*
X81000000Y-124500000D01*
X81000000Y-124500000D02*
X58000000Y-124500000D01*
X57249999Y-123749999D02*
X54750001Y-123749999D01*
X58000000Y-124500000D02*
X57249999Y-123749999D01*
X54750001Y-123749999D02*
X54000000Y-124500000D01*
X147500000Y-124500000D02*
X149000000Y-123000000D01*
X147500000Y-128500000D02*
X147500000Y-124500000D01*
X147500000Y-128500000D02*
X146000000Y-130000000D01*
X121500000Y-127000000D02*
X124500000Y-130000000D01*
X124500000Y-130000000D02*
X146000000Y-130000000D01*
X149000000Y-129000000D02*
X149000000Y-128000000D01*
X147000000Y-131000000D02*
X78000000Y-131000000D01*
X74000000Y-127000000D02*
X78000000Y-131000000D01*
X147000000Y-131000000D02*
X149000000Y-129000000D01*
D18*
G36*
X84873000Y-86552606D02*
G01*
X84873000Y-94182060D01*
X84758773Y-94204782D01*
X84608269Y-94267123D01*
X84472819Y-94357628D01*
X84357628Y-94472819D01*
X84267123Y-94608269D01*
X84204782Y-94758773D01*
X84173000Y-94918548D01*
X84173000Y-95081452D01*
X84204782Y-95241227D01*
X84267123Y-95391731D01*
X84357628Y-95527181D01*
X84472819Y-95642372D01*
X84608269Y-95732877D01*
X84758773Y-95795218D01*
X84918548Y-95827000D01*
X85081452Y-95827000D01*
X85241227Y-95795218D01*
X85391731Y-95732877D01*
X85527181Y-95642372D01*
X85642372Y-95527181D01*
X85732877Y-95391731D01*
X85795218Y-95241227D01*
X85817940Y-95127000D01*
X95447394Y-95127000D01*
X95873000Y-95552606D01*
X95873000Y-96947394D01*
X95447394Y-97373000D01*
X86500000Y-97373000D01*
X86475224Y-97375440D01*
X86451399Y-97382667D01*
X86429443Y-97394403D01*
X86410197Y-97410197D01*
X86394403Y-97429443D01*
X86382667Y-97451399D01*
X86375440Y-97475224D01*
X86373000Y-97500000D01*
X86373000Y-101947394D01*
X85447394Y-102873000D01*
X81500000Y-102873000D01*
X81475224Y-102875440D01*
X81451399Y-102882667D01*
X81429443Y-102894403D01*
X81410197Y-102910197D01*
X79447394Y-104873000D01*
X58552606Y-104873000D01*
X57627000Y-103947394D01*
X57627000Y-103368548D01*
X68673000Y-103368548D01*
X68673000Y-103531452D01*
X68704782Y-103691227D01*
X68767123Y-103841731D01*
X68857628Y-103977181D01*
X68972819Y-104092372D01*
X69108269Y-104182877D01*
X69258773Y-104245218D01*
X69418548Y-104277000D01*
X69581452Y-104277000D01*
X69741227Y-104245218D01*
X69891731Y-104182877D01*
X70027181Y-104092372D01*
X70142372Y-103977181D01*
X70232877Y-103841731D01*
X70295218Y-103691227D01*
X70327000Y-103531452D01*
X70327000Y-103368548D01*
X73673000Y-103368548D01*
X73673000Y-103531452D01*
X73704782Y-103691227D01*
X73767123Y-103841731D01*
X73857628Y-103977181D01*
X73972819Y-104092372D01*
X74108269Y-104182877D01*
X74258773Y-104245218D01*
X74418548Y-104277000D01*
X74581452Y-104277000D01*
X74741227Y-104245218D01*
X74891731Y-104182877D01*
X75027181Y-104092372D01*
X75142372Y-103977181D01*
X75232877Y-103841731D01*
X75295218Y-103691227D01*
X75327000Y-103531452D01*
X75327000Y-103368548D01*
X75295218Y-103208773D01*
X75232877Y-103058269D01*
X75142372Y-102922819D01*
X75027181Y-102807628D01*
X74891731Y-102717123D01*
X74741227Y-102654782D01*
X74581452Y-102623000D01*
X74418548Y-102623000D01*
X74258773Y-102654782D01*
X74108269Y-102717123D01*
X73972819Y-102807628D01*
X73857628Y-102922819D01*
X73767123Y-103058269D01*
X73704782Y-103208773D01*
X73673000Y-103368548D01*
X70327000Y-103368548D01*
X70295218Y-103208773D01*
X70232877Y-103058269D01*
X70142372Y-102922819D01*
X70027181Y-102807628D01*
X69891731Y-102717123D01*
X69741227Y-102654782D01*
X69581452Y-102623000D01*
X69418548Y-102623000D01*
X69258773Y-102654782D01*
X69108269Y-102717123D01*
X68972819Y-102807628D01*
X68857628Y-102922819D01*
X68767123Y-103058269D01*
X68704782Y-103208773D01*
X68673000Y-103368548D01*
X57627000Y-103368548D01*
X57627000Y-101418548D01*
X81673000Y-101418548D01*
X81673000Y-101581452D01*
X81704782Y-101741227D01*
X81767123Y-101891731D01*
X81857628Y-102027181D01*
X81972819Y-102142372D01*
X82108269Y-102232877D01*
X82258773Y-102295218D01*
X82418548Y-102327000D01*
X82581452Y-102327000D01*
X82741227Y-102295218D01*
X82891731Y-102232877D01*
X83027181Y-102142372D01*
X83142372Y-102027181D01*
X83232877Y-101891731D01*
X83295218Y-101741227D01*
X83327000Y-101581452D01*
X83327000Y-101418548D01*
X83295218Y-101258773D01*
X83232877Y-101108269D01*
X83142372Y-100972819D01*
X83027181Y-100857628D01*
X82891731Y-100767123D01*
X82741227Y-100704782D01*
X82581452Y-100673000D01*
X82418548Y-100673000D01*
X82258773Y-100704782D01*
X82108269Y-100767123D01*
X81972819Y-100857628D01*
X81857628Y-100972819D01*
X81767123Y-101108269D01*
X81704782Y-101258773D01*
X81673000Y-101418548D01*
X57627000Y-101418548D01*
X57627000Y-100418548D01*
X61673000Y-100418548D01*
X61673000Y-100581452D01*
X61704782Y-100741227D01*
X61767123Y-100891731D01*
X61857628Y-101027181D01*
X61972819Y-101142372D01*
X62108269Y-101232877D01*
X62258773Y-101295218D01*
X62418548Y-101327000D01*
X62581452Y-101327000D01*
X62741227Y-101295218D01*
X62891731Y-101232877D01*
X63027181Y-101142372D01*
X63142372Y-101027181D01*
X63232877Y-100891731D01*
X63295218Y-100741227D01*
X63327000Y-100581452D01*
X63327000Y-100418548D01*
X66673000Y-100418548D01*
X66673000Y-100581452D01*
X66704782Y-100741227D01*
X66767123Y-100891731D01*
X66857628Y-101027181D01*
X66972819Y-101142372D01*
X67108269Y-101232877D01*
X67258773Y-101295218D01*
X67418548Y-101327000D01*
X67581452Y-101327000D01*
X67741227Y-101295218D01*
X67891731Y-101232877D01*
X68027181Y-101142372D01*
X68142372Y-101027181D01*
X68232877Y-100891731D01*
X68295218Y-100741227D01*
X68327000Y-100581452D01*
X68327000Y-100418548D01*
X68295218Y-100258773D01*
X68232877Y-100108269D01*
X68142372Y-99972819D01*
X68088101Y-99918548D01*
X72173000Y-99918548D01*
X72173000Y-100081452D01*
X72204782Y-100241227D01*
X72267123Y-100391731D01*
X72357628Y-100527181D01*
X72472819Y-100642372D01*
X72608269Y-100732877D01*
X72758773Y-100795218D01*
X72918548Y-100827000D01*
X73081452Y-100827000D01*
X73241227Y-100795218D01*
X73391731Y-100732877D01*
X73527181Y-100642372D01*
X73642372Y-100527181D01*
X73732877Y-100391731D01*
X73795218Y-100241227D01*
X73827000Y-100081452D01*
X73827000Y-99918548D01*
X77173000Y-99918548D01*
X77173000Y-100081452D01*
X77204782Y-100241227D01*
X77267123Y-100391731D01*
X77357628Y-100527181D01*
X77472819Y-100642372D01*
X77608269Y-100732877D01*
X77758773Y-100795218D01*
X77918548Y-100827000D01*
X78081452Y-100827000D01*
X78241227Y-100795218D01*
X78391731Y-100732877D01*
X78527181Y-100642372D01*
X78642372Y-100527181D01*
X78732877Y-100391731D01*
X78795218Y-100241227D01*
X78827000Y-100081452D01*
X78827000Y-99918548D01*
X78795218Y-99758773D01*
X78732877Y-99608269D01*
X78642372Y-99472819D01*
X78527181Y-99357628D01*
X78391731Y-99267123D01*
X78241227Y-99204782D01*
X78081452Y-99173000D01*
X77918548Y-99173000D01*
X77758773Y-99204782D01*
X77608269Y-99267123D01*
X77472819Y-99357628D01*
X77357628Y-99472819D01*
X77267123Y-99608269D01*
X77204782Y-99758773D01*
X77173000Y-99918548D01*
X73827000Y-99918548D01*
X73795218Y-99758773D01*
X73732877Y-99608269D01*
X73642372Y-99472819D01*
X73527181Y-99357628D01*
X73391731Y-99267123D01*
X73241227Y-99204782D01*
X73081452Y-99173000D01*
X72918548Y-99173000D01*
X72758773Y-99204782D01*
X72608269Y-99267123D01*
X72472819Y-99357628D01*
X72357628Y-99472819D01*
X72267123Y-99608269D01*
X72204782Y-99758773D01*
X72173000Y-99918548D01*
X68088101Y-99918548D01*
X68027181Y-99857628D01*
X67891731Y-99767123D01*
X67741227Y-99704782D01*
X67581452Y-99673000D01*
X67418548Y-99673000D01*
X67258773Y-99704782D01*
X67108269Y-99767123D01*
X66972819Y-99857628D01*
X66857628Y-99972819D01*
X66767123Y-100108269D01*
X66704782Y-100258773D01*
X66673000Y-100418548D01*
X63327000Y-100418548D01*
X63295218Y-100258773D01*
X63232877Y-100108269D01*
X63142372Y-99972819D01*
X63027181Y-99857628D01*
X62891731Y-99767123D01*
X62741227Y-99704782D01*
X62581452Y-99673000D01*
X62418548Y-99673000D01*
X62258773Y-99704782D01*
X62108269Y-99767123D01*
X61972819Y-99857628D01*
X61857628Y-99972819D01*
X61767123Y-100108269D01*
X61704782Y-100258773D01*
X61673000Y-100418548D01*
X57627000Y-100418548D01*
X57627000Y-95052606D01*
X57761058Y-94918548D01*
X59173000Y-94918548D01*
X59173000Y-95081452D01*
X59204782Y-95241227D01*
X59267123Y-95391731D01*
X59357628Y-95527181D01*
X59472819Y-95642372D01*
X59608269Y-95732877D01*
X59758773Y-95795218D01*
X59918548Y-95827000D01*
X60081452Y-95827000D01*
X60241227Y-95795218D01*
X60391731Y-95732877D01*
X60527181Y-95642372D01*
X60642372Y-95527181D01*
X60732877Y-95391731D01*
X60795218Y-95241227D01*
X60827000Y-95081452D01*
X60827000Y-94918548D01*
X64173000Y-94918548D01*
X64173000Y-95081452D01*
X64204782Y-95241227D01*
X64267123Y-95391731D01*
X64357628Y-95527181D01*
X64472819Y-95642372D01*
X64608269Y-95732877D01*
X64758773Y-95795218D01*
X64918548Y-95827000D01*
X65081452Y-95827000D01*
X65241227Y-95795218D01*
X65391731Y-95732877D01*
X65527181Y-95642372D01*
X65642372Y-95527181D01*
X65732877Y-95391731D01*
X65795218Y-95241227D01*
X65827000Y-95081452D01*
X65827000Y-94918548D01*
X65795218Y-94758773D01*
X65732877Y-94608269D01*
X65642372Y-94472819D01*
X65588101Y-94418548D01*
X73673000Y-94418548D01*
X73673000Y-94581452D01*
X73704782Y-94741227D01*
X73767123Y-94891731D01*
X73857628Y-95027181D01*
X73972819Y-95142372D01*
X74108269Y-95232877D01*
X74258773Y-95295218D01*
X74418548Y-95327000D01*
X74581452Y-95327000D01*
X74741227Y-95295218D01*
X74891731Y-95232877D01*
X75027181Y-95142372D01*
X75142372Y-95027181D01*
X75232877Y-94891731D01*
X75295218Y-94741227D01*
X75327000Y-94581452D01*
X75327000Y-94418548D01*
X75295218Y-94258773D01*
X75232877Y-94108269D01*
X75142372Y-93972819D01*
X75027181Y-93857628D01*
X74891731Y-93767123D01*
X74741227Y-93704782D01*
X74581452Y-93673000D01*
X74418548Y-93673000D01*
X74258773Y-93704782D01*
X74108269Y-93767123D01*
X73972819Y-93857628D01*
X73857628Y-93972819D01*
X73767123Y-94108269D01*
X73704782Y-94258773D01*
X73673000Y-94418548D01*
X65588101Y-94418548D01*
X65527181Y-94357628D01*
X65391731Y-94267123D01*
X65241227Y-94204782D01*
X65081452Y-94173000D01*
X64918548Y-94173000D01*
X64758773Y-94204782D01*
X64608269Y-94267123D01*
X64472819Y-94357628D01*
X64357628Y-94472819D01*
X64267123Y-94608269D01*
X64204782Y-94758773D01*
X64173000Y-94918548D01*
X60827000Y-94918548D01*
X60795218Y-94758773D01*
X60732877Y-94608269D01*
X60642372Y-94472819D01*
X60527181Y-94357628D01*
X60391731Y-94267123D01*
X60241227Y-94204782D01*
X60081452Y-94173000D01*
X59918548Y-94173000D01*
X59758773Y-94204782D01*
X59608269Y-94267123D01*
X59472819Y-94357628D01*
X59357628Y-94472819D01*
X59267123Y-94608269D01*
X59204782Y-94758773D01*
X59173000Y-94918548D01*
X57761058Y-94918548D01*
X60089803Y-92589803D01*
X60105597Y-92570557D01*
X60117333Y-92548601D01*
X60124560Y-92524776D01*
X60127000Y-92500000D01*
X60127000Y-92418548D01*
X64173000Y-92418548D01*
X64173000Y-92581452D01*
X64204782Y-92741227D01*
X64267123Y-92891731D01*
X64357628Y-93027181D01*
X64472819Y-93142372D01*
X64608269Y-93232877D01*
X64758773Y-93295218D01*
X64918548Y-93327000D01*
X65081452Y-93327000D01*
X65241227Y-93295218D01*
X65391731Y-93232877D01*
X65527181Y-93142372D01*
X65642372Y-93027181D01*
X65732877Y-92891731D01*
X65795218Y-92741227D01*
X65827000Y-92581452D01*
X65827000Y-92418548D01*
X65795218Y-92258773D01*
X65732877Y-92108269D01*
X65642372Y-91972819D01*
X65588101Y-91918548D01*
X72173000Y-91918548D01*
X72173000Y-92081452D01*
X72204782Y-92241227D01*
X72267123Y-92391731D01*
X72357628Y-92527181D01*
X72472819Y-92642372D01*
X72608269Y-92732877D01*
X72758773Y-92795218D01*
X72918548Y-92827000D01*
X73081452Y-92827000D01*
X73241227Y-92795218D01*
X73391731Y-92732877D01*
X73527181Y-92642372D01*
X73642372Y-92527181D01*
X73732877Y-92391731D01*
X73795218Y-92241227D01*
X73827000Y-92081452D01*
X73827000Y-91918548D01*
X73795218Y-91758773D01*
X73732877Y-91608269D01*
X73642372Y-91472819D01*
X73527181Y-91357628D01*
X73391731Y-91267123D01*
X73241227Y-91204782D01*
X73081452Y-91173000D01*
X72918548Y-91173000D01*
X72758773Y-91204782D01*
X72608269Y-91267123D01*
X72472819Y-91357628D01*
X72357628Y-91472819D01*
X72267123Y-91608269D01*
X72204782Y-91758773D01*
X72173000Y-91918548D01*
X65588101Y-91918548D01*
X65527181Y-91857628D01*
X65391731Y-91767123D01*
X65241227Y-91704782D01*
X65081452Y-91673000D01*
X64918548Y-91673000D01*
X64758773Y-91704782D01*
X64608269Y-91767123D01*
X64472819Y-91857628D01*
X64357628Y-91972819D01*
X64267123Y-92108269D01*
X64204782Y-92258773D01*
X64173000Y-92418548D01*
X60127000Y-92418548D01*
X60127000Y-86918548D01*
X70173000Y-86918548D01*
X70173000Y-87081452D01*
X70204782Y-87241227D01*
X70267123Y-87391731D01*
X70357628Y-87527181D01*
X70472819Y-87642372D01*
X70608269Y-87732877D01*
X70758773Y-87795218D01*
X70918548Y-87827000D01*
X71081452Y-87827000D01*
X71241227Y-87795218D01*
X71391731Y-87732877D01*
X71527181Y-87642372D01*
X71589949Y-87579604D01*
X74338000Y-87579604D01*
X74338000Y-87880396D01*
X74396681Y-88175410D01*
X74511790Y-88453306D01*
X74678901Y-88703406D01*
X74891594Y-88916099D01*
X75141694Y-89083210D01*
X75419590Y-89198319D01*
X75714604Y-89257000D01*
X76015396Y-89257000D01*
X76020152Y-89256054D01*
X75947739Y-89328467D01*
X75786099Y-89570378D01*
X75674760Y-89839175D01*
X75618000Y-90124528D01*
X75618000Y-90415472D01*
X75674760Y-90700825D01*
X75786099Y-90969622D01*
X75947739Y-91211533D01*
X76153467Y-91417261D01*
X76395378Y-91578901D01*
X76664175Y-91690240D01*
X76949528Y-91747000D01*
X77240472Y-91747000D01*
X77525825Y-91690240D01*
X77794622Y-91578901D01*
X78036533Y-91417261D01*
X78242261Y-91211533D01*
X78365000Y-91027841D01*
X78487739Y-91211533D01*
X78693467Y-91417261D01*
X78935378Y-91578901D01*
X79204175Y-91690240D01*
X79489528Y-91747000D01*
X79780472Y-91747000D01*
X80065825Y-91690240D01*
X80334622Y-91578901D01*
X80576533Y-91417261D01*
X80725197Y-91268597D01*
X80793552Y-91370898D01*
X81034102Y-91611448D01*
X81316959Y-91800447D01*
X81631253Y-91930632D01*
X81964905Y-91997000D01*
X82305095Y-91997000D01*
X82638747Y-91930632D01*
X82953041Y-91800447D01*
X83235898Y-91611448D01*
X83476448Y-91370898D01*
X83665447Y-91088041D01*
X83795632Y-90773747D01*
X83862000Y-90440095D01*
X83862000Y-90099905D01*
X83795632Y-89766253D01*
X83665447Y-89451959D01*
X83476448Y-89169102D01*
X83235898Y-88928552D01*
X82953041Y-88739553D01*
X82638747Y-88609368D01*
X82376172Y-88557138D01*
X82491463Y-88321523D01*
X82576380Y-88000654D01*
X82597066Y-87669383D01*
X82552728Y-87340443D01*
X82445069Y-87026473D01*
X82345579Y-86840339D01*
X82076066Y-86738539D01*
X81084605Y-87730000D01*
X81098748Y-87744143D01*
X80919143Y-87923748D01*
X80905000Y-87909605D01*
X80890858Y-87923748D01*
X80711253Y-87744143D01*
X80725395Y-87730000D01*
X79733934Y-86738539D01*
X79530295Y-86815457D01*
X79512261Y-86788467D01*
X79306533Y-86582739D01*
X79270907Y-86558934D01*
X79913539Y-86558934D01*
X80905000Y-87550395D01*
X81896461Y-86558934D01*
X81794661Y-86289421D01*
X81496523Y-86143537D01*
X81175654Y-86058620D01*
X80844383Y-86037934D01*
X80515443Y-86082272D01*
X80201473Y-86189931D01*
X80015339Y-86289421D01*
X79913539Y-86558934D01*
X79270907Y-86558934D01*
X79064622Y-86421099D01*
X78795825Y-86309760D01*
X78510472Y-86253000D01*
X78219528Y-86253000D01*
X77934175Y-86309760D01*
X77665378Y-86421099D01*
X77423467Y-86582739D01*
X77217739Y-86788467D01*
X77145067Y-86897228D01*
X77051099Y-86756594D01*
X76838406Y-86543901D01*
X76588306Y-86376790D01*
X76310410Y-86261681D01*
X76015396Y-86203000D01*
X75714604Y-86203000D01*
X75419590Y-86261681D01*
X75141694Y-86376790D01*
X74891594Y-86543901D01*
X74678901Y-86756594D01*
X74511790Y-87006694D01*
X74396681Y-87284590D01*
X74338000Y-87579604D01*
X71589949Y-87579604D01*
X71642372Y-87527181D01*
X71732877Y-87391731D01*
X71795218Y-87241227D01*
X71827000Y-87081452D01*
X71827000Y-86918548D01*
X71795218Y-86758773D01*
X71732877Y-86608269D01*
X71642372Y-86472819D01*
X71527181Y-86357628D01*
X71391731Y-86267123D01*
X71241227Y-86204782D01*
X71081452Y-86173000D01*
X70918548Y-86173000D01*
X70758773Y-86204782D01*
X70608269Y-86267123D01*
X70472819Y-86357628D01*
X70357628Y-86472819D01*
X70267123Y-86608269D01*
X70204782Y-86758773D01*
X70173000Y-86918548D01*
X60127000Y-86918548D01*
X60127000Y-86552606D01*
X61052606Y-85627000D01*
X83947394Y-85627000D01*
X84873000Y-86552606D01*
G37*
X84873000Y-86552606D02*
X84873000Y-94182060D01*
X84758773Y-94204782D01*
X84608269Y-94267123D01*
X84472819Y-94357628D01*
X84357628Y-94472819D01*
X84267123Y-94608269D01*
X84204782Y-94758773D01*
X84173000Y-94918548D01*
X84173000Y-95081452D01*
X84204782Y-95241227D01*
X84267123Y-95391731D01*
X84357628Y-95527181D01*
X84472819Y-95642372D01*
X84608269Y-95732877D01*
X84758773Y-95795218D01*
X84918548Y-95827000D01*
X85081452Y-95827000D01*
X85241227Y-95795218D01*
X85391731Y-95732877D01*
X85527181Y-95642372D01*
X85642372Y-95527181D01*
X85732877Y-95391731D01*
X85795218Y-95241227D01*
X85817940Y-95127000D01*
X95447394Y-95127000D01*
X95873000Y-95552606D01*
X95873000Y-96947394D01*
X95447394Y-97373000D01*
X86500000Y-97373000D01*
X86475224Y-97375440D01*
X86451399Y-97382667D01*
X86429443Y-97394403D01*
X86410197Y-97410197D01*
X86394403Y-97429443D01*
X86382667Y-97451399D01*
X86375440Y-97475224D01*
X86373000Y-97500000D01*
X86373000Y-101947394D01*
X85447394Y-102873000D01*
X81500000Y-102873000D01*
X81475224Y-102875440D01*
X81451399Y-102882667D01*
X81429443Y-102894403D01*
X81410197Y-102910197D01*
X79447394Y-104873000D01*
X58552606Y-104873000D01*
X57627000Y-103947394D01*
X57627000Y-103368548D01*
X68673000Y-103368548D01*
X68673000Y-103531452D01*
X68704782Y-103691227D01*
X68767123Y-103841731D01*
X68857628Y-103977181D01*
X68972819Y-104092372D01*
X69108269Y-104182877D01*
X69258773Y-104245218D01*
X69418548Y-104277000D01*
X69581452Y-104277000D01*
X69741227Y-104245218D01*
X69891731Y-104182877D01*
X70027181Y-104092372D01*
X70142372Y-103977181D01*
X70232877Y-103841731D01*
X70295218Y-103691227D01*
X70327000Y-103531452D01*
X70327000Y-103368548D01*
X73673000Y-103368548D01*
X73673000Y-103531452D01*
X73704782Y-103691227D01*
X73767123Y-103841731D01*
X73857628Y-103977181D01*
X73972819Y-104092372D01*
X74108269Y-104182877D01*
X74258773Y-104245218D01*
X74418548Y-104277000D01*
X74581452Y-104277000D01*
X74741227Y-104245218D01*
X74891731Y-104182877D01*
X75027181Y-104092372D01*
X75142372Y-103977181D01*
X75232877Y-103841731D01*
X75295218Y-103691227D01*
X75327000Y-103531452D01*
X75327000Y-103368548D01*
X75295218Y-103208773D01*
X75232877Y-103058269D01*
X75142372Y-102922819D01*
X75027181Y-102807628D01*
X74891731Y-102717123D01*
X74741227Y-102654782D01*
X74581452Y-102623000D01*
X74418548Y-102623000D01*
X74258773Y-102654782D01*
X74108269Y-102717123D01*
X73972819Y-102807628D01*
X73857628Y-102922819D01*
X73767123Y-103058269D01*
X73704782Y-103208773D01*
X73673000Y-103368548D01*
X70327000Y-103368548D01*
X70295218Y-103208773D01*
X70232877Y-103058269D01*
X70142372Y-102922819D01*
X70027181Y-102807628D01*
X69891731Y-102717123D01*
X69741227Y-102654782D01*
X69581452Y-102623000D01*
X69418548Y-102623000D01*
X69258773Y-102654782D01*
X69108269Y-102717123D01*
X68972819Y-102807628D01*
X68857628Y-102922819D01*
X68767123Y-103058269D01*
X68704782Y-103208773D01*
X68673000Y-103368548D01*
X57627000Y-103368548D01*
X57627000Y-101418548D01*
X81673000Y-101418548D01*
X81673000Y-101581452D01*
X81704782Y-101741227D01*
X81767123Y-101891731D01*
X81857628Y-102027181D01*
X81972819Y-102142372D01*
X82108269Y-102232877D01*
X82258773Y-102295218D01*
X82418548Y-102327000D01*
X82581452Y-102327000D01*
X82741227Y-102295218D01*
X82891731Y-102232877D01*
X83027181Y-102142372D01*
X83142372Y-102027181D01*
X83232877Y-101891731D01*
X83295218Y-101741227D01*
X83327000Y-101581452D01*
X83327000Y-101418548D01*
X83295218Y-101258773D01*
X83232877Y-101108269D01*
X83142372Y-100972819D01*
X83027181Y-100857628D01*
X82891731Y-100767123D01*
X82741227Y-100704782D01*
X82581452Y-100673000D01*
X82418548Y-100673000D01*
X82258773Y-100704782D01*
X82108269Y-100767123D01*
X81972819Y-100857628D01*
X81857628Y-100972819D01*
X81767123Y-101108269D01*
X81704782Y-101258773D01*
X81673000Y-101418548D01*
X57627000Y-101418548D01*
X57627000Y-100418548D01*
X61673000Y-100418548D01*
X61673000Y-100581452D01*
X61704782Y-100741227D01*
X61767123Y-100891731D01*
X61857628Y-101027181D01*
X61972819Y-101142372D01*
X62108269Y-101232877D01*
X62258773Y-101295218D01*
X62418548Y-101327000D01*
X62581452Y-101327000D01*
X62741227Y-101295218D01*
X62891731Y-101232877D01*
X63027181Y-101142372D01*
X63142372Y-101027181D01*
X63232877Y-100891731D01*
X63295218Y-100741227D01*
X63327000Y-100581452D01*
X63327000Y-100418548D01*
X66673000Y-100418548D01*
X66673000Y-100581452D01*
X66704782Y-100741227D01*
X66767123Y-100891731D01*
X66857628Y-101027181D01*
X66972819Y-101142372D01*
X67108269Y-101232877D01*
X67258773Y-101295218D01*
X67418548Y-101327000D01*
X67581452Y-101327000D01*
X67741227Y-101295218D01*
X67891731Y-101232877D01*
X68027181Y-101142372D01*
X68142372Y-101027181D01*
X68232877Y-100891731D01*
X68295218Y-100741227D01*
X68327000Y-100581452D01*
X68327000Y-100418548D01*
X68295218Y-100258773D01*
X68232877Y-100108269D01*
X68142372Y-99972819D01*
X68088101Y-99918548D01*
X72173000Y-99918548D01*
X72173000Y-100081452D01*
X72204782Y-100241227D01*
X72267123Y-100391731D01*
X72357628Y-100527181D01*
X72472819Y-100642372D01*
X72608269Y-100732877D01*
X72758773Y-100795218D01*
X72918548Y-100827000D01*
X73081452Y-100827000D01*
X73241227Y-100795218D01*
X73391731Y-100732877D01*
X73527181Y-100642372D01*
X73642372Y-100527181D01*
X73732877Y-100391731D01*
X73795218Y-100241227D01*
X73827000Y-100081452D01*
X73827000Y-99918548D01*
X77173000Y-99918548D01*
X77173000Y-100081452D01*
X77204782Y-100241227D01*
X77267123Y-100391731D01*
X77357628Y-100527181D01*
X77472819Y-100642372D01*
X77608269Y-100732877D01*
X77758773Y-100795218D01*
X77918548Y-100827000D01*
X78081452Y-100827000D01*
X78241227Y-100795218D01*
X78391731Y-100732877D01*
X78527181Y-100642372D01*
X78642372Y-100527181D01*
X78732877Y-100391731D01*
X78795218Y-100241227D01*
X78827000Y-100081452D01*
X78827000Y-99918548D01*
X78795218Y-99758773D01*
X78732877Y-99608269D01*
X78642372Y-99472819D01*
X78527181Y-99357628D01*
X78391731Y-99267123D01*
X78241227Y-99204782D01*
X78081452Y-99173000D01*
X77918548Y-99173000D01*
X77758773Y-99204782D01*
X77608269Y-99267123D01*
X77472819Y-99357628D01*
X77357628Y-99472819D01*
X77267123Y-99608269D01*
X77204782Y-99758773D01*
X77173000Y-99918548D01*
X73827000Y-99918548D01*
X73795218Y-99758773D01*
X73732877Y-99608269D01*
X73642372Y-99472819D01*
X73527181Y-99357628D01*
X73391731Y-99267123D01*
X73241227Y-99204782D01*
X73081452Y-99173000D01*
X72918548Y-99173000D01*
X72758773Y-99204782D01*
X72608269Y-99267123D01*
X72472819Y-99357628D01*
X72357628Y-99472819D01*
X72267123Y-99608269D01*
X72204782Y-99758773D01*
X72173000Y-99918548D01*
X68088101Y-99918548D01*
X68027181Y-99857628D01*
X67891731Y-99767123D01*
X67741227Y-99704782D01*
X67581452Y-99673000D01*
X67418548Y-99673000D01*
X67258773Y-99704782D01*
X67108269Y-99767123D01*
X66972819Y-99857628D01*
X66857628Y-99972819D01*
X66767123Y-100108269D01*
X66704782Y-100258773D01*
X66673000Y-100418548D01*
X63327000Y-100418548D01*
X63295218Y-100258773D01*
X63232877Y-100108269D01*
X63142372Y-99972819D01*
X63027181Y-99857628D01*
X62891731Y-99767123D01*
X62741227Y-99704782D01*
X62581452Y-99673000D01*
X62418548Y-99673000D01*
X62258773Y-99704782D01*
X62108269Y-99767123D01*
X61972819Y-99857628D01*
X61857628Y-99972819D01*
X61767123Y-100108269D01*
X61704782Y-100258773D01*
X61673000Y-100418548D01*
X57627000Y-100418548D01*
X57627000Y-95052606D01*
X57761058Y-94918548D01*
X59173000Y-94918548D01*
X59173000Y-95081452D01*
X59204782Y-95241227D01*
X59267123Y-95391731D01*
X59357628Y-95527181D01*
X59472819Y-95642372D01*
X59608269Y-95732877D01*
X59758773Y-95795218D01*
X59918548Y-95827000D01*
X60081452Y-95827000D01*
X60241227Y-95795218D01*
X60391731Y-95732877D01*
X60527181Y-95642372D01*
X60642372Y-95527181D01*
X60732877Y-95391731D01*
X60795218Y-95241227D01*
X60827000Y-95081452D01*
X60827000Y-94918548D01*
X64173000Y-94918548D01*
X64173000Y-95081452D01*
X64204782Y-95241227D01*
X64267123Y-95391731D01*
X64357628Y-95527181D01*
X64472819Y-95642372D01*
X64608269Y-95732877D01*
X64758773Y-95795218D01*
X64918548Y-95827000D01*
X65081452Y-95827000D01*
X65241227Y-95795218D01*
X65391731Y-95732877D01*
X65527181Y-95642372D01*
X65642372Y-95527181D01*
X65732877Y-95391731D01*
X65795218Y-95241227D01*
X65827000Y-95081452D01*
X65827000Y-94918548D01*
X65795218Y-94758773D01*
X65732877Y-94608269D01*
X65642372Y-94472819D01*
X65588101Y-94418548D01*
X73673000Y-94418548D01*
X73673000Y-94581452D01*
X73704782Y-94741227D01*
X73767123Y-94891731D01*
X73857628Y-95027181D01*
X73972819Y-95142372D01*
X74108269Y-95232877D01*
X74258773Y-95295218D01*
X74418548Y-95327000D01*
X74581452Y-95327000D01*
X74741227Y-95295218D01*
X74891731Y-95232877D01*
X75027181Y-95142372D01*
X75142372Y-95027181D01*
X75232877Y-94891731D01*
X75295218Y-94741227D01*
X75327000Y-94581452D01*
X75327000Y-94418548D01*
X75295218Y-94258773D01*
X75232877Y-94108269D01*
X75142372Y-93972819D01*
X75027181Y-93857628D01*
X74891731Y-93767123D01*
X74741227Y-93704782D01*
X74581452Y-93673000D01*
X74418548Y-93673000D01*
X74258773Y-93704782D01*
X74108269Y-93767123D01*
X73972819Y-93857628D01*
X73857628Y-93972819D01*
X73767123Y-94108269D01*
X73704782Y-94258773D01*
X73673000Y-94418548D01*
X65588101Y-94418548D01*
X65527181Y-94357628D01*
X65391731Y-94267123D01*
X65241227Y-94204782D01*
X65081452Y-94173000D01*
X64918548Y-94173000D01*
X64758773Y-94204782D01*
X64608269Y-94267123D01*
X64472819Y-94357628D01*
X64357628Y-94472819D01*
X64267123Y-94608269D01*
X64204782Y-94758773D01*
X64173000Y-94918548D01*
X60827000Y-94918548D01*
X60795218Y-94758773D01*
X60732877Y-94608269D01*
X60642372Y-94472819D01*
X60527181Y-94357628D01*
X60391731Y-94267123D01*
X60241227Y-94204782D01*
X60081452Y-94173000D01*
X59918548Y-94173000D01*
X59758773Y-94204782D01*
X59608269Y-94267123D01*
X59472819Y-94357628D01*
X59357628Y-94472819D01*
X59267123Y-94608269D01*
X59204782Y-94758773D01*
X59173000Y-94918548D01*
X57761058Y-94918548D01*
X60089803Y-92589803D01*
X60105597Y-92570557D01*
X60117333Y-92548601D01*
X60124560Y-92524776D01*
X60127000Y-92500000D01*
X60127000Y-92418548D01*
X64173000Y-92418548D01*
X64173000Y-92581452D01*
X64204782Y-92741227D01*
X64267123Y-92891731D01*
X64357628Y-93027181D01*
X64472819Y-93142372D01*
X64608269Y-93232877D01*
X64758773Y-93295218D01*
X64918548Y-93327000D01*
X65081452Y-93327000D01*
X65241227Y-93295218D01*
X65391731Y-93232877D01*
X65527181Y-93142372D01*
X65642372Y-93027181D01*
X65732877Y-92891731D01*
X65795218Y-92741227D01*
X65827000Y-92581452D01*
X65827000Y-92418548D01*
X65795218Y-92258773D01*
X65732877Y-92108269D01*
X65642372Y-91972819D01*
X65588101Y-91918548D01*
X72173000Y-91918548D01*
X72173000Y-92081452D01*
X72204782Y-92241227D01*
X72267123Y-92391731D01*
X72357628Y-92527181D01*
X72472819Y-92642372D01*
X72608269Y-92732877D01*
X72758773Y-92795218D01*
X72918548Y-92827000D01*
X73081452Y-92827000D01*
X73241227Y-92795218D01*
X73391731Y-92732877D01*
X73527181Y-92642372D01*
X73642372Y-92527181D01*
X73732877Y-92391731D01*
X73795218Y-92241227D01*
X73827000Y-92081452D01*
X73827000Y-91918548D01*
X73795218Y-91758773D01*
X73732877Y-91608269D01*
X73642372Y-91472819D01*
X73527181Y-91357628D01*
X73391731Y-91267123D01*
X73241227Y-91204782D01*
X73081452Y-91173000D01*
X72918548Y-91173000D01*
X72758773Y-91204782D01*
X72608269Y-91267123D01*
X72472819Y-91357628D01*
X72357628Y-91472819D01*
X72267123Y-91608269D01*
X72204782Y-91758773D01*
X72173000Y-91918548D01*
X65588101Y-91918548D01*
X65527181Y-91857628D01*
X65391731Y-91767123D01*
X65241227Y-91704782D01*
X65081452Y-91673000D01*
X64918548Y-91673000D01*
X64758773Y-91704782D01*
X64608269Y-91767123D01*
X64472819Y-91857628D01*
X64357628Y-91972819D01*
X64267123Y-92108269D01*
X64204782Y-92258773D01*
X64173000Y-92418548D01*
X60127000Y-92418548D01*
X60127000Y-86918548D01*
X70173000Y-86918548D01*
X70173000Y-87081452D01*
X70204782Y-87241227D01*
X70267123Y-87391731D01*
X70357628Y-87527181D01*
X70472819Y-87642372D01*
X70608269Y-87732877D01*
X70758773Y-87795218D01*
X70918548Y-87827000D01*
X71081452Y-87827000D01*
X71241227Y-87795218D01*
X71391731Y-87732877D01*
X71527181Y-87642372D01*
X71589949Y-87579604D01*
X74338000Y-87579604D01*
X74338000Y-87880396D01*
X74396681Y-88175410D01*
X74511790Y-88453306D01*
X74678901Y-88703406D01*
X74891594Y-88916099D01*
X75141694Y-89083210D01*
X75419590Y-89198319D01*
X75714604Y-89257000D01*
X76015396Y-89257000D01*
X76020152Y-89256054D01*
X75947739Y-89328467D01*
X75786099Y-89570378D01*
X75674760Y-89839175D01*
X75618000Y-90124528D01*
X75618000Y-90415472D01*
X75674760Y-90700825D01*
X75786099Y-90969622D01*
X75947739Y-91211533D01*
X76153467Y-91417261D01*
X76395378Y-91578901D01*
X76664175Y-91690240D01*
X76949528Y-91747000D01*
X77240472Y-91747000D01*
X77525825Y-91690240D01*
X77794622Y-91578901D01*
X78036533Y-91417261D01*
X78242261Y-91211533D01*
X78365000Y-91027841D01*
X78487739Y-91211533D01*
X78693467Y-91417261D01*
X78935378Y-91578901D01*
X79204175Y-91690240D01*
X79489528Y-91747000D01*
X79780472Y-91747000D01*
X80065825Y-91690240D01*
X80334622Y-91578901D01*
X80576533Y-91417261D01*
X80725197Y-91268597D01*
X80793552Y-91370898D01*
X81034102Y-91611448D01*
X81316959Y-91800447D01*
X81631253Y-91930632D01*
X81964905Y-91997000D01*
X82305095Y-91997000D01*
X82638747Y-91930632D01*
X82953041Y-91800447D01*
X83235898Y-91611448D01*
X83476448Y-91370898D01*
X83665447Y-91088041D01*
X83795632Y-90773747D01*
X83862000Y-90440095D01*
X83862000Y-90099905D01*
X83795632Y-89766253D01*
X83665447Y-89451959D01*
X83476448Y-89169102D01*
X83235898Y-88928552D01*
X82953041Y-88739553D01*
X82638747Y-88609368D01*
X82376172Y-88557138D01*
X82491463Y-88321523D01*
X82576380Y-88000654D01*
X82597066Y-87669383D01*
X82552728Y-87340443D01*
X82445069Y-87026473D01*
X82345579Y-86840339D01*
X82076066Y-86738539D01*
X81084605Y-87730000D01*
X81098748Y-87744143D01*
X80919143Y-87923748D01*
X80905000Y-87909605D01*
X80890858Y-87923748D01*
X80711253Y-87744143D01*
X80725395Y-87730000D01*
X79733934Y-86738539D01*
X79530295Y-86815457D01*
X79512261Y-86788467D01*
X79306533Y-86582739D01*
X79270907Y-86558934D01*
X79913539Y-86558934D01*
X80905000Y-87550395D01*
X81896461Y-86558934D01*
X81794661Y-86289421D01*
X81496523Y-86143537D01*
X81175654Y-86058620D01*
X80844383Y-86037934D01*
X80515443Y-86082272D01*
X80201473Y-86189931D01*
X80015339Y-86289421D01*
X79913539Y-86558934D01*
X79270907Y-86558934D01*
X79064622Y-86421099D01*
X78795825Y-86309760D01*
X78510472Y-86253000D01*
X78219528Y-86253000D01*
X77934175Y-86309760D01*
X77665378Y-86421099D01*
X77423467Y-86582739D01*
X77217739Y-86788467D01*
X77145067Y-86897228D01*
X77051099Y-86756594D01*
X76838406Y-86543901D01*
X76588306Y-86376790D01*
X76310410Y-86261681D01*
X76015396Y-86203000D01*
X75714604Y-86203000D01*
X75419590Y-86261681D01*
X75141694Y-86376790D01*
X74891594Y-86543901D01*
X74678901Y-86756594D01*
X74511790Y-87006694D01*
X74396681Y-87284590D01*
X74338000Y-87579604D01*
X71589949Y-87579604D01*
X71642372Y-87527181D01*
X71732877Y-87391731D01*
X71795218Y-87241227D01*
X71827000Y-87081452D01*
X71827000Y-86918548D01*
X71795218Y-86758773D01*
X71732877Y-86608269D01*
X71642372Y-86472819D01*
X71527181Y-86357628D01*
X71391731Y-86267123D01*
X71241227Y-86204782D01*
X71081452Y-86173000D01*
X70918548Y-86173000D01*
X70758773Y-86204782D01*
X70608269Y-86267123D01*
X70472819Y-86357628D01*
X70357628Y-86472819D01*
X70267123Y-86608269D01*
X70204782Y-86758773D01*
X70173000Y-86918548D01*
X60127000Y-86918548D01*
X60127000Y-86552606D01*
X61052606Y-85627000D01*
X83947394Y-85627000D01*
X84873000Y-86552606D01*
M02*
