G04 #@! TF.GenerationSoftware,KiCad,Pcbnew,7.0.11*
G04 #@! TF.CreationDate,2025-01-13T21:33:00+01:00*
G04 #@! TF.ProjectId,PowerUnit,506f7765-7255-46e6-9974-2e6b69636164,C*
G04 #@! TF.SameCoordinates,Original*
G04 #@! TF.FileFunction,Copper,L1,Top*
G04 #@! TF.FilePolarity,Positive*
%FSLAX46Y46*%
G04 Gerber Fmt 4.6, Leading zero omitted, Abs format (unit mm)*
G04 Created by KiCad (PCBNEW 7.0.11) date 2025-01-13 21:33:00*
%MOMM*%
%LPD*%
G01*
G04 APERTURE LIST*
G04 Aperture macros list*
%AMRoundRect*
0 Rectangle with rounded corners*
0 $1 Rounding radius*
0 $2 $3 $4 $5 $6 $7 $8 $9 X,Y pos of 4 corners*
0 Add a 4 corners polygon primitive as box body*
4,1,4,$2,$3,$4,$5,$6,$7,$8,$9,$2,$3,0*
0 Add four circle primitives for the rounded corners*
1,1,$1+$1,$2,$3*
1,1,$1+$1,$4,$5*
1,1,$1+$1,$6,$7*
1,1,$1+$1,$8,$9*
0 Add four rect primitives between the rounded corners*
20,1,$1+$1,$2,$3,$4,$5,0*
20,1,$1+$1,$4,$5,$6,$7,0*
20,1,$1+$1,$6,$7,$8,$9,0*
20,1,$1+$1,$8,$9,$2,$3,0*%
G04 Aperture macros list end*
G04 #@! TA.AperFunction,ComponentPad*
%ADD10C,2.300000*%
G04 #@! TD*
G04 #@! TA.AperFunction,SMDPad,CuDef*
%ADD11RoundRect,0.243750X-0.243750X-0.456250X0.243750X-0.456250X0.243750X0.456250X-0.243750X0.456250X0*%
G04 #@! TD*
G04 #@! TA.AperFunction,SMDPad,CuDef*
%ADD12RoundRect,0.243750X0.243750X0.456250X-0.243750X0.456250X-0.243750X-0.456250X0.243750X-0.456250X0*%
G04 #@! TD*
G04 #@! TA.AperFunction,SMDPad,CuDef*
%ADD13RoundRect,0.243750X0.456250X-0.243750X0.456250X0.243750X-0.456250X0.243750X-0.456250X-0.243750X0*%
G04 #@! TD*
G04 #@! TA.AperFunction,SMDPad,CuDef*
%ADD14RoundRect,0.243750X-0.456250X0.243750X-0.456250X-0.243750X0.456250X-0.243750X0.456250X0.243750X0*%
G04 #@! TD*
G04 #@! TA.AperFunction,SMDPad,CuDef*
%ADD15R,1.700000X1.300000*%
G04 #@! TD*
G04 #@! TA.AperFunction,ComponentPad*
%ADD16C,2.700000*%
G04 #@! TD*
G04 #@! TA.AperFunction,SMDPad,CuDef*
%ADD17RoundRect,0.225000X-0.425000X-0.225000X0.425000X-0.225000X0.425000X0.225000X-0.425000X0.225000X0*%
G04 #@! TD*
G04 #@! TA.AperFunction,SMDPad,CuDef*
%ADD18RoundRect,0.175000X-0.175000X0.800000X-0.175000X-0.800000X0.175000X-0.800000X0.175000X0.800000X0*%
G04 #@! TD*
G04 #@! TA.AperFunction,SMDPad,CuDef*
%ADD19R,2.100000X1.400000*%
G04 #@! TD*
G04 #@! TA.AperFunction,SMDPad,CuDef*
%ADD20R,1.400000X2.100000*%
G04 #@! TD*
G04 #@! TA.AperFunction,SMDPad,CuDef*
%ADD21RoundRect,0.250000X0.925000X-0.787500X0.925000X0.787500X-0.925000X0.787500X-0.925000X-0.787500X0*%
G04 #@! TD*
G04 #@! TA.AperFunction,SMDPad,CuDef*
%ADD22R,2.000000X1.500000*%
G04 #@! TD*
G04 #@! TA.AperFunction,SMDPad,CuDef*
%ADD23R,2.000000X3.800000*%
G04 #@! TD*
G04 #@! TA.AperFunction,SMDPad,CuDef*
%ADD24C,1.000000*%
G04 #@! TD*
G04 #@! TA.AperFunction,ComponentPad*
%ADD25C,0.900000*%
G04 #@! TD*
G04 #@! TA.AperFunction,ComponentPad*
%ADD26C,8.600000*%
G04 #@! TD*
G04 #@! TA.AperFunction,SMDPad,CuDef*
%ADD27R,1.300000X1.700000*%
G04 #@! TD*
G04 #@! TA.AperFunction,ComponentPad*
%ADD28C,2.100000*%
G04 #@! TD*
G04 #@! TA.AperFunction,SMDPad,CuDef*
%ADD29R,0.800000X2.200000*%
G04 #@! TD*
G04 #@! TA.AperFunction,SMDPad,CuDef*
%ADD30R,5.800000X6.400000*%
G04 #@! TD*
G04 #@! TA.AperFunction,SMDPad,CuDef*
%ADD31RoundRect,0.225000X0.225000X-0.425000X0.225000X0.425000X-0.225000X0.425000X-0.225000X-0.425000X0*%
G04 #@! TD*
G04 #@! TA.AperFunction,ViaPad*
%ADD32C,1.300000*%
G04 #@! TD*
G04 #@! TA.AperFunction,ViaPad*
%ADD33C,0.800000*%
G04 #@! TD*
G04 #@! TA.AperFunction,Conductor*
%ADD34C,0.800000*%
G04 #@! TD*
G04 #@! TA.AperFunction,Conductor*
%ADD35C,1.300000*%
G04 #@! TD*
G04 #@! TA.AperFunction,Conductor*
%ADD36C,0.300000*%
G04 #@! TD*
G04 APERTURE END LIST*
D10*
X106750000Y-143490000D03*
X110250000Y-143490000D03*
X113750000Y-143490000D03*
X117250000Y-143490000D03*
X120750000Y-143490000D03*
X124250000Y-143490000D03*
X127750000Y-143490000D03*
X131250000Y-143490000D03*
X134750000Y-143490000D03*
X138250000Y-143490000D03*
X106750000Y-146990000D03*
X110250000Y-146990000D03*
X113750000Y-146990000D03*
X117250000Y-146990000D03*
X120750000Y-146990000D03*
X124250000Y-146990000D03*
X127750000Y-146990000D03*
X131250000Y-146990000D03*
X134750000Y-146990000D03*
X138250000Y-146990000D03*
D11*
X183562500Y-87500000D03*
X185437500Y-87500000D03*
D12*
X109437500Y-87500000D03*
X107562500Y-87500000D03*
X85437500Y-101500000D03*
X83562500Y-101500000D03*
X117937500Y-87500000D03*
X116062500Y-87500000D03*
X143437500Y-87500000D03*
X141562500Y-87500000D03*
D11*
X166562500Y-87500000D03*
X168437500Y-87500000D03*
X192062500Y-87500000D03*
X193937500Y-87500000D03*
D13*
X75500000Y-98937500D03*
X75500000Y-97062500D03*
X78000000Y-98937500D03*
X78000000Y-97062500D03*
X73000000Y-94937500D03*
X73000000Y-93062500D03*
D14*
X65000000Y-100062500D03*
X65000000Y-101937500D03*
X60000000Y-100062500D03*
X60000000Y-101937500D03*
D15*
X67500000Y-98250000D03*
X67500000Y-101750000D03*
X120500000Y-87250000D03*
X120500000Y-90750000D03*
D16*
X110200000Y-96270000D03*
X106800000Y-96270000D03*
X110200000Y-109730000D03*
X106800000Y-109730000D03*
D15*
X146000000Y-87250000D03*
X146000000Y-90750000D03*
D16*
X118700000Y-96270000D03*
X115300000Y-96270000D03*
X118700000Y-109730000D03*
X115300000Y-109730000D03*
D12*
X85437500Y-99000000D03*
X83562500Y-99000000D03*
X117937500Y-90000000D03*
X116062500Y-90000000D03*
D10*
X62250000Y-143490000D03*
X65750000Y-143490000D03*
X69250000Y-143490000D03*
X72750000Y-143490000D03*
X62250000Y-146990000D03*
X65750000Y-146990000D03*
X69250000Y-146990000D03*
X72750000Y-146990000D03*
D12*
X143437500Y-90000000D03*
X141562500Y-90000000D03*
D11*
X166562500Y-90000000D03*
X168437500Y-90000000D03*
D15*
X189500000Y-87250000D03*
X189500000Y-90750000D03*
X181000000Y-87250000D03*
X181000000Y-90750000D03*
X112000000Y-87250000D03*
X112000000Y-90750000D03*
D12*
X109437500Y-90000000D03*
X107562500Y-90000000D03*
D17*
X75500000Y-101300000D03*
X75500000Y-103200000D03*
X77500000Y-102250000D03*
D11*
X83562500Y-96500000D03*
X85437500Y-96500000D03*
D15*
X62500000Y-98250000D03*
X62500000Y-101750000D03*
D14*
X65000000Y-89562500D03*
X65000000Y-91437500D03*
D13*
X60000000Y-97937500D03*
X60000000Y-96062500D03*
X65000000Y-97937500D03*
X65000000Y-96062500D03*
D11*
X68062500Y-87000000D03*
X69937500Y-87000000D03*
D10*
X171750000Y-143490000D03*
X175250000Y-143490000D03*
X178750000Y-143490000D03*
X182250000Y-143490000D03*
X185750000Y-143490000D03*
X189250000Y-143490000D03*
X192750000Y-143490000D03*
X196250000Y-143490000D03*
X199750000Y-143490000D03*
X203250000Y-143490000D03*
X171750000Y-146990000D03*
X175250000Y-146990000D03*
X178750000Y-146990000D03*
X182250000Y-146990000D03*
X185750000Y-146990000D03*
X189250000Y-146990000D03*
X192750000Y-146990000D03*
X196250000Y-146990000D03*
X199750000Y-146990000D03*
X203250000Y-146990000D03*
D18*
X70905000Y-89525000D03*
X69635000Y-89525000D03*
X68365000Y-89525000D03*
X67095000Y-89525000D03*
X67095000Y-94475000D03*
X68365000Y-94475000D03*
X69635000Y-94475000D03*
X70905000Y-94475000D03*
D11*
X183562500Y-90000000D03*
X185437500Y-90000000D03*
D12*
X126437500Y-87500000D03*
X124562500Y-87500000D03*
D15*
X129000000Y-87250000D03*
X129000000Y-90750000D03*
D12*
X126437500Y-90000000D03*
X124562500Y-90000000D03*
D11*
X175062500Y-87500000D03*
X176937500Y-87500000D03*
D15*
X172500000Y-87250000D03*
X172500000Y-90750000D03*
D11*
X175062500Y-90000000D03*
X176937500Y-90000000D03*
D19*
X132000000Y-132700000D03*
X132000000Y-128300000D03*
D20*
X152750000Y-113000000D03*
X157150000Y-113000000D03*
D15*
X164000000Y-87250000D03*
X164000000Y-90750000D03*
D11*
X200562500Y-87500000D03*
X202437500Y-87500000D03*
D16*
X203200000Y-96270000D03*
X199800000Y-96270000D03*
X203200000Y-109730000D03*
X199800000Y-109730000D03*
X169200000Y-96270000D03*
X165800000Y-96270000D03*
X169200000Y-109730000D03*
X165800000Y-109730000D03*
D10*
X149920000Y-97920000D03*
X152460000Y-97920000D03*
X155000000Y-97920000D03*
X157540000Y-97920000D03*
X160080000Y-97920000D03*
X160080000Y-100460000D03*
X160080000Y-103000000D03*
X160080000Y-105540000D03*
X160080000Y-108080000D03*
X157540000Y-108080000D03*
X155000000Y-108080000D03*
X152460000Y-108080000D03*
X149920000Y-108080000D03*
X149920000Y-105540000D03*
X149920000Y-103000000D03*
X149920000Y-100460000D03*
D16*
X127200000Y-96270000D03*
X123800000Y-96270000D03*
X127200000Y-109730000D03*
X123800000Y-109730000D03*
D19*
X132000000Y-120300000D03*
X132000000Y-124700000D03*
D15*
X137500000Y-87250000D03*
X137500000Y-90750000D03*
D12*
X134937500Y-90000000D03*
X133062500Y-90000000D03*
D15*
X198000000Y-87250000D03*
X198000000Y-90750000D03*
D11*
X200562500Y-90000000D03*
X202437500Y-90000000D03*
D19*
X198500000Y-120300000D03*
X198500000Y-124700000D03*
D16*
X135700000Y-96270000D03*
X132300000Y-96270000D03*
X135700000Y-109730000D03*
X132300000Y-109730000D03*
D12*
X134937500Y-87500000D03*
X133062500Y-87500000D03*
D20*
X180700000Y-133500000D03*
X176300000Y-133500000D03*
D19*
X198500000Y-132700000D03*
X198500000Y-128300000D03*
D16*
X194700000Y-96270000D03*
X191300000Y-96270000D03*
X194700000Y-109730000D03*
X191300000Y-109730000D03*
X177700000Y-96270000D03*
X174300000Y-96270000D03*
X177700000Y-109730000D03*
X174300000Y-109730000D03*
X186200000Y-96270000D03*
X182800000Y-96270000D03*
X186200000Y-109730000D03*
X182800000Y-109730000D03*
X144200000Y-96270000D03*
X140800000Y-96270000D03*
X144200000Y-109730000D03*
X140800000Y-109730000D03*
D13*
X102000000Y-99937500D03*
X102000000Y-98062500D03*
D21*
X98500000Y-101462500D03*
X98500000Y-96537500D03*
D22*
X94650000Y-101300000D03*
X94650000Y-99000000D03*
D23*
X88350000Y-99000000D03*
D22*
X94650000Y-96700000D03*
D12*
X66937500Y-104000000D03*
X65062500Y-104000000D03*
X61937500Y-104000000D03*
X60062500Y-104000000D03*
D24*
X51500000Y-95000000D03*
X213500000Y-140500000D03*
D25*
X51775000Y-90000000D03*
X52719581Y-87719581D03*
X52719581Y-92280419D03*
X55000000Y-86775000D03*
D26*
X55000000Y-90000000D03*
D25*
X55000000Y-93225000D03*
X57280419Y-87719581D03*
X57280419Y-92280419D03*
X58225000Y-90000000D03*
X51775000Y-135000000D03*
X52719581Y-132719581D03*
X52719581Y-137280419D03*
X55000000Y-131775000D03*
D26*
X55000000Y-135000000D03*
D25*
X55000000Y-138225000D03*
X57280419Y-132719581D03*
X57280419Y-137280419D03*
X58225000Y-135000000D03*
X86775000Y-90000000D03*
X87719581Y-87719581D03*
X87719581Y-92280419D03*
X90000000Y-86775000D03*
D26*
X90000000Y-90000000D03*
D25*
X90000000Y-93225000D03*
X92280419Y-87719581D03*
X92280419Y-92280419D03*
X93225000Y-90000000D03*
X86775000Y-143500000D03*
X87719581Y-141219581D03*
X87719581Y-145780419D03*
X90000000Y-140275000D03*
D26*
X90000000Y-143500000D03*
D25*
X90000000Y-146725000D03*
X92280419Y-141219581D03*
X92280419Y-145780419D03*
X93225000Y-143500000D03*
X151775000Y-90000000D03*
X152719581Y-87719581D03*
X152719581Y-92280419D03*
X155000000Y-86775000D03*
D26*
X155000000Y-90000000D03*
D25*
X155000000Y-93225000D03*
X157280419Y-87719581D03*
X157280419Y-92280419D03*
X158225000Y-90000000D03*
X151775000Y-143500000D03*
X152719581Y-141219581D03*
X152719581Y-145780419D03*
X155000000Y-140275000D03*
D26*
X155000000Y-143500000D03*
D25*
X155000000Y-146725000D03*
X157280419Y-141219581D03*
X157280419Y-145780419D03*
X158225000Y-143500000D03*
X206775000Y-90000000D03*
X207719581Y-87719581D03*
X207719581Y-92280419D03*
X210000000Y-86775000D03*
D26*
X210000000Y-90000000D03*
D25*
X210000000Y-93225000D03*
X212280419Y-87719581D03*
X212280419Y-92280419D03*
X213225000Y-90000000D03*
X206775000Y-135000000D03*
X207719581Y-132719581D03*
X207719581Y-137280419D03*
X210000000Y-131775000D03*
D26*
X210000000Y-135000000D03*
D25*
X210000000Y-138225000D03*
X212280419Y-132719581D03*
X212280419Y-137280419D03*
X213225000Y-135000000D03*
D11*
X192062500Y-90000000D03*
X193937500Y-90000000D03*
D20*
X104700000Y-133500000D03*
X100300000Y-133500000D03*
X140300000Y-133500000D03*
X144700000Y-133500000D03*
X62300000Y-133500000D03*
X66700000Y-133500000D03*
X90800000Y-133500000D03*
X95200000Y-133500000D03*
X171200000Y-133500000D03*
X166800000Y-133500000D03*
X114200000Y-133500000D03*
X109800000Y-133500000D03*
X185800000Y-133500000D03*
X190200000Y-133500000D03*
X81300000Y-133500000D03*
X85700000Y-133500000D03*
X119300000Y-133500000D03*
X123700000Y-133500000D03*
X71800000Y-133500000D03*
X76200000Y-133500000D03*
D27*
X153250000Y-133000000D03*
X149750000Y-133000000D03*
D28*
X80905000Y-87730000D03*
X79635000Y-90270000D03*
X78365000Y-87730000D03*
X77095000Y-90270000D03*
D17*
X70500000Y-101300000D03*
X70500000Y-103200000D03*
X72500000Y-102250000D03*
D14*
X56500000Y-125562500D03*
X56500000Y-127437500D03*
D11*
X150062500Y-125500000D03*
X151937500Y-125500000D03*
D13*
X73000000Y-98937500D03*
X73000000Y-97062500D03*
D12*
X161437500Y-125500000D03*
X159562500Y-125500000D03*
D13*
X70500000Y-98937500D03*
X70500000Y-97062500D03*
D14*
X54000000Y-125562500D03*
X54000000Y-127437500D03*
D11*
X150062500Y-123000000D03*
X151937500Y-123000000D03*
X150062500Y-128000000D03*
X151937500Y-128000000D03*
D29*
X185720000Y-127300000D03*
X186860000Y-127300000D03*
D30*
X188000000Y-121000000D03*
D29*
X189140000Y-127300000D03*
X190280000Y-127300000D03*
X81220000Y-127300000D03*
X82360000Y-127300000D03*
D30*
X83500000Y-121000000D03*
D29*
X84640000Y-127300000D03*
X85780000Y-127300000D03*
X62220000Y-127300000D03*
X63360000Y-127300000D03*
D30*
X64500000Y-121000000D03*
D29*
X65640000Y-127300000D03*
X66780000Y-127300000D03*
X90720000Y-127300000D03*
X91860000Y-127300000D03*
D30*
X93000000Y-121000000D03*
D29*
X94140000Y-127300000D03*
X95280000Y-127300000D03*
X71720000Y-127300000D03*
X72860000Y-127300000D03*
D30*
X74000000Y-121000000D03*
D29*
X75140000Y-127300000D03*
X76280000Y-127300000D03*
X100220000Y-127300000D03*
X101360000Y-127300000D03*
D30*
X102500000Y-121000000D03*
D29*
X103640000Y-127300000D03*
X104780000Y-127300000D03*
X109720000Y-127300000D03*
X110860000Y-127300000D03*
D30*
X112000000Y-121000000D03*
D29*
X113140000Y-127300000D03*
X114280000Y-127300000D03*
X176220000Y-127300000D03*
X177360000Y-127300000D03*
D30*
X178500000Y-121000000D03*
D29*
X179640000Y-127300000D03*
X180780000Y-127300000D03*
X119220000Y-127300000D03*
X120360000Y-127300000D03*
D30*
X121500000Y-121000000D03*
D29*
X122640000Y-127300000D03*
X123780000Y-127300000D03*
X166720000Y-127300000D03*
X167860000Y-127300000D03*
D30*
X169000000Y-121000000D03*
D29*
X170140000Y-127300000D03*
X171280000Y-127300000D03*
D12*
X161437500Y-120500000D03*
X159562500Y-120500000D03*
D27*
X158250000Y-130500000D03*
X161750000Y-130500000D03*
X158250000Y-133000000D03*
X161750000Y-133000000D03*
X153250000Y-130500000D03*
X149750000Y-130500000D03*
D12*
X161437500Y-123000000D03*
X159562500Y-123000000D03*
D11*
X150062500Y-120500000D03*
X151937500Y-120500000D03*
D29*
X140220000Y-127300000D03*
X141360000Y-127300000D03*
D30*
X142500000Y-121000000D03*
D29*
X143640000Y-127300000D03*
X144780000Y-127300000D03*
D11*
X154812500Y-125500000D03*
X156687500Y-125500000D03*
D12*
X151937500Y-118000000D03*
X150062500Y-118000000D03*
D11*
X159562500Y-118000000D03*
X161437500Y-118000000D03*
D31*
X154800000Y-122000000D03*
X156700000Y-122000000D03*
X155750000Y-120000000D03*
D12*
X161437500Y-128000000D03*
X159562500Y-128000000D03*
D32*
X131000000Y-126500000D03*
X125500000Y-134500000D03*
X108000000Y-134500000D03*
X108000000Y-132500000D03*
X125500000Y-132500000D03*
X98500000Y-132500000D03*
X97000000Y-132500000D03*
X97000000Y-134500000D03*
X87500000Y-132500000D03*
X87500000Y-134500000D03*
X78000000Y-132500000D03*
X78000000Y-134500000D03*
X68500000Y-132500000D03*
X68500000Y-134500000D03*
X165000000Y-132500000D03*
X165000000Y-134500000D03*
X98500000Y-134500000D03*
X146500000Y-132500000D03*
X146500000Y-134500000D03*
X158950000Y-112000000D03*
X158950000Y-114000000D03*
X97500000Y-94500000D03*
X99500000Y-94500000D03*
X199500000Y-126500000D03*
X192000000Y-132500000D03*
X192000000Y-134500000D03*
X174500000Y-132500000D03*
X174500000Y-134500000D03*
X89000000Y-102000000D03*
X87500000Y-102000000D03*
X92500000Y-99000000D03*
D33*
X82500000Y-101500000D03*
X69250000Y-103250000D03*
X71000000Y-87000000D03*
X203500000Y-87500000D03*
X67500000Y-100500000D03*
X156700000Y-123200000D03*
X149000000Y-118000000D03*
X123500000Y-87500000D03*
X162500000Y-128000000D03*
X178000000Y-87500000D03*
X73000000Y-100000000D03*
X73000000Y-92000000D03*
D32*
X197500000Y-126500000D03*
D33*
X60000000Y-95000000D03*
X140500000Y-87500000D03*
X186500000Y-87500000D03*
D32*
X133000000Y-126500000D03*
D33*
X169500000Y-87500000D03*
X195000000Y-87500000D03*
X115000000Y-87500000D03*
X132000000Y-87500000D03*
X62500000Y-100500000D03*
X78000000Y-100000000D03*
X74250000Y-103250000D03*
X85000000Y-95000000D03*
X65000000Y-95000000D03*
X65000000Y-92500000D03*
X106500000Y-87500000D03*
X93000000Y-96000000D03*
X93000000Y-97000000D03*
X63000000Y-104000000D03*
X94500000Y-95500000D03*
X82500000Y-99000000D03*
X82500000Y-96500000D03*
X65000000Y-88500000D03*
X68000000Y-104000000D03*
D32*
X125000000Y-123000000D03*
X125000000Y-121000000D03*
X125000000Y-119000000D03*
X115500000Y-121000000D03*
X115500000Y-123000000D03*
X108500000Y-123000000D03*
X108500000Y-121000000D03*
X108500000Y-119000000D03*
X106000000Y-119000000D03*
X106000000Y-121000000D03*
X106000000Y-123000000D03*
X99000000Y-123000000D03*
X99000000Y-121000000D03*
X99000000Y-119000000D03*
X96500000Y-119000000D03*
X96500000Y-121000000D03*
X96500000Y-123000000D03*
X89500000Y-119000000D03*
X89500000Y-121000000D03*
X89500000Y-123000000D03*
X115500000Y-119000000D03*
X118000000Y-119000000D03*
X118000000Y-123000000D03*
D33*
X129000000Y-92000000D03*
D32*
X118000000Y-121000000D03*
X70500000Y-119000000D03*
X70500000Y-123000000D03*
X77500000Y-123000000D03*
X77500000Y-121000000D03*
X77500000Y-119000000D03*
X61000000Y-119000000D03*
X61000000Y-123000000D03*
X68000000Y-123000000D03*
X68000000Y-121000000D03*
X68000000Y-119000000D03*
D33*
X120500000Y-92000000D03*
D32*
X70500000Y-121000000D03*
X61000000Y-121000000D03*
X146000000Y-121000000D03*
X146000000Y-123000000D03*
X139000000Y-123000000D03*
X135000000Y-128500000D03*
X139000000Y-121000000D03*
X135000000Y-124500000D03*
X139000000Y-119000000D03*
X136500000Y-126500000D03*
X136500000Y-128500000D03*
X146000000Y-119000000D03*
D33*
X146000000Y-92000000D03*
D32*
X136500000Y-124500000D03*
X135000000Y-126500000D03*
X172500000Y-123000000D03*
X172500000Y-121000000D03*
X172500000Y-119000000D03*
X165500000Y-123000000D03*
X165500000Y-121000000D03*
X165500000Y-119000000D03*
D33*
X164000000Y-92000000D03*
D32*
X150950000Y-114000000D03*
X150950000Y-112000000D03*
X182000000Y-123000000D03*
D33*
X172500000Y-92000000D03*
D32*
X175000000Y-119000000D03*
X182000000Y-121000000D03*
X175000000Y-121000000D03*
X182000000Y-119000000D03*
X175000000Y-123000000D03*
X184500000Y-119000000D03*
X184500000Y-121000000D03*
X184500000Y-123000000D03*
X191500000Y-119000000D03*
X191500000Y-121000000D03*
X191500000Y-123000000D03*
D33*
X181000000Y-92000000D03*
D32*
X80000000Y-119000000D03*
X87000000Y-119000000D03*
X87000000Y-121000000D03*
X87000000Y-123000000D03*
X80000000Y-123000000D03*
D33*
X112000000Y-92000000D03*
D32*
X80000000Y-121000000D03*
X106000000Y-128500000D03*
X99000000Y-126500000D03*
X99000000Y-128500000D03*
X109500000Y-140500000D03*
X106000000Y-126500000D03*
X182000000Y-126500000D03*
X175000000Y-126500000D03*
X175000000Y-128500000D03*
X182000000Y-128500000D03*
X146000000Y-126500000D03*
X139000000Y-126500000D03*
X146000000Y-128500000D03*
X139000000Y-128500000D03*
X68000000Y-126500000D03*
X68000000Y-128500000D03*
X61000000Y-126500000D03*
X61000000Y-128500000D03*
X89500000Y-128500000D03*
X96500000Y-126500000D03*
X89500000Y-126500000D03*
X96500000Y-128500000D03*
X165500000Y-128500000D03*
X172500000Y-128500000D03*
X165500000Y-126500000D03*
X172500000Y-126500000D03*
X115500000Y-128500000D03*
X108500000Y-126500000D03*
X108500000Y-128500000D03*
X114000000Y-136500000D03*
X115500000Y-126500000D03*
X184500000Y-126500000D03*
X184500000Y-128500000D03*
X191500000Y-126500000D03*
X191500000Y-128500000D03*
X80000000Y-128500000D03*
X87000000Y-126500000D03*
X87000000Y-128500000D03*
X80000000Y-126500000D03*
X118000000Y-128500000D03*
X118000000Y-126500000D03*
X125000000Y-128500000D03*
X125000000Y-126500000D03*
X117000000Y-138500000D03*
X121000000Y-138500000D03*
X119000000Y-138500000D03*
X70500000Y-128500000D03*
X77500000Y-128500000D03*
X77500000Y-126500000D03*
X70500000Y-126500000D03*
D33*
X60000010Y-106000000D03*
X64500000Y-106000000D03*
X74500000Y-94500000D03*
D32*
X195500000Y-124500000D03*
X195500000Y-126500000D03*
X194000000Y-126500000D03*
D33*
X189500000Y-92000000D03*
D32*
X194000000Y-128500000D03*
X194000000Y-124500000D03*
X195500000Y-128500000D03*
D33*
X159500000Y-132500000D03*
X154000000Y-128500000D03*
X156750000Y-132500000D03*
X158500000Y-123000000D03*
X153000000Y-120500000D03*
X56500000Y-128500000D03*
X54000000Y-128500000D03*
X153000000Y-123000000D03*
X158500000Y-120500000D03*
D32*
X129000000Y-126500000D03*
D33*
X137500000Y-92000000D03*
D32*
X127500000Y-128500000D03*
X127500000Y-126500000D03*
X129000000Y-124500000D03*
X132000000Y-118500000D03*
X129000000Y-128500000D03*
X127500000Y-124500000D03*
X198500000Y-118500000D03*
X201500000Y-124500000D03*
X203000000Y-126500000D03*
X201500000Y-128500000D03*
D33*
X198000000Y-92000000D03*
D32*
X203000000Y-128500000D03*
X201500000Y-126500000D03*
X203000000Y-124500000D03*
D33*
X77500000Y-106999988D03*
X102500000Y-127000000D03*
X112000000Y-127000000D03*
X73500000Y-106000000D03*
X162500000Y-123000000D03*
X178500000Y-127000000D03*
X142500000Y-127000000D03*
X149000000Y-120500000D03*
X64500000Y-127000000D03*
X56500000Y-124500000D03*
X149000000Y-125500000D03*
X93000000Y-127000000D03*
X169000000Y-127000000D03*
X162500000Y-125500000D03*
X188000000Y-127000000D03*
X162500000Y-120500000D03*
X83500000Y-127000000D03*
X54000000Y-124500000D03*
X149000000Y-123000000D03*
X121500000Y-127000000D03*
X74000000Y-127000000D03*
X149000000Y-128000000D03*
X156750000Y-127250000D03*
D34*
X97500000Y-95537500D02*
X98500000Y-96537500D01*
D35*
X94650000Y-99000000D02*
X97500000Y-99000000D01*
X94650000Y-99000000D02*
X93000000Y-99000000D01*
X97500000Y-99000000D02*
X98500000Y-98000000D01*
X98500000Y-98000000D02*
X98500000Y-96537500D01*
D34*
X99500000Y-95537500D02*
X98500000Y-96537500D01*
X102000000Y-97475000D02*
X101062500Y-96537500D01*
X101062500Y-96537500D02*
X98500000Y-96537500D01*
X102000000Y-98062500D02*
X102000000Y-97475000D01*
D35*
X93000000Y-99000000D02*
X88350000Y-99000000D01*
D34*
X157950000Y-114000000D02*
X156950000Y-113000000D01*
X89000000Y-99650000D02*
X88350000Y-99000000D01*
X166000000Y-132500000D02*
X167000000Y-133500000D01*
X197500000Y-126500000D02*
X197500000Y-125500000D01*
X97000000Y-132500000D02*
X96000000Y-132500000D01*
X199500000Y-127500000D02*
X198500000Y-128500000D01*
X131000000Y-127500000D02*
X132000000Y-128500000D01*
X133000000Y-125500000D02*
X132000000Y-124500000D01*
X77000000Y-132500000D02*
X76000000Y-133500000D01*
D36*
X141562500Y-87500000D02*
X140500000Y-87500000D01*
D34*
X78000000Y-134500000D02*
X77000000Y-134500000D01*
D36*
X69937500Y-87000000D02*
X71000000Y-87000000D01*
X83562500Y-101500000D02*
X82500000Y-101500000D01*
X65000000Y-91437500D02*
X65000000Y-92500000D01*
X85437500Y-95437500D02*
X85000000Y-95000000D01*
D34*
X191000000Y-132500000D02*
X190000000Y-133500000D01*
D36*
X60000000Y-96062500D02*
X60000000Y-95000000D01*
D34*
X96000000Y-132500000D02*
X95000000Y-133500000D01*
D36*
X73000000Y-93062500D02*
X73000000Y-92000000D01*
D34*
X108000000Y-134500000D02*
X109000000Y-134500000D01*
X78000000Y-132500000D02*
X77000000Y-132500000D01*
D36*
X74500000Y-103200000D02*
X75500000Y-103200000D01*
X73000000Y-98937500D02*
X73000000Y-100000000D01*
D34*
X165000000Y-134500000D02*
X166000000Y-134500000D01*
X124500000Y-134500000D02*
X123500000Y-133500000D01*
X174500000Y-132500000D02*
X175500000Y-132500000D01*
D36*
X150062500Y-118000000D02*
X149000000Y-118000000D01*
X156700000Y-122000000D02*
X156700000Y-123200000D01*
D34*
X108000000Y-132500000D02*
X109000000Y-132500000D01*
X96000000Y-134500000D02*
X95000000Y-133500000D01*
D36*
X124562500Y-87500000D02*
X123500000Y-87500000D01*
D34*
X145500000Y-132500000D02*
X144500000Y-133500000D01*
X131000000Y-126500000D02*
X131000000Y-125500000D01*
D36*
X176937500Y-87500000D02*
X178000000Y-87500000D01*
X168437500Y-87500000D02*
X169500000Y-87500000D01*
D34*
X89000000Y-102000000D02*
X89000000Y-99650000D01*
D36*
X185437500Y-87500000D02*
X186500000Y-87500000D01*
X193937500Y-87500000D02*
X195000000Y-87500000D01*
X69550000Y-103200000D02*
X70500000Y-103200000D01*
D34*
X158950000Y-112000000D02*
X157950000Y-112000000D01*
X192000000Y-134500000D02*
X191000000Y-134500000D01*
X192000000Y-132500000D02*
X191000000Y-132500000D01*
X99500000Y-132500000D02*
X100500000Y-133500000D01*
D36*
X78000000Y-98937500D02*
X78000000Y-100000000D01*
D34*
X165000000Y-132500000D02*
X166000000Y-132500000D01*
X133000000Y-127500000D02*
X132000000Y-128500000D01*
X87500000Y-99850000D02*
X88350000Y-99000000D01*
X166000000Y-134500000D02*
X167000000Y-133500000D01*
D36*
X74250000Y-103450000D02*
X74500000Y-103200000D01*
D34*
X99500000Y-94500000D02*
X99500000Y-95537500D01*
X131000000Y-126500000D02*
X131000000Y-127500000D01*
X157950000Y-112000000D02*
X156950000Y-113000000D01*
X125500000Y-134500000D02*
X124500000Y-134500000D01*
D36*
X69635000Y-87302500D02*
X69937500Y-87000000D01*
D34*
X199500000Y-126500000D02*
X199500000Y-127500000D01*
D36*
X156750000Y-123250000D02*
X156700000Y-123200000D01*
D34*
X175500000Y-132500000D02*
X176500000Y-133500000D01*
D36*
X202437500Y-87500000D02*
X203500000Y-87500000D01*
D34*
X199500000Y-125500000D02*
X198500000Y-124500000D01*
X197500000Y-127500000D02*
X198500000Y-128500000D01*
D36*
X116062500Y-87500000D02*
X115000000Y-87500000D01*
X69635000Y-89525000D02*
X69635000Y-87302500D01*
D34*
X124500000Y-132500000D02*
X123500000Y-133500000D01*
X68500000Y-132500000D02*
X67500000Y-132500000D01*
X97000000Y-134500000D02*
X96000000Y-134500000D01*
X109000000Y-132500000D02*
X110000000Y-133500000D01*
X145500000Y-134500000D02*
X144500000Y-133500000D01*
X199500000Y-126500000D02*
X199500000Y-125500000D01*
X146500000Y-134500000D02*
X145500000Y-134500000D01*
X98500000Y-134500000D02*
X99500000Y-134500000D01*
X125500000Y-132500000D02*
X124500000Y-132500000D01*
X97500000Y-94500000D02*
X97500000Y-95537500D01*
X197500000Y-125500000D02*
X198500000Y-124500000D01*
X131000000Y-125500000D02*
X132000000Y-124500000D01*
X86500000Y-134500000D02*
X85500000Y-133500000D01*
X191000000Y-134500000D02*
X190000000Y-133500000D01*
D36*
X107562500Y-87500000D02*
X106500000Y-87500000D01*
D34*
X87500000Y-132500000D02*
X86500000Y-132500000D01*
D36*
X65000000Y-96062500D02*
X65000000Y-95000000D01*
X62500000Y-101750000D02*
X62500000Y-100500000D01*
D34*
X67500000Y-134500000D02*
X66500000Y-133500000D01*
X146500000Y-132500000D02*
X145500000Y-132500000D01*
X175500000Y-134500000D02*
X176500000Y-133500000D01*
D36*
X133062500Y-87500000D02*
X132000000Y-87500000D01*
D34*
X99500000Y-134500000D02*
X100500000Y-133500000D01*
X158950000Y-114000000D02*
X157950000Y-114000000D01*
D36*
X161437500Y-128000000D02*
X162500000Y-128000000D01*
D34*
X133000000Y-126500000D02*
X133000000Y-127500000D01*
X68500000Y-134500000D02*
X67500000Y-134500000D01*
X87500000Y-102000000D02*
X87500000Y-99850000D01*
X98500000Y-132500000D02*
X99500000Y-132500000D01*
X174500000Y-134500000D02*
X175500000Y-134500000D01*
X77000000Y-134500000D02*
X76000000Y-133500000D01*
D36*
X67500000Y-101750000D02*
X67500000Y-100500000D01*
D34*
X133000000Y-126500000D02*
X133000000Y-125500000D01*
D36*
X69250000Y-103500000D02*
X69550000Y-103200000D01*
D34*
X87500000Y-134500000D02*
X86500000Y-134500000D01*
X109000000Y-134500000D02*
X110000000Y-133500000D01*
D36*
X85437500Y-96500000D02*
X85437500Y-95437500D01*
D34*
X86500000Y-132500000D02*
X85500000Y-133500000D01*
X67500000Y-132500000D02*
X66500000Y-133500000D01*
X197500000Y-126500000D02*
X197500000Y-127500000D01*
D36*
X68365000Y-89525000D02*
X68365000Y-87302500D01*
X68365000Y-87302500D02*
X68062500Y-87000000D01*
X60000000Y-97937500D02*
X60000000Y-100062500D01*
X62500000Y-98250000D02*
X62500000Y-95500000D01*
X64000000Y-94000000D02*
X66620000Y-94000000D01*
X60312500Y-98250000D02*
X60000000Y-97937500D01*
X66620000Y-94000000D02*
X67095000Y-94475000D01*
X62500000Y-95500000D02*
X64000000Y-94000000D01*
X62500000Y-98250000D02*
X60312500Y-98250000D01*
X65312500Y-98250000D02*
X65000000Y-97937500D01*
X65000000Y-100062500D02*
X65000000Y-97937500D01*
X68365000Y-97385000D02*
X67500000Y-98250000D01*
X67500000Y-98250000D02*
X65312500Y-98250000D01*
X68365000Y-94475000D02*
X68365000Y-97385000D01*
X94650000Y-95650000D02*
X94500000Y-95500000D01*
X67057500Y-89562500D02*
X67095000Y-89525000D01*
X61937500Y-104000000D02*
X63000000Y-104000000D01*
X93000000Y-96000000D02*
X93950000Y-96000000D01*
X83562500Y-96500000D02*
X82500000Y-96500000D01*
X93000000Y-97000000D02*
X94350000Y-97000000D01*
X93950000Y-96000000D02*
X94650000Y-96700000D01*
X65000000Y-89562500D02*
X65000000Y-88500000D01*
X94650000Y-96700000D02*
X94650000Y-95650000D01*
X83562500Y-99000000D02*
X82500000Y-99000000D01*
X66937500Y-104000000D02*
X68000000Y-104000000D01*
X94350000Y-97000000D02*
X94650000Y-96700000D01*
X65000000Y-89562500D02*
X67057500Y-89562500D01*
D34*
X102000000Y-99937500D02*
X102000000Y-102500000D01*
D36*
X129000000Y-90750000D02*
X129000000Y-92000000D01*
X157750000Y-121250000D02*
X157750000Y-124500000D01*
X159562500Y-125500000D02*
X160500000Y-126437500D01*
X158750000Y-125500000D02*
X159562500Y-125500000D01*
X156500000Y-120000000D02*
X158500000Y-118000000D01*
X158500000Y-118000000D02*
X159562500Y-118000000D01*
X160500000Y-126437500D02*
X160500000Y-129250000D01*
X156500000Y-120000000D02*
X155750000Y-120000000D01*
X157750000Y-124500000D02*
X158750000Y-125500000D01*
X161750000Y-130500000D02*
X161750000Y-133000000D01*
X156500000Y-120000000D02*
X157750000Y-121250000D01*
X160500000Y-129250000D02*
X161750000Y-130500000D01*
X120500000Y-90750000D02*
X120500000Y-92000000D01*
X153000000Y-126562500D02*
X153000000Y-128500000D01*
X151937500Y-125500000D02*
X153000000Y-126562500D01*
X151750000Y-129750000D02*
X151750000Y-131000000D01*
X151750000Y-131000000D02*
X149750000Y-133000000D01*
X153000000Y-128500000D02*
X151750000Y-129750000D01*
X146000000Y-90750000D02*
X146000000Y-92000000D01*
X151937500Y-128000000D02*
X151500000Y-128000000D01*
X151000000Y-128500000D02*
X151000000Y-129250000D01*
X151500000Y-128000000D02*
X151000000Y-128500000D01*
X151000000Y-129250000D02*
X149750000Y-130500000D01*
X164500000Y-118000000D02*
X165500000Y-119000000D01*
X161437500Y-118000000D02*
X164500000Y-118000000D01*
X164000000Y-90750000D02*
X164000000Y-92000000D01*
X117937500Y-87500000D02*
X120250000Y-87500000D01*
X117937500Y-90000000D02*
X117937500Y-87500000D01*
X120250000Y-87500000D02*
X120500000Y-87250000D01*
X145750000Y-87500000D02*
X146000000Y-87250000D01*
X143437500Y-87500000D02*
X145750000Y-87500000D01*
X143437500Y-87500000D02*
X143437500Y-90000000D01*
X166562500Y-87500000D02*
X166562500Y-90000000D01*
X166562500Y-87500000D02*
X164250000Y-87500000D01*
X164250000Y-87500000D02*
X164000000Y-87250000D01*
X193937500Y-95507500D02*
X194700000Y-96270000D01*
X202437500Y-95507500D02*
X203200000Y-96270000D01*
X133062500Y-95507500D02*
X132300000Y-96270000D01*
X185437500Y-95507500D02*
X186200000Y-96270000D01*
X141562500Y-95507500D02*
X140800000Y-96270000D01*
X124562500Y-95507500D02*
X123800000Y-96270000D01*
X116062500Y-95507500D02*
X115300000Y-96270000D01*
X202437500Y-90000000D02*
X202437500Y-95507500D01*
X168437500Y-95507500D02*
X169200000Y-96270000D01*
X124562500Y-90000000D02*
X124562500Y-95507500D01*
X176937500Y-95507500D02*
X177700000Y-96270000D01*
X185437500Y-90000000D02*
X185437500Y-95507500D01*
X193937500Y-90000000D02*
X193937500Y-95507500D01*
X116062500Y-90000000D02*
X116062500Y-95507500D01*
X133062500Y-90000000D02*
X133062500Y-95507500D01*
X107562500Y-95507500D02*
X106800000Y-96270000D01*
X107562500Y-90000000D02*
X107562500Y-95507500D01*
X141562500Y-90000000D02*
X141562500Y-95507500D01*
X176937500Y-90000000D02*
X176937500Y-95507500D01*
X168437500Y-90000000D02*
X168437500Y-95507500D01*
X126437500Y-87500000D02*
X128750000Y-87500000D01*
X126437500Y-87500000D02*
X126437500Y-90000000D01*
X128750000Y-87500000D02*
X129000000Y-87250000D01*
X172500000Y-90750000D02*
X172500000Y-92000000D01*
X85437500Y-99000000D02*
X85437500Y-101500000D01*
X181000000Y-90750000D02*
X181000000Y-92000000D01*
X189750000Y-87500000D02*
X189500000Y-87250000D01*
X192062500Y-87500000D02*
X189750000Y-87500000D01*
X192062500Y-87500000D02*
X192062500Y-90000000D01*
X112000000Y-90750000D02*
X112000000Y-92000000D01*
X175062500Y-87500000D02*
X175062500Y-90000000D01*
X175062500Y-87500000D02*
X172750000Y-87500000D01*
X172750000Y-87500000D02*
X172500000Y-87250000D01*
X181250000Y-87500000D02*
X181000000Y-87250000D01*
X183562500Y-87500000D02*
X181250000Y-87500000D01*
X183562500Y-87500000D02*
X183562500Y-90000000D01*
X109437500Y-87500000D02*
X111750000Y-87500000D01*
X111750000Y-87500000D02*
X112000000Y-87250000D01*
X109437500Y-87500000D02*
X109437500Y-90000000D01*
D34*
X109100001Y-144639999D02*
X110250000Y-143490000D01*
X108500000Y-145240000D02*
X109100001Y-144639999D01*
X65750000Y-146990000D02*
X67760000Y-149000000D01*
X108500000Y-147830000D02*
X108500000Y-145240000D01*
X67760000Y-149000000D02*
X107330000Y-149000000D01*
X107330000Y-149000000D02*
X108500000Y-147830000D01*
D36*
X60000000Y-101937500D02*
X60000000Y-103937500D01*
X60000000Y-103937500D02*
X60062500Y-104000000D01*
X60062500Y-105937510D02*
X60000010Y-106000000D01*
X60062500Y-104000000D02*
X60062500Y-105937510D01*
X65000000Y-103937500D02*
X65062500Y-104000000D01*
X65062500Y-105437500D02*
X64500000Y-106000000D01*
X65000000Y-101937500D02*
X65000000Y-103937500D01*
X65062500Y-104000000D02*
X65062500Y-105437500D01*
X75500000Y-97062500D02*
X78000000Y-97062500D01*
X70905000Y-89525000D02*
X72500000Y-89500000D01*
X75500000Y-97062500D02*
X75500000Y-92500000D01*
X75500000Y-92500000D02*
X72500000Y-89500000D01*
X73000000Y-94937500D02*
X74062500Y-94937500D01*
X74062500Y-94937500D02*
X74500000Y-94500000D01*
X72537500Y-94475000D02*
X73000000Y-94937500D01*
X70905000Y-94475000D02*
X72537500Y-94475000D01*
X69635000Y-94475000D02*
X69635000Y-96197500D01*
X70500000Y-97062500D02*
X73000000Y-97062500D01*
X69635000Y-96197500D02*
X70500000Y-97062500D01*
X189500000Y-90750000D02*
X189500000Y-92000000D01*
X158250000Y-133000000D02*
X159000000Y-133000000D01*
X159000000Y-133000000D02*
X159500000Y-132500000D01*
X156000000Y-130500000D02*
X158250000Y-130500000D01*
X154000000Y-128500000D02*
X156000000Y-130500000D01*
X142500000Y-148500000D02*
X149500000Y-148500000D01*
X138250000Y-143490000D02*
X138250000Y-144250000D01*
X138250000Y-144250000D02*
X142500000Y-148500000D01*
X186000000Y-148500000D02*
X201000000Y-148500000D01*
X149500000Y-148500000D02*
X149509999Y-148490001D01*
X201500000Y-145240000D02*
X203250000Y-143490000D01*
X185990001Y-148490001D02*
X186000000Y-148500000D01*
X201500000Y-148000000D02*
X201500000Y-145240000D01*
X201000000Y-148500000D02*
X201500000Y-148000000D01*
X149509999Y-148490001D02*
X185990001Y-148490001D01*
X156250000Y-133000000D02*
X156750000Y-132500000D01*
X153250000Y-130500000D02*
X153250000Y-133000000D01*
X153250000Y-133000000D02*
X156250000Y-133000000D01*
X159562500Y-123000000D02*
X158500000Y-123000000D01*
X138250000Y-146990000D02*
X140240000Y-146990000D01*
X142250000Y-149000000D02*
X201240000Y-149000000D01*
X201240000Y-149000000D02*
X203250000Y-146990000D01*
X140240000Y-146990000D02*
X142250000Y-149000000D01*
X151937500Y-120500000D02*
X153000000Y-120500000D01*
X56500000Y-127437500D02*
X56500000Y-128500000D01*
X54000000Y-127437500D02*
X54000000Y-128500000D01*
X151937500Y-123000000D02*
X153000000Y-123000000D01*
X159562500Y-120500000D02*
X158500000Y-120500000D01*
X137500000Y-90750000D02*
X137500000Y-92000000D01*
X134937500Y-87500000D02*
X134937500Y-90000000D01*
X137250000Y-87500000D02*
X137500000Y-87250000D01*
X134937500Y-87500000D02*
X137250000Y-87500000D01*
X198000000Y-90750000D02*
X198000000Y-92000000D01*
X198250000Y-87500000D02*
X198000000Y-87250000D01*
X200562500Y-87500000D02*
X200562500Y-90000000D01*
X200562500Y-87500000D02*
X198250000Y-87500000D01*
X154000000Y-120500000D02*
X154800000Y-121300000D01*
X154800000Y-121300000D02*
X154800000Y-122000000D01*
X154800000Y-125487500D02*
X154812500Y-125500000D01*
X154800000Y-122000000D02*
X154800000Y-125487500D01*
X151937500Y-118000000D02*
X153000000Y-118000000D01*
X153000000Y-118000000D02*
X154000000Y-119000000D01*
X154000000Y-119000000D02*
X154000000Y-120500000D01*
X75500000Y-98937500D02*
X75500000Y-101300000D01*
X102200000Y-127300000D02*
X102500000Y-127000000D01*
X77500000Y-102250000D02*
X77500000Y-106999988D01*
X101360000Y-127300000D02*
X102200000Y-127300000D01*
X70500000Y-98937500D02*
X70500000Y-101300000D01*
X72500000Y-102950000D02*
X72500000Y-105000000D01*
X110860000Y-127300000D02*
X111700000Y-127300000D01*
X111700000Y-127300000D02*
X112000000Y-127000000D01*
X72500000Y-102250000D02*
X72500000Y-102950000D01*
X72500000Y-105000000D02*
X73500000Y-106000000D01*
X178200000Y-127300000D02*
X178500000Y-127000000D01*
X177360000Y-127300000D02*
X178200000Y-127300000D01*
X161437500Y-123000000D02*
X162500000Y-123000000D01*
X141360000Y-127300000D02*
X142200000Y-127300000D01*
X150062500Y-120500000D02*
X149000000Y-120500000D01*
X142200000Y-127300000D02*
X142500000Y-127000000D01*
X56500000Y-125562500D02*
X56500000Y-124500000D01*
X64200000Y-127300000D02*
X64500000Y-127000000D01*
X63360000Y-127300000D02*
X64200000Y-127300000D01*
X150062500Y-125500000D02*
X149000000Y-125500000D01*
X91860000Y-127300000D02*
X92700000Y-127300000D01*
X92700000Y-127300000D02*
X93000000Y-127000000D01*
X168700000Y-127300000D02*
X169000000Y-127000000D01*
X167860000Y-127300000D02*
X168700000Y-127300000D01*
X161437500Y-125500000D02*
X162500000Y-125500000D01*
X186860000Y-127300000D02*
X187700000Y-127300000D01*
X161437500Y-120500000D02*
X162500000Y-120500000D01*
X187700000Y-127300000D02*
X188000000Y-127000000D01*
X82360000Y-127300000D02*
X83200000Y-127300000D01*
X83200000Y-127300000D02*
X83500000Y-127000000D01*
X54000000Y-125562500D02*
X54000000Y-124500000D01*
X150062500Y-123000000D02*
X149000000Y-123000000D01*
X121200000Y-127300000D02*
X121500000Y-127000000D01*
X120360000Y-127300000D02*
X121200000Y-127300000D01*
X150062500Y-128000000D02*
X149000000Y-128000000D01*
X72860000Y-127300000D02*
X73700000Y-127300000D01*
X73700000Y-127300000D02*
X74000000Y-127000000D01*
X158000000Y-128000000D02*
X157500000Y-128000000D01*
X157500000Y-128000000D02*
X156750000Y-127250000D01*
X156687500Y-125500000D02*
X156687500Y-127187500D01*
X156687500Y-127187500D02*
X156750000Y-127250000D01*
X158000000Y-128000000D02*
X159062500Y-128000000D01*
G04 #@! TA.AperFunction,Conductor*
G36*
X111515931Y-108020002D02*
G01*
X111536905Y-108036905D01*
X112463095Y-108963095D01*
X112497121Y-109025407D01*
X112500000Y-109052190D01*
X112500000Y-110947810D01*
X112479998Y-111015931D01*
X112463095Y-111036905D01*
X111536905Y-111963095D01*
X111474593Y-111997121D01*
X111447810Y-112000000D01*
X92999998Y-112000000D01*
X88000000Y-116999998D01*
X88000000Y-117000000D01*
X88000000Y-118000000D01*
X83500000Y-118000000D01*
X83500000Y-116027916D01*
X83500001Y-116027916D01*
X83510089Y-116017827D01*
X83520002Y-115984069D01*
X83536905Y-115963095D01*
X91463095Y-108036905D01*
X91525407Y-108002879D01*
X91552190Y-108000000D01*
X111447810Y-108000000D01*
X111515931Y-108020002D01*
G37*
G04 #@! TD.AperFunction*
G04 #@! TA.AperFunction,Conductor*
G36*
X62942121Y-125020002D02*
G01*
X62988614Y-125073658D01*
X63000000Y-125126000D01*
X63000000Y-125777427D01*
X62979998Y-125845548D01*
X62926342Y-125892041D01*
X62899074Y-125899644D01*
X62899152Y-125899928D01*
X62890005Y-125902416D01*
X62787234Y-125947793D01*
X62707795Y-126027232D01*
X62707794Y-126027234D01*
X62662414Y-126130009D01*
X62659500Y-126155129D01*
X62659500Y-128444859D01*
X62659501Y-128444866D01*
X62662414Y-128469990D01*
X62662416Y-128469994D01*
X62707793Y-128572765D01*
X62787232Y-128652204D01*
X62787234Y-128652205D01*
X62787235Y-128652206D01*
X62890009Y-128697585D01*
X62915135Y-128700500D01*
X63804864Y-128700499D01*
X63829991Y-128697585D01*
X63932765Y-128652206D01*
X64012206Y-128572765D01*
X64012207Y-128572762D01*
X64018805Y-128563132D01*
X64020377Y-128564209D01*
X64056980Y-128520872D01*
X64124843Y-128500010D01*
X64126436Y-128500000D01*
X64873564Y-128500000D01*
X64941685Y-128520002D01*
X64979853Y-128564050D01*
X64981195Y-128563132D01*
X64987795Y-128572767D01*
X65067232Y-128652204D01*
X65067234Y-128652205D01*
X65067235Y-128652206D01*
X65170009Y-128697585D01*
X65195135Y-128700500D01*
X66084864Y-128700499D01*
X66109991Y-128697585D01*
X66212765Y-128652206D01*
X66292206Y-128572765D01*
X66337585Y-128469991D01*
X66340500Y-128444865D01*
X66340499Y-126155136D01*
X66337585Y-126130009D01*
X66313928Y-126076430D01*
X66292206Y-126027234D01*
X66212767Y-125947795D01*
X66212765Y-125947794D01*
X66109989Y-125902414D01*
X66100847Y-125899927D01*
X66101297Y-125898271D01*
X66046112Y-125874864D01*
X66006116Y-125816205D01*
X66000000Y-125777427D01*
X66000000Y-125126000D01*
X66020002Y-125057879D01*
X66073658Y-125011386D01*
X66126000Y-125000000D01*
X68874000Y-125000000D01*
X68942121Y-125020002D01*
X68988614Y-125073658D01*
X69000000Y-125126000D01*
X69000000Y-129447810D01*
X68979998Y-129515931D01*
X68963095Y-129536905D01*
X68036905Y-130463095D01*
X67974593Y-130497121D01*
X67947810Y-130500000D01*
X61000000Y-130500000D01*
X60000000Y-129500000D01*
X60000000Y-125126000D01*
X60020002Y-125057879D01*
X60073658Y-125011386D01*
X60126000Y-125000000D01*
X62874000Y-125000000D01*
X62942121Y-125020002D01*
G37*
G04 #@! TD.AperFunction*
G04 #@! TA.AperFunction,Conductor*
G36*
X69000000Y-116500000D02*
G01*
X69000000Y-124374000D01*
X68979998Y-124442121D01*
X68926342Y-124488614D01*
X68874000Y-124500000D01*
X60126000Y-124500000D01*
X60057879Y-124479998D01*
X60011386Y-124426342D01*
X60000000Y-124374000D01*
X60000000Y-117552885D01*
X60020002Y-117484764D01*
X60037745Y-117462957D01*
X61018964Y-116500000D01*
X61463244Y-116063988D01*
X61510463Y-116038776D01*
X61509461Y-116036141D01*
X61531093Y-116027916D01*
X67500000Y-116027916D01*
X69000000Y-116000000D01*
X69000000Y-116500000D01*
G37*
G04 #@! TD.AperFunction*
G04 #@! TA.AperFunction,Conductor*
G36*
X78500000Y-116999998D02*
G01*
X78500000Y-124374000D01*
X78479998Y-124442121D01*
X78426342Y-124488614D01*
X78374000Y-124500000D01*
X69626000Y-124500000D01*
X69557879Y-124479998D01*
X69511386Y-124426342D01*
X69500000Y-124374000D01*
X69500000Y-116500000D01*
X69500000Y-116000000D01*
X71000000Y-116027916D01*
X77000000Y-116027916D01*
X78500000Y-116000000D01*
X78500000Y-116999998D01*
G37*
G04 #@! TD.AperFunction*
G04 #@! TA.AperFunction,Conductor*
G36*
X72442121Y-125020002D02*
G01*
X72488614Y-125073658D01*
X72500000Y-125126000D01*
X72500000Y-125777427D01*
X72479998Y-125845548D01*
X72426342Y-125892041D01*
X72399074Y-125899644D01*
X72399152Y-125899928D01*
X72390005Y-125902416D01*
X72287234Y-125947793D01*
X72207795Y-126027232D01*
X72207794Y-126027234D01*
X72162414Y-126130009D01*
X72159500Y-126155129D01*
X72159500Y-128444859D01*
X72159501Y-128444866D01*
X72162414Y-128469990D01*
X72162416Y-128469994D01*
X72207793Y-128572765D01*
X72287232Y-128652204D01*
X72287234Y-128652205D01*
X72287235Y-128652206D01*
X72390009Y-128697585D01*
X72415135Y-128700500D01*
X73304864Y-128700499D01*
X73329991Y-128697585D01*
X73432765Y-128652206D01*
X73512206Y-128572765D01*
X73512207Y-128572762D01*
X73518805Y-128563132D01*
X73520377Y-128564209D01*
X73556980Y-128520872D01*
X73624843Y-128500010D01*
X73626436Y-128500000D01*
X74373564Y-128500000D01*
X74441685Y-128520002D01*
X74479853Y-128564050D01*
X74481195Y-128563132D01*
X74487795Y-128572767D01*
X74567232Y-128652204D01*
X74567234Y-128652205D01*
X74567235Y-128652206D01*
X74670009Y-128697585D01*
X74695135Y-128700500D01*
X75584864Y-128700499D01*
X75609991Y-128697585D01*
X75712765Y-128652206D01*
X75792206Y-128572765D01*
X75837585Y-128469991D01*
X75840500Y-128444865D01*
X75840499Y-126155136D01*
X75837585Y-126130009D01*
X75813928Y-126076430D01*
X75792206Y-126027234D01*
X75712767Y-125947795D01*
X75712765Y-125947794D01*
X75609989Y-125902414D01*
X75600847Y-125899927D01*
X75601297Y-125898271D01*
X75546112Y-125874864D01*
X75506116Y-125816205D01*
X75500000Y-125777427D01*
X75500000Y-125126000D01*
X75520002Y-125057879D01*
X75573658Y-125011386D01*
X75626000Y-125000000D01*
X78374000Y-125000000D01*
X78442121Y-125020002D01*
X78488614Y-125073658D01*
X78500000Y-125126000D01*
X78500000Y-129447810D01*
X78479998Y-129515931D01*
X78463095Y-129536905D01*
X77536905Y-130463095D01*
X77474593Y-130497121D01*
X77447810Y-130500000D01*
X70500000Y-130500000D01*
X69500000Y-129500000D01*
X69500000Y-125126000D01*
X69520002Y-125057879D01*
X69573658Y-125011386D01*
X69626000Y-125000000D01*
X72374000Y-125000000D01*
X72442121Y-125020002D01*
G37*
G04 #@! TD.AperFunction*
G04 #@! TA.AperFunction,Conductor*
G36*
X88000000Y-117527916D02*
G01*
X88000000Y-124374000D01*
X87979998Y-124442121D01*
X87926342Y-124488614D01*
X87874000Y-124500000D01*
X79126000Y-124500000D01*
X79057879Y-124479998D01*
X79011386Y-124426342D01*
X79000000Y-124374000D01*
X79000000Y-117580106D01*
X79020002Y-117511985D01*
X79036905Y-117491011D01*
X80463095Y-116064821D01*
X80525407Y-116030795D01*
X80552190Y-116027916D01*
X83500001Y-116027916D01*
X86500000Y-116027916D01*
X88000000Y-117527916D01*
G37*
G04 #@! TD.AperFunction*
G04 #@! TA.AperFunction,Conductor*
G36*
X81942121Y-125020002D02*
G01*
X81988614Y-125073658D01*
X82000000Y-125126000D01*
X82000000Y-125777427D01*
X81979998Y-125845548D01*
X81926342Y-125892041D01*
X81899074Y-125899644D01*
X81899152Y-125899928D01*
X81890005Y-125902416D01*
X81787234Y-125947793D01*
X81707795Y-126027232D01*
X81707794Y-126027234D01*
X81662414Y-126130009D01*
X81659500Y-126155129D01*
X81659500Y-128444859D01*
X81659501Y-128444866D01*
X81662414Y-128469990D01*
X81662416Y-128469994D01*
X81707793Y-128572765D01*
X81787232Y-128652204D01*
X81787234Y-128652205D01*
X81787235Y-128652206D01*
X81890009Y-128697585D01*
X81915135Y-128700500D01*
X82804864Y-128700499D01*
X82829991Y-128697585D01*
X82932765Y-128652206D01*
X83012206Y-128572765D01*
X83012207Y-128572762D01*
X83018805Y-128563132D01*
X83020377Y-128564209D01*
X83056980Y-128520872D01*
X83124843Y-128500010D01*
X83126436Y-128500000D01*
X83873564Y-128500000D01*
X83941685Y-128520002D01*
X83979853Y-128564050D01*
X83981195Y-128563132D01*
X83987795Y-128572767D01*
X84067232Y-128652204D01*
X84067234Y-128652205D01*
X84067235Y-128652206D01*
X84170009Y-128697585D01*
X84195135Y-128700500D01*
X85084864Y-128700499D01*
X85109991Y-128697585D01*
X85212765Y-128652206D01*
X85292206Y-128572765D01*
X85337585Y-128469991D01*
X85340500Y-128444865D01*
X85340499Y-126155136D01*
X85337585Y-126130009D01*
X85313928Y-126076430D01*
X85292206Y-126027234D01*
X85212767Y-125947795D01*
X85212765Y-125947794D01*
X85109989Y-125902414D01*
X85100847Y-125899927D01*
X85101297Y-125898271D01*
X85046112Y-125874864D01*
X85006116Y-125816205D01*
X85000000Y-125777427D01*
X85000000Y-125126000D01*
X85020002Y-125057879D01*
X85073658Y-125011386D01*
X85126000Y-125000000D01*
X87874000Y-125000000D01*
X87942121Y-125020002D01*
X87988614Y-125073658D01*
X88000000Y-125126000D01*
X88000000Y-129447810D01*
X87979998Y-129515931D01*
X87963095Y-129536905D01*
X87036905Y-130463095D01*
X86974593Y-130497121D01*
X86947810Y-130500000D01*
X80000000Y-130500000D01*
X79000000Y-129500000D01*
X79000000Y-125126000D01*
X79020002Y-125057879D01*
X79073658Y-125011386D01*
X79126000Y-125000000D01*
X81874000Y-125000000D01*
X81942121Y-125020002D01*
G37*
G04 #@! TD.AperFunction*
G04 #@! TA.AperFunction,Conductor*
G36*
X117515931Y-103520002D02*
G01*
X117536905Y-103536905D01*
X120963095Y-106963095D01*
X120997121Y-107025407D01*
X121000000Y-107052190D01*
X121000000Y-110947810D01*
X120979998Y-111015931D01*
X120963095Y-111036905D01*
X120036905Y-111963095D01*
X119974593Y-111997121D01*
X119947810Y-112000000D01*
X114052190Y-112000000D01*
X113984069Y-111979998D01*
X113963095Y-111963095D01*
X113036905Y-111036905D01*
X113002879Y-110974593D01*
X113000000Y-110947810D01*
X113000000Y-108500000D01*
X112999999Y-108499998D01*
X112000001Y-107500000D01*
X112000000Y-107500000D01*
X91000000Y-107500000D01*
X90999998Y-107500000D01*
X83036905Y-115463095D01*
X82974593Y-115497121D01*
X82947810Y-115500000D01*
X79999998Y-115500000D01*
X79178857Y-116321143D01*
X79000000Y-116500000D01*
X78500000Y-117000000D01*
X78000000Y-117000000D01*
X78000000Y-116500000D01*
X69500000Y-116500000D01*
X69000000Y-116500000D01*
X61018964Y-116500000D01*
X61061172Y-116458577D01*
X61072481Y-116436250D01*
X61080574Y-116428378D01*
X65464196Y-112531826D01*
X65528399Y-112501519D01*
X65547906Y-112500000D01*
X77500000Y-112500000D01*
X78463095Y-111536905D01*
X78525407Y-111502880D01*
X78552190Y-111500000D01*
X81500000Y-111500000D01*
X89463095Y-103536905D01*
X89525407Y-103502879D01*
X89552190Y-103500000D01*
X117447810Y-103500000D01*
X117515931Y-103520002D01*
G37*
G04 #@! TD.AperFunction*
G04 #@! TA.AperFunction,Conductor*
G36*
X128515931Y-107020002D02*
G01*
X128536905Y-107036905D01*
X129463095Y-107963095D01*
X129497121Y-108025407D01*
X129500000Y-108052190D01*
X129500000Y-112947809D01*
X129479998Y-113015930D01*
X129463095Y-113036904D01*
X126000000Y-116499998D01*
X126000000Y-124374000D01*
X125979998Y-124442121D01*
X125926342Y-124488614D01*
X125874000Y-124500000D01*
X117126000Y-124500000D01*
X117057879Y-124479998D01*
X117011386Y-124426342D01*
X117000000Y-124374000D01*
X117000000Y-116500000D01*
X116500000Y-116500000D01*
X116500000Y-124374000D01*
X116479998Y-124442121D01*
X116426342Y-124488614D01*
X116374000Y-124500000D01*
X107626000Y-124500000D01*
X107557879Y-124479998D01*
X107511386Y-124426342D01*
X107500000Y-124374000D01*
X107500000Y-116500000D01*
X107000000Y-116500000D01*
X107000000Y-124374000D01*
X106979998Y-124442121D01*
X106926342Y-124488614D01*
X106874000Y-124500000D01*
X98126000Y-124500000D01*
X98057879Y-124479998D01*
X98011386Y-124426342D01*
X98000000Y-124374000D01*
X98000000Y-116500000D01*
X97500000Y-116500000D01*
X97500000Y-124374000D01*
X97479998Y-124442121D01*
X97426342Y-124488614D01*
X97374000Y-124500000D01*
X88626000Y-124500000D01*
X88557879Y-124479998D01*
X88511386Y-124426342D01*
X88500000Y-124374000D01*
X88500000Y-117552885D01*
X88520002Y-117484764D01*
X88537745Y-117462957D01*
X89518964Y-116500000D01*
X89518963Y-116500000D01*
X89550006Y-116469535D01*
X89569968Y-116430116D01*
X89572658Y-116427341D01*
X93463095Y-112536905D01*
X93525407Y-112502879D01*
X93552190Y-112500000D01*
X120500000Y-112500000D01*
X121500000Y-111500000D01*
X121500000Y-107000000D01*
X123500000Y-107000000D01*
X128447810Y-107000000D01*
X128515931Y-107020002D01*
G37*
G04 #@! TD.AperFunction*
G04 #@! TA.AperFunction,Conductor*
G36*
X100942121Y-125020002D02*
G01*
X100988614Y-125073658D01*
X101000000Y-125126000D01*
X101000000Y-125777427D01*
X100979998Y-125845548D01*
X100926342Y-125892041D01*
X100899074Y-125899644D01*
X100899152Y-125899928D01*
X100890005Y-125902416D01*
X100787234Y-125947793D01*
X100707795Y-126027232D01*
X100707794Y-126027234D01*
X100662414Y-126130009D01*
X100659500Y-126155129D01*
X100659500Y-128444859D01*
X100659501Y-128444866D01*
X100662414Y-128469990D01*
X100662416Y-128469994D01*
X100707793Y-128572765D01*
X100787232Y-128652204D01*
X100787234Y-128652205D01*
X100787235Y-128652206D01*
X100890009Y-128697585D01*
X100915135Y-128700500D01*
X101804864Y-128700499D01*
X101829991Y-128697585D01*
X101932765Y-128652206D01*
X102012206Y-128572765D01*
X102012207Y-128572762D01*
X102018805Y-128563132D01*
X102020377Y-128564209D01*
X102056980Y-128520872D01*
X102124843Y-128500010D01*
X102126436Y-128500000D01*
X102873564Y-128500000D01*
X102941685Y-128520002D01*
X102979853Y-128564050D01*
X102981195Y-128563132D01*
X102987795Y-128572767D01*
X103067232Y-128652204D01*
X103067234Y-128652205D01*
X103067235Y-128652206D01*
X103170009Y-128697585D01*
X103195135Y-128700500D01*
X104084864Y-128700499D01*
X104109991Y-128697585D01*
X104212765Y-128652206D01*
X104292206Y-128572765D01*
X104337585Y-128469991D01*
X104340500Y-128444865D01*
X104340499Y-126155136D01*
X104337585Y-126130009D01*
X104313928Y-126076430D01*
X104292206Y-126027234D01*
X104212767Y-125947795D01*
X104212765Y-125947794D01*
X104109989Y-125902414D01*
X104100847Y-125899927D01*
X104101297Y-125898271D01*
X104046112Y-125874864D01*
X104006116Y-125816205D01*
X104000000Y-125777427D01*
X104000000Y-125126000D01*
X104020002Y-125057879D01*
X104073658Y-125011386D01*
X104126000Y-125000000D01*
X106874000Y-125000000D01*
X106942121Y-125020002D01*
X106988614Y-125073658D01*
X107000000Y-125126000D01*
X107000000Y-129500000D01*
X106000000Y-130500000D01*
X99052190Y-130500000D01*
X98984069Y-130479998D01*
X98963095Y-130463095D01*
X98036905Y-129536905D01*
X98002879Y-129474593D01*
X98000000Y-129447810D01*
X98000000Y-125126000D01*
X98020002Y-125057879D01*
X98073658Y-125011386D01*
X98126000Y-125000000D01*
X100874000Y-125000000D01*
X100942121Y-125020002D01*
G37*
G04 #@! TD.AperFunction*
G04 #@! TA.AperFunction,Conductor*
G36*
X110442121Y-125020002D02*
G01*
X110488614Y-125073658D01*
X110500000Y-125126000D01*
X110500000Y-125777427D01*
X110479998Y-125845548D01*
X110426342Y-125892041D01*
X110399074Y-125899644D01*
X110399152Y-125899928D01*
X110390005Y-125902416D01*
X110287234Y-125947793D01*
X110207795Y-126027232D01*
X110207794Y-126027234D01*
X110162414Y-126130009D01*
X110159500Y-126155129D01*
X110159500Y-128444859D01*
X110159501Y-128444866D01*
X110162414Y-128469990D01*
X110162416Y-128469994D01*
X110207793Y-128572765D01*
X110287232Y-128652204D01*
X110287234Y-128652205D01*
X110287235Y-128652206D01*
X110390009Y-128697585D01*
X110415135Y-128700500D01*
X111304864Y-128700499D01*
X111329991Y-128697585D01*
X111432765Y-128652206D01*
X111512206Y-128572765D01*
X111512207Y-128572762D01*
X111518805Y-128563132D01*
X111520377Y-128564209D01*
X111556980Y-128520872D01*
X111624843Y-128500010D01*
X111626436Y-128500000D01*
X112373564Y-128500000D01*
X112441685Y-128520002D01*
X112479853Y-128564050D01*
X112481195Y-128563132D01*
X112487795Y-128572767D01*
X112567232Y-128652204D01*
X112567234Y-128652205D01*
X112567235Y-128652206D01*
X112670009Y-128697585D01*
X112695135Y-128700500D01*
X113584864Y-128700499D01*
X113609991Y-128697585D01*
X113712765Y-128652206D01*
X113792206Y-128572765D01*
X113837585Y-128469991D01*
X113840500Y-128444865D01*
X113840499Y-126155136D01*
X113837585Y-126130009D01*
X113813928Y-126076430D01*
X113792206Y-126027234D01*
X113712767Y-125947795D01*
X113712765Y-125947794D01*
X113609989Y-125902414D01*
X113600847Y-125899927D01*
X113601297Y-125898271D01*
X113546112Y-125874864D01*
X113506116Y-125816205D01*
X113500000Y-125777427D01*
X113500000Y-125126000D01*
X113520002Y-125057879D01*
X113573658Y-125011386D01*
X113626000Y-125000000D01*
X116374000Y-125000000D01*
X116442121Y-125020002D01*
X116488614Y-125073658D01*
X116500000Y-125126000D01*
X116500000Y-129500000D01*
X115500000Y-130500000D01*
X108552190Y-130500000D01*
X108484069Y-130479998D01*
X108463095Y-130463095D01*
X107536905Y-129536905D01*
X107502879Y-129474593D01*
X107500000Y-129447810D01*
X107500000Y-125126000D01*
X107520002Y-125057879D01*
X107573658Y-125011386D01*
X107626000Y-125000000D01*
X110374000Y-125000000D01*
X110442121Y-125020002D01*
G37*
G04 #@! TD.AperFunction*
G04 #@! TA.AperFunction,Conductor*
G36*
X119942121Y-125020002D02*
G01*
X119988614Y-125073658D01*
X120000000Y-125126000D01*
X120000000Y-125777427D01*
X119979998Y-125845548D01*
X119926342Y-125892041D01*
X119899074Y-125899644D01*
X119899152Y-125899928D01*
X119890005Y-125902416D01*
X119787234Y-125947793D01*
X119707795Y-126027232D01*
X119707794Y-126027234D01*
X119662414Y-126130009D01*
X119659500Y-126155129D01*
X119659500Y-128444859D01*
X119659501Y-128444866D01*
X119662414Y-128469990D01*
X119662416Y-128469994D01*
X119707793Y-128572765D01*
X119787232Y-128652204D01*
X119787234Y-128652205D01*
X119787235Y-128652206D01*
X119890009Y-128697585D01*
X119915135Y-128700500D01*
X120804864Y-128700499D01*
X120829991Y-128697585D01*
X120932765Y-128652206D01*
X121012206Y-128572765D01*
X121012207Y-128572762D01*
X121018805Y-128563132D01*
X121020377Y-128564209D01*
X121056980Y-128520872D01*
X121124843Y-128500010D01*
X121126436Y-128500000D01*
X121873564Y-128500000D01*
X121941685Y-128520002D01*
X121979853Y-128564050D01*
X121981195Y-128563132D01*
X121987795Y-128572767D01*
X122067232Y-128652204D01*
X122067234Y-128652205D01*
X122067235Y-128652206D01*
X122170009Y-128697585D01*
X122195135Y-128700500D01*
X123084864Y-128700499D01*
X123109991Y-128697585D01*
X123212765Y-128652206D01*
X123292206Y-128572765D01*
X123337585Y-128469991D01*
X123340500Y-128444865D01*
X123340499Y-126155136D01*
X123337585Y-126130009D01*
X123292206Y-126027235D01*
X123292206Y-126027234D01*
X123212767Y-125947795D01*
X123212765Y-125947794D01*
X123109989Y-125902414D01*
X123100847Y-125899927D01*
X123101297Y-125898271D01*
X123046112Y-125874864D01*
X123006116Y-125816205D01*
X123000000Y-125777427D01*
X123000000Y-125126000D01*
X123020002Y-125057879D01*
X123073658Y-125011386D01*
X123126000Y-125000000D01*
X125874000Y-125000000D01*
X125942121Y-125020002D01*
X125988614Y-125073658D01*
X126000000Y-125126000D01*
X126000000Y-129447810D01*
X125979998Y-129515931D01*
X125963095Y-129536905D01*
X125036905Y-130463095D01*
X124974593Y-130497121D01*
X124947810Y-130500000D01*
X118000000Y-130500000D01*
X117000000Y-129500000D01*
X117000000Y-125126000D01*
X117020002Y-125057879D01*
X117073658Y-125011386D01*
X117126000Y-125000000D01*
X119874000Y-125000000D01*
X119942121Y-125020002D01*
G37*
G04 #@! TD.AperFunction*
G04 #@! TA.AperFunction,Conductor*
G36*
X140942121Y-125020002D02*
G01*
X140988614Y-125073658D01*
X141000000Y-125126000D01*
X141000000Y-125777427D01*
X140979998Y-125845548D01*
X140926342Y-125892041D01*
X140899074Y-125899644D01*
X140899152Y-125899928D01*
X140890005Y-125902416D01*
X140787234Y-125947793D01*
X140707795Y-126027232D01*
X140707794Y-126027234D01*
X140662414Y-126130009D01*
X140659500Y-126155129D01*
X140659500Y-128444859D01*
X140659501Y-128444866D01*
X140662414Y-128469990D01*
X140662416Y-128469994D01*
X140707793Y-128572765D01*
X140787232Y-128652204D01*
X140787234Y-128652205D01*
X140787235Y-128652206D01*
X140890009Y-128697585D01*
X140915135Y-128700500D01*
X141804864Y-128700499D01*
X141829991Y-128697585D01*
X141932765Y-128652206D01*
X142012206Y-128572765D01*
X142012207Y-128572762D01*
X142018805Y-128563132D01*
X142020377Y-128564209D01*
X142056980Y-128520872D01*
X142124843Y-128500010D01*
X142126436Y-128500000D01*
X142873564Y-128500000D01*
X142941685Y-128520002D01*
X142979853Y-128564050D01*
X142981195Y-128563132D01*
X142987795Y-128572767D01*
X143067232Y-128652204D01*
X143067234Y-128652205D01*
X143067235Y-128652206D01*
X143170009Y-128697585D01*
X143195135Y-128700500D01*
X144084864Y-128700499D01*
X144109991Y-128697585D01*
X144212765Y-128652206D01*
X144292206Y-128572765D01*
X144337585Y-128469991D01*
X144340500Y-128444865D01*
X144340499Y-126155136D01*
X144337585Y-126130009D01*
X144292206Y-126027235D01*
X144292206Y-126027234D01*
X144212767Y-125947795D01*
X144212765Y-125947794D01*
X144109989Y-125902414D01*
X144100847Y-125899927D01*
X144101297Y-125898271D01*
X144046112Y-125874864D01*
X144006116Y-125816205D01*
X144000000Y-125777427D01*
X144000000Y-125126000D01*
X144020002Y-125057879D01*
X144073658Y-125011386D01*
X144126000Y-125000000D01*
X146874000Y-125000000D01*
X146942121Y-125020002D01*
X146988614Y-125073658D01*
X147000000Y-125126000D01*
X147000000Y-129447810D01*
X146979998Y-129515931D01*
X146963095Y-129536905D01*
X146036905Y-130463095D01*
X145974593Y-130497121D01*
X145947810Y-130500000D01*
X139000000Y-130500000D01*
X138000000Y-129500000D01*
X138000000Y-125126000D01*
X138020002Y-125057879D01*
X138073658Y-125011386D01*
X138126000Y-125000000D01*
X140874000Y-125000000D01*
X140942121Y-125020002D01*
G37*
G04 #@! TD.AperFunction*
G04 #@! TA.AperFunction,Conductor*
G36*
X91442121Y-125020002D02*
G01*
X91488614Y-125073658D01*
X91500000Y-125126000D01*
X91500000Y-125777427D01*
X91479998Y-125845548D01*
X91426342Y-125892041D01*
X91399074Y-125899644D01*
X91399152Y-125899928D01*
X91390005Y-125902416D01*
X91287234Y-125947793D01*
X91207795Y-126027232D01*
X91207794Y-126027234D01*
X91162414Y-126130009D01*
X91159500Y-126155129D01*
X91159500Y-128444859D01*
X91159501Y-128444866D01*
X91162414Y-128469990D01*
X91162416Y-128469994D01*
X91207793Y-128572765D01*
X91287232Y-128652204D01*
X91287234Y-128652205D01*
X91287235Y-128652206D01*
X91390009Y-128697585D01*
X91415135Y-128700500D01*
X92304864Y-128700499D01*
X92329991Y-128697585D01*
X92432765Y-128652206D01*
X92512206Y-128572765D01*
X92512207Y-128572762D01*
X92518805Y-128563132D01*
X92520377Y-128564209D01*
X92556980Y-128520872D01*
X92624843Y-128500010D01*
X92626436Y-128500000D01*
X93373564Y-128500000D01*
X93441685Y-128520002D01*
X93479853Y-128564050D01*
X93481195Y-128563132D01*
X93487795Y-128572767D01*
X93567232Y-128652204D01*
X93567234Y-128652205D01*
X93567235Y-128652206D01*
X93670009Y-128697585D01*
X93695135Y-128700500D01*
X94584864Y-128700499D01*
X94609991Y-128697585D01*
X94712765Y-128652206D01*
X94792206Y-128572765D01*
X94837585Y-128469991D01*
X94840500Y-128444865D01*
X94840499Y-126155136D01*
X94837585Y-126130009D01*
X94792206Y-126027235D01*
X94792206Y-126027234D01*
X94712767Y-125947795D01*
X94712765Y-125947794D01*
X94609989Y-125902414D01*
X94600847Y-125899927D01*
X94601297Y-125898271D01*
X94546112Y-125874864D01*
X94506116Y-125816205D01*
X94500000Y-125777427D01*
X94500000Y-125126000D01*
X94520002Y-125057879D01*
X94573658Y-125011386D01*
X94626000Y-125000000D01*
X97374000Y-125000000D01*
X97442121Y-125020002D01*
X97488614Y-125073658D01*
X97500000Y-125126000D01*
X97500000Y-129447810D01*
X97479998Y-129515931D01*
X97463095Y-129536905D01*
X96536905Y-130463095D01*
X96474593Y-130497121D01*
X96447810Y-130500000D01*
X89500000Y-130500000D01*
X88500000Y-129500000D01*
X88500000Y-125126000D01*
X88520002Y-125057879D01*
X88573658Y-125011386D01*
X88626000Y-125000000D01*
X91374000Y-125000000D01*
X91442121Y-125020002D01*
G37*
G04 #@! TD.AperFunction*
G04 #@! TA.AperFunction,Conductor*
G36*
X176942121Y-125020002D02*
G01*
X176988614Y-125073658D01*
X177000000Y-125126000D01*
X177000000Y-125777427D01*
X176979998Y-125845548D01*
X176926342Y-125892041D01*
X176899074Y-125899644D01*
X176899152Y-125899928D01*
X176890005Y-125902416D01*
X176787234Y-125947793D01*
X176707795Y-126027232D01*
X176707794Y-126027234D01*
X176662414Y-126130009D01*
X176659500Y-126155129D01*
X176659500Y-128444859D01*
X176659501Y-128444866D01*
X176662414Y-128469990D01*
X176662416Y-128469994D01*
X176707793Y-128572765D01*
X176787232Y-128652204D01*
X176787234Y-128652205D01*
X176787235Y-128652206D01*
X176890009Y-128697585D01*
X176915135Y-128700500D01*
X177804864Y-128700499D01*
X177829991Y-128697585D01*
X177932765Y-128652206D01*
X178012206Y-128572765D01*
X178012207Y-128572762D01*
X178018805Y-128563132D01*
X178020377Y-128564209D01*
X178056980Y-128520872D01*
X178124843Y-128500010D01*
X178126436Y-128500000D01*
X178873564Y-128500000D01*
X178941685Y-128520002D01*
X178979853Y-128564050D01*
X178981195Y-128563132D01*
X178987795Y-128572767D01*
X179067232Y-128652204D01*
X179067234Y-128652205D01*
X179067235Y-128652206D01*
X179170009Y-128697585D01*
X179195135Y-128700500D01*
X180084864Y-128700499D01*
X180109991Y-128697585D01*
X180212765Y-128652206D01*
X180292206Y-128572765D01*
X180337585Y-128469991D01*
X180340500Y-128444865D01*
X180340499Y-126155136D01*
X180337585Y-126130009D01*
X180313928Y-126076430D01*
X180292206Y-126027234D01*
X180212767Y-125947795D01*
X180212765Y-125947794D01*
X180109989Y-125902414D01*
X180100847Y-125899927D01*
X180101297Y-125898271D01*
X180046112Y-125874864D01*
X180006116Y-125816205D01*
X180000000Y-125777427D01*
X180000000Y-125126000D01*
X180020002Y-125057879D01*
X180073658Y-125011386D01*
X180126000Y-125000000D01*
X182874000Y-125000000D01*
X182942121Y-125020002D01*
X182988614Y-125073658D01*
X183000000Y-125126000D01*
X183000000Y-129500000D01*
X182000000Y-130500000D01*
X175052190Y-130500000D01*
X174984069Y-130479998D01*
X174963095Y-130463095D01*
X174036905Y-129536905D01*
X174002879Y-129474593D01*
X174000000Y-129447810D01*
X174000000Y-125126000D01*
X174020002Y-125057879D01*
X174073658Y-125011386D01*
X174126000Y-125000000D01*
X176874000Y-125000000D01*
X176942121Y-125020002D01*
G37*
G04 #@! TD.AperFunction*
G04 #@! TA.AperFunction,Conductor*
G36*
X191000376Y-116000383D02*
G01*
X192198589Y-117220896D01*
X192463913Y-117491157D01*
X192497362Y-117553780D01*
X192500000Y-117579427D01*
X192500000Y-124374000D01*
X192479998Y-124442121D01*
X192426342Y-124488614D01*
X192374000Y-124500000D01*
X183626000Y-124500000D01*
X183557879Y-124479998D01*
X183511386Y-124426342D01*
X183500000Y-124374000D01*
X183500000Y-117527916D01*
X185000000Y-116027916D01*
X190999996Y-116000000D01*
X191000376Y-116000383D01*
G37*
G04 #@! TD.AperFunction*
G04 #@! TA.AperFunction,Conductor*
G36*
X173500000Y-117527916D02*
G01*
X173500000Y-124374000D01*
X173479998Y-124442121D01*
X173426342Y-124488614D01*
X173374000Y-124500000D01*
X164626000Y-124500000D01*
X164557879Y-124479998D01*
X164511386Y-124426342D01*
X164500000Y-124374000D01*
X164500000Y-117527916D01*
X166000000Y-116027916D01*
X172000000Y-116027916D01*
X173500000Y-117527916D01*
G37*
G04 #@! TD.AperFunction*
G04 #@! TA.AperFunction,Conductor*
G36*
X167442121Y-125020002D02*
G01*
X167488614Y-125073658D01*
X167500000Y-125126000D01*
X167500000Y-125777427D01*
X167479998Y-125845548D01*
X167426342Y-125892041D01*
X167399074Y-125899644D01*
X167399152Y-125899928D01*
X167390005Y-125902416D01*
X167287234Y-125947793D01*
X167207795Y-126027232D01*
X167207794Y-126027234D01*
X167162414Y-126130009D01*
X167159500Y-126155129D01*
X167159500Y-128444859D01*
X167159501Y-128444866D01*
X167162414Y-128469990D01*
X167162416Y-128469994D01*
X167207793Y-128572765D01*
X167287232Y-128652204D01*
X167287234Y-128652205D01*
X167287235Y-128652206D01*
X167390009Y-128697585D01*
X167415135Y-128700500D01*
X168304864Y-128700499D01*
X168329991Y-128697585D01*
X168432765Y-128652206D01*
X168512206Y-128572765D01*
X168512207Y-128572762D01*
X168518805Y-128563132D01*
X168520377Y-128564209D01*
X168556980Y-128520872D01*
X168624843Y-128500010D01*
X168626436Y-128500000D01*
X169373564Y-128500000D01*
X169441685Y-128520002D01*
X169479853Y-128564050D01*
X169481195Y-128563132D01*
X169487795Y-128572767D01*
X169567232Y-128652204D01*
X169567234Y-128652205D01*
X169567235Y-128652206D01*
X169670009Y-128697585D01*
X169695135Y-128700500D01*
X170584864Y-128700499D01*
X170609991Y-128697585D01*
X170712765Y-128652206D01*
X170792206Y-128572765D01*
X170837585Y-128469991D01*
X170840500Y-128444865D01*
X170840499Y-126155136D01*
X170837585Y-126130009D01*
X170792206Y-126027235D01*
X170792206Y-126027234D01*
X170712767Y-125947795D01*
X170712765Y-125947794D01*
X170609989Y-125902414D01*
X170600847Y-125899927D01*
X170601297Y-125898271D01*
X170546112Y-125874864D01*
X170506116Y-125816205D01*
X170500000Y-125777427D01*
X170500000Y-125126000D01*
X170520002Y-125057879D01*
X170573658Y-125011386D01*
X170626000Y-125000000D01*
X173374000Y-125000000D01*
X173442121Y-125020002D01*
X173488614Y-125073658D01*
X173500000Y-125126000D01*
X173500000Y-129500000D01*
X172500000Y-130500000D01*
X165552190Y-130500000D01*
X165484069Y-130479998D01*
X165463095Y-130463095D01*
X164536905Y-129536905D01*
X164502879Y-129474593D01*
X164500000Y-129447810D01*
X164500000Y-125126000D01*
X164520002Y-125057879D01*
X164573658Y-125011386D01*
X164626000Y-125000000D01*
X167374000Y-125000000D01*
X167442121Y-125020002D01*
G37*
G04 #@! TD.AperFunction*
G04 #@! TA.AperFunction,Conductor*
G36*
X186442121Y-125020002D02*
G01*
X186488614Y-125073658D01*
X186500000Y-125126000D01*
X186500000Y-125777427D01*
X186479998Y-125845548D01*
X186426342Y-125892041D01*
X186399074Y-125899644D01*
X186399152Y-125899928D01*
X186390005Y-125902416D01*
X186287234Y-125947793D01*
X186207795Y-126027232D01*
X186207794Y-126027234D01*
X186162414Y-126130009D01*
X186159500Y-126155129D01*
X186159500Y-128444859D01*
X186159501Y-128444866D01*
X186162414Y-128469990D01*
X186162416Y-128469994D01*
X186207793Y-128572765D01*
X186287232Y-128652204D01*
X186287234Y-128652205D01*
X186287235Y-128652206D01*
X186390009Y-128697585D01*
X186415135Y-128700500D01*
X187304864Y-128700499D01*
X187329991Y-128697585D01*
X187432765Y-128652206D01*
X187512206Y-128572765D01*
X187512207Y-128572762D01*
X187518805Y-128563132D01*
X187520377Y-128564209D01*
X187556980Y-128520872D01*
X187624843Y-128500010D01*
X187626436Y-128500000D01*
X188373564Y-128500000D01*
X188441685Y-128520002D01*
X188479853Y-128564050D01*
X188481195Y-128563132D01*
X188487795Y-128572767D01*
X188567232Y-128652204D01*
X188567234Y-128652205D01*
X188567235Y-128652206D01*
X188670009Y-128697585D01*
X188695135Y-128700500D01*
X189584864Y-128700499D01*
X189609991Y-128697585D01*
X189712765Y-128652206D01*
X189792206Y-128572765D01*
X189837585Y-128469991D01*
X189840500Y-128444865D01*
X189840499Y-126155136D01*
X189837585Y-126130009D01*
X189792206Y-126027235D01*
X189792206Y-126027234D01*
X189712767Y-125947795D01*
X189712765Y-125947794D01*
X189609989Y-125902414D01*
X189600847Y-125899927D01*
X189601297Y-125898271D01*
X189546112Y-125874864D01*
X189506116Y-125816205D01*
X189500000Y-125777427D01*
X189500000Y-125126000D01*
X189520002Y-125057879D01*
X189573658Y-125011386D01*
X189626000Y-125000000D01*
X192374000Y-125000000D01*
X192442121Y-125020002D01*
X192488614Y-125073658D01*
X192500000Y-125126000D01*
X192500000Y-129447810D01*
X192479998Y-129515931D01*
X192463095Y-129536905D01*
X191536905Y-130463095D01*
X191474593Y-130497121D01*
X191447810Y-130500000D01*
X184500000Y-130500000D01*
X183500000Y-129500000D01*
X183500000Y-125126000D01*
X183520002Y-125057879D01*
X183573658Y-125011386D01*
X183626000Y-125000000D01*
X186374000Y-125000000D01*
X186442121Y-125020002D01*
G37*
G04 #@! TD.AperFunction*
G04 #@! TA.AperFunction,Conductor*
G36*
X183000000Y-117527916D02*
G01*
X183000000Y-124374000D01*
X182979998Y-124442121D01*
X182926342Y-124488614D01*
X182874000Y-124500000D01*
X174126000Y-124500000D01*
X174057879Y-124479998D01*
X174011386Y-124426342D01*
X174000000Y-124374000D01*
X174000000Y-117527916D01*
X175500000Y-116027916D01*
X181500000Y-116027916D01*
X183000000Y-117527916D01*
G37*
G04 #@! TD.AperFunction*
G04 #@! TA.AperFunction,Conductor*
G36*
X142500000Y-130500000D02*
G01*
X142500000Y-134947809D01*
X142479998Y-135015930D01*
X142463095Y-135036904D01*
X136250000Y-141249998D01*
X136250000Y-144447810D01*
X136229998Y-144515931D01*
X136213095Y-144536905D01*
X135786905Y-144963095D01*
X135724593Y-144997121D01*
X135697810Y-145000000D01*
X133802190Y-145000000D01*
X133734069Y-144979998D01*
X133713095Y-144963095D01*
X133286905Y-144536905D01*
X133252879Y-144474593D01*
X133250000Y-144447810D01*
X133250000Y-140302190D01*
X133270002Y-140234069D01*
X133286905Y-140213095D01*
X138000000Y-135500000D01*
X138000000Y-129000000D01*
X142500000Y-129000000D01*
X142500000Y-130500000D01*
G37*
G04 #@! TD.AperFunction*
G04 #@! TA.AperFunction,Conductor*
G36*
X136947812Y-106999999D02*
G01*
X137015930Y-107020001D01*
X137036904Y-107036904D01*
X137963095Y-107963095D01*
X137997121Y-108025407D01*
X138000000Y-108052190D01*
X138000000Y-112947809D01*
X137979998Y-113015930D01*
X137963095Y-113036904D01*
X133500000Y-117499998D01*
X133500000Y-122374000D01*
X133479998Y-122442121D01*
X133426342Y-122488614D01*
X133374000Y-122500000D01*
X130000000Y-122500000D01*
X130000000Y-137447809D01*
X129979998Y-137515930D01*
X129963095Y-137536904D01*
X129250000Y-138249998D01*
X129250000Y-144447810D01*
X129229998Y-144515931D01*
X129213095Y-144536905D01*
X128786905Y-144963095D01*
X128724593Y-144997121D01*
X128697810Y-145000000D01*
X123302190Y-145000000D01*
X123234069Y-144979998D01*
X123213095Y-144963095D01*
X122786905Y-144536905D01*
X122752879Y-144474593D01*
X122750000Y-144447810D01*
X122750000Y-139302190D01*
X122770002Y-139234069D01*
X122786905Y-139213095D01*
X126500000Y-135500000D01*
X126500000Y-117052190D01*
X126520002Y-116984069D01*
X126536905Y-116963095D01*
X130000000Y-113500000D01*
X130000000Y-108052190D01*
X130020002Y-107984069D01*
X130036901Y-107963098D01*
X130963095Y-107036896D01*
X131025407Y-107002872D01*
X131052190Y-106999992D01*
X136947812Y-106999999D01*
G37*
G04 #@! TD.AperFunction*
G04 #@! TA.AperFunction,Conductor*
G36*
X179015931Y-107020002D02*
G01*
X179036905Y-107036905D01*
X179963095Y-107963095D01*
X179997121Y-108025407D01*
X180000000Y-108052190D01*
X180000000Y-113500001D01*
X182963095Y-116463095D01*
X182997121Y-116525407D01*
X183000000Y-116552190D01*
X183000000Y-118000000D01*
X174000000Y-118000000D01*
X174000000Y-115000000D01*
X173999999Y-114999998D01*
X172036905Y-113036904D01*
X172002879Y-112974592D01*
X172000000Y-112947809D01*
X172000000Y-108052190D01*
X172020002Y-107984069D01*
X172036905Y-107963095D01*
X172963095Y-107036905D01*
X173025407Y-107002879D01*
X173052190Y-107000000D01*
X178947810Y-107000000D01*
X179015931Y-107020002D01*
G37*
G04 #@! TD.AperFunction*
G04 #@! TA.AperFunction,Conductor*
G36*
X99942121Y-100520002D02*
G01*
X99988614Y-100573658D01*
X100000000Y-100626000D01*
X100000000Y-102000000D01*
X118447810Y-102000000D01*
X118515931Y-102020002D01*
X118536905Y-102036905D01*
X123499998Y-106999999D01*
X123500000Y-107000000D01*
X123500000Y-107500000D01*
X121500000Y-107500000D01*
X121500000Y-106500000D01*
X121499999Y-106499998D01*
X118000001Y-103000000D01*
X118000000Y-103000000D01*
X93626000Y-103000000D01*
X93557879Y-102979998D01*
X93511386Y-102926342D01*
X93500000Y-102874000D01*
X93500000Y-100626000D01*
X93520002Y-100557879D01*
X93573658Y-100511386D01*
X93626000Y-100500000D01*
X99874000Y-100500000D01*
X99942121Y-100520002D01*
G37*
G04 #@! TD.AperFunction*
G04 #@! TA.AperFunction,Conductor*
G36*
X64500000Y-130500000D02*
G01*
X64500000Y-135500001D01*
X67213095Y-138213095D01*
X67247121Y-138275407D01*
X67250000Y-138302190D01*
X67250000Y-144447810D01*
X67229998Y-144515931D01*
X67213095Y-144536905D01*
X66786905Y-144963095D01*
X66724593Y-144997121D01*
X66697810Y-145000000D01*
X64802190Y-145000000D01*
X64734069Y-144979998D01*
X64713095Y-144963095D01*
X64286905Y-144536905D01*
X64252879Y-144474593D01*
X64250000Y-144447810D01*
X64250000Y-141250000D01*
X64249999Y-141249998D01*
X60036905Y-137036904D01*
X60002879Y-136974592D01*
X60000000Y-136947809D01*
X60000000Y-129000000D01*
X64500000Y-129000000D01*
X64500000Y-130500000D01*
G37*
G04 #@! TD.AperFunction*
G04 #@! TA.AperFunction,Conductor*
G36*
X74000000Y-130500000D02*
G01*
X74000000Y-138447809D01*
X73979998Y-138515930D01*
X73963095Y-138536904D01*
X70750000Y-141749998D01*
X70750000Y-144447810D01*
X70729998Y-144515931D01*
X70713095Y-144536905D01*
X70286905Y-144963095D01*
X70224593Y-144997121D01*
X70197810Y-145000000D01*
X68302190Y-145000000D01*
X68234069Y-144979998D01*
X68213095Y-144963095D01*
X67786905Y-144536905D01*
X67752879Y-144474593D01*
X67750000Y-144447810D01*
X67750000Y-138302190D01*
X67770002Y-138234069D01*
X67786905Y-138213095D01*
X69500000Y-136500000D01*
X69500000Y-129000000D01*
X74000000Y-129000000D01*
X74000000Y-130500000D01*
G37*
G04 #@! TD.AperFunction*
G04 #@! TA.AperFunction,Conductor*
G36*
X107000000Y-136000001D02*
G01*
X111713095Y-140713095D01*
X111747121Y-140775407D01*
X111750000Y-140802190D01*
X111750000Y-144447810D01*
X111729998Y-144515931D01*
X111713095Y-144536905D01*
X111286905Y-144963095D01*
X111224593Y-144997121D01*
X111197810Y-145000000D01*
X109302190Y-145000000D01*
X109234069Y-144979998D01*
X109213095Y-144963095D01*
X108786905Y-144536905D01*
X108752879Y-144474593D01*
X108750000Y-144447810D01*
X108750000Y-141750000D01*
X108749999Y-141749998D01*
X102536905Y-135536904D01*
X102502879Y-135474592D01*
X102500000Y-135447809D01*
X102500000Y-130500000D01*
X102500000Y-129000000D01*
X107000000Y-129000000D01*
X107000000Y-136000001D01*
G37*
G04 #@! TD.AperFunction*
G04 #@! TA.AperFunction,Conductor*
G36*
X116500000Y-134947809D02*
G01*
X116479998Y-135015930D01*
X116463095Y-135036904D01*
X115250000Y-136249998D01*
X115250000Y-144447810D01*
X115229998Y-144515931D01*
X115213095Y-144536905D01*
X114786905Y-144963095D01*
X114724593Y-144997121D01*
X114697810Y-145000000D01*
X112802190Y-145000000D01*
X112734069Y-144979998D01*
X112713095Y-144963095D01*
X112286905Y-144536905D01*
X112252879Y-144474593D01*
X112250000Y-144447810D01*
X112250000Y-140250000D01*
X112249999Y-140249998D01*
X112036905Y-140036904D01*
X112002879Y-139974592D01*
X112000000Y-139947809D01*
X112000000Y-130500000D01*
X112000000Y-129000000D01*
X116500000Y-129000000D01*
X116500000Y-134947809D01*
G37*
G04 #@! TD.AperFunction*
G04 #@! TA.AperFunction,Conductor*
G36*
X173500000Y-137000001D02*
G01*
X176713095Y-140213095D01*
X176747121Y-140275407D01*
X176750000Y-140302190D01*
X176750000Y-144447810D01*
X176729998Y-144515931D01*
X176713095Y-144536905D01*
X176286905Y-144963095D01*
X176224593Y-144997121D01*
X176197810Y-145000000D01*
X174302190Y-145000000D01*
X174234069Y-144979998D01*
X174213095Y-144963095D01*
X173786905Y-144536905D01*
X173752879Y-144474593D01*
X173750000Y-144447810D01*
X173750000Y-142750000D01*
X173749999Y-142749998D01*
X169036905Y-138036904D01*
X169002879Y-137974592D01*
X169000000Y-137947809D01*
X169000000Y-130500000D01*
X169000000Y-129000000D01*
X173500000Y-129000000D01*
X173500000Y-137000001D01*
G37*
G04 #@! TD.AperFunction*
G04 #@! TA.AperFunction,Conductor*
G36*
X204515931Y-107020002D02*
G01*
X204536905Y-107036905D01*
X205463095Y-107963095D01*
X205497121Y-108025407D01*
X205500000Y-108052190D01*
X205500000Y-112947809D01*
X205479998Y-113015930D01*
X205463095Y-113036904D01*
X204000000Y-114499998D01*
X204000000Y-137947809D01*
X203979998Y-138015930D01*
X203963095Y-138036904D01*
X201250000Y-140749998D01*
X201250000Y-144447810D01*
X201229998Y-144515931D01*
X201213095Y-144536905D01*
X200786905Y-144963095D01*
X200724593Y-144997121D01*
X200697810Y-145000000D01*
X198802190Y-145000000D01*
X198734069Y-144979998D01*
X198713095Y-144963095D01*
X198286905Y-144536905D01*
X198252879Y-144474593D01*
X198250000Y-144447810D01*
X198250000Y-137302190D01*
X198270002Y-137234069D01*
X198286905Y-137213095D01*
X200500000Y-135000000D01*
X200500000Y-122500000D01*
X197126000Y-122500000D01*
X197057879Y-122479998D01*
X197011386Y-122426342D01*
X197000000Y-122374000D01*
X197000000Y-114052190D01*
X197020002Y-113984069D01*
X197036900Y-113963099D01*
X197500000Y-113500000D01*
X197500000Y-108052190D01*
X197520002Y-107984069D01*
X197536905Y-107963095D01*
X198463095Y-107036905D01*
X198525407Y-107002879D01*
X198552190Y-107000000D01*
X204447810Y-107000000D01*
X204515931Y-107020002D01*
G37*
G04 #@! TD.AperFunction*
G04 #@! TA.AperFunction,Conductor*
G36*
X188000000Y-130500000D02*
G01*
X188000000Y-140947809D01*
X187979998Y-141015930D01*
X187963095Y-141036904D01*
X187250000Y-141749998D01*
X187250000Y-144447810D01*
X187229998Y-144515931D01*
X187213095Y-144536905D01*
X186786905Y-144963095D01*
X186724593Y-144997121D01*
X186697810Y-145000000D01*
X184802190Y-145000000D01*
X184734069Y-144979998D01*
X184713095Y-144963095D01*
X184286905Y-144536905D01*
X184252879Y-144474593D01*
X184250000Y-144447810D01*
X184250000Y-137250000D01*
X184249999Y-137249998D01*
X183536905Y-136536904D01*
X183502879Y-136474592D01*
X183500000Y-136447809D01*
X183500000Y-129000000D01*
X188000000Y-129000000D01*
X188000000Y-130500000D01*
G37*
G04 #@! TD.AperFunction*
G04 #@! TA.AperFunction,Conductor*
G36*
X187515931Y-107020002D02*
G01*
X187536905Y-107036905D01*
X188463095Y-107963095D01*
X188497121Y-108025407D01*
X188500000Y-108052190D01*
X188500000Y-113500001D01*
X190999558Y-115999558D01*
X191000000Y-116000003D01*
X191000000Y-118000000D01*
X183500000Y-118000000D01*
X183500000Y-116000000D01*
X183499999Y-115999998D01*
X180536905Y-113036904D01*
X180502879Y-112974592D01*
X180500000Y-112947809D01*
X180500000Y-108052190D01*
X180520002Y-107984069D01*
X180536905Y-107963095D01*
X181463095Y-107036905D01*
X181525407Y-107002879D01*
X181552190Y-107000000D01*
X187447810Y-107000000D01*
X187515931Y-107020002D01*
G37*
G04 #@! TD.AperFunction*
G04 #@! TA.AperFunction,Conductor*
G36*
X150015931Y-93020002D02*
G01*
X150036905Y-93036905D01*
X152499998Y-95499999D01*
X152500000Y-95500000D01*
X157500000Y-95500000D01*
X159963095Y-93036905D01*
X160025407Y-93002880D01*
X160052190Y-93000000D01*
X203947810Y-93000000D01*
X204015931Y-93020002D01*
X204036905Y-93036905D01*
X204963095Y-93963095D01*
X204997121Y-94025407D01*
X205000000Y-94052190D01*
X205000000Y-99947810D01*
X204979998Y-100015931D01*
X204963095Y-100036905D01*
X199036905Y-105963095D01*
X198974593Y-105997121D01*
X198947810Y-106000000D01*
X163999998Y-106000000D01*
X162500000Y-107499998D01*
X162500000Y-109447810D01*
X162479998Y-109515931D01*
X162463095Y-109536905D01*
X161536905Y-110463095D01*
X161474593Y-110497121D01*
X161447810Y-110500000D01*
X155999998Y-110500000D01*
X155000000Y-111499998D01*
X155000000Y-113947810D01*
X154979998Y-114015931D01*
X154963095Y-114036905D01*
X154036905Y-114963095D01*
X153974593Y-114997121D01*
X153947810Y-115000000D01*
X150052190Y-115000000D01*
X149984069Y-114979998D01*
X149963095Y-114963095D01*
X147536905Y-112536905D01*
X147502879Y-112474593D01*
X147500000Y-112447810D01*
X147500000Y-107500000D01*
X147499999Y-107499998D01*
X146000001Y-106000000D01*
X146000000Y-106000000D01*
X124052190Y-106000000D01*
X123984069Y-105979998D01*
X123963095Y-105963095D01*
X121000001Y-103000000D01*
X151844536Y-103000000D01*
X151864376Y-103353295D01*
X151923648Y-103702150D01*
X152021611Y-104042188D01*
X152157024Y-104369103D01*
X152157027Y-104369108D01*
X152328189Y-104678804D01*
X152532956Y-104967396D01*
X152532961Y-104967403D01*
X152634931Y-105081506D01*
X152768750Y-105231250D01*
X152936311Y-105380992D01*
X153032596Y-105467038D01*
X153032603Y-105467043D01*
X153321195Y-105671810D01*
X153414812Y-105723550D01*
X153630895Y-105842975D01*
X153957816Y-105978390D01*
X154297843Y-106076350D01*
X154646700Y-106135623D01*
X154911608Y-106150500D01*
X154911621Y-106150500D01*
X155088379Y-106150500D01*
X155088392Y-106150500D01*
X155353300Y-106135623D01*
X155702157Y-106076350D01*
X156042184Y-105978390D01*
X156369105Y-105842975D01*
X156678808Y-105671808D01*
X156967400Y-105467041D01*
X157231250Y-105231250D01*
X157467041Y-104967400D01*
X157671808Y-104678808D01*
X157842975Y-104369105D01*
X157978390Y-104042184D01*
X158076350Y-103702157D01*
X158135623Y-103353300D01*
X158155464Y-103000000D01*
X158135623Y-102646700D01*
X158076350Y-102297843D01*
X157978390Y-101957816D01*
X157842975Y-101630895D01*
X157671808Y-101321192D01*
X157467041Y-101032600D01*
X157467040Y-101032599D01*
X157467038Y-101032596D01*
X157380992Y-100936311D01*
X157231250Y-100768750D01*
X157081506Y-100634931D01*
X156967403Y-100532961D01*
X156967396Y-100532956D01*
X156678804Y-100328189D01*
X156462725Y-100208767D01*
X156369105Y-100157025D01*
X156369103Y-100157024D01*
X156042188Y-100021611D01*
X155702150Y-99923648D01*
X155353294Y-99864376D01*
X155353296Y-99864376D01*
X155088401Y-99849500D01*
X155088392Y-99849500D01*
X154911608Y-99849500D01*
X154911598Y-99849500D01*
X154646704Y-99864376D01*
X154297849Y-99923648D01*
X153957811Y-100021611D01*
X153630896Y-100157024D01*
X153630891Y-100157027D01*
X153321195Y-100328189D01*
X153032603Y-100532956D01*
X153032596Y-100532961D01*
X152768750Y-100768750D01*
X152532961Y-101032596D01*
X152532956Y-101032603D01*
X152328189Y-101321195D01*
X152157027Y-101630891D01*
X152157024Y-101630896D01*
X152021611Y-101957811D01*
X151923648Y-102297849D01*
X151864376Y-102646704D01*
X151844536Y-103000000D01*
X121000001Y-103000000D01*
X119000001Y-101000000D01*
X119000000Y-101000000D01*
X106052190Y-101000000D01*
X105984069Y-100979998D01*
X105963095Y-100963095D01*
X105036905Y-100036905D01*
X105002879Y-99974593D01*
X105000000Y-99947810D01*
X105000000Y-94052190D01*
X105020002Y-93984069D01*
X105036905Y-93963095D01*
X105963095Y-93036905D01*
X106025407Y-93002879D01*
X106052190Y-93000000D01*
X149947810Y-93000000D01*
X150015931Y-93020002D01*
G37*
G04 #@! TD.AperFunction*
G04 #@! TA.AperFunction,Conductor*
G36*
X145515931Y-107047918D02*
G01*
X145536905Y-107064821D01*
X146463095Y-107991011D01*
X146497121Y-108053323D01*
X146500000Y-108080106D01*
X146500000Y-117027916D01*
X146963096Y-117491012D01*
X146997120Y-117553323D01*
X147000000Y-117580106D01*
X147000000Y-124374370D01*
X146979998Y-124442491D01*
X146926342Y-124488984D01*
X146874370Y-124500369D01*
X137500000Y-124527915D01*
X137500000Y-134975725D01*
X137479998Y-135043846D01*
X137463095Y-135064820D01*
X132750000Y-139777914D01*
X132750000Y-144475726D01*
X132729998Y-144543847D01*
X132713095Y-144564821D01*
X132286905Y-144991011D01*
X132224593Y-145025037D01*
X132197810Y-145027916D01*
X130302190Y-145027916D01*
X130234069Y-145007914D01*
X130213095Y-144991011D01*
X129786905Y-144564821D01*
X129752879Y-144502509D01*
X129750000Y-144475726D01*
X129750000Y-138830106D01*
X129770002Y-138761985D01*
X129786900Y-138741015D01*
X130500000Y-138027916D01*
X130500000Y-130653916D01*
X130520002Y-130585795D01*
X130573658Y-130539302D01*
X130626000Y-130527916D01*
X134000000Y-130527916D01*
X134000000Y-118080106D01*
X134020002Y-118011985D01*
X134036905Y-117991011D01*
X138500000Y-113527916D01*
X138500000Y-108080106D01*
X138520002Y-108011985D01*
X138536905Y-107991011D01*
X139463095Y-107064821D01*
X139525407Y-107030795D01*
X139552190Y-107027916D01*
X145447810Y-107027916D01*
X145515931Y-107047918D01*
G37*
G04 #@! TD.AperFunction*
G04 #@! TA.AperFunction,Conductor*
G36*
X121500000Y-130500000D02*
G01*
X121500000Y-135500000D01*
X121963096Y-135963096D01*
X121997120Y-136025407D01*
X122000000Y-136052190D01*
X122000000Y-139447809D01*
X121979998Y-139515930D01*
X121963095Y-139536904D01*
X118750000Y-142749998D01*
X118750000Y-144447810D01*
X118729998Y-144515931D01*
X118713095Y-144536905D01*
X118286905Y-144963095D01*
X118224593Y-144997121D01*
X118197810Y-145000000D01*
X116302190Y-145000000D01*
X116234069Y-144979998D01*
X116213095Y-144963095D01*
X115786905Y-144536905D01*
X115752879Y-144474593D01*
X115750000Y-144447810D01*
X115750000Y-136802190D01*
X115770002Y-136734069D01*
X115786905Y-136713095D01*
X117000000Y-135500000D01*
X117000000Y-129000000D01*
X121500000Y-129000000D01*
X121500000Y-130500000D01*
G37*
G04 #@! TD.AperFunction*
G04 #@! TA.AperFunction,Conductor*
G36*
X93000000Y-130500000D02*
G01*
X93000000Y-135947810D01*
X92979998Y-136015931D01*
X92963095Y-136036905D01*
X90536905Y-138463095D01*
X90474593Y-138497121D01*
X90447810Y-138500000D01*
X87999998Y-138500000D01*
X83536905Y-142963095D01*
X83474593Y-142997121D01*
X83447810Y-143000000D01*
X78999998Y-143000000D01*
X77000000Y-144999998D01*
X77000000Y-145947810D01*
X76979998Y-146015931D01*
X76963095Y-146036905D01*
X74786905Y-148213095D01*
X74724593Y-148247121D01*
X74697810Y-148250000D01*
X71802190Y-148250000D01*
X71734069Y-148229998D01*
X71713095Y-148213095D01*
X71286905Y-147786905D01*
X71252879Y-147724593D01*
X71250000Y-147697810D01*
X71250000Y-146052190D01*
X71270002Y-145984069D01*
X71286905Y-145963095D01*
X71713095Y-145536905D01*
X71775407Y-145502879D01*
X71802190Y-145500000D01*
X74000000Y-145500000D01*
X79463095Y-140036905D01*
X79525407Y-140002879D01*
X79552190Y-140000000D01*
X81000000Y-140000000D01*
X84963095Y-136036905D01*
X85025407Y-136002879D01*
X85052190Y-136000000D01*
X88000000Y-136000000D01*
X88500000Y-135500000D01*
X88500000Y-129000000D01*
X93000000Y-129000000D01*
X93000000Y-130500000D01*
G37*
G04 #@! TD.AperFunction*
G04 #@! TA.AperFunction,Conductor*
G36*
X83500000Y-130500000D02*
G01*
X83500000Y-136447810D01*
X83479998Y-136515931D01*
X83463095Y-136536905D01*
X80536905Y-139463095D01*
X80474593Y-139497121D01*
X80447810Y-139500000D01*
X78999998Y-139500000D01*
X73536905Y-144963095D01*
X73474593Y-144997121D01*
X73447810Y-145000000D01*
X71802190Y-145000000D01*
X71734069Y-144979998D01*
X71713095Y-144963095D01*
X71286905Y-144536905D01*
X71252879Y-144474593D01*
X71250000Y-144447810D01*
X71250000Y-142302190D01*
X71270002Y-142234069D01*
X71286905Y-142213095D01*
X77463095Y-136036905D01*
X77525407Y-136002879D01*
X77552190Y-136000000D01*
X78500000Y-136000000D01*
X79000000Y-135500000D01*
X79000000Y-129000000D01*
X83500000Y-129000000D01*
X83500000Y-130500000D01*
G37*
G04 #@! TD.AperFunction*
G04 #@! TA.AperFunction,Conductor*
G36*
X170515931Y-107020002D02*
G01*
X170536905Y-107036905D01*
X171463095Y-107963095D01*
X171497121Y-108025407D01*
X171500000Y-108052190D01*
X171500000Y-113500001D01*
X173463095Y-115463095D01*
X173497120Y-115525407D01*
X173500000Y-115552190D01*
X173500000Y-118000000D01*
X164500000Y-118000000D01*
X164500000Y-114000000D01*
X164499999Y-113999998D01*
X163536905Y-113036904D01*
X163502879Y-112974592D01*
X163500000Y-112947809D01*
X163500000Y-108052190D01*
X163520002Y-107984069D01*
X163536905Y-107963095D01*
X164463095Y-107036905D01*
X164525407Y-107002879D01*
X164552190Y-107000000D01*
X170447810Y-107000000D01*
X170515931Y-107020002D01*
G37*
G04 #@! TD.AperFunction*
G04 #@! TA.AperFunction,Conductor*
G36*
X196015931Y-107020002D02*
G01*
X196036905Y-107036905D01*
X196963095Y-107963095D01*
X196997121Y-108025407D01*
X197000000Y-108052190D01*
X197000000Y-112947809D01*
X196979998Y-113015930D01*
X196963095Y-113036904D01*
X196500000Y-113499998D01*
X196500000Y-113500000D01*
X196500000Y-130500000D01*
X199874000Y-130500000D01*
X199942121Y-130520002D01*
X199988614Y-130573658D01*
X200000000Y-130626000D01*
X200000000Y-134447809D01*
X199979998Y-134515930D01*
X199963095Y-134536904D01*
X197750000Y-136749998D01*
X197750000Y-144447810D01*
X197729998Y-144515931D01*
X197713095Y-144536905D01*
X197286905Y-144963095D01*
X197224593Y-144997121D01*
X197197810Y-145000000D01*
X191802190Y-145000000D01*
X191734069Y-144979998D01*
X191713095Y-144963095D01*
X191286905Y-144536905D01*
X191252879Y-144474593D01*
X191250000Y-144447810D01*
X191250000Y-138302190D01*
X191270002Y-138234069D01*
X191286905Y-138213095D01*
X193000000Y-136500000D01*
X193000000Y-117000000D01*
X192999999Y-116999998D01*
X189036905Y-113036904D01*
X189002879Y-112974592D01*
X189000000Y-112947809D01*
X189000000Y-108052190D01*
X189020002Y-107984069D01*
X189036905Y-107963095D01*
X189963095Y-107036905D01*
X190025407Y-107002879D01*
X190052190Y-107000000D01*
X195947810Y-107000000D01*
X196015931Y-107020002D01*
G37*
G04 #@! TD.AperFunction*
G04 #@! TA.AperFunction,Conductor*
G36*
X183000000Y-137000000D02*
G01*
X183713096Y-137713096D01*
X183747120Y-137775407D01*
X183750000Y-137802190D01*
X183750000Y-144447810D01*
X183729998Y-144515931D01*
X183713095Y-144536905D01*
X183286905Y-144963095D01*
X183224593Y-144997121D01*
X183197810Y-145000000D01*
X177802190Y-145000000D01*
X177734069Y-144979998D01*
X177713095Y-144963095D01*
X177286905Y-144536905D01*
X177252879Y-144474593D01*
X177250000Y-144447810D01*
X177250000Y-140302190D01*
X177270002Y-140234069D01*
X177286905Y-140213095D01*
X178500000Y-139000000D01*
X178500000Y-130500000D01*
X178500000Y-129000000D01*
X183000000Y-129000000D01*
X183000000Y-137000000D01*
G37*
G04 #@! TD.AperFunction*
M02*
